<svg width="209" height="210" viewBox="0 0 209 210" fill="none" xmlns="http://www.w3.org/2000/svg">
<path d="M208.5 106C208.5 126.45 203.221 144.597 193.5 161C174.342 193.327 145.801 209.5 105.5 209.5C83.5776 209.5 65.6531 203.552 48.5 192.5C18.1184 172.924 0 144.829 0 106C0 87.3927 0.120062 69.8645 8.27563 54.5C26.7474 19.7004 63.3559 0.5 105.5 0.5C119.422 0.5 131.24 1.78146 143.5 6.5C184.737 22.3715 208.5 59.1709 208.5 106Z" fill="#FFEBBC"/>
<path d="M104.107 167.036C141.783 167.036 172.324 138.151 172.324 102.518C172.324 66.8858 141.783 38 104.107 38C66.4321 38 35.8903 66.8858 35.8903 102.518C35.8903 138.151 66.4321 167.036 104.107 167.036Z" fill="white" stroke="#525375" stroke-width="2" stroke-miterlimit="10"/>
<path d="M99.3157 110.53C101.007 115.233 106.082 117.371 110.733 115.66C115.385 113.95 117.499 108.819 115.808 104.116C114.116 99.4126 109.042 97.2747 104.39 98.985C99.7386 100.695 97.4128 105.826 99.3157 110.53Z" fill="#525375" stroke="#5C5DB1" stroke-miterlimit="10"/>
<path d="M106.837 57.218C109.851 57.218 112.294 54.7596 112.294 51.7271C112.294 48.6945 109.851 46.2361 106.837 46.2361C103.823 46.2361 101.38 48.6945 101.38 51.7271C101.38 54.7596 103.823 57.218 106.837 57.218Z" fill="#525375"/>
<path d="M106.837 161.545C111.358 161.545 115.023 157.858 115.023 153.309C115.023 148.76 111.358 145.073 106.837 145.073C102.316 145.073 98.6508 148.76 98.6508 153.309C98.6508 157.858 102.316 161.545 106.837 161.545Z" fill="#525375"/>
<path d="M155.953 103.891C158.967 103.891 161.41 101.432 161.41 98.3996C161.41 95.367 158.967 92.9087 155.953 92.9087C152.939 92.9087 150.495 95.367 150.495 98.3996C150.495 101.432 152.939 103.891 155.953 103.891Z" fill="#525375"/>
<path d="M54.9914 108.009C57.2519 108.009 59.0844 106.165 59.0844 103.891C59.0844 101.616 57.2519 99.7723 54.9914 99.7723C52.7309 99.7723 50.8984 101.616 50.8984 103.891C50.8984 106.165 52.7309 108.009 54.9914 108.009Z" fill="#525375"/>
<path d="M142.31 72.3181C144.57 72.3181 146.403 70.4744 146.403 68.1999C146.403 65.9255 144.57 64.0818 142.31 64.0818C140.049 64.0818 138.217 65.9255 138.217 68.1999C138.217 70.4744 140.049 72.3181 142.31 72.3181Z" fill="#525375"/>
<path d="M69.9996 145.073C72.2601 145.073 74.0926 143.229 74.0926 140.954C74.0926 138.68 72.2601 136.836 69.9996 136.836C67.739 136.836 65.9065 138.68 65.9065 140.954C65.9065 143.229 67.739 145.073 69.9996 145.073Z" fill="#525375"/>
<path d="M145.037 139.582C148.804 139.582 151.859 136.509 151.859 132.718C151.859 128.927 148.804 125.855 145.037 125.855C141.269 125.855 138.215 128.927 138.215 132.718C138.215 136.509 141.269 139.582 145.037 139.582Z" fill="#525375"/>
<path d="M69.9982 73.6909C73.7657 73.6909 76.8199 70.6179 76.8199 66.8272C76.8199 63.0366 73.7657 59.9636 69.9982 59.9636C66.2307 59.9636 63.1765 63.0366 63.1765 66.8272C63.1765 70.6179 66.2307 73.6909 69.9982 73.6909Z" fill="#525375"/>
<path d="M111.534 108.567C110.468 112.395 108.641 115.917 105.9 119.133C103.159 122.349 99.5041 124.952 95.0879 126.483C90.8239 128.014 85.494 128.321 81.2301 127.249C76.9662 126.33 73.616 124.952 70.8749 124.033C68.1338 123.114 65.7658 121.736 63.177 121.736C60.5882 121.736 58.2354 121.889 55.342 122.808C52.601 123.727 49.403 126.33 46.5096 128.014C43.6163 129.546 40.7229 131.383 37.525 133.221C36.459 133.833 35.2407 133.527 34.6316 132.455C34.327 131.843 34.327 131.077 34.4793 130.464C36.1544 127.096 38.1341 123.88 40.7229 120.971C43.3117 118.061 46.2051 115.305 49.7076 113.161C51.535 112.089 53.3624 111.17 55.342 110.252C57.3217 109.486 59.606 108.873 61.7379 108.567C62.8039 108.414 64.0222 108.261 65.0881 108.261C66.1541 108.261 67.3724 108.261 68.4384 108.261C70.7226 108.414 72.8546 108.873 74.8342 109.333C78.7936 110.405 81.9915 111.783 84.5803 112.395C87.1692 113.161 89.1488 113.467 91.5854 113.161C94.0219 113.008 96.763 112.242 99.5041 111.017C102.245 109.792 105.139 107.955 108.184 105.964C109.25 105.352 110.468 105.658 111.078 106.577C111.534 107.495 111.687 108.108 111.534 108.567Z" fill="#525375"/>
<path d="M109.165 105.825C105.557 102.146 103.516 97.1067 103.133 91.5368C102.711 86.1176 104.089 80.2046 107.098 75.0404C110.067 70.0269 115.094 65.874 120.494 64.3927C125.893 62.9114 131.356 63.5378 135.728 66.6136C136.504 67.1386 136.555 68.1172 136.037 68.9466C135.816 69.2106 135.635 69.324 135.454 69.4373C131.179 71.8569 127.915 73.8975 125.363 76.1246C122.81 78.3517 121.151 80.6519 119.414 83.2534C117.819 85.8921 116.431 88.9068 115.211 92.448C114.6 94.2187 114.094 96.1772 113.445 98.0985C112.899 100.208 112.495 102.354 111.872 104.765L111.833 104.915C111.599 105.819 110.731 106.236 109.877 106.012C109.696 106.125 109.411 106.051 109.165 105.825Z" fill="#525375"/>
<path d="M134.661 59.1053L144.596 64.0949L154.531 69.0845L144.15 73.0498L133.623 76.9767C132.593 77.3434 131.463 76.8884 131.11 75.8411C131.041 75.5047 130.972 75.1684 131.05 74.8703L132.443 63.4581L131.89 72.2256L132.145 60.9928C132.123 59.873 133.123 59.0209 134.077 58.9523C134.077 58.9523 134.369 59.0288 134.661 59.1053Z" fill="#525375"/>
<path d="M32.4688 129.704L31.4091 130.45L32.2632 129.572L39.6627 134.07C40.2793 134.467 40.4849 135.261 40.1766 136.055C40.0738 136.32 39.971 136.452 39.7655 136.585L33.2909 142.804L22.5 152.992L27.8441 138.04L30.5161 130.498C30.8244 129.704 31.5438 129.307 32.2632 129.704C32.366 129.572 32.4688 129.704 32.4688 129.704Z" fill="#525375"/>
</svg>
