<svg width="210" height="211" viewBox="0 0 210 211" fill="none" xmlns="http://www.w3.org/2000/svg">
<path d="M209.5 105.5C209.5 123.106 207.353 140.245 200 155C190.434 174.195 177.933 185.207 159.5 196C143.208 205.539 126.243 210.5 106 210.5C90.3557 210.5 75.9742 206.38 62.5 200.493C43.2709 192.091 26.408 184.205 14.7849 167C2.92506 149.444 0 128.281 0 105.5C0 70.8775 13.9956 44.1637 39 24C57.8702 8.78291 79.8712 0 106 0C132.129 0 154.63 8.78291 173.5 24C198.504 44.1637 209.5 70.8775 209.5 105.5Z" fill="#FFEBBC"/>
<path d="M47.5367 120.966C41.5964 105.425 38.1471 96.4071 41.1173 88.4446C46.1953 75.1098 67.5614 70.4091 81.2625 72.1359C90.0772 73.2871 103.012 77.9879 105.503 83.0723C105.695 83.552 106.653 85.5666 108.09 85.6625C109.814 85.7585 111.252 83.0723 111.635 82.4967C115.276 76.357 128.402 71.7522 133.959 70.6969C146.319 68.3945 163.182 75.1099 168.643 87.5812C177.266 106.96 153.792 129.696 151.78 131.615C137.408 145.237 116.809 141.304 97.8379 141.208C77.9091 141.016 59.8964 143.99 52.998 133.246C50.9859 129.984 49.1655 125.379 47.5367 120.966Z" fill="white" stroke="#525375" stroke-width="2" stroke-miterlimit="10" stroke-linecap="round" stroke-linejoin="round"/>
<path d="M106.464 143.414H168.933V131.135C168.933 126.818 165.388 123.268 161.076 123.268C154.753 124.515 146.8 125.57 137.602 125.57C128.5 125.57 120.644 124.515 114.32 123.268C113.841 123.268 110.967 123.364 108.763 125.57C107.326 127.01 106.464 128.928 106.464 131.135V143.414Z" fill="white" stroke="#525375" stroke-width="2" stroke-miterlimit="10" stroke-linecap="round" stroke-linejoin="round"/>
<path d="M43.9931 143.414H106.462V131.135C106.462 126.818 102.917 123.268 98.6059 123.268C92.0907 124.419 84.2341 125.379 75.1319 125.379C66.2214 125.379 58.3649 124.419 51.8496 123.268C51.3706 123.268 48.4962 123.364 46.2926 125.57C44.8554 127.01 43.9931 128.928 43.9931 131.135V143.414Z" fill="white" stroke="#525375" stroke-width="2" stroke-miterlimit="10" stroke-linecap="round" stroke-linejoin="round"/>
<path d="M43.9931 143.589H56.0654C55.0114 145.028 53.3826 147.81 52.8078 151.743C52.4245 154.525 52.6161 156.923 52.9994 158.458C50.0292 158.458 47.0591 158.458 44.0889 158.458V143.589H43.9931Z" fill="white" stroke="#525375" stroke-width="2" stroke-miterlimit="10" stroke-linecap="round" stroke-linejoin="round"/>
<path d="M156.86 143.589H168.933V158.362C165.867 158.362 162.896 158.266 159.83 158.266C159.926 156.444 159.926 154.045 159.447 151.455C158.872 148.098 157.818 145.411 156.86 143.589Z" fill="white" stroke="#525375" stroke-width="2" stroke-miterlimit="10" stroke-linecap="round" stroke-linejoin="round"/>
<path d="M48.9765 127.107C55.5909 127.107 60.953 121.738 60.953 115.115C60.953 108.492 55.5909 103.123 48.9765 103.123C42.3621 103.123 37 108.492 37 115.115C37 121.738 42.3621 127.107 48.9765 127.107Z" fill="white" stroke="#525375" stroke-width="2" stroke-miterlimit="10" stroke-linecap="round" stroke-linejoin="round"/>
<path d="M161.458 127.107C168.072 127.107 173.434 121.738 173.434 115.115C173.434 108.492 168.072 103.123 161.458 103.123C154.843 103.123 149.481 108.492 149.481 115.115C149.481 121.738 154.843 127.107 161.458 127.107Z" fill="white" stroke="#525375" stroke-width="2" stroke-miterlimit="10" stroke-linecap="round" stroke-linejoin="round"/>
<path d="M122.35 57.5727C124.276 50.161 114.689 45.1288 113.041 44.2539C110.845 43.0873 109.347 42.3211 107.844 42.8412C102.235 44.7829 99.6221 63.1926 106.514 66.2668C111.11 68.2091 120.677 64.0938 122.35 57.5727Z" fill="#525375" stroke="#525375" stroke-width="2" stroke-miterlimit="10" stroke-linecap="round" stroke-linejoin="round"/>
<path d="M150.393 43.0071C148.805 42.5357 146.402 44.7346 141.499 49.0984C136.227 53.8931 133.53 56.3092 134.183 58.5314C135.513 62.9046 145.032 67.6465 150.194 66.3261C158.953 64.0992 155.326 44.5604 150.393 43.0071Z" fill="#525375" stroke="#525375" stroke-width="2" stroke-miterlimit="10" stroke-linecap="round" stroke-linejoin="round"/>
<path d="M116.581 130.661H141.972C148.295 130.661 153.469 125.48 153.469 119.149V66.8649C153.469 60.5333 148.295 55.3529 141.972 55.3529H116.581C110.258 55.3529 105.084 60.5333 105.084 66.8649V119.149C105.084 125.48 110.258 130.661 116.581 130.661Z" fill="#525375" stroke="#525375" stroke-width="2" stroke-miterlimit="10" stroke-linecap="round" stroke-linejoin="round"/>
<path d="M121.92 89.6646C129.608 89.6646 135.841 83.4239 135.841 75.7255C135.841 68.0271 129.608 61.7864 121.92 61.7864C114.231 61.7864 107.998 68.0271 107.998 75.7255C107.998 83.4239 114.231 89.6646 121.92 89.6646Z" fill="white"/>
<path d="M140.191 87.1078C146.805 87.1078 152.167 81.739 152.167 75.1162C152.167 68.4933 146.805 63.1245 140.191 63.1245C133.577 63.1245 128.214 68.4933 128.214 75.1162C128.214 81.739 133.577 87.1078 140.191 87.1078Z" fill="white"/>
<path d="M133.707 89.621C135.629 89.621 137.187 90.5811 137.187 91.7655C137.187 92.9498 135.629 95.1967 133.707 95.1967C131.785 95.1967 130.227 92.9498 130.227 91.7655C130.227 90.5811 131.785 89.621 133.707 89.621Z" fill="white"/>
<path d="M140.19 79.3365C142.518 79.3365 144.406 77.4466 144.406 75.1154C144.406 72.7842 142.518 70.8943 140.19 70.8943C137.862 70.8943 135.974 72.7842 135.974 75.1154C135.974 77.4466 137.862 79.3365 140.19 79.3365Z" fill="#525375"/>
<path d="M121.671 79.7204C123.999 79.7204 125.886 77.8306 125.886 75.4994C125.886 73.1681 123.999 71.2783 121.671 71.2783C119.342 71.2783 117.455 73.1681 117.455 75.4994C117.455 77.8306 119.342 79.7204 121.671 79.7204Z" fill="#525375"/>
<path d="M110.557 119.78C105.785 126.511 97.7622 128.762 92.3905 125.996C84.1068 121.78 85.1251 107.453 89.7971 102.356C90.1096 102.049 92.8622 99.0902 94.7503 99.8884C96.0844 100.443 96.3923 102.506 96.5274 103.369C97.1654 107.349 94.8605 108.912 94.3593 113.39C94.224 114.478 93.7628 119.083 95.9477 121.042C98.2967 123.089 103.525 121.928 108.618 117.952L110.557 119.78Z" fill="#525375" stroke="#525375" stroke-width="2" stroke-miterlimit="10" stroke-linecap="round" stroke-linejoin="round"/>
</svg>
