<svg width="225" height="215" viewBox="0 0 225 215" fill="none" xmlns="http://www.w3.org/2000/svg">
<path d="M224.5 99.4254C224.5 117.039 226.36 143.165 219 157.925C200.975 194.073 147.637 214.425 104.5 214.425C43.7487 214.425 11.5 180.425 0 120.425C0 91.194 7.40084 61.6257 26 41.9254C46.0553 20.6827 72.98 0.5 104.5 0.5C133.979 0.5 164.25 2.62015 184 21.5C204.951 41.5278 224.5 68.1535 224.5 99.4254Z" fill="#FFEBBC"/>
<path d="M139.14 159.214C112.977 160.307 54.2214 162.727 51.1173 155.232C50.0087 152.421 56.9929 149.454 62.0924 147.268C75.6173 141.568 91.2484 141.959 99.5629 142.193C129.162 143.208 157.542 153.046 155.879 156.872C155.325 158.277 151.002 158.745 139.14 159.214Z" fill="white" stroke="#525375" stroke-width="2" stroke-miterlimit="10" stroke-linecap="round" stroke-linejoin="round"/>
<path d="M71.6715 165.281C74.9867 171.791 133.643 167.762 159.761 165.954C171.604 165.158 175.912 164.606 176.426 163.349C181.194 161.255 186.602 155.994 170.083 151.704" stroke="#525375" stroke-width="2" stroke-miterlimit="10" stroke-linecap="round" stroke-linejoin="round"/>
<path d="M120.492 145.167L126.093 127.91L115.124 128.144L116.786 144.538L120.492 145.167Z" fill="white" stroke="#525375" stroke-width="2" stroke-miterlimit="10" stroke-linecap="round" stroke-linejoin="round"/>
<path d="M118.411 127.766L116.938 111.532L127.867 110.734L122.374 128.546L118.411 127.766Z" fill="white" stroke="#525375" stroke-width="2" stroke-miterlimit="10" stroke-linecap="round" stroke-linejoin="round"/>
<path d="M121.2 109.037L119.45 90.7329L132.357 89.6769L124.899 109.11L121.2 109.037Z" fill="white" stroke="#525375" stroke-width="2" stroke-miterlimit="10" stroke-linecap="round" stroke-linejoin="round"/>
<path d="M124.231 89.3938L121.869 68.5823L134.851 68.5679L127.877 89.6135L124.231 89.3938Z" fill="white" stroke="#525375" stroke-width="2" stroke-miterlimit="10" stroke-linecap="round" stroke-linejoin="round"/>
<path d="M126.539 67.2243C128.239 65.9 122.854 49.0628 108.4 41.3064C95.7412 34.4958 77.6972 35.6309 68.0612 45.6576C61.3537 52.7519 59.7477 63.0623 61.6371 64.1974C64.3768 65.8054 73.8239 48.0223 83.46 50.1033C88.1835 51.0492 88.8448 55.8734 95.9302 57.4814C100.465 58.5219 102.071 57.0085 106.7 57.1031C118.414 57.576 125.027 68.454 126.539 67.2243Z" fill="#525375" stroke="#525375" stroke-width="3" stroke-miterlimit="10" stroke-linecap="round" stroke-linejoin="round"/>
<path d="M127.107 65.1435C125.123 61.1707 134.57 50.7657 145.246 46.2253C147.891 45.0902 161.589 39.4148 173.776 47.2658C184.073 53.7926 185.963 65.2381 186.907 71.1974C187.285 73.6567 188.041 78.2917 186.53 78.9538C182.94 80.5619 170.186 57.7654 166.691 59.4681C165.179 60.2248 166.88 64.7652 164.99 65.9003C161.495 67.8867 151.764 55.1169 148.552 57.1979C147.324 57.9546 148.363 59.941 147.229 62.2112C144.206 68.1705 129.185 69.211 127.107 65.1435Z" fill="#525375" stroke="#525375" stroke-width="3" stroke-miterlimit="10" stroke-linecap="round" stroke-linejoin="round"/>
<path d="M131.738 62.9683C131.738 62.9683 100.184 52.6579 87.8084 74.8868C75.4327 97.1157 90.737 90.116 90.737 90.116L103.018 76.8732C103.018 76.8732 101.885 85.5756 105.663 84.5351C109.442 83.4946 131.738 62.9683 131.738 62.9683Z" fill="#525375" stroke="#525375" stroke-width="3" stroke-miterlimit="10" stroke-linecap="round" stroke-linejoin="round"/>
<path d="M82.4844 103.875L107.984 150.875H56.9844L82.4844 103.875Z" fill="white" stroke="#525375" stroke-width="2" stroke-miterlimit="10" stroke-linecap="round" stroke-linejoin="round"/>
<path d="M82.9844 125.875L92.9844 149.875H72.9844L82.9844 125.875Z" fill="#525375"/>
</svg>
