<svg width="137" height="72" viewBox="0 0 137 72" fill="none" xmlns="http://www.w3.org/2000/svg">
<path d="M134.025 35.3721C134.216 28.776 119.089 30.3254 119.089 30.3254C119.089 30.3254 129.387 28.0296 124.41 24.391C121.344 22.1496 115.974 23.4598 112.299 24.7984C109.808 21.7428 106.251 19.3249 101.408 18.0174C78.8142 11.9136 72.5035 29.5382 72.5035 29.5382C66.5372 25.1351 60.7877 26.6913 60.7877 26.6913C60.5541 24.7229 59.5167 18.0363 53.8987 13.3763C47.7258 8.25548 39.3777 8.36248 33.1206 10.8748C30.6789 8.37277 24.7804 2.98547 20.1577 4.15444C14.18 5.66643 22.8715 11.6484 22.8715 11.6484C22.8715 11.6484 9.42262 4.55208 7.13189 10.7405C4.84116 16.929 18.8504 20.6505 18.8504 20.6505C18.8504 20.6505 13.8479 19.8226 14.2926 21.436C14.615 22.6057 17.5576 26.627 19.1456 28.7439C15.3933 46.049 32.6959 56.9141 46.7909 54.8494C62.3436 52.5714 60.375 33.6738 60.375 33.6738C67.4125 32.5585 71.8368 36.8531 71.8368 36.8531C69.1052 61.6624 97.3289 68.0476 107.945 61.1847C111.639 58.7998 114.702 53.5868 116.181 47.5511C118.451 46.1783 122.647 43.5713 123.383 42.6118C124.399 41.282 119.45 40.1782 119.45 40.1782C119.45 40.1782 133.834 41.9682 134.025 35.3721Z" fill="white" stroke="#525375" stroke-miterlimit="10" stroke-linecap="round" stroke-linejoin="round"/>
<path d="M105.959 54.0796C106.127 53.3408 105.664 52.6057 104.926 52.4376C104.187 52.2696 103.452 52.7323 103.284 53.471C103.116 54.2098 103.578 54.9449 104.317 55.113C105.056 55.281 105.791 54.8183 105.959 54.0796Z" fill="#EFEFF7"/>
<path d="M77.5895 44.3943C77.7575 43.6555 77.2948 42.9204 76.556 42.7524C75.8173 42.5843 75.0822 43.047 74.9141 43.7858C74.7461 44.5246 75.2088 45.2597 75.9475 45.4277C76.6863 45.5958 77.4214 45.1331 77.5895 44.3943Z" fill="#EFEFF7"/>
<path d="M113.384 46.6076C113.552 45.8688 113.089 45.1337 112.35 44.9657C111.612 44.7977 110.877 45.2603 110.709 45.9991C110.541 46.7379 111.003 47.473 111.742 47.641C112.481 47.8091 113.216 47.3464 113.384 46.6076Z" fill="#EFEFF7"/>
<path d="M86.4991 58.7478C86.6672 58.009 86.2045 57.2739 85.4657 57.1059C84.7269 56.9379 83.9918 57.4005 83.8238 58.1393C83.6558 58.8781 84.1184 59.6132 84.8572 59.7812C85.596 59.9493 86.3311 59.4866 86.4991 58.7478Z" fill="#EFEFF7"/>
<path d="M89.9348 56.3573C90.0452 55.8716 90.5285 55.5674 91.0143 55.6779C91.5 55.7884 91.8042 56.2717 91.6937 56.7574C91.5832 57.2431 91.0999 57.5473 90.6142 57.4368C90.1285 57.3263 89.8243 56.843 89.9348 56.3573Z" fill="#EFEFF7"/>
<path d="M84.8767 54.3798C84.9871 53.8941 85.4704 53.5899 85.9562 53.7003C86.4419 53.8108 86.7461 54.2941 86.6356 54.7798C86.5251 55.2656 86.0418 55.5697 85.5561 55.4593C85.0704 55.3488 84.7662 54.8655 84.8767 54.3798Z" fill="#EFEFF7"/>
<path d="M101.7 54.9095C101.757 54.6597 101.999 54.5019 102.241 54.5569C102.483 54.6119 102.633 54.8589 102.576 55.1087C102.519 55.3584 102.277 55.5163 102.035 55.4613C101.793 55.4063 101.643 55.1592 101.7 54.9095Z" fill="#EFEFF7"/>
<path d="M79.8491 43.6229C79.9059 43.3731 80.148 43.2152 80.3898 43.2702C80.6317 43.3253 80.7817 43.5723 80.7249 43.8221C80.6681 44.0718 80.426 44.2297 80.1841 44.1747C79.9423 44.1197 79.7922 43.8726 79.8491 43.6229Z" fill="#EFEFF7"/>
<path d="M83.0737 47.7993C83.1305 47.5496 83.3726 47.3917 83.6145 47.4467C83.8563 47.5017 84.0063 47.7488 83.9495 47.9985C83.8927 48.2483 83.6506 48.4061 83.4087 48.3511C83.1669 48.2961 83.0169 48.0491 83.0737 47.7993Z" fill="#EFEFF7"/>
<path d="M86.9609 50.2889C87.0177 50.0392 87.2598 49.8813 87.5017 49.9363C87.7435 49.9913 87.8936 50.2384 87.8367 50.4881C87.7799 50.7379 87.5378 50.8958 87.2959 50.8408C87.0541 50.7857 86.9041 50.5387 86.9609 50.2889Z" fill="#EFEFF7"/>
<path d="M93.7021 52.9247C93.7589 52.675 94.001 52.5171 94.2429 52.5721C94.4847 52.6271 94.6348 52.8742 94.578 53.124C94.5211 53.3737 94.279 53.5316 94.0372 53.4766C93.7953 53.4215 93.6453 53.1745 93.7021 52.9247Z" fill="#EFEFF7"/>
<path d="M98.0556 56.3475C98.1124 56.0977 98.3545 55.9398 98.5964 55.9949C98.8383 56.0499 98.9883 56.2969 98.9315 56.5467C98.8747 56.7964 98.6325 56.9543 98.3907 56.8993C98.1488 56.8443 97.9988 56.5972 98.0556 56.3475Z" fill="#EFEFF7"/>
<path d="M94.8259 58.0817C94.9364 57.596 95.4197 57.2918 95.9054 57.4023C96.3911 57.5128 96.6953 57.9961 96.5848 58.4818C96.4743 58.9675 95.991 59.2717 95.5053 59.1612C95.0196 59.0508 94.7154 58.5675 94.8259 58.0817Z" fill="#EFEFF7"/>
<path d="M81.1384 49.0316C81.2489 48.5459 81.7322 48.2417 82.2179 48.3521C82.7036 48.4626 83.0078 48.9459 82.8973 49.4316C82.7868 49.9173 82.3035 50.2215 81.8178 50.1111C81.3321 50.0006 81.0279 49.5173 81.1384 49.0316Z" fill="#EFEFF7"/>
<path d="M82.6769 52.5498C82.7874 52.0641 83.2707 51.7599 83.7564 51.8704C84.2422 51.9809 84.5463 52.4642 84.4359 52.9499C84.3254 53.4356 83.8421 53.7398 83.3564 53.6293C82.8707 53.5188 82.5665 53.0355 82.6769 52.5498Z" fill="#EFEFF7"/>
<path d="M78.6491 52.9158C78.7596 52.4301 79.2429 52.1259 79.7286 52.2364C80.2143 52.3468 80.5185 52.8301 80.408 53.3159C80.2976 53.8016 79.8143 54.1058 79.3285 53.9953C78.8428 53.8848 78.5386 53.4015 78.6491 52.9158Z" fill="#EFEFF7"/>
<path d="M123.893 37.9127C124.004 37.427 124.487 37.1228 124.973 37.2333C125.458 37.3438 125.763 37.8271 125.652 38.3128C125.542 38.7985 125.058 39.1027 124.573 38.9922C124.087 38.8818 123.783 38.3984 123.893 37.9127Z" fill="#EFEFF7"/>
<path d="M74.0261 42.3655C74.1365 41.8798 74.6199 41.5756 75.1056 41.6861C75.5913 41.7965 75.8955 42.2798 75.785 42.7656C75.6745 43.2513 75.1912 43.5555 74.7055 43.445C74.2198 43.3345 73.9156 42.8512 74.0261 42.3655Z" fill="#EFEFF7"/>
<path d="M109.82 44.5788C109.93 44.0931 110.414 43.7889 110.9 43.8994C111.385 44.0099 111.689 44.4932 111.579 44.9789C111.468 45.4646 110.985 45.7688 110.499 45.6583C110.014 45.5478 109.71 45.0645 109.82 44.5788Z" fill="#EFEFF7"/>
<path d="M81.3797 55.1459C81.635 54.0236 82.7518 53.3206 83.8742 53.5759C84.9965 53.8312 85.6995 54.948 85.4442 56.0704C85.1889 57.1928 84.0721 57.8957 82.9497 57.6404C81.8273 57.3851 81.1244 56.2683 81.3797 55.1459Z" fill="#EFEFF7"/>
<path d="M78.1057 48.6028C78.361 47.4805 79.4778 46.7775 80.6002 47.0328C81.7226 47.2881 82.4255 48.4049 82.1702 49.5273C81.915 50.6497 80.7981 51.3526 79.6758 51.0973C78.5534 50.842 77.8505 49.7252 78.1057 48.6028Z" fill="#EFEFF7"/>
<path d="M113.786 40.548C114.041 39.4256 115.158 38.7227 116.28 38.978C117.403 39.2332 118.106 40.3501 117.85 41.4724C117.595 42.5948 116.478 43.2977 115.356 43.0425C114.234 42.7872 113.531 41.6704 113.786 40.548Z" fill="#EFEFF7"/>
<path d="M96.2839 57.9541C96.5 57.0042 97.4451 56.4093 98.395 56.6254C99.3449 56.8414 99.9398 57.7866 99.7237 58.7365C99.5077 59.6863 98.5625 60.2812 97.6126 60.0652C96.6628 59.8491 96.0679 58.904 96.2839 57.9541Z" fill="#EFEFF7"/>
<path d="M107.078 56.6206C107.207 56.0525 107.772 55.6967 108.34 55.8259C108.908 55.9552 109.264 56.5204 109.135 57.0885C109.006 57.6566 108.44 58.0124 107.872 57.8832C107.304 57.754 106.948 57.1887 107.078 56.6206Z" fill="#EFEFF7"/>
<path d="M110.595 52.136C110.724 51.5679 111.289 51.2122 111.857 51.3414C112.425 51.4706 112.781 52.0359 112.652 52.604C112.523 53.172 111.957 53.5278 111.389 53.3986C110.821 53.2694 110.465 52.7041 110.595 52.136Z" fill="#EFEFF7"/>
<path d="M99.6611 58.4521C99.7903 57.884 100.356 57.5282 100.924 57.6574C101.492 57.7866 101.848 58.3519 101.718 58.92C101.589 59.4881 101.024 59.8439 100.456 59.7146C99.8877 59.5854 99.5319 59.0202 99.6611 58.4521Z" fill="#EFEFF7"/>
<path d="M105.906 57.1356C106.035 56.5675 106.6 56.2117 107.168 56.341C107.736 56.4702 108.092 57.0354 107.963 57.6035C107.834 58.1716 107.268 58.5274 106.7 58.3982C106.132 58.269 105.777 57.7037 105.906 57.1356Z" fill="#EFEFF7"/>
<path d="M89.4326 52.9925C89.5618 52.4244 90.1271 52.0686 90.6952 52.1978C91.2633 52.327 91.619 52.8923 91.4898 53.4604C91.3606 54.0285 90.7953 54.3843 90.2272 54.2551C89.6592 54.1258 89.3034 53.5606 89.4326 52.9925Z" fill="#EFEFF7"/>
<path d="M92.0136 61.0228C92.1429 60.4547 92.7081 60.0989 93.2762 60.2281C93.8443 60.3573 94.2001 60.9226 94.0709 61.4907C93.9417 62.0588 93.3764 62.4145 92.8083 62.2853C92.2402 62.1561 91.8844 61.5908 92.0136 61.0228Z" fill="#EFEFF7"/>
<path d="M105.41 53.6174C105.539 53.0493 106.105 52.6936 106.673 52.8228C107.241 52.952 107.597 53.5173 107.467 54.0853C107.338 54.6534 106.773 55.0092 106.205 54.88C105.637 54.7508 105.281 54.1855 105.41 53.6174Z" fill="#EFEFF7"/>
<path d="M80.93 30.029C81.4986 29.247 85.5206 23.8765 92.4268 23.4133C99.7699 22.9203 105.973 28.276 108.46 34.1321C111.397 41.0587 110.169 51.1229 102.777 55.6006C95.0091 60.306 84.764 56.2272 80.3542 49.1007C76.8813 43.4923 76.8335 35.6856 80.93 30.029Z" fill="#525375" stroke="#525375" stroke-miterlimit="10" stroke-linecap="round" stroke-linejoin="round"/>
<path d="M51.9542 45.1933C52.1222 44.4545 51.6596 43.7194 50.9208 43.5514C50.182 43.3834 49.4469 43.846 49.2789 44.5848C49.1108 45.3236 49.5735 46.0587 50.3123 46.2267C51.0511 46.3948 51.7862 45.9321 51.9542 45.1933Z" fill="#EFEFF7"/>
<path d="M23.5846 35.5095C23.7526 34.7708 23.2899 34.0356 22.5512 33.8676C21.8124 33.6996 21.0773 34.1623 20.9092 34.901C20.7412 35.6398 21.2039 36.3749 21.9427 36.543C22.6814 36.711 23.4165 36.2483 23.5846 35.5095Z" fill="#EFEFF7"/>
<path d="M32.4943 49.8617C32.6623 49.1229 32.1996 48.3878 31.4608 48.2197C30.7221 48.0517 29.9869 48.5144 29.8189 49.2531C29.6509 49.9919 30.1135 50.727 30.8523 50.8951C31.5911 51.0631 32.3262 50.6004 32.4943 49.8617Z" fill="#EFEFF7"/>
<path d="M35.9299 47.4711C36.0404 46.9854 36.5237 46.6812 37.0094 46.7917C37.4951 46.9022 37.7993 47.3855 37.6888 47.8712C37.5783 48.3569 37.095 48.6611 36.6093 48.5506C36.1236 48.4402 35.8194 47.9569 35.9299 47.4711Z" fill="#EFEFF7"/>
<path d="M30.8713 45.4951C30.9818 45.0094 31.4651 44.7052 31.9508 44.8156C32.4365 44.9261 32.7407 45.4094 32.6302 45.8951C32.5197 46.3808 32.0364 46.685 31.5507 46.5746C31.065 46.4641 30.7608 45.9808 30.8713 45.4951Z" fill="#EFEFF7"/>
<path d="M47.6952 46.0233C47.752 45.7736 47.9942 45.6157 48.236 45.6707C48.4779 45.7257 48.6279 45.9728 48.5711 46.2225C48.5143 46.4723 48.2722 46.6301 48.0303 46.5751C47.7885 46.5201 47.6384 46.2731 47.6952 46.0233Z" fill="#EFEFF7"/>
<path d="M25.8437 34.7367C25.9005 34.4869 26.1426 34.3291 26.3845 34.3841C26.6263 34.4391 26.7764 34.6861 26.7196 34.9359C26.6628 35.1857 26.4206 35.3435 26.1788 35.2885C25.9369 35.2335 25.7869 34.9864 25.8437 34.7367Z" fill="#EFEFF7"/>
<path d="M29.0688 38.9131C29.1256 38.6633 29.3677 38.5055 29.6096 38.5605C29.8514 38.6155 30.0015 38.8625 29.9447 39.1123C29.8878 39.362 29.6457 39.5199 29.4039 39.4649C29.162 39.4099 29.012 39.1628 29.0688 38.9131Z" fill="#EFEFF7"/>
<path d="M32.9555 41.4028C33.0123 41.153 33.2544 40.9951 33.4963 41.0501C33.7382 41.1052 33.8882 41.3522 33.8314 41.602C33.7746 41.8517 33.5324 42.0096 33.2906 41.9546C33.0487 41.8996 32.8987 41.6525 32.9555 41.4028Z" fill="#EFEFF7"/>
<path d="M39.6967 44.0385C39.7535 43.7887 39.9956 43.6309 40.2375 43.6859C40.4794 43.7409 40.6294 43.988 40.5726 44.2377C40.5158 44.4875 40.2737 44.6453 40.0318 44.5903C39.7899 44.5353 39.6399 44.2883 39.6967 44.0385Z" fill="#EFEFF7"/>
<path d="M44.0502 47.4613C44.107 47.2115 44.3492 47.0537 44.591 47.1087C44.8329 47.1637 44.9829 47.4108 44.9261 47.6605C44.8693 47.9103 44.6272 48.0681 44.3853 48.0131C44.1434 47.9581 43.9934 47.711 44.0502 47.4613Z" fill="#EFEFF7"/>
<path d="M40.821 49.197C40.9315 48.7113 41.4148 48.4071 41.9005 48.5175C42.3862 48.628 42.6904 49.1113 42.5799 49.597C42.4694 50.0828 41.9861 50.3869 41.5004 50.2765C41.0147 50.166 40.7105 49.6827 40.821 49.197Z" fill="#EFEFF7"/>
<path d="M27.133 40.1454C27.2435 39.6597 27.7268 39.3555 28.2125 39.466C28.6982 39.5764 29.0024 40.0598 28.8919 40.5455C28.7815 41.0312 28.2981 41.3354 27.8124 41.2249C27.3267 41.1144 27.0225 40.6311 27.133 40.1454Z" fill="#EFEFF7"/>
<path d="M28.6716 43.6636C28.7821 43.1779 29.2654 42.8737 29.7511 42.9842C30.2368 43.0946 30.541 43.5779 30.4305 44.0637C30.32 44.5494 29.8367 44.8536 29.351 44.7431C28.8653 44.6326 28.5611 44.1493 28.6716 43.6636Z" fill="#EFEFF7"/>
<path d="M24.6437 44.031C24.7542 43.5453 25.2375 43.2411 25.7232 43.3516C26.209 43.4621 26.5131 43.9454 26.4027 44.4311C26.2922 44.9168 25.8089 45.221 25.3232 45.1105C24.8375 45 24.5333 44.5167 24.6437 44.031Z" fill="#EFEFF7"/>
<path d="M20.0207 33.4807C20.1312 32.995 20.6145 32.6908 21.1002 32.8013C21.5859 32.9118 21.8901 33.3951 21.7796 33.8808C21.6691 34.3665 21.1858 34.6707 20.7001 34.5602C20.2144 34.4497 19.9102 33.9664 20.0207 33.4807Z" fill="#EFEFF7"/>
<path d="M27.3748 46.2598C27.6301 45.1374 28.7469 44.4345 29.8693 44.6898C30.9917 44.945 31.6946 46.0619 31.4393 47.1842C31.184 48.3066 30.0672 49.0095 28.9448 48.7543C27.8224 48.499 27.1195 47.3821 27.3748 46.2598Z" fill="#EFEFF7"/>
<path d="M24.1009 39.7166C24.3561 38.5942 25.473 37.8913 26.5953 38.1466C27.7177 38.4019 28.4206 39.5187 28.1654 40.6411C27.9101 41.7635 26.7933 42.4664 25.6709 42.2111C24.5485 41.9558 23.8456 40.839 24.1009 39.7166Z" fill="#EFEFF7"/>
<path d="M42.2786 49.0679C42.4946 48.1181 43.4398 47.5232 44.3896 47.7392C45.3395 47.9553 45.9344 48.9004 45.7183 49.8503C45.5023 50.8002 44.5571 51.395 43.6073 51.179C42.6574 50.963 42.0625 50.0178 42.2786 49.0679Z" fill="#EFEFF7"/>
<path d="M53.0722 47.7359C53.2014 47.1678 53.7667 46.812 54.3348 46.9412C54.9029 47.0704 55.2587 47.6357 55.1295 48.2038C55.0003 48.7719 54.435 49.1277 53.8669 48.9985C53.2988 48.8693 52.943 48.304 53.0722 47.7359Z" fill="#EFEFF7"/>
<path d="M45.6557 49.5658C45.7849 48.9978 46.3502 48.642 46.9183 48.7712C47.4864 48.9004 47.8422 49.4657 47.713 50.0338C47.5838 50.6019 47.0185 50.9576 46.4504 50.8284C45.8823 50.6992 45.5265 50.1339 45.6557 49.5658Z" fill="#EFEFF7"/>
<path d="M51.9009 48.2494C52.0301 47.6814 52.5953 47.3256 53.1634 47.4548C53.7315 47.584 54.0873 48.1493 53.9581 48.7174C53.8289 49.2854 53.2636 49.6412 52.6955 49.512C52.1274 49.3828 51.7716 48.8175 51.9009 48.2494Z" fill="#EFEFF7"/>
<path d="M35.4277 44.1077C35.5569 43.5396 36.1222 43.1838 36.6903 43.3131C37.2584 43.4423 37.6141 44.0075 37.4849 44.5756C37.3557 45.1437 36.7905 45.4995 36.2224 45.3703C35.6543 45.2411 35.2985 44.6758 35.4277 44.1077Z" fill="#EFEFF7"/>
<path d="M38.0083 52.1365C38.1375 51.5684 38.7028 51.2127 39.2708 51.3419C39.8389 51.4711 40.1947 52.0364 40.0655 52.6044C39.9363 53.1725 39.371 53.5283 38.8029 53.3991C38.2348 53.2699 37.8791 52.7046 38.0083 52.1365Z" fill="#EFEFF7"/>
<path d="M52.6338 23.7722C48.9165 18.3979 42.505 17.6544 40.6299 17.5291C39.1425 17.4312 33.5728 17.0611 29.2421 21.045C24.5189 25.3917 23.4598 32.8977 26.2062 38.6371C29.4276 45.3706 36.5209 46.8477 37.5534 47.0434C38.6088 47.2435 44.7849 48.4185 49.7569 44.4493C55.6817 39.7203 56.9614 30.0285 52.6338 23.7722Z" fill="#525375" stroke="#525375" stroke-miterlimit="10" stroke-linecap="round" stroke-linejoin="round"/>
<path d="M104.032 35.4656L93.3825 49.5755" stroke="white" stroke-miterlimit="10" stroke-linecap="round" stroke-linejoin="round"/>
<path d="M95.9404 35.4231L85.3208 50.1115" stroke="white" stroke-miterlimit="10" stroke-linecap="round" stroke-linejoin="round"/>
<path d="M48.1492 33.2083L40.8276 42.6196" stroke="white" stroke-miterlimit="10" stroke-linecap="round" stroke-linejoin="round"/>
<path d="M45.7433 25.1063L33.6769 40.6591" stroke="white" stroke-miterlimit="10" stroke-linecap="round" stroke-linejoin="round"/>
</svg>
