<svg width="142" height="152" viewBox="0 0 142 152" fill="none" xmlns="http://www.w3.org/2000/svg">
<path d="M78.1255 104.82C73.2988 104.246 68.6408 107.238 67.2433 111.554C65.8682 115.819 68.2812 119.511 68.6116 119.997C71.3745 124.063 77.544 126.54 82.3601 123.773C85.8225 121.786 87.5823 117.656 87.1082 113.811C86.5489 109.243 82.8652 105.386 78.1255 104.82Z" fill="white" stroke="#525375" stroke-miterlimit="10" stroke-linecap="round" stroke-linejoin="round"/>
<path d="M101.546 108.657C98.9743 105.02 93.8107 105.443 91.9583 105.53C86.9946 105.743 84.0228 107.57 82.7115 110.061C80.3617 114.532 83.1587 122.038 89.1 123.91C94.5257 125.618 99.9392 121.803 101.856 117.475C102.095 116.924 104.079 112.246 101.546 108.657Z" fill="white" stroke="#525375" stroke-miterlimit="10" stroke-linecap="round" stroke-linejoin="round"/>
<path d="M52.9518 75.7822C50.4465 73.8333 46.7761 72.9492 43.2649 74.0829C42.9258 74.1942 37.7234 75.9741 36.3672 81.2651C36.2878 81.5648 35.2927 85.7192 37.6968 89.2657C41.1782 94.4035 50.6033 96.473 55.0618 91.5378C58.9058 87.2794 57.6071 79.4138 52.9518 75.7822Z" fill="white" stroke="#525375" stroke-miterlimit="10" stroke-linecap="round" stroke-linejoin="round"/>
<path d="M109.73 102.687C105.711 102.205 101.833 104.7 100.67 108.293C99.5222 111.842 101.532 114.917 101.809 115.32C104.105 118.705 109.25 120.772 113.259 118.464C116.14 116.805 117.609 113.367 117.213 110.17C116.738 106.366 113.677 103.155 109.73 102.687Z" fill="white" stroke="#525375" stroke-miterlimit="10" stroke-linecap="round" stroke-linejoin="round"/>
<path d="M66.5861 73.3706C66.4288 72.2801 65.9431 70.1442 64.2252 68.4414C61.1658 65.4147 55.7649 65.2858 52.1659 67.8626C49.7559 69.59 47.6028 72.9295 48.2644 76.3227C49.2657 81.4788 56.3856 84.9463 61.4595 82.4967C64.6087 80.9797 66.5686 77.3817 66.5861 73.3706Z" fill="white" stroke="#525375" stroke-miterlimit="10" stroke-linecap="round" stroke-linejoin="round"/>
<path d="M59.8083 98.6337C59.651 97.5431 59.1653 95.4073 57.4474 93.7044C54.388 90.6777 48.9871 90.5489 45.3881 93.1257C42.978 94.853 40.825 98.1926 41.4866 101.586C42.4879 106.742 49.6078 110.209 54.6817 107.76C57.8309 106.243 59.7907 102.645 59.8083 98.6337Z" fill="white" stroke="#525375" stroke-miterlimit="10" stroke-linecap="round" stroke-linejoin="round"/>
<path d="M65.4458 97.9109C60.6191 97.3368 55.9612 100.329 54.5636 104.645C53.1885 108.911 55.6015 112.602 55.9319 113.089C58.6948 117.154 64.8643 119.632 69.6804 116.865C73.1428 114.877 74.9027 110.747 74.4285 106.903C73.8692 102.335 70.1855 98.4768 65.4458 97.9109Z" fill="white" stroke="#525375" stroke-miterlimit="10" stroke-linecap="round" stroke-linejoin="round"/>
<path d="M128.347 96.6714C128.139 95.245 127.51 92.4503 125.252 90.2106C121.247 86.2425 114.173 86.0745 109.461 89.4527C106.304 91.7179 103.488 96.0938 104.348 100.537C105.657 107.287 114.991 111.835 121.633 108.622C125.748 106.639 128.318 101.921 128.347 96.6714Z" fill="white" stroke="#525375" stroke-miterlimit="10" stroke-linecap="round" stroke-linejoin="round"/>
<path d="M61.4604 82.8444C59.9896 82.459 57.1195 81.7074 54.364 83.1906C50.3315 85.3648 49.921 90.5001 49.8472 91.3937C49.7621 92.4693 49.603 96.3944 52.4268 99.6799C54.961 102.636 59.6462 104.766 64.1115 103.076C69.2036 101.148 71.6563 95.148 70.2744 90.3414C68.6659 84.7253 62.4889 83.112 61.4604 82.8444Z" fill="white" stroke="#525375" stroke-miterlimit="10" stroke-linecap="round" stroke-linejoin="round"/>
<path d="M85.5574 90.5406C82.0933 88.4317 77.7606 88.5773 74.447 90.4132C73.6479 90.8602 69.8121 93.1164 69.0714 97.4514C68.1994 102.54 72.0023 108.02 77.3263 109.451C82.0784 110.728 88.1239 108.795 90.2607 103.633C92.3468 98.6053 89.6743 93.0426 85.5574 90.5406Z" fill="white" stroke="#525375" stroke-miterlimit="10" stroke-linecap="round" stroke-linejoin="round"/>
<path d="M115.333 76.2787C112.827 74.3298 109.157 73.4457 105.646 74.5794C105.307 74.6907 100.104 76.4706 98.7481 81.7616C98.6687 82.0613 97.6736 86.2157 100.078 89.7621C103.559 94.9 112.984 96.9695 117.443 92.0343C121.287 87.7759 119.988 79.9102 115.333 76.2787Z" fill="white" stroke="#525375" stroke-miterlimit="10" stroke-linecap="round" stroke-linejoin="round"/>
<path d="M80.5528 78.3567C77.9806 74.7197 72.817 75.1432 70.9647 75.2298C66.001 75.4428 63.0292 77.27 61.7179 79.7611C59.368 84.2317 62.165 91.738 68.1064 93.6102C73.532 95.3176 78.9456 91.5027 80.8623 87.1748C81.1012 86.6234 83.0855 81.946 80.5528 78.3567Z" fill="white" stroke="#525375" stroke-miterlimit="10" stroke-linecap="round" stroke-linejoin="round"/>
<path d="M107.938 93.822C105.366 90.1849 100.203 90.6085 98.3504 90.6951C93.3867 90.9081 90.4149 92.7353 89.1036 95.2263C86.7537 99.697 89.5508 107.203 95.4921 109.075C100.918 110.783 106.331 106.968 108.248 102.64C108.487 102.089 110.471 97.4113 107.938 93.822Z" fill="white" stroke="#525375" stroke-miterlimit="10" stroke-linecap="round" stroke-linejoin="round"/>
<path d="M90.8921 76.0328C86.0654 75.4587 81.4074 78.4509 80.0099 82.767C78.6348 87.0325 81.0478 90.7236 81.3782 91.2105C84.1411 95.276 90.3106 97.7535 95.1267 94.9864C98.5891 92.9992 100.349 88.8688 99.8748 85.0244C99.3155 80.4564 95.6318 76.5986 90.8921 76.0328Z" fill="white" stroke="#525375" stroke-miterlimit="10" stroke-linecap="round" stroke-linejoin="round"/>
<path d="M120.91 99.9339C120.283 98.9462 118.974 98.6539 117.986 99.2811C116.999 99.9083 116.706 101.217 117.334 102.205C117.961 103.193 119.27 103.485 120.258 102.858C121.245 102.231 121.538 100.922 120.91 99.9339Z" fill="#EFEFF7"/>
<path d="M69.9767 112.789C69.3495 111.801 68.0404 111.509 67.0527 112.136C66.065 112.763 65.7728 114.072 66.4 115.06C67.0272 116.048 68.3363 116.34 69.324 115.713C70.3117 115.086 70.6039 113.776 69.9767 112.789Z" fill="#EFEFF7"/>
<path d="M46.9767 99.7887C46.3495 98.8011 45.0404 98.5088 44.0527 99.136C43.065 99.7632 42.7728 101.072 43.4 102.06C44.0272 103.048 45.3363 103.34 46.324 102.713C47.3117 102.086 47.6039 100.776 46.9767 99.7887Z" fill="#EFEFF7"/>
<path d="M56.9767 94.7887C56.3495 93.8011 55.0404 93.5088 54.0527 94.136C53.065 94.7632 52.7728 96.0723 53.4 97.06C54.0272 98.0477 55.3363 98.3399 56.324 97.7127C57.3117 97.0856 57.6039 95.7764 56.9767 94.7887Z" fill="#EFEFF7"/>
<path d="M77.9767 119.789C77.3495 118.801 76.0404 118.509 75.0527 119.136C74.065 119.763 73.7728 121.072 74.4 122.06C75.0272 123.048 76.3363 123.34 77.324 122.713C78.3117 122.086 78.6039 120.776 77.9767 119.789Z" fill="#EFEFF7"/>
<path d="M98.0107 115.67C97.5984 115.02 97.7905 114.159 98.4398 113.747C99.0892 113.335 99.9499 113.527 100.362 114.176C100.775 114.826 100.582 115.686 99.9331 116.099C99.2838 116.511 98.4231 116.319 98.0107 115.67Z" fill="#EFEFF7"/>
<path d="M91.458 116.347C91.0456 115.698 91.2378 114.837 91.8871 114.424C92.5365 114.012 93.3972 114.204 93.8095 114.854C94.2219 115.503 94.0297 116.364 93.3804 116.776C92.731 117.188 91.8703 116.996 91.458 116.347Z" fill="#EFEFF7"/>
<path d="M112.437 98.9346C112.225 98.6007 112.316 98.1636 112.639 97.9582C112.962 97.7529 113.396 97.8571 113.608 98.191C113.82 98.5249 113.73 98.9621 113.407 99.1674C113.083 99.3727 112.649 99.2685 112.437 98.9346Z" fill="#EFEFF7"/>
<path d="M75.6482 112.349C75.4362 112.015 75.5264 111.578 75.8498 111.372C76.1732 111.167 76.6072 111.271 76.8192 111.605C77.0312 111.939 76.941 112.376 76.6176 112.582C76.2943 112.787 75.8603 112.683 75.6482 112.349Z" fill="#EFEFF7"/>
<path d="M63.6482 106.349C63.4362 106.015 63.5264 105.578 63.8498 105.372C64.1732 105.167 64.6072 105.271 64.8192 105.605C65.0312 105.939 64.941 106.376 64.6176 106.582C64.2943 106.787 63.8603 106.683 63.6482 106.349Z" fill="#EFEFF7"/>
<path d="M68.6482 110.349C68.4362 110.015 68.5264 109.578 68.8498 109.372C69.1732 109.167 69.6072 109.271 69.8192 109.605C70.0312 109.939 69.941 110.376 69.6176 110.582C69.2943 110.787 68.8603 110.683 68.6482 110.349Z" fill="#EFEFF7"/>
<path d="M63.3528 109.693C63.1408 109.359 63.231 108.922 63.5544 108.716C63.8777 108.511 64.3118 108.615 64.5238 108.949C64.7358 109.283 64.6456 109.72 64.3222 109.925C63.9989 110.131 63.5648 110.026 63.3528 109.693Z" fill="#EFEFF7"/>
<path d="M70.6482 120.349C70.4362 120.015 70.5264 119.578 70.8498 119.372C71.1732 119.167 71.6072 119.271 71.8192 119.605C72.0312 119.939 71.941 120.376 71.6176 120.582C71.2943 120.787 70.8603 120.683 70.6482 120.349Z" fill="#EFEFF7"/>
<path d="M72.6482 117.349C72.4362 117.015 72.5264 116.578 72.8498 116.372C73.1732 116.167 73.6072 116.271 73.8192 116.605C74.0312 116.939 73.941 117.376 73.6176 117.582C73.2943 117.787 72.8603 117.683 72.6482 117.349Z" fill="#EFEFF7"/>
<path d="M90.6482 110.349C90.4362 110.015 90.5264 109.578 90.8498 109.372C91.1732 109.167 91.6072 109.271 91.8192 109.605C92.0312 109.939 91.941 110.376 91.6176 110.582C91.2943 110.787 90.8603 110.683 90.6482 110.349Z" fill="#EFEFF7"/>
<path d="M50.8273 105.976C50.5165 105.487 50.6488 104.846 51.1227 104.545C51.5967 104.244 52.2329 104.397 52.5437 104.886C52.8545 105.375 52.7222 106.016 52.2482 106.317C51.7743 106.618 51.1381 106.465 50.8273 105.976Z" fill="#EFEFF7"/>
<path d="M95.9952 119.57C95.5911 118.934 95.7631 118.101 96.3794 117.709C96.9956 117.318 97.8228 117.517 98.2268 118.153C98.6309 118.789 98.4589 119.622 97.8427 120.014C97.2264 120.405 96.3993 120.206 95.9952 119.57Z" fill="#EFEFF7"/>
<path d="M94.9549 113.055C94.7428 112.721 94.8331 112.284 95.1564 112.078C95.4798 111.873 95.9138 111.977 96.1258 112.311C96.3379 112.645 96.2476 113.082 95.9243 113.287C95.6009 113.493 95.1669 113.388 94.9549 113.055Z" fill="#EFEFF7"/>
<path d="M102.648 111.348C102.436 111.015 102.526 110.577 102.849 110.372C103.173 110.167 103.607 110.271 103.819 110.605C104.031 110.939 103.941 111.376 103.617 111.581C103.294 111.787 102.86 111.682 102.648 111.348Z" fill="#EFEFF7"/>
<path d="M107.648 110.348C107.436 110.015 107.526 109.577 107.849 109.372C108.173 109.167 108.607 109.271 108.819 109.605C109.031 109.939 108.941 110.376 108.617 110.581C108.294 110.787 107.86 110.682 107.648 110.348Z" fill="#EFEFF7"/>
<path d="M107.011 116.669C106.599 116.02 106.791 115.159 107.44 114.747C108.09 114.334 108.95 114.527 109.363 115.176C109.775 115.825 109.583 116.686 108.934 117.098C108.284 117.511 107.424 117.319 107.011 116.669Z" fill="#EFEFF7"/>
<path d="M85.0112 112.67C84.5988 112.02 84.791 111.16 85.4403 110.747C86.0897 110.335 86.9504 110.527 87.3627 111.177C87.7751 111.826 87.583 112.687 86.9336 113.099C86.2842 113.511 85.4235 113.319 85.0112 112.67Z" fill="#EFEFF7"/>
<path d="M87.0576 116.767C86.6452 116.118 86.8374 115.257 87.4867 114.845C88.1361 114.432 88.9968 114.624 89.4091 115.274C89.8215 115.923 89.6293 116.784 88.98 117.196C88.3306 117.609 87.4699 117.416 87.0576 116.767Z" fill="#EFEFF7"/>
<path d="M81.0112 121.67C80.5988 121.02 80.791 120.16 81.4403 119.747C82.0897 119.335 82.9504 119.527 83.3627 120.177C83.7751 120.826 83.583 121.687 82.9336 122.099C82.2842 122.511 81.4235 122.319 81.0112 121.67Z" fill="#EFEFF7"/>
<path d="M62.0112 115.67C61.5988 115.02 61.791 114.16 62.4403 113.747C63.0897 113.335 63.9504 113.527 64.3627 114.177C64.7751 114.826 64.583 115.687 63.9336 116.099C63.2842 116.511 62.4235 116.319 62.0112 115.67Z" fill="#EFEFF7"/>
<path d="M88.4951 121.011C87.5422 119.51 87.9862 117.521 89.4867 116.569C90.9872 115.616 92.9761 116.06 93.929 117.56C94.8818 119.061 94.4379 121.05 92.9373 122.003C91.4368 122.955 89.4479 122.511 88.4951 121.011Z" fill="#EFEFF7"/>
<path d="M74.9897 118.168C74.0368 116.667 74.4808 114.679 75.9813 113.726C77.4819 112.773 79.4708 113.217 80.4236 114.717C81.3765 116.218 80.9325 118.207 79.432 119.16C77.9314 120.112 75.9425 119.669 74.9897 118.168Z" fill="#EFEFF7"/>
<path d="M56.3754 111.532C55.4226 110.032 55.8665 108.043 57.3671 107.09C58.8676 106.137 60.8565 106.581 61.8094 108.082C62.7622 109.582 62.3182 111.571 60.8177 112.524C59.3172 113.477 57.3283 113.033 56.3754 111.532Z" fill="#EFEFF7"/>
<path d="M110.724 115.221C109.917 113.951 110.293 112.268 111.563 111.462C112.833 110.655 114.516 111.031 115.323 112.301C116.129 113.571 115.753 115.254 114.483 116.06C113.213 116.867 111.53 116.491 110.724 115.221Z" fill="#EFEFF7"/>
<path d="M112.38 104.309C111.898 103.55 112.123 102.543 112.882 102.061C113.642 101.579 114.648 101.803 115.131 102.563C115.613 103.322 115.388 104.329 114.629 104.811C113.869 105.294 112.863 105.069 112.38 104.309Z" fill="#EFEFF7"/>
<path d="M65.9521 105.663C65.4698 104.903 65.6945 103.897 66.454 103.414C67.2135 102.932 68.2201 103.157 68.7024 103.916C69.1847 104.676 68.96 105.682 68.2005 106.165C67.441 106.647 66.4344 106.422 65.9521 105.663Z" fill="#EFEFF7"/>
<path d="M46.1933 88.1266C45.711 87.3671 45.9357 86.3604 46.6952 85.8781C47.4547 85.3958 48.4613 85.6205 48.9436 86.38C49.4259 87.1395 49.2012 88.1462 48.4417 88.6285C47.6822 89.1108 46.6756 88.886 46.1933 88.1266Z" fill="#EFEFF7"/>
<path d="M61.8406 69.7506C61.8406 69.7506 67.6389 53.2449 82.8867 57.125C82.8867 57.125 107.195 60.9461 108.404 77.8534" stroke="#525375" stroke-miterlimit="10" stroke-linecap="round" stroke-linejoin="round"/>
<path d="M82.8867 57.125C98.6254 61.7038 100.755 82.3152 100.755 82.3152" stroke="#525375" stroke-miterlimit="10" stroke-linecap="round" stroke-linejoin="round"/>
<path d="M90.5691 79.4523C90.5691 79.4523 89.3934 59.4227 82.2323 57.052C75.0712 54.6814 65.4367 75.2833 65.4367 75.2833" stroke="#525375" stroke-miterlimit="10" stroke-linecap="round" stroke-linejoin="round"/>
<path d="M72.9832 77.278C72.9832 77.278 78.3841 59.0675 81.6912 56.9169C81.6912 56.9169 85.5478 75.8525 83.7974 80.0458" stroke="#525375" stroke-miterlimit="10" stroke-linecap="round" stroke-linejoin="round"/>
<path d="M81.6976 56.9181C79.5053 61.8523 92.5576 28.1401 100.461 26.5168L100.873 30.405C100.873 30.405 89.5325 39.2674 81.6976 56.9181Z" fill="#525375" stroke="#525375" stroke-miterlimit="10" stroke-linecap="round" stroke-linejoin="round"/>
<path d="M77.225 41.719C77.225 41.719 87.2808 28.2372 78.5215 17.0628C69.7557 5.88723 67.6636 8.13335 67.6636 8.13335L69.1301 11.0464C69.1301 11.0464 53.4373 5.03074 50.7315 5.91607C48.0322 6.80256 55.9538 9.18287 55.9538 9.18287C55.8929 10.7057 55.9333 12.546 56.2267 14.6143C56.5212 16.676 56.9941 18.4552 57.4717 19.8945C55.3585 18.7431 49.5157 15.9135 41.7446 16.7352C34.7225 17.476 29.9343 20.7863 27.9976 22.2962L37.7696 23.506C37.7696 23.506 18.0119 30.0178 17.185 32.1502C16.358 34.2825 39.8083 42.057 39.8083 42.057L37.8303 44.9772C37.8303 44.9772 46.9962 44.8208 50.8597 43.1487C54.7165 41.4755 47.0841 52.0192 48.1712 54.9616C49.2517 57.903 58.3836 53.4062 58.3836 53.4062L58.2634 57.7333C58.2502 57.731 73.9493 52.6051 77.225 41.719Z" fill="#525375" stroke="#525375" stroke-miterlimit="10" stroke-linecap="round" stroke-linejoin="round"/>
<path d="M76.3418 39.9502C76.3418 39.9502 52.2123 28.9225 26.9953 31.5743" stroke="white" stroke-miterlimit="10" stroke-linecap="round" stroke-linejoin="round"/>
<path d="M75.8248 36.3913C75.7416 35.4227 66.1688 12.0304 59.8682 10.8931" stroke="white" stroke-miterlimit="10" stroke-linecap="round" stroke-linejoin="round"/>
<path d="M73.6631 41.5013C73.6631 41.5013 56.3898 52.7798 52.7525 52.3309" stroke="white" stroke-miterlimit="10" stroke-linecap="round" stroke-linejoin="round"/>
</svg>
