<svg width="87" height="90" viewBox="0 0 87 90" fill="none" xmlns="http://www.w3.org/2000/svg">
<path d="M80.3679 31.962C81.943 34.5231 87.5354 44.2969 84.844 56.0426C81.8127 69.2841 74.0219 82.6763 58.497 84.5914C46.9213 92.1272 28.7674 89.1152 20.478 82.2196C15.2086 77.8341 11.6617 73.1273 11.0328 70.0166C8.70971 68.2771 6.24498 63.2441 3.53662 57.1192C-1.94809 44.7106 3.70094 33.0499 4.66983 31.0555C6.08067 28.1488 9.12332 21.8652 16.0925 18.5619C18.7272 17.3097 21.1636 16.8507 22.8578 16.6638C20.835 19.4798 20.614 23.1627 22.2912 26.0127C24.3989 29.605 28.4445 30.0526 28.8637 30.0922C28.9091 30.5228 29.4473 35.0443 33.3966 37.2314C36.7508 39.0899 41.1533 38.4836 44.2187 35.6449C44.468 36.1265 46.1168 39.1749 49.624 39.9794C52.8933 40.7217 56.4459 39.2145 58.497 36.1549C62.5822 36.6138 66.3728 35.1123 68.2199 32.183C69.2171 30.6022 69.4211 28.9647 69.4324 27.8825C70.747 28.0581 72.2655 28.3584 73.9143 28.8797C76.6396 29.7466 78.7984 30.9308 80.3679 31.962Z" fill="white" stroke="#525375" stroke-miterlimit="10" stroke-linecap="round" stroke-linejoin="round"/>
<path d="M58.4204 74.4476C58.6843 73.2874 57.9577 72.1329 56.7975 71.8691C55.6373 71.6052 54.4829 72.3318 54.219 73.492C53.9551 74.6521 54.6817 75.8066 55.8419 76.0705C57.0021 76.3343 58.1565 75.6077 58.4204 74.4476Z" fill="#EFEFF7"/>
<path d="M13.8687 59.2364C14.1325 58.0762 13.4059 56.9218 12.2458 56.6579C11.0856 56.394 9.93114 57.1206 9.66726 58.2808C9.40337 59.441 10.13 60.5954 11.2902 60.8593C12.4503 61.1232 13.6048 60.3966 13.8687 59.2364Z" fill="#EFEFF7"/>
<path d="M70.0806 62.7137C70.3445 61.5536 69.6179 60.3991 68.4577 60.1352C67.2975 59.8714 66.1431 60.5979 65.8792 61.7581C65.6153 62.9183 66.3419 64.0727 67.5021 64.3366C68.6622 64.6005 69.8167 63.8739 70.0806 62.7137Z" fill="#EFEFF7"/>
<path d="M27.8604 81.7787C28.1242 80.6185 27.3976 79.4641 26.2375 79.2002C25.0773 78.9363 23.9228 79.6629 23.659 80.8231C23.3951 81.9833 24.1217 83.1377 25.2819 83.4016C26.442 83.6655 27.5965 82.9389 27.8604 81.7787Z" fill="#EFEFF7"/>
<path d="M33.256 78.024C33.4295 77.2613 34.1885 76.7836 34.9513 76.9571C35.714 77.1306 36.1917 77.8895 36.0182 78.6523C35.8447 79.4151 35.0858 79.8928 34.323 79.7193C33.5602 79.5458 33.0825 78.7868 33.256 78.024Z" fill="#EFEFF7"/>
<path d="M25.3122 74.9186C25.4856 74.1559 26.2446 73.6782 27.0074 73.8517C27.7702 74.0251 28.2479 74.7841 28.0744 75.5469C27.9009 76.3097 27.1419 76.7874 26.3791 76.6139C25.6164 76.4404 25.1387 75.6814 25.3122 74.9186Z" fill="#EFEFF7"/>
<path d="M51.7323 75.7504C51.8215 75.3582 52.2018 75.1103 52.5816 75.1967C52.9614 75.283 53.197 75.671 53.1078 76.0633C53.0186 76.4555 52.6384 76.7034 52.2585 76.617C51.8787 76.5306 51.6431 76.1426 51.7323 75.7504Z" fill="#EFEFF7"/>
<path d="M17.4169 58.0253C17.5061 57.6331 17.8863 57.3852 18.2662 57.4716C18.646 57.558 18.8816 57.946 18.7924 58.3382C18.7032 58.7304 18.3229 58.9783 17.9431 58.8919C17.5633 58.8055 17.3277 58.4175 17.4169 58.0253Z" fill="#EFEFF7"/>
<path d="M22.4809 64.5857C22.5701 64.1935 22.9503 63.9455 23.3301 64.0319C23.71 64.1183 23.9456 64.5063 23.8564 64.8985C23.7671 65.2907 23.3869 65.5387 23.0071 65.4523C22.6273 65.3659 22.3917 64.9779 22.4809 64.5857Z" fill="#EFEFF7"/>
<path d="M28.5849 68.4955C28.6741 68.1033 29.0543 67.8553 29.4341 67.9417C29.814 68.0281 30.0496 68.4161 29.9604 68.8083C29.8711 69.2005 29.4909 69.4485 29.1111 69.3621C28.7313 69.2757 28.4957 68.8877 28.5849 68.4955Z" fill="#EFEFF7"/>
<path d="M39.1718 72.6338C39.261 72.2416 39.6412 71.9936 40.0211 72.08C40.4009 72.1664 40.6365 72.5544 40.5473 72.9466C40.4581 73.3388 40.0778 73.5868 39.698 73.5004C39.3182 73.414 39.0826 73.026 39.1718 72.6338Z" fill="#EFEFF7"/>
<path d="M46.0082 78.0089C46.0974 77.6167 46.4777 77.3687 46.8575 77.4551C47.2373 77.5415 47.4729 77.9295 47.3837 78.3217C47.2945 78.714 46.9143 78.9619 46.5344 78.8755C46.1546 78.7891 45.919 78.4011 46.0082 78.0089Z" fill="#EFEFF7"/>
<path d="M40.9372 80.7329C41.1106 79.9701 41.8696 79.4924 42.6324 79.6659C43.3952 79.8394 43.8729 80.5984 43.6994 81.3612C43.5259 82.1239 42.7669 82.6016 42.0041 82.4281C41.2414 82.2547 40.7637 81.4957 40.9372 80.7329Z" fill="#EFEFF7"/>
<path d="M19.4411 66.521C19.6146 65.7582 20.3735 65.2805 21.1363 65.454C21.8991 65.6275 22.3768 66.3865 22.2033 67.1493C22.0298 67.912 21.2708 68.3898 20.508 68.2163C19.7453 68.0428 19.2676 67.2838 19.4411 66.521Z" fill="#EFEFF7"/>
<path d="M21.8576 72.044C22.0311 71.2812 22.79 70.8035 23.5528 70.977C24.3156 71.1505 24.7933 71.9095 24.6198 72.6723C24.4463 73.435 23.6873 73.9127 22.9245 73.7392C22.1618 73.5657 21.6841 72.8068 21.8576 72.044Z" fill="#EFEFF7"/>
<path d="M15.5324 72.6198C15.7059 71.8571 16.4649 71.3794 17.2276 71.5528C17.9904 71.7263 18.4681 72.4853 18.2946 73.2481C18.1211 74.0109 17.3621 74.4886 16.5994 74.3151C15.8366 74.1416 15.3589 73.3826 15.5324 72.6198Z" fill="#EFEFF7"/>
<path d="M75.2189 65.8264C75.3924 65.0637 76.1514 64.586 76.9141 64.7594C77.6769 64.9329 78.1546 65.6919 77.9811 66.4547C77.8076 67.2175 77.0486 67.6952 76.2859 67.5217C75.5231 67.3482 75.0454 66.5892 75.2189 65.8264Z" fill="#EFEFF7"/>
<path d="M8.27212 56.0509C8.44561 55.2881 9.2046 54.8104 9.96737 54.9839C10.7301 55.1574 11.2078 55.9164 11.0344 56.6792C10.8609 57.4419 10.1019 57.9196 9.3391 57.7461C8.57633 57.5726 8.09863 56.8137 8.27212 56.0509Z" fill="#EFEFF7"/>
<path d="M64.484 59.5282C64.6575 58.7654 65.4165 58.2877 66.1793 58.4612C66.9421 58.6347 67.4198 59.3937 67.2463 60.1565C67.0728 60.9193 66.3138 61.397 65.551 61.2235C64.7882 61.05 64.3105 60.291 64.484 59.5282Z" fill="#EFEFF7"/>
<path d="M19.8205 76.1228C20.2214 74.3602 21.9753 73.2564 23.7379 73.6573C25.5005 74.0582 26.6043 75.812 26.2034 77.5746C25.8025 79.3372 24.0487 80.4411 22.2861 80.0402C20.5235 79.6393 19.4196 77.8854 19.8205 76.1228Z" fill="#EFEFF7"/>
<path d="M14.6794 65.8454C15.0803 64.0828 16.8342 62.9789 18.5968 63.3798C20.3594 63.7807 21.4632 65.5346 21.0623 67.2972C20.6614 69.0598 18.9076 70.1637 17.145 69.7627C15.3824 69.3618 14.2785 67.608 14.6794 65.8454Z" fill="#EFEFF7"/>
<path d="M75.6306 53.9189C76.0315 52.1563 77.7853 51.0524 79.5479 51.4533C81.3105 51.8542 82.4144 53.6081 82.0135 55.3707C81.6126 57.1333 79.8587 58.2371 78.0961 57.8362C76.3335 57.4353 75.2297 55.6815 75.6306 53.9189Z" fill="#EFEFF7"/>
<path d="M43.2261 80.5312C43.5654 79.0395 45.0497 78.1053 46.5414 78.4446C48.0331 78.7839 48.9673 80.2682 48.628 81.7599C48.2887 83.2515 46.8044 84.1857 45.3127 83.8465C43.8211 83.5072 42.8869 82.0229 43.2261 80.5312Z" fill="#EFEFF7"/>
<path d="M60.1768 78.4361C60.3797 77.544 61.2674 76.9852 62.1595 77.1882C63.0516 77.3911 63.6104 78.2788 63.4075 79.1709C63.2045 80.0631 62.3168 80.6218 61.4247 80.4189C60.5326 80.2159 59.9738 79.3282 60.1768 78.4361Z" fill="#EFEFF7"/>
<path d="M65.7002 71.3963C65.9031 70.5041 66.7908 69.9454 67.683 70.1483C68.5751 70.3512 69.1338 71.239 68.9309 72.1311C68.728 73.0232 67.8403 73.5819 66.9481 73.379C66.056 73.1761 65.4973 72.2884 65.7002 71.3963Z" fill="#EFEFF7"/>
<path d="M48.5298 81.313C48.7327 80.4208 49.6204 79.8621 50.5125 80.065C51.4047 80.268 51.9634 81.1557 51.7605 82.0478C51.5576 82.9399 50.6699 83.4987 49.7777 83.2957C48.8856 83.0928 48.3269 82.2051 48.5298 81.313Z" fill="#EFEFF7"/>
<path d="M58.3369 79.2449C58.5398 78.3528 59.4275 77.7941 60.3197 77.997C61.2118 78.1999 61.7705 79.0876 61.5676 79.9798C61.3647 80.8719 60.477 81.4306 59.5848 81.2277C58.6927 81.0248 58.134 80.1371 58.3369 79.2449Z" fill="#EFEFF7"/>
<path d="M32.4668 72.7406C32.6697 71.8485 33.5574 71.2897 34.4496 71.4927C35.3417 71.6956 35.9004 72.5833 35.6975 73.4754C35.4946 74.3675 34.6069 74.9263 33.7147 74.7233C32.8226 74.5204 32.2639 73.6327 32.4668 72.7406Z" fill="#EFEFF7"/>
<path d="M36.52 85.3505C36.7229 84.4583 37.6106 83.8996 38.5028 84.1025C39.3949 84.3054 39.9536 85.1932 39.7507 86.0853C39.5478 86.9774 38.6601 87.5361 37.768 87.3332C36.8758 87.1303 36.3171 86.2426 36.52 85.3505Z" fill="#EFEFF7"/>
<path d="M57.5581 73.722C57.761 72.8298 58.6487 72.2711 59.5409 72.474C60.433 72.6769 60.9917 73.5646 60.7888 74.4568C60.5859 75.3489 59.6982 75.9076 58.806 75.7047C57.9139 75.5018 57.3552 74.6141 57.5581 73.722Z" fill="#EFEFF7"/>
<path d="M35.8638 16.0066C35.8638 16.0066 32.2245 13.5003 31.4501 15.4749C30.6758 17.4496 29.282 20.7154 31.605 21.323C33.928 21.9306 37.877 21.3989 38.0319 20.1838C38.1868 18.9686 35.8638 16.0066 35.8638 16.0066Z" fill="white" stroke="#525375" stroke-miterlimit="10" stroke-linecap="round" stroke-linejoin="round"/>
<path d="M55.3994 15.5749C54.3938 15.5749 52.2391 18.3466 52.67 18.8357C53.101 19.3249 56.405 18.6727 56.8359 17.8575C57.2669 17.0423 55.3994 15.5749 55.3994 15.5749Z" fill="white" stroke="#525375" stroke-miterlimit="10" stroke-linecap="round" stroke-linejoin="round"/>
<path d="M50.3568 27.6598C50.3568 27.6598 47.4054 28.3365 48.6207 30.0282C49.836 31.72 52.6139 30.7049 52.6139 30.7049C52.6139 30.7049 51.7458 26.9831 50.3568 27.6598Z" fill="white" stroke="#525375" stroke-miterlimit="10" stroke-linecap="round" stroke-linejoin="round"/>
<path d="M77.5542 46.5386C77.2142 46.6519 75.7977 41.4392 70.1317 45.1787C64.4657 48.9183 67.9786 50.0515 69.7917 50.6181C71.6049 51.1847 75.5144 52.9978 76.5343 51.1847C77.5542 49.3716 77.5542 46.5386 77.5542 46.5386Z" fill="#525375" stroke="#525375" stroke-miterlimit="10" stroke-linecap="round" stroke-linejoin="round"/>
<path d="M29.8561 70.7791C27.611 72.2207 23.2705 77.2662 26.1143 78.4456C28.9581 79.6251 35.843 81.5908 35.843 81.5908C35.843 81.5908 39.1358 75.497 35.394 71.5654C31.6522 67.6339 29.8561 70.7791 29.8561 70.7791Z" fill="#525375" stroke="#525375" stroke-miterlimit="10" stroke-linecap="round" stroke-linejoin="round"/>
<path d="M11.9184 41.0444C11.9184 41.0444 6.69531 39.293 6.39685 41.7449C6.09838 44.1969 6.54608 51.261 9.38148 49.6263C12.2169 47.9916 13.7092 45.9483 14.0077 44.4304C14.3061 42.9126 11.9184 41.0444 11.9184 41.0444Z" fill="#525375" stroke="#525375" stroke-miterlimit="10" stroke-linecap="round" stroke-linejoin="round"/>
<path d="M41.4185 46.4386C41.4185 46.4386 34.4046 47.2455 33.8201 49.0385C33.2356 50.8316 36.5234 56.2108 40.3957 55.8522C44.2679 55.4936 43.6104 46.9765 41.4185 46.4386Z" fill="#525375" stroke="#525375" stroke-miterlimit="10" stroke-linecap="round" stroke-linejoin="round"/>
<path d="M64.2315 69.9835C64.2315 69.9835 62.0217 68.5103 58.9621 70.6634C55.9024 72.8165 58.2821 74.6296 59.5287 75.5362C60.7752 76.4427 65.9313 75.3095 65.5913 73.6097C65.2514 71.9099 64.2315 69.9835 64.2315 69.9835Z" fill="#525375" stroke="#525375" stroke-miterlimit="10" stroke-linecap="round" stroke-linejoin="round"/>
<path d="M23.8 3.1713C23.8 3.1713 21.4926 -0.15384 19.1852 1.4256C16.8778 3.00504 19.9269 3.00504 19.8445 4.83386C19.7621 6.66269 23.5528 6.33017 24.1297 5.33263C24.7065 4.33509 23.8 3.1713 23.8 3.1713Z" fill="white" stroke="#525375" stroke-miterlimit="10" stroke-linecap="round" stroke-linejoin="round"/>
</svg>
