<svg width="200" height="91" fill="none" xmlns="http://www.w3.org/2000/svg"><path d="m101.961 38.333-.806 6.201-.97 7.461M108.804 45.464l-7.649-.93M108.829 38.779l-2.095 13.255M118.21 51.696l-6.317-.366 1.397-11.007 5.031.181M117.481 46.348l-5.349-.587M121.91 40.299l-1.449 11.36 6.869.446M130.708 39.033l-.917 12.883 4.875-.023M145.629 42.083c-1.644-1.34-4.322-1.366-6.133-.34-3.61 2.037-3.969 8.382-.952 10.529 1.602 1.142 4 .97 5.608.082 3.529-1.944 4.367-7.916 1.477-10.271ZM155.598 42.834l-1.104 10.013c4.498.834 8.111.614 8.863-.813.262-.493.331-1.06.194-1.602-.066-.208-.322-.875-1.71-1.576-1.894-.956-3.903-.964-5.135-.856 0 0 11.545-3.033 4.081-6.14a6.547 6.547 0 0 0-3.663-.39 6.072 6.072 0 0 0-2.361 1.01M167.176 53.69l1.021-11.513s7.139-1.179 6.253 3.893c-.887 5.072-8.449 2.565-8.449 2.565l7.428 4.535M185.842 44.38c-1.729-1.572-4.664-2.312-6.509-1.1-2.986 1.959-2.731 8.768.871 10.891 1.779 1.048 4.414.981 6.081-.43 2.566-2.171 2.184-6.974-.443-9.362ZM198.032 27.313l-3.328 21.596M195.686 52.9a1.45 1.45 0 0 0-1.609-.474 1.334 1.334 0 0 0-.927.755c-.063.239-.056.49.02.725.075.235.216.443.406.6a1.402 1.402 0 0 0 1.612.17 1.349 1.349 0 0 0 .498-1.776v0Z" stroke="#525375" stroke-linecap="round" stroke-linejoin="round"/><path d="M87.599 35.08C83.006 12.116 60.691-2.76 37.777 1.832 14.813 6.425-.063 28.74 4.53 51.654c4.593 22.964 26.908 37.84 49.822 33.248C77.315 80.31 92.191 57.994 87.6 35.08Z" fill="#fff" stroke="#525375"/><path d="M56.279 71.675a2.28 2.28 0 1 0-4.134-1.93 2.28 2.28 0 0 0 4.134 1.93ZM13.58 45.958a2.28 2.28 0 1 0-4.135-1.93 2.28 2.28 0 0 0 4.134 1.93ZM46.099 69.997a2.281 2.281 0 1 0-4.134-1.93 2.281 2.281 0 0 0 4.134 1.93ZM23.011 72.42a2.281 2.281 0 1 0-4.134-1.93 2.281 2.281 0 0 0 4.134 1.93ZM29.436 69.742a1.5 1.5 0 1 1 2.717 1.269 1.5 1.5 0 0 1-2.717-1.27ZM21.91 64.75a1.5 1.5 0 1 1 2.718 1.268 1.5 1.5 0 0 1-2.718-1.269ZM49.065 71.526a.76.76 0 0 1 1.003-.383.76.76 0 0 1 .35 1.015.76.76 0 0 1-1.002.383.76.76 0 0 1-.35-1.015ZM17.522 45.499a.76.76 0 0 1 1.003-.383.76.76 0 0 1 .35 1.015.76.76 0 0 1-1.002.383.76.76 0 0 1-.35-1.015ZM21.294 53.422a.76.76 0 0 1 1.003-.383.76.76 0 0 1 .35 1.015.76.76 0 0 1-1.003.383.76.76 0 0 1-.35-1.015ZM26.735 58.835a.76.76 0 0 1 1.003-.383.76.76 0 0 1 .35 1.015.76.76 0 0 1-1.002.383.76.76 0 0 1-.35-1.015ZM36.765 65.488a.76.76 0 0 1 1.003-.383.76.76 0 0 1 .35 1.015.76.76 0 0 1-1.003.383.76.76 0 0 1-.35-1.015ZM42.636 72.582a.76.76 0 0 1 1.003-.383.76.76 0 0 1 .35 1.014.76.76 0 0 1-1.002.383.76.76 0 0 1-.351-1.014ZM36.778 74.265a1.5 1.5 0 1 1 2.718 1.268 1.5 1.5 0 0 1-2.718-1.268ZM17.715 54.744a1.5 1.5 0 1 1 2.718 1.269 1.5 1.5 0 0 1-2.718-1.269ZM18.979 61a1.5 1.5 0 1 1 2.718 1.27A1.5 1.5 0 0 1 18.979 61ZM12.304 60.18a1.5 1.5 0 1 1 2.718 1.269 1.5 1.5 0 0 1-2.718-1.268ZM75.593 66.515a1.5 1.5 0 1 1 2.718 1.269 1.5 1.5 0 0 1-2.718-1.269Z" fill="#EFEFF7"/><path d="M8.5 41.408a1.5 1.5 0 1 1 2.718 1.268 1.5 1.5 0 0 1-2.717-1.268ZM49.634 82.359a1.5 1.5 0 1 1 2.718 1.269 1.5 1.5 0 0 1-2.718-1.27ZM15.957 64.766a3.465 3.465 0 1 1 6.28 2.931 3.465 3.465 0 0 1-6.28-2.931ZM12.938 52.979a3.466 3.466 0 1 1 6.28 2.932 3.466 3.466 0 0 1-6.28-2.932ZM25.466 74.14a3.465 3.465 0 1 1 6.28 2.932 3.465 3.465 0 0 1-6.28-2.932ZM39.192 74.569a2.933 2.933 0 1 1 5.315 2.48 2.933 2.933 0 0 1-5.315-2.48ZM57.203 76.196a1.754 1.754 0 1 1 3.179 1.484 1.754 1.754 0 0 1-3.179-1.484ZM64.496 70.148a1.754 1.754 0 1 1 3.179 1.484 1.754 1.754 0 0 1-3.18-1.484Z" fill="#EFEFF7"/><path d="M44.506 76.566a1.754 1.754 0 1 1 3.178 1.484 1.754 1.754 0 0 1-3.178-1.484ZM55.118 76.621a1.754 1.754 0 1 1 3.179 1.485 1.754 1.754 0 0 1-3.18-1.485ZM29.802 64.097a1.754 1.754 0 1 1 3.179 1.484 1.754 1.754 0 0 1-3.179-1.484ZM31.173 78.055a1.754 1.754 0 1 1 3.179 1.484 1.754 1.754 0 0 1-3.179-1.484ZM55.549 70.731a1.754 1.754 0 1 1 3.179 1.484 1.754 1.754 0 0 1-3.18-1.484Z" fill="#EFEFF7"/><path d="M74.37 42.968c7.987 0 14.427-6.49 14.427-14.428v-4.942H59.893v4.942c.05 7.988 6.49 14.428 14.477 14.428ZM39.325 42.968c7.987 0 14.427-6.49 14.427-14.428v-4.942H24.897v4.942c0 7.988 6.49 14.428 14.428 14.428Z" fill="#525375" stroke="#525375" stroke-linecap="round"/><path d="M24.897 23.598S8.473 15.61 3.681 16.458c-4.793.85-1.698 7.938-1.698 7.938M59.942 26.094s-3.145-2.895-6.14 0M49.908 46.689c.786 3.586 3.795 6.172 7.228 5.978 3.432-.194 6.13-3.102 6.508-6.754" stroke="#525375" stroke-linecap="round"/></svg>