<svg width="122" height="150" fill="none" xmlns="http://www.w3.org/2000/svg"><path d="M1 122.337s7.826 18.819 4.345 20.734c-1.614.889-3.525-.397-3.376-1.738.149-1.341 10.701-1.534 12.42-1.573.985 0 2.533-.039 2.869-.828.43-1.004-1.355-2.66-2.043-3.267" stroke="#525375" stroke-linecap="round" stroke-linejoin="round"/><path d="M14.911 135.273c2.864 2.208 4.054 1.711 4.406 1.523 1.95-1.103 1.763-7.13-1.129-8.797a3.917 3.917 0 0 0-3.177-.259 4.06 4.06 0 0 0-2.17 2.61c-.93 3.179 2.004 7.545 4.813 7.545a3.512 3.512 0 0 0 2.082-.806c3.178-2.362 2.352-7.727 2.274-8.218-.077.834-.61 6.866 1.317 8.45.124.112.28.181.446.198 1.751.083 3.337-7.627 2.803-8.968-.584-1.451-1.8 5.227.231 5.342 2.033.116 9.677-.811 7.187-4.122-2.489-3.311-4.813-1.744-5.452-.756-.639.988-2.897 9.178.7 8.946 2.836-.182 5.386-2.555 5.386-2.555M56.767 128.739s-.291 9.128 1.57 9.934c1.862.805 4.505-7.561 3.718-9.526-.788-1.965-1.102 10.9 1.767 9.128 2.87-1.771 2.545-7.555 2.347-9.42M75.817 130.301c-.914-1.827-3.304-3.163-5.297-2.451-1.592.552-2.204 2.208-2.358 2.666-.793 2.163-.165 5.088 1.895 6.341.816.524 1.799.721 2.753.552 2.495-.613 4.362-4.415 3.007-7.108ZM76.749 128.739s.589-2.848 2.252-1.865c1.663.982.98 4.613 3.332 2.654 2.352-1.959 2.153-4.029 2.842-2.947.688 1.082-9.209 8.93-5.293 10.21 3.916 1.28 7.16-5.006 7.16-5.006s4.896-10.016 3.624-13.548c-1.272-3.533-2.253 19.729-2.253 19.729s1.564-9.934 3.525-10.894c1.96-.96 3.43 4.807-1.372 7.175-4.802 2.367 1.47-1.176 4.995 2.163" stroke="#525375" stroke-linecap="round" stroke-linejoin="round"/><path d="M36.412 134.445s2.952-2.759 2.952-12.892c0-10.132-8.69 8.19-1.217 14.984 7.474 6.794 4.869-6.97 4.175-6.446s-.176 8.885 2.605 7.489 2.434-7.837 1.74-8.361c-.694-.524 6.257 15.679 2.087 14.984-4.169-.696.87-15.155.87-15.155" stroke="#525375" stroke-linecap="round" stroke-linejoin="round"/><path d="m66.954 46.045 9.898 16.575 3.311 19.916 8.159 17.863-7.74 3.287-8.228-20.715-1.24-19.068-6.89-17.402-.694-12.565 3.424 12.109Z" fill="#fff" stroke="#525375" stroke-linecap="round" stroke-linejoin="round"/><path d="M63.087 30.665S47.225 22.5 68.225 1c0 0 12.291 27.65-5.138 29.664Z" fill="#525375" stroke="#525375" stroke-linecap="round" stroke-linejoin="round"/><path d="m97.5 136.996-7.885-19.278-.62.263 7.605 19.318-1.809.672c-.839-2.427-5.903-10.676-8.938-13.849-4.513-4.726-7.496-5.875-8.65-8.821-.835-2.121-.875-5.667 3.353-11.604l-4.95-10.772 8.384-3.56 4.312 11.043c3.468.798 7.741 2.407 9.515 6.05 1.834 3.768-.212 7.251-.843 13.515a38.908 38.908 0 0 0 2.087 16.457l-1.56.566Z" fill="#fff" stroke="#525375" stroke-linecap="round" stroke-linejoin="round"/><path d="M83.203 93.703a1.034 1.034 0 1 0-1.875-.875 1.034 1.034 0 0 0 1.875.875ZM96.099 120.997a2.281 2.281 0 1 0-4.134-1.93 2.281 2.281 0 0 0 4.134 1.93ZM83.38 99.393a1.615 1.615 0 1 0-2.925-1.366 1.615 1.615 0 0 0 2.926 1.366ZM82.635 105.906a1.5 1.5 0 1 1 2.718 1.268 1.5 1.5 0 0 1-2.718-1.268ZM94.387 124.829a.915.915 0 1 1 1.658.773.915.915 0 0 1-1.658-.773ZM82.326 116.699a.759.759 0 0 1 1.003-.383.76.76 0 0 1 .35 1.015.76.76 0 0 1-1.002.382.758.758 0 0 1-.35-1.014ZM85.326 101.699a.759.759 0 0 1 1.003-.383.76.76 0 0 1 .35 1.015.76.76 0 0 1-1.002.382.758.758 0 0 1-.35-1.014ZM80.996 95.772a.76.76 0 0 1 1.003-.382.76.76 0 0 1 .35 1.014.76.76 0 0 1-1.003.383.76.76 0 0 1-.35-1.015ZM87.326 108.699a.759.759 0 0 1 1.003-.383.76.76 0 0 1 .35 1.015.76.76 0 0 1-1.002.382.758.758 0 0 1-.35-1.014ZM95.835 108.746a.759.759 0 0 1 1.003-.383.76.76 0 0 1 .35 1.015.76.76 0 0 1-1.002.382.758.758 0 0 1-.35-1.014ZM89.977 110.429a1.5 1.5 0 1 1 2.717 1.269 1.5 1.5 0 0 1-2.717-1.269ZM86.634 121.359a1.5 1.5 0 1 1 2.718 1.268 1.5 1.5 0 0 1-2.718-1.268ZM78.665 110.304a3.465 3.465 0 1 1 6.28 2.932 3.465 3.465 0 0 1-6.28-2.932Z" fill="#EFEFF7"/><path d="M92.621 111.853a2.015 2.015 0 1 1 3.651 1.705 2.015 2.015 0 0 1-3.65-1.705ZM88.742 104.589a1.754 1.754 0 1 1 3.179 1.486 1.754 1.754 0 0 1-3.18-1.486ZM83.002 100.262a1.754 1.754 0 1 1 3.178 1.482 1.754 1.754 0 0 1-3.178-1.482ZM83.742 112.589a1.754 1.754 0 1 1 3.179 1.486 1.754 1.754 0 0 1-3.18-1.486Z" fill="#EFEFF7"/><path d="M85.539 116.18s-.451-2.188 2.145-2.454a3.462 3.462 0 0 1 2.927.515 2.767 2.767 0 0 1 .818 2.751c-.434 1.482-2.275 1.824-2.896 1.937a2.432 2.432 0 0 1-1.324-.016c-1.46-.485-1.655-2.621-1.67-2.733ZM61.21 45.133s-13.647 16.986-33.42-5.36c0-.033 25.01-16.782 33.42 5.36Z" fill="#525375" stroke="#525375" stroke-linecap="round" stroke-linejoin="round"/></svg>