<svg width="218" height="114" viewBox="0 0 218 114" fill="none" xmlns="http://www.w3.org/2000/svg">
<g clip-path="url(#clip0_2786_2)">
<path d="M60.2253 22.4344C56.1599 18.7045 47.4597 11.9444 35.3182 11.0693C24.3601 10.2708 11.4289 14.3508 11.0563 18.9558C10.9577 20.1591 13.4237 22.4011 18.3 26.8531C22.3654 30.5393 26.4093 33.8869 29.3351 36.3152L60.2253 22.4344Z" fill="white" stroke="#525375" stroke-linecap="round" stroke-linejoin="round"/>
<path d="M96.1019 97.0898C96.1019 97.0898 96.3538 104.189 100.266 109.122C104.178 114.055 133.009 114.733 136.701 111.583C140.394 108.433 139.156 97.6255 139.156 97.6255L96.1019 97.0898Z" fill="white" stroke="#525375" stroke-linecap="round" stroke-linejoin="round"/>
<path d="M104.661 102.963C104.661 102.963 102.699 105.895 104.661 106.879C106.622 107.864 110.042 108.356 110.524 107.382C111.006 106.409 111.028 103.937 109.79 103.215C108.552 102.493 104.661 102.963 104.661 102.963Z" fill="#525375" stroke="#525375" stroke-linecap="round" stroke-linejoin="round"/>
<path d="M118.205 103.587C118.205 103.587 115.311 102.865 114.84 103.85C114.369 104.834 113.481 107.919 114.61 108.137C115.739 108.356 119.53 109.341 120.451 108.389C121.371 107.437 122.906 104.32 121.109 104.101C119.312 103.882 118.205 103.587 118.205 103.587Z" fill="#525375" stroke="#525375" stroke-linecap="round" stroke-linejoin="round"/>
<path d="M131.793 103.434C131.289 103.686 128.352 102.931 126.402 103.685C124.451 104.44 124.703 108.324 125.174 108.324C125.645 108.324 132.011 109.056 132.735 108.072C133.458 107.087 131.793 103.434 131.793 103.434Z" fill="#525375" stroke="#525375" stroke-linecap="round" stroke-linejoin="round"/>
<path d="M63.4368 79.0297C56.4917 84.3354 48.5333 88.169 40.0513 90.2961C37.9693 90.8102 20.1953 95.0981 17.3572 89.6071C16.1956 87.3319 18.6839 82.9457 23.626 74.1731C25.8176 70.3556 27.7568 67.2271 29.2142 65.0176L63.4368 79.0297Z" fill="white" stroke="#525375" stroke-linecap="round" stroke-linejoin="round"/>
<path d="M27.6686 30.6054C63.7535 -1.6519 124.484 0.579849 124.484 0.579849C138.028 1.09395 172.381 3.86109 200.62 25.18C212.159 33.9308 216.783 41.2816 217.386 48.9166C218.295 60.7191 209.222 70.1914 204.652 74.7965C177.641 102.142 132.8 100.535 113.7 99.8346C69.2652 98.2267 37.0927 83.2299 24.8306 67.3473C22.4308 64.2299 16.5349 56.6173 17.543 47.3415C17.8608 44.8147 19.0884 38.3279 27.6686 30.6054Z" fill="white" stroke="#525375" stroke-linecap="round" stroke-linejoin="round"/>
<path d="M38.5935 64.0719C39.0622 63.0552 40.2674 62.6099 41.2855 63.0773C42.3036 63.5447 42.749 64.7478 42.2803 65.7645C41.8116 66.7813 40.6063 67.2266 39.5882 66.7591C38.5701 66.2917 38.1248 65.0886 38.5935 64.0719Z" fill="#EFEFF7"/>
<path d="M80.6088 78.2438C81.0775 77.227 82.2828 76.7818 83.3009 77.2492C84.319 77.7166 84.7644 78.9197 84.2957 79.9364C83.827 80.9531 82.6217 81.3984 81.6036 80.931C80.5855 80.4636 80.1401 79.2605 80.6088 78.2438Z" fill="#EFEFF7"/>
<path d="M76.4887 90.443C76.9574 89.4263 78.1627 88.981 79.1808 89.4484C80.1989 89.9158 80.6443 91.1189 80.1756 92.1356C79.7069 93.1524 78.5016 93.5976 77.4835 93.1302C76.4654 92.6628 76.02 91.4597 76.4887 90.443Z" fill="#EFEFF7"/>
<path d="M55.3439 81.1525C55.6521 80.4841 55.3593 79.6931 54.6899 79.3858C54.0206 79.0785 53.2282 79.3712 52.92 80.0397C52.6119 80.7081 52.9047 81.4991 53.574 81.8064C54.2434 82.1137 55.0358 81.821 55.3439 81.1525Z" fill="#EFEFF7"/>
<path d="M63.0608 83.3869C63.3689 82.7185 63.0761 81.9275 62.4068 81.6202C61.7374 81.3128 60.945 81.6056 60.6368 82.2741C60.3287 82.9425 60.6215 83.7335 61.2908 84.0408C61.9602 84.3481 62.7526 84.0553 63.0608 83.3869Z" fill="#EFEFF7"/>
<path d="M42.8418 68.8752C43.0003 68.5315 42.8585 68.1288 42.5252 67.9757C42.1919 67.8227 41.7933 67.9773 41.6348 68.321C41.4764 68.6647 41.6181 69.0674 41.9514 69.2204C42.2847 69.3735 42.6834 69.2189 42.8418 68.8752Z" fill="#EFEFF7"/>
<path d="M78.6526 75.3068C78.8111 74.9631 78.6693 74.5604 78.336 74.4074C78.0027 74.2544 77.604 74.4089 77.4456 74.7527C77.2871 75.0964 77.4289 75.4991 77.7622 75.6521C78.0955 75.8051 78.4942 75.6505 78.6526 75.3068Z" fill="#EFEFF7"/>
<path d="M71.1062 77.299C71.2647 76.9553 71.1229 76.5526 70.7896 76.3996C70.4563 76.2465 70.0577 76.4011 69.8992 76.7448C69.7408 77.0886 69.8825 77.4912 70.2158 77.6443C70.5491 77.7973 70.9478 77.6427 71.1062 77.299Z" fill="#EFEFF7"/>
<path d="M64.3013 76.7189C64.4597 76.3752 64.318 75.9725 63.9847 75.8195C63.6514 75.6665 63.2527 75.821 63.0943 76.1648C62.9358 76.5085 63.0776 76.9112 63.4109 77.0642C63.7442 77.2172 64.1428 77.0626 64.3013 76.7189Z" fill="#EFEFF7"/>
<path d="M54.0157 73.7424C54.1741 73.3986 54.0324 72.996 53.6991 72.8429C53.3657 72.6899 52.9671 72.8445 52.8086 73.1882C52.6502 73.5319 52.7919 73.9346 53.1252 74.0876C53.4586 74.2407 53.8572 74.0861 54.0157 73.7424Z" fill="#EFEFF7"/>
<path d="M45.8233 73.8381C45.9817 73.4943 45.84 73.0917 45.5067 72.9386C45.1734 72.7856 44.7747 72.9402 44.6162 73.2839C44.4578 73.6276 44.5995 74.0303 44.9329 74.1833C45.2662 74.3364 45.6648 74.1818 45.8233 73.8381Z" fill="#EFEFF7"/>
<path d="M48.0498 78.7736C48.3579 78.1052 48.0651 77.3142 47.3958 77.0069C46.7264 76.6996 45.934 76.9923 45.6258 77.6608C45.3177 78.3292 45.6105 79.1202 46.2798 79.4275C46.9492 79.7348 47.7416 79.4421 48.0498 78.7736Z" fill="#EFEFF7"/>
<path d="M72.2668 80.4846C72.575 79.8161 72.2822 79.0251 71.6128 78.7178C70.9434 78.4105 70.151 78.7033 69.8429 79.3717C69.5347 80.0402 69.8275 80.8312 70.4969 81.1385C71.1662 81.4458 71.9587 81.153 72.2668 80.4846Z" fill="#EFEFF7"/>
<path d="M67.2917 83.2189C67.5999 82.5505 67.3071 81.7595 66.6377 81.4522C65.9683 81.1449 65.1759 81.4376 64.8678 82.1061C64.5596 82.7745 64.8524 83.5655 65.5218 83.8728C66.1911 84.1801 66.9836 83.8874 67.2917 83.2189Z" fill="#EFEFF7"/>
<path d="M71.6872 87.2736C71.9954 86.6052 71.7026 85.8142 71.0332 85.5069C70.3639 85.1996 69.5714 85.4923 69.2633 86.1608C68.9551 86.8292 69.2479 87.6202 69.9173 87.9275C70.5866 88.2348 71.3791 87.9421 71.6872 87.2736Z" fill="#EFEFF7"/>
<path d="M86.6181 79.0724C86.9263 78.404 86.6335 77.613 85.9641 77.3057C85.2948 76.9984 84.5023 77.2912 84.1942 77.9596C83.886 78.628 84.1788 79.419 84.8482 79.7263C85.5176 80.0337 86.31 79.7409 86.6181 79.0724Z" fill="#EFEFF7"/>
<path d="M66.4738 87.4271C67.1859 85.8825 66.5092 84.0546 64.9625 83.3445C63.4158 82.6344 61.5847 83.3109 60.8726 84.8555C60.1605 86.4002 60.8371 88.228 62.3839 88.9381C63.9306 89.6482 65.7617 88.9717 66.4738 87.4271Z" fill="#EFEFF7"/>
<path d="M76.2106 82.7064C76.9227 81.1618 76.246 79.3339 74.6993 78.6238C73.1526 77.9137 71.3215 78.5902 70.6094 80.1348C69.8973 81.6795 70.5739 83.5073 72.1207 84.2174C73.6674 84.9275 75.4985 84.251 76.2106 82.7064Z" fill="#EFEFF7"/>
<path d="M46.4547 77.3113C47.0573 76.0041 46.4847 74.4572 45.1757 73.8563C43.8667 73.2553 42.3171 73.8278 41.7144 75.135C41.1118 76.4422 41.6844 77.9891 42.9934 78.5901C44.3024 79.1911 45.8521 78.6186 46.4547 77.3113Z" fill="#EFEFF7"/>
<path d="M34.9893 66.0422C35.3497 65.2604 35.0073 64.3353 34.2244 63.9759C33.4415 63.6164 32.5147 63.9589 32.1543 64.7407C31.7939 65.5225 32.1364 66.4476 32.9192 66.807C33.7021 67.1665 34.6289 66.8241 34.9893 66.0422Z" fill="#EFEFF7"/>
<path d="M42.0428 74.8587C42.4032 74.0768 42.0607 73.1517 41.2778 72.7923C40.495 72.4329 39.5682 72.7753 39.2078 73.5571C38.8473 74.3389 39.1898 75.264 39.9727 75.6234C40.7556 75.9829 41.6824 75.6405 42.0428 74.8587Z" fill="#EFEFF7"/>
<path d="M35.9014 67.6985C36.2618 66.9167 35.9194 65.9915 35.1365 65.6321C34.3536 65.2727 33.4268 65.6151 33.0664 66.3969C32.706 67.1787 33.0485 68.1039 33.8313 68.4633C34.6142 68.8227 35.541 68.4803 35.9014 67.6985Z" fill="#EFEFF7"/>
<path d="M58.9639 77.6633C59.3243 76.8815 58.9819 75.9564 58.199 75.597C57.4161 75.2375 56.4893 75.5799 56.1289 76.3618C55.7685 77.1436 56.111 78.0687 56.8938 78.4281C57.6767 78.7876 58.6035 78.4451 58.9639 77.6633Z" fill="#EFEFF7"/>
<path d="M27.7728 62.8782C28.1332 62.0964 27.7907 61.1712 27.0078 60.8118C26.225 60.4524 25.2982 60.7948 24.9377 61.5766C24.5773 62.3584 24.9198 63.2836 25.7027 63.643C26.4855 64.0024 27.4124 63.66 27.7728 62.8782Z" fill="#EFEFF7"/>
<path d="M148.052 82.885C147.714 81.8179 148.307 80.6798 149.376 80.343C150.444 80.0062 151.584 80.5983 151.922 81.6654C152.26 82.7326 151.667 83.8707 150.599 84.2074C149.53 84.5442 148.39 83.9521 148.052 82.885Z" fill="#EFEFF7"/>
<path d="M188.704 65.1897C188.367 64.1225 188.959 62.9845 190.028 62.6477C191.097 62.3109 192.237 62.903 192.575 63.9701C192.912 65.0373 192.32 66.1753 191.251 66.5121C190.182 66.8489 189.042 66.2568 188.704 65.1897Z" fill="#EFEFF7"/>
<path d="M193.868 76.9866C193.531 75.9194 194.123 74.7813 195.192 74.4446C196.261 74.1078 197.401 74.6999 197.738 75.767C198.076 76.8341 197.483 77.9722 196.415 78.309C195.346 78.6458 194.206 78.0537 193.868 76.9866Z" fill="#EFEFF7"/>
<path d="M171.956 84.2931C171.734 83.5915 170.984 83.2022 170.282 83.4236C169.579 83.6451 169.189 84.3933 169.411 85.0949C169.633 85.7965 170.383 86.1857 171.086 85.9643C171.788 85.7429 172.178 84.9947 171.956 84.2931Z" fill="#EFEFF7"/>
<path d="M179.174 80.7716C178.952 80.07 178.203 79.6808 177.5 79.9022C176.797 80.1236 176.408 80.8718 176.63 81.5734C176.852 82.275 177.601 82.6643 178.304 82.4429C179.007 82.2214 179.396 81.4732 179.174 80.7716Z" fill="#EFEFF7"/>
<path d="M154.432 83.5921C154.318 83.2313 153.942 83.0282 153.592 83.1385C153.242 83.2487 153.051 83.6306 153.165 83.9913C153.279 84.3521 153.655 84.5552 154.005 84.4449C154.355 84.3346 154.546 83.9528 154.432 83.5921Z" fill="#EFEFF7"/>
<path d="M133.415 93.6292C133.301 93.2684 132.924 93.0653 132.575 93.1756C132.225 93.2858 132.034 93.6677 132.148 94.0284C132.262 94.3892 132.638 94.5923 132.988 94.482C133.338 94.3718 133.529 93.9899 133.415 93.6292Z" fill="#EFEFF7"/>
<path d="M184.918 64.094C184.804 63.7333 184.427 63.5302 184.078 63.6404C183.728 63.7507 183.537 64.1325 183.651 64.4933C183.765 64.854 184.141 65.0571 184.491 64.9469C184.841 64.8366 185.032 64.4548 184.918 64.094Z" fill="#EFEFF7"/>
<path d="M211.217 58.6253C211.103 58.2645 210.727 58.0614 210.377 58.1717C210.027 58.2819 209.836 58.6638 209.95 59.0245C210.064 59.3853 210.44 59.5884 210.79 59.4781C211.14 59.3678 211.331 58.986 211.217 58.6253Z" fill="#EFEFF7"/>
<path d="M204.642 70.6565C204.528 70.2958 204.152 70.0927 203.802 70.2029C203.452 70.3132 203.261 70.695 203.375 71.0558C203.489 71.4165 203.866 71.6196 204.216 71.5094C204.565 71.3991 204.757 71.0173 204.642 70.6565Z" fill="#EFEFF7"/>
<path d="M181.032 70.8655C180.918 70.5047 180.542 70.3017 180.192 70.4119C179.842 70.5222 179.651 70.904 179.765 71.2648C179.88 71.6255 180.256 71.8286 180.606 71.7183C180.956 71.6081 181.147 71.2262 181.032 70.8655Z" fill="#EFEFF7"/>
<path d="M211.217 60.8128C211.103 60.452 210.727 60.2489 210.377 60.3592C210.027 60.4694 209.836 60.8513 209.95 61.212C210.064 61.5728 210.44 61.7759 210.79 61.6656C211.14 61.5553 211.331 61.1735 211.217 60.8128Z" fill="#EFEFF7"/>
<path d="M175.604 75.0022C175.49 74.6415 175.113 74.4384 174.764 74.5486C174.414 74.6589 174.223 75.0407 174.337 75.4015C174.451 75.7622 174.827 75.9653 175.177 75.8551C175.527 75.7448 175.718 75.363 175.604 75.0022Z" fill="#EFEFF7"/>
<path d="M165.984 79.6995C165.869 79.3387 165.493 79.1357 165.143 79.2459C164.794 79.3562 164.602 79.738 164.717 80.0987C164.831 80.4595 165.207 80.6626 165.557 80.5523C165.907 80.4421 166.098 80.0602 165.984 79.6995Z" fill="#EFEFF7"/>
<path d="M139.99 94.7229C139.875 94.3622 139.499 94.1591 139.149 94.2693C138.799 94.3796 138.608 94.7614 138.722 95.1222C138.837 95.4829 139.213 95.686 139.563 95.5758C139.913 95.4655 140.104 95.0837 139.99 94.7229Z" fill="#EFEFF7"/>
<path d="M155.331 94.721C155.217 94.3602 154.841 94.1571 154.491 94.2674C154.141 94.3776 153.95 94.7595 154.064 95.1202C154.178 95.481 154.554 95.6841 154.904 95.5738C155.254 95.4636 155.445 95.0817 155.331 94.721Z" fill="#EFEFF7"/>
<path d="M116.978 95.8167C116.864 95.4559 116.487 95.2528 116.138 95.3631C115.788 95.4733 115.597 95.8552 115.711 96.2159C115.825 96.5767 116.201 96.7798 116.551 96.6695C116.901 96.5593 117.092 96.1774 116.978 95.8167Z" fill="#EFEFF7"/>
<path d="M159.981 85.2659C159.867 84.9051 159.491 84.702 159.141 84.8123C158.791 84.9226 158.6 85.3044 158.714 85.6651C158.829 86.0259 159.205 86.229 159.555 86.1187C159.905 86.0085 160.096 85.6266 159.981 85.2659Z" fill="#EFEFF7"/>
<path d="M164.953 87.4279C164.731 86.7263 163.982 86.337 163.279 86.5584C162.577 86.7798 162.187 87.5281 162.409 88.2297C162.631 88.9312 163.381 89.3205 164.083 89.0991C164.786 88.8777 165.175 88.1295 164.953 87.4279Z" fill="#EFEFF7"/>
<path d="M209.926 63.754C209.704 63.0524 208.955 62.6632 208.252 62.8846C207.549 63.106 207.16 63.8542 207.382 64.5558C207.604 65.2574 208.353 65.6467 209.056 65.4253C209.759 65.2039 210.148 64.4556 209.926 63.754Z" fill="#EFEFF7"/>
<path d="M184.036 72.4454C183.814 71.7438 183.065 71.3546 182.362 71.576C181.66 71.7974 181.27 72.5456 181.492 73.2472C181.714 73.9488 182.464 74.3381 183.166 74.1167C183.869 73.8953 184.259 73.147 184.036 72.4454Z" fill="#EFEFF7"/>
<path d="M182.194 77.8087C181.972 77.1071 181.223 76.7179 180.52 76.9393C179.818 77.1607 179.428 77.9089 179.65 78.6105C179.872 79.3121 180.622 79.7014 181.324 79.48C182.027 79.2586 182.416 78.5103 182.194 77.8087Z" fill="#EFEFF7"/>
<path d="M188.179 77.8615C187.957 77.1599 187.207 76.7706 186.504 76.992C185.802 77.2134 185.412 77.9617 185.634 78.6633C185.856 79.3648 186.606 79.7541 187.308 79.5327C188.011 79.3113 188.401 78.563 188.179 77.8615Z" fill="#EFEFF7"/>
<path d="M193.712 61.7716C193.49 61.07 192.74 60.6808 192.038 60.9022C191.335 61.1236 190.946 61.8718 191.168 62.5734C191.39 63.275 192.139 63.6643 192.842 63.4429C193.544 63.2214 193.934 62.4732 193.712 61.7716Z" fill="#EFEFF7"/>
<path d="M215.405 55.963C215.183 55.2614 214.434 54.8722 213.731 55.0936C213.028 55.315 212.639 56.0632 212.861 56.7648C213.083 57.4664 213.832 57.8557 214.535 57.6343C215.238 57.4128 215.627 56.6646 215.405 55.963Z" fill="#EFEFF7"/>
<path d="M184.422 81.4734C183.909 79.8522 182.177 78.9527 180.553 79.4643C178.929 79.976 178.029 81.705 178.542 83.3262C179.055 84.9475 180.787 85.847 182.411 85.3353C184.035 84.8237 184.935 83.0947 184.422 81.4734Z" fill="#EFEFF7"/>
<path d="M188.454 71.4461C187.941 69.8249 186.208 68.9254 184.585 69.437C182.961 69.9486 182.061 71.6776 182.574 73.2989C183.087 74.9201 184.819 75.8196 186.443 75.308C188.066 74.7963 188.967 73.0673 188.454 71.4461Z" fill="#EFEFF7"/>
<path d="M162.787 87.4125C162.353 86.0405 160.887 85.2792 159.513 85.7122C158.139 86.1452 157.377 87.6085 157.811 88.9805C158.246 90.3526 159.712 91.1138 161.086 90.6808C162.46 90.2478 163.222 88.7846 162.787 87.4125Z" fill="#EFEFF7"/>
<path d="M110.92 95.4594C110.486 94.0874 109.02 93.3261 107.646 93.7591C106.272 94.1921 105.51 95.6554 105.945 97.0274C106.379 98.3995 107.845 99.1607 109.219 98.7277C110.593 98.2947 111.355 96.8315 110.92 95.4594Z" fill="#EFEFF7"/>
<path d="M207.76 63.7387C207.326 62.3667 205.86 61.6054 204.486 62.0384C203.112 62.4714 202.35 63.9347 202.784 65.3067C203.219 66.6788 204.684 67.44 206.059 67.007C207.433 66.574 208.195 65.1107 207.76 63.7387Z" fill="#EFEFF7"/>
<path d="M146.711 86.762C146.451 85.9414 145.574 85.4861 144.753 85.7451C143.931 86.004 143.475 86.8792 143.735 87.6998C143.995 88.5203 144.871 88.9756 145.693 88.7167C146.515 88.4577 146.971 87.5826 146.711 86.762Z" fill="#EFEFF7"/>
<path d="M157.87 88.5589C157.61 87.7383 156.733 87.283 155.911 87.542C155.09 87.8009 154.634 88.6761 154.894 89.4966C155.153 90.3172 156.03 90.7725 156.852 90.5135C157.674 90.2546 158.129 89.3794 157.87 88.5589Z" fill="#EFEFF7"/>
<path d="M202.842 64.885C202.583 64.0644 201.706 63.6092 200.884 63.8681C200.062 64.1271 199.607 65.0022 199.866 65.8228C200.126 66.6434 201.003 67.0987 201.824 66.8397C202.646 66.5807 203.102 65.7056 202.842 64.885Z" fill="#EFEFF7"/>
<path d="M148.501 87.3772C148.241 86.5566 147.365 86.1014 146.543 86.3603C145.721 86.6193 145.265 87.4944 145.525 88.315C145.785 89.1356 146.662 89.5909 147.483 89.3319C148.305 89.0729 148.761 88.1978 148.501 87.3772Z" fill="#EFEFF7"/>
<path d="M135.343 94.4612C135.083 93.6406 134.207 93.1853 133.385 93.4443C132.563 93.7033 132.107 94.5784 132.367 95.399C132.627 96.2196 133.503 96.6748 134.325 96.4159C135.147 96.1569 135.603 95.2818 135.343 94.4612Z" fill="#EFEFF7"/>
<path d="M172.288 79.2835C172.028 78.4629 171.151 78.0076 170.33 78.2666C169.508 78.5255 169.052 79.4007 169.312 80.2212C169.571 81.0418 170.448 81.4971 171.27 81.2381C172.092 80.9792 172.547 80.104 172.288 79.2835Z" fill="#EFEFF7"/>
<path d="M139.237 89.262C138.977 88.4414 138.1 87.9861 137.279 88.2451C136.457 88.504 136.001 89.3792 136.261 90.1998C136.52 91.0203 137.397 91.4756 138.219 91.2167C139.041 90.9577 139.496 90.0826 139.237 89.262Z" fill="#EFEFF7"/>
<path d="M126.079 96.346C125.819 95.5254 124.942 95.0701 124.12 95.3291C123.299 95.588 122.843 96.4632 123.103 97.2837C123.362 98.1043 124.239 98.5596 125.061 98.3006C125.883 98.0417 126.338 97.1665 126.079 96.346Z" fill="#EFEFF7"/>
<path d="M17.5659 50.9522C124.604 -27.3558 217.386 48.9178 217.386 48.9178C217.386 48.9178 141.338 128.221 17.7414 52.265" stroke="#525375" stroke-linecap="round" stroke-linejoin="round"/>
<path d="M40.6765 48.9502C38.9122 48.2829 3.17842 43.5793 0.658064 50.5252C-1.86229 57.4711 38.7918 56.8367 41.3121 54.9006C43.8325 52.9645 44.1502 50.2081 40.6765 48.9502Z" fill="white" stroke="#525375" stroke-linecap="round" stroke-linejoin="round"/>
<path d="M54.3052 43.7539C54.3052 43.7539 54.5956 53.4637 53.2354 56.88" stroke="#525375" stroke-width="2" stroke-linecap="round" stroke-linejoin="round"/>
<path d="M59.8102 50.3164H53.2354" stroke="#525375" stroke-width="2" stroke-linecap="round" stroke-linejoin="round"/>
<path d="M59.8103 42.6602C59.8103 42.6602 59.8103 53.5758 59.8103 56.8801" stroke="#525375" stroke-width="2" stroke-linecap="round" stroke-linejoin="round"/>
<path d="M70.8456 55.9834L64.8516 55.7428L65.3337 44.0059L71.2182 44.1262" stroke="#525375" stroke-width="2" stroke-linecap="round" stroke-linejoin="round"/>
<path d="M68.6428 50H64.3582" stroke="#525375" stroke-width="2" stroke-linecap="round" stroke-linejoin="round"/>
<path d="M74.8013 43.8867L74.5164 55.6017L81.0035 54.9126" stroke="#525375" stroke-width="2" stroke-linecap="round" stroke-linejoin="round"/>
<path d="M83.3267 42.6602L83.6883 54.9987L90.4275 53.6642" stroke="#525375" stroke-width="2" stroke-linecap="round" stroke-linejoin="round"/>
<path d="M96.7829 43.5921C93.0681 45.0469 92.0821 52.7918 95.1723 55.0342C95.8656 55.4561 96.6581 55.688 97.4699 55.7072C98.2816 55.7264 99.0838 55.5318 99.7963 55.1432C103.314 53.3493 104.18 47.0378 101.298 44.522C100.694 43.9845 99.9587 43.6154 99.166 43.4522C98.3734 43.289 97.5508 43.3372 96.7829 43.5921Z" stroke="#525375" stroke-width="2" stroke-linecap="round" stroke-linejoin="round"/>
<path d="M113.121 42.9766L115.269 54.801L120.178 44.7376L121.822 56.1902L126.611 43.0969" stroke="#525375" stroke-width="2" stroke-linecap="round" stroke-linejoin="round"/>
<path d="M132.692 43.0211C129.186 43.8852 127.663 48.9824 128.572 52.4389C128.704 53.1532 128.988 53.8312 129.404 54.4274C129.82 55.0235 130.358 55.5242 130.983 55.8956C131.668 56.1536 132.402 56.2558 133.132 56.1952C133.862 56.1347 134.569 55.9131 135.202 55.5458C138.686 53.6097 140.221 47.1341 137.328 44.2901C136.72 43.7143 135.978 43.2969 135.17 43.0756C134.361 42.8542 133.51 42.8356 132.692 43.0211V43.0211Z" stroke="#525375" stroke-width="2" stroke-linecap="round" stroke-linejoin="round"/>
<path d="M141.799 55.6427L142.127 42.1011C145.415 41.2479 148.221 42.3087 148.911 44.0698C149.078 44.5779 149.125 45.1177 149.049 45.647C148.973 46.1763 148.775 46.6808 148.472 47.1217C146.971 49.3094 142.84 49.6264 142.785 49.6373L148.911 55.2053" stroke="#525375" stroke-width="2" stroke-linecap="round" stroke-linejoin="round"/>
<path d="M152.406 42.4277L151.76 54.0006L158.641 52.3706" stroke="#525375" stroke-width="2" stroke-linecap="round" stroke-linejoin="round"/>
<path d="M162.148 41.4456L161.819 52.7995C163.175 53.1213 164.6 52.9983 165.881 52.4486C167.162 51.8989 168.231 50.9517 168.931 49.7476C169.328 48.9508 169.535 48.0731 169.535 47.1829C169.535 46.2927 169.328 45.4144 168.931 44.6176C168.164 43.1949 166.864 42.1329 165.315 41.664C164.292 41.337 163.206 41.2623 162.148 41.4456V41.4456Z" stroke="#525375" stroke-width="2" stroke-linecap="round" stroke-linejoin="round"/>
<path d="M188.218 40.9746C188.218 40.9746 181.018 40.0448 179.385 45.8531C177.752 51.6614 180.787 53.9694 184.732 55.1288C188.677 56.2883 193.335 53.0398 193.806 49.3317C194.277 45.6236 192.875 42.1341 188.218 40.9746Z" stroke="#525375" stroke-width="2" stroke-linecap="round" stroke-linejoin="round"/>
<path d="M190.135 54.4288L186.65 48.8612L188.217 40.9746" stroke="#525375" stroke-width="2" stroke-linecap="round" stroke-linejoin="round"/>
<path d="M180.207 52.1647L186.65 48.8613" stroke="#525375" stroke-width="2" stroke-linecap="round" stroke-linejoin="round"/>
</g>
<defs>
<clipPath id="clip0_2786_2">
<rect width="218" height="114" fill="white" transform="matrix(-1 0 0 1 218 0)"/>
</clipPath>
</defs>
</svg>
