<svg width="495" height="26" viewBox="0 0 495 26" fill="none" xmlns="http://www.w3.org/2000/svg">
<path d="M6.45431 19.0608C6.23175 18.8375 6.23175 18.8375 6.23175 18.6142V7.00394C6.23175 6.78067 6.23175 6.55739 6.45431 6.55739C6.67687 6.33412 6.67687 6.33412 6.89944 6.33412H18.2501C18.4727 6.33412 18.6952 6.33411 18.6952 6.11084C18.9178 5.88756 18.9178 5.88757 18.9178 5.66429V0.975513C18.9178 0.752239 18.9178 0.528961 18.6952 0.528961C18.4727 0.305687 18.4727 0.305687 18.2501 0.305687H10.9056H4.89637H4.22869C3.561 0.305687 3.11587 0.305687 2.67075 0.528961C2.22562 0.752237 1.7805 0.975513 1.33537 1.42206C0.89025 1.86861 0.667687 2.31516 0.445125 2.76171C0 3.43154 0 3.87809 0 4.54791V4.99446V7.67377V16.1582V18.391V21.0703C0 21.7401 0 22.1866 0.222562 22.6332C0.445125 23.0797 0.667687 23.5263 1.11281 23.9728C1.55794 24.4194 2.00306 24.6427 2.44819 24.8659C3.11587 25.0892 3.561 25.3125 4.22869 25.3125H4.89637H18.4727C18.6952 25.3125 18.9178 25.3125 18.9178 25.0892C19.1404 24.8659 19.1404 24.8659 19.1404 24.6427V19.9539C19.1404 19.7306 19.1404 19.5073 18.9178 19.5073C18.6952 19.2841 18.6952 19.2841 18.4727 19.2841H6.89944C6.67687 19.2841 6.67687 19.0608 6.45431 19.0608Z" fill="#D87885"/>
<path d="M53.4542 6.33412C53.6767 6.33412 53.8993 6.33411 53.8993 6.11084C54.1219 5.88756 54.1219 5.88757 54.1219 5.66429V0.975513C54.1219 0.752239 54.1219 0.528961 53.8993 0.528961C53.6767 0.305687 53.6767 0.305687 53.4542 0.305687H38.0974C37.6522 0.305687 37.4297 0.528963 37.4297 0.975513V24.6427C37.4297 25.0892 37.6522 25.3125 38.0974 25.3125H42.9937C43.4389 25.3125 43.6614 25.0892 43.6614 24.6427V7.00394C43.6614 6.78067 43.6614 6.55739 43.884 6.55739C44.1066 6.33412 44.1066 6.33412 44.3291 6.33412H53.4542Z" fill="#D87885"/>
<path d="M89.3255 25.0892C89.5481 24.8659 89.5481 24.8659 89.5481 24.6427V22.6332V21.5168V20.1772C89.5481 19.9539 89.5481 19.7306 89.3255 19.7306C89.103 19.5073 89.103 19.5073 88.8804 19.5073H86.4322H78.8651H76.862C76.6395 19.5073 76.6395 19.5073 76.6395 19.2841V15.4884C76.6395 15.4884 76.6395 15.2651 76.862 15.2651H87.0999C87.3225 15.2651 87.545 15.2651 87.545 15.0418C87.545 15.0418 87.7676 14.8186 87.7676 14.5953V11.0229C87.7676 10.7996 87.7676 10.5763 87.545 10.5763C87.3225 10.3531 87.3225 10.3531 87.0999 10.3531H76.862C76.6395 10.3531 76.6395 10.3531 76.6395 10.1298V8.34359V6.33412C76.6395 6.11084 76.6395 6.11084 76.862 6.11084H78.42H86.4322H88.8804C89.103 6.11084 89.3255 6.11084 89.3255 5.88757C89.5481 5.66429 89.5481 5.66429 89.5481 5.44102V4.10137V2.31516V1.19879C89.5481 0.975515 89.5481 0.752239 89.3255 0.752239C89.103 0.528965 89.103 0.528965 88.8804 0.528965H86.8773H73.301H71.0754C70.6303 0.528965 70.4077 0.752239 70.4077 1.19879V2.31516V22.8565V24.6427C70.4077 24.8659 70.4077 25.0892 70.6303 25.0892C70.6303 25.3125 70.8528 25.3125 71.0754 25.3125H73.7462H87.7676H88.8804C89.103 25.3125 89.103 25.3125 89.3255 25.0892Z" fill="#D87885"/>
<path d="M129.648 25.0892C129.648 24.8659 129.648 24.8659 129.648 24.6427L122.303 0.975513C122.303 0.752239 122.081 0.528961 122.081 0.528961C121.858 0.305687 121.636 0.305687 121.636 0.305687H114.959C114.736 0.305687 114.514 0.305687 114.514 0.528961C114.291 0.752237 114.291 0.752239 114.291 0.975513L106.501 24.6427C106.501 24.8659 106.501 25.0892 106.501 25.0892C106.724 25.3125 106.947 25.3125 107.169 25.3125H112.511C112.733 25.3125 112.956 25.3125 112.956 25.0892C113.178 24.8659 113.178 24.8659 113.178 24.6427L118.075 7.00394L122.971 24.6427C122.971 24.8659 123.194 25.0892 123.194 25.0892C123.416 25.3125 123.639 25.3125 123.861 25.3125H129.203C129.425 25.3125 129.648 25.3125 129.648 25.0892Z" fill="#D87885"/>
<path d="M165.742 25.0892C165.965 24.8659 165.965 24.8659 165.965 24.6427V22.6332V21.5168V20.1772C165.965 19.9539 165.965 19.7306 165.742 19.7306C165.519 19.5073 165.519 19.5073 165.297 19.5073H162.849H155.504H153.279C153.056 19.5073 153.056 19.5073 153.056 19.2841V15.4884C153.056 15.4884 153.056 15.2651 153.279 15.2651H163.516C163.739 15.2651 163.962 15.2651 163.962 15.0418C164.184 14.8186 164.184 14.8186 164.184 14.5953V11.0229C164.184 10.7996 164.184 10.5763 163.962 10.5763C163.739 10.3531 163.739 10.3531 163.516 10.3531H153.279C153.056 10.3531 153.056 10.3531 153.056 10.1298V8.34359V6.33412C153.056 6.11084 153.056 6.11084 153.279 6.11084H154.836H162.849H165.297C165.519 6.11084 165.742 6.11084 165.742 5.88757C165.965 5.66429 165.965 5.66429 165.965 5.44102V4.10137V2.31516V1.19879C165.965 0.975515 165.965 0.752239 165.742 0.752239C165.519 0.528965 165.519 0.528965 165.297 0.528965H163.294H149.718H147.492C147.047 0.528965 146.824 0.752239 146.824 1.19879V2.31516V22.8565V24.6427C146.824 24.8659 146.824 25.0892 147.047 25.0892C147.269 25.3125 147.269 25.3125 147.492 25.3125H150.163H164.184H165.297C165.519 25.3125 165.519 25.3125 165.742 25.0892Z" fill="#D87885"/>
<path d="M206.065 0.752237C206.065 0.528963 206.065 0.528963 206.065 0.305687C206.065 0.305687 205.842 0.0824127 205.62 0.0824127H200.056C199.833 0.0824127 199.611 0.0824127 199.388 0.305687C199.166 0.305687 199.166 0.528963 198.943 0.752237L195.159 7.45049L194.937 7.67377H190.708C190.486 7.67377 190.486 7.67377 190.486 7.45049V0.752237C190.486 0.305687 190.263 0.0824127 189.818 0.0824127H184.922C184.476 0.0824127 184.254 0.305687 184.254 0.752237V24.6427C184.254 25.0892 184.476 25.3125 184.922 25.3125H200.946C201.614 25.3125 202.059 25.0892 202.504 24.8659C202.949 24.6427 203.394 24.4194 203.839 23.9728C204.285 23.5263 204.507 23.0797 204.73 22.6332C204.952 22.1866 205.175 21.5168 205.175 21.0703V11.6927C205.175 10.7996 204.952 9.90652 204.285 9.23669C203.839 8.56687 203.172 8.12032 202.281 7.67377C202.059 7.67377 202.059 7.45049 202.281 7.45049L206.065 0.752237ZM198.943 19.5073H190.486V13.4789H199.166V19.5073H198.943Z" fill="#D87885"/>
<path d="M242.826 19.0608C242.604 18.8375 242.604 18.8375 242.604 18.6142V7.00394C242.604 6.78067 242.604 6.55739 242.826 6.55739C243.049 6.33412 243.049 6.33412 243.272 6.33412H254.622C254.845 6.33412 255.067 6.33411 255.067 6.11084C255.29 5.88756 255.29 5.88757 255.29 5.66429V0.975513C255.29 0.752239 255.29 0.528961 255.067 0.528961C254.845 0.305687 254.845 0.305687 254.622 0.305687H247.278H241.046H240.378C239.71 0.305687 239.265 0.305687 238.82 0.528961C238.375 0.752237 237.93 0.975513 237.485 1.42206C237.04 1.86861 236.817 2.31516 236.595 2.76171C236.372 3.20826 236.372 3.87809 236.372 4.32464V4.99446V7.67377V16.1582V18.391V21.0703C236.372 21.7401 236.372 22.1866 236.595 22.6332C236.817 23.0797 237.04 23.5263 237.485 23.9728C237.93 24.4194 238.375 24.6427 238.82 24.8659C239.265 25.0892 239.933 25.3125 240.378 25.3125H241.046H254.622C254.845 25.3125 255.067 25.3125 255.067 25.0892C255.29 24.8659 255.29 24.8659 255.29 24.6427V19.9539C255.29 19.7306 255.29 19.5073 255.067 19.5073C254.845 19.2841 254.845 19.2841 254.622 19.2841H243.272C243.049 19.2841 242.826 19.0608 242.826 19.0608Z" fill="#D87885"/>
<path d="M290.493 25.3125C291.161 25.3125 291.606 25.0892 292.051 24.8659C292.496 24.6427 292.942 24.4194 293.387 23.9728C293.832 23.5263 294.054 23.0797 294.277 22.6332C294.5 22.1866 294.722 21.5168 294.722 21.0703V4.32464C294.722 3.65482 294.5 3.20826 294.277 2.76171C294.054 2.31516 293.832 1.86861 293.387 1.42206C292.942 0.975513 292.496 0.752237 292.051 0.528961C291.606 0.305687 290.939 0.305687 290.493 0.305687H277.807C277.14 0.305687 276.695 0.305687 276.249 0.528961C275.804 0.752237 275.359 0.975513 274.914 1.42206C274.469 1.86861 274.246 2.31516 274.024 2.76171C273.801 3.20826 273.801 3.87809 273.801 4.32464V21.0703C273.801 21.7401 273.801 22.1866 274.024 22.6332C274.246 23.0797 274.469 23.5263 274.914 23.9728C275.359 24.4194 275.804 24.6427 276.249 24.8659C276.695 25.0892 277.362 25.3125 277.807 25.3125H290.493ZM288.268 19.2841H279.81V6.33412H288.268V19.2841Z" fill="#D87885"/>
<path d="M329.703 25.3125C330.371 25.3125 330.816 25.0892 331.261 24.8659C331.706 24.6427 332.152 24.4194 332.597 23.9728C333.042 23.5263 333.264 23.0797 333.487 22.6332C333.71 22.1866 333.932 21.5168 333.932 21.0703V4.32464C333.932 3.65482 333.71 3.20826 333.487 2.76171C333.264 2.31516 333.042 1.86861 332.597 1.42206C332.152 0.975513 331.706 0.752237 331.261 0.528961C330.816 0.305687 330.149 0.305687 329.703 0.305687H313.679C313.234 0.305687 313.011 0.528963 313.011 0.975513V24.6427C313.011 25.0892 313.234 25.3125 313.679 25.3125H329.703ZM319.243 6.33412H327.7V19.2841H319.243V6.33412Z" fill="#D87885"/>
<path d="M371.139 25.0892C371.361 24.8659 371.361 24.8659 371.361 24.6427V22.6332V21.5168V20.1772C371.361 19.9539 371.361 19.7306 371.139 19.7306C370.916 19.5073 370.916 19.5073 370.693 19.5073H368.245H360.901H358.898C358.675 19.5073 358.675 19.5073 358.675 19.2841V15.4884C358.675 15.4884 358.675 15.2651 358.898 15.2651H369.136C369.358 15.2651 369.581 15.2651 369.581 15.0418C369.803 14.8186 369.803 14.8186 369.803 14.5953V11.0229C369.803 10.7996 369.803 10.5763 369.581 10.5763C369.358 10.3531 369.358 10.3531 369.136 10.3531H358.898C358.675 10.3531 358.675 10.3531 358.675 10.1298V8.34359V6.33412C358.675 6.11084 358.675 6.11084 358.898 6.11084H360.456H368.468H370.916C371.139 6.11084 371.361 6.11084 371.361 5.88757C371.584 5.66429 371.584 5.66429 371.584 5.44102V4.10137V2.31516V1.19879C371.584 0.975515 371.584 0.752239 371.361 0.752239C371.139 0.528965 371.139 0.528965 370.916 0.528965H368.913H355.337H353.111C352.666 0.528965 352.443 0.752239 352.443 1.19879V2.31516V22.8565V24.6427C352.443 24.8659 352.443 25.0892 352.666 25.0892C352.666 25.3125 352.666 25.3125 352.888 25.3125H355.559H369.581H370.693C370.916 25.3125 370.916 25.3125 371.139 25.0892Z" fill="#D87885"/>
<path d="M417.916 19.2831C418.139 19.2831 418.361 19.2831 418.361 19.5063C418.584 19.7296 418.584 19.7296 418.584 19.9529V24.6417C418.584 24.8649 418.584 25.0882 418.361 25.0882C418.139 25.3115 418.139 25.3115 417.916 25.3115H402.559C402.114 25.3115 401.892 25.0882 401.892 24.6417V0.974513C401.892 0.527963 402.114 0.304688 402.559 0.304688H407.456C407.901 0.304688 408.123 0.527963 408.123 0.974513V18.6132C408.123 18.8365 408.123 19.0598 408.346 19.0598C408.568 19.2831 408.568 19.2831 408.791 19.2831H417.916Z" fill="#D87885"/>
<path d="M451.562 25.3125C452.23 25.3125 452.675 25.0892 453.12 24.8659C453.565 24.6427 454.01 24.4194 454.455 23.9728C454.9 23.5263 455.123 23.0797 455.345 22.6332C455.568 22.1866 455.79 21.5168 455.79 21.0703V0.975513C455.79 0.752239 455.791 0.528961 455.568 0.528961C455.345 0.305687 455.345 0.305687 455.123 0.305687H450.226C450.004 0.305687 449.781 0.305687 449.781 0.528961C449.559 0.752237 449.559 0.752239 449.559 0.975513V7.45049C449.559 7.67377 449.559 7.89704 449.336 7.89704C449.114 8.12032 449.114 8.12032 448.891 8.12032H441.769C441.547 8.12032 441.324 8.12032 441.324 7.89704C441.101 7.67377 441.101 7.67377 441.101 7.45049V0.975513C441.101 0.528963 440.879 0.305687 440.434 0.305687H435.537C435.092 0.305687 434.87 0.528963 434.87 0.975513V21.0703C434.87 21.7401 434.87 22.1866 435.092 22.6332C435.315 23.0797 435.537 23.5263 435.982 23.9728C436.428 24.4194 436.873 24.6427 437.318 24.8659C437.763 25.0892 438.431 25.3125 438.876 25.3125H451.562V25.3125ZM449.336 13.4789V19.7306H440.879V13.4789H449.336Z" fill="#D87885"/>
<path d="M492.997 13.2556C492.774 13.0324 492.774 13.0324 492.774 12.8091C492.774 12.5858 492.774 12.3625 492.997 12.3625L494.555 10.5763C494.777 10.3531 494.777 10.3531 494.777 10.1298C494.777 9.90652 495 9.68324 495 9.45997V4.54792C495 3.87809 494.777 3.43154 494.555 2.98499C494.332 2.53844 494.11 2.09189 493.665 1.64534C493.219 1.19879 492.774 0.975515 492.329 0.752239C491.884 0.528965 491.216 0.528965 490.771 0.528965H474.747C474.302 0.528965 474.079 0.752239 474.079 1.19879V24.6427C474.079 25.0892 474.302 25.3125 474.747 25.3125H490.771C491.439 25.3125 491.884 25.0892 492.329 24.8659C492.774 24.6427 493.219 24.4194 493.665 23.9728C494.11 23.5263 494.332 23.0797 494.555 22.6332C494.777 22.1866 495 21.5168 495 21.0703V16.3815C495 16.1582 495 15.9349 494.777 15.7117C494.777 15.4884 494.555 15.2651 494.555 15.2651L492.997 13.2556ZM489.213 19.9539H479.643V15.4884H489.213V19.9539ZM489.213 10.5763H479.643V5.66429H489.213V10.5763Z" fill="#D87885"/>
</svg>
