<svg width="213" height="12" fill="none" xmlns="http://www.w3.org/2000/svg"><path d="M63.275 7.497s-.932-1.75-3.714-.67c-2.782 1.082-.329 2.96 1.755 2.382 2.083-.578 1.96-1.712 1.96-1.712ZM73.873 3.224s-.933-1.75-3.715-.67c-2.782 1.081-.329 2.96 1.755 2.382 2.083-.578 1.96-1.712 1.96-1.712ZM89.275 8.224s-.932-1.75-3.714-.67c-2.782 1.081-.329 2.96 1.754 2.382 2.084-.578 1.96-1.712 1.96-1.712ZM102.275 2.224s-.932-1.75-3.714-.67c-2.782 1.081-.329 2.96 1.755 2.382 2.083-.578 1.959-1.712 1.959-1.712ZM118.275 7.497s-.932-1.75-3.714-.67c-2.782 1.082-.329 2.96 1.755 2.382 2.083-.578 1.959-1.712 1.959-1.712ZM128.873 3.224s-.933-1.75-3.715-.67c-2.782 1.081-.328 2.96 1.755 2.382 2.083-.578 1.96-1.712 1.96-1.712ZM144.275 8.224s-.932-1.75-3.714-.67c-2.782 1.081-.329 2.96 1.755 2.382 2.083-.578 1.959-1.712 1.959-1.712ZM157.275 2.224s-.932-1.75-3.714-.67c-2.782 1.081-.329 2.96 1.755 2.382 2.083-.578 1.959-1.712 1.959-1.712ZM173.275 7.497s-.932-1.75-3.714-.67c-2.782 1.082-.329 2.96 1.755 2.382 2.083-.578 1.959-1.712 1.959-1.712ZM183.873 3.224s-.933-1.75-3.715-.67c-2.782 1.081-.328 2.96 1.755 2.382 2.083-.578 1.96-1.712 1.96-1.712ZM199.275 8.224s-.932-1.75-3.714-.67c-2.782 1.081-.329 2.96 1.755 2.382 2.083-.578 1.959-1.712 1.959-1.712ZM212.275 2.224s-.932-1.75-3.714-.67c-2.782 1.081-.329 2.96 1.755 2.382 2.083-.578 1.959-1.712 1.959-1.712ZM6.275 8.497s-.932-1.75-3.714-.67c-2.782 1.082-.329 2.96 1.755 2.382 2.083-.578 1.96-1.712 1.96-1.712ZM16.872 4.224s-.932-1.75-3.714-.67c-2.782 1.081-.329 2.96 1.754 2.382 2.083-.578 1.96-1.712 1.96-1.712ZM32.275 8.224s-.932-1.75-3.714-.67c-2.782 1.081-.329 2.96 1.755 2.382 2.083-.578 1.96-1.712 1.96-1.712ZM45.275 2.224s-.932-1.75-3.714-.67c-2.782 1.081-.329 2.96 1.755 2.382 2.083-.578 1.96-1.712 1.96-1.712Z" fill="#525375" stroke="#525375" stroke-linecap="round" stroke-linejoin="round"/></svg>