<svg width="171" height="89" fill="none" xmlns="http://www.w3.org/2000/svg"><path d="M42 39.764c-6.415-.302-8.833-2.12-9.815-3.837-1.697-2.926.365-6.385-2.26-8.985-1.17-1.166-1.944-.83-3.765-2.595-1.925-1.867-1.782-2.936-3.143-3.512-1.525-.648-2.23.48-5.493.916-3.878.518-4.88-.796-7.066.307-1.604.806-1.214 1.598-3.296 2.879-2.206 1.376-3.317.92-4.555 1.986-.879.753-1.806 2.264-1.57 5.646l23.51 3.746a98.633 98.633 0 0 1-7.955.408 99.467 99.467 0 0 1-12.416-.643c2.206 5.81 7.328 9.901 13.19 10.487 5.863.585 10.136-2.543 11.157-3.33l12.771.303.706-3.776ZM119.118 39.026c10.34.492 15.016-2.29 17.369-5.024 2.687-3.13 3.42-7.449 7.277-8.385 2.287-.565 4.628.34 6.751-1.451 1.073-.906 1.037-1.605 2.122-2.03 1.71-.668 3.942.231 5.307 1.452 1.103.979.806 1.422 1.74 2.03 1.898 1.215 3.608-.322 5.015.771 1.025.796.358 1.823 1.541 3.961.952 1.732 1.819 1.878 2.608 3.093.788 1.215 1.358 3.183.291 6.865l-27.23-1.282 23.652 5.049a22.099 22.099 0 0 1-14.525 6.075 21.965 21.965 0 0 1-13.767-4.544l-17.751-1.543-.4-5.037ZM111.373 55.639c.788.414 4.597 2.423 6.074 6.987.72 2.28.737 4.723.05 7.013a27.755 27.755 0 0 1-5.875-4.63A27.513 27.513 0 0 1 107 58.546l4.373-2.908ZM101.992 61.19c1.613 2.043 2.365 4.591 2.098 7.102a8.987 8.987 0 0 1-2.353 4.985 22.504 22.504 0 0 1-2.745-5.37 21.735 21.735 0 0 1-1.206-6.215l4.206-.503ZM58 58.408a28.259 28.259 0 0 1-3.382 4.991 28.819 28.819 0 0 1-7.436 6.24c-.135-.832-1.15-7.612 3.598-12.134a12.35 12.35 0 0 1 5.051-2.866L58 58.408ZM66.604 59.943a26.177 26.177 0 0 1-1.192 5.448 26.314 26.314 0 0 1-4.214 7.85c-.39-.67-3.54-6.252-1.028-11.745a11.163 11.163 0 0 1 3.318-4.146c1.042.866 2.081 1.73 3.116 2.593Z" fill="#fff" stroke="#525375" stroke-linecap="round" stroke-linejoin="round"/><path d="M128.5 45.21a12.227 12.227 0 0 0 1.158-3.736c.419-6.974-16.107-13.311-18.527-14.216-19.188-7.17-37.206-3.646-41.027-2.801-11.93 2.551-32.3 9.824-32.106 18.621.049 2.297 1.644 3.992 4.852 7.29A53.23 53.23 0 0 0 67.817 65.34c13.658 3.7 24.999 1.185 29.936 0 0 0 13.572-3.184 24.215-11.975 4.458-3.694 6.083-7.139 6.532-8.153Z" fill="#fff" stroke="#525375" stroke-linecap="round" stroke-linejoin="round"/><path d="M120.889 42.057a2.119 2.119 0 1 0-3.42 2.502 2.119 2.119 0 0 0 3.42-2.502ZM73.557 58.736a2.119 2.119 0 1 0-3.42 2.502 2.119 2.119 0 0 0 3.42-2.502ZM46.59 39.385a2.118 2.118 0 1 0-3.42 2.501 2.118 2.118 0 0 0 3.42-2.501ZM52.69 42.535a2.118 2.118 0 1 0-3.42 2.501 2.118 2.118 0 0 0 3.42-2.5ZM119.671 50.711a2.12 2.12 0 1 0-3.42 2.502 2.12 2.12 0 0 0 3.42-2.502ZM100.005 56.475a1.393 1.393 0 1 1 2.249-1.644 1.393 1.393 0 0 1-2.249 1.644ZM92.576 60.366a1.393 1.393 0 1 1 2.249-1.644 1.393 1.393 0 0 1-2.249 1.644ZM112.368 41.616a.706.706 0 0 1 .137-.988.706.706 0 0 1 .983.17.706.706 0 0 1-.137.987.706.706 0 0 1-.983-.17ZM74.946 55.325a.705.705 0 0 1 .137-.988c.31-.226.75-.15.983.17a.705.705 0 0 1-.137.987.705.705 0 0 1-.983-.17ZM63.666 49.866a.705.705 0 0 1 .138-.988c.309-.226.749-.15.982.17a.705.705 0 0 1-.137.987.705.705 0 0 1-.983-.17ZM67.335 58.995a.705.705 0 0 1 .137-.988c.31-.226.75-.15.983.169a.705.705 0 0 1-.137.987.705.705 0 0 1-.983-.168ZM64.095 55.569a.705.705 0 0 1 .137-.987c.31-.227.75-.151.983.168a.705.705 0 0 1-.137.988.705.705 0 0 1-.983-.169ZM74.422 63.397a.705.705 0 0 1 .138-.987c.309-.226.749-.15.982.168a.705.705 0 0 1-.137.988.705.705 0 0 1-.983-.169ZM48.422 52.397a.705.705 0 0 1 .138-.987c.309-.226.749-.15.982.168a.705.705 0 0 1-.137.988.705.705 0 0 1-.983-.169ZM122.422 48.397a.705.705 0 0 1 .138-.987.704.704 0 0 1 .982.168.705.705 0 0 1-.137.988.706.706 0 0 1-.983-.169ZM54.037 50.646c-.342-.468-.252-1.116.2-1.447.454-.332 1.099-.221 1.441.247.342.468.252 1.116-.2 1.447-.454.332-1.099.221-1.441-.247ZM99.204 63.348c-.445-.609-.328-1.451.261-1.882.59-.431 1.428-.287 1.873.321.445.609.328 1.451-.261 1.882-.59.431-1.428.287-1.873-.321ZM95.85 56.852a.705.705 0 0 1 .137-.987c.309-.226.749-.15.982.168a.705.705 0 0 1-.137.988.705.705 0 0 1-.982-.169ZM102.087 51.335a.705.705 0 0 1 .138-.988.704.704 0 0 1 .982.169.705.705 0 0 1-.137.987.706.706 0 0 1-.983-.168ZM108.223 47.003a.706.706 0 0 1 .137-.988.706.706 0 0 1 .983.169.706.706 0 0 1-.137.987.706.706 0 0 1-.983-.168ZM105.641 55.444a1.393 1.393 0 1 1 2.248-1.644 1.393 1.393 0 0 1-2.248 1.644ZM82.555 59.303a1.393 1.393 0 1 1 2.248-1.644 1.393 1.393 0 0 1-2.248 1.644ZM88.213 61.073a1.393 1.393 0 1 1 2.249-1.644 1.393 1.393 0 0 1-2.249 1.644ZM84.56 66.141a1.393 1.393 0 1 1 2.248-1.644 1.393 1.393 0 0 1-2.248 1.644Z" fill="#EFEFF7"/><path d="M67.581 60.835a1.393 1.393 0 1 1 2.249-1.645 1.393 1.393 0 0 1-2.249 1.645ZM101.899 59.397a3.218 3.218 0 1 1 5.196-3.8 3.218 3.218 0 0 1-5.196 3.8ZM78.982 62.401a3.218 3.218 0 1 1 5.196-3.8 3.218 3.218 0 0 1-5.196 3.8ZM57.254 57.862a3.219 3.219 0 1 1 5.196-3.8 3.219 3.219 0 0 1-5.196 3.8ZM108.299 50.693a2.723 2.723 0 1 1 4.395-3.216 2.723 2.723 0 0 1-4.395 3.216ZM112.664 46.983a1.63 1.63 0 1 1 2.63-1.923 1.63 1.63 0 0 1-2.63 1.923ZM43.961 47.24a1.629 1.629 0 1 1 2.63-1.924 1.629 1.629 0 0 1-2.63 1.923Z" fill="#EFEFF7"/><path d="M53.961 56.24a1.629 1.629 0 1 1 2.63-1.924 1.629 1.629 0 0 1-2.63 1.923ZM45.558 35.175a1.63 1.63 0 1 1 2.63-1.923 1.63 1.63 0 0 1-2.63 1.923Z" fill="#EFEFF7"/><path d="m110.615 10.217-6.428 11.987M57.756 11.256l7.332 11.987" stroke="#525375" stroke-linecap="round" stroke-linejoin="round"/><path d="M60.552 10.416s-2.22-6.574-4.44-5.316c-2.22 1.257-1.819 7.248.965 9.86 2.783 2.613 4.936-1.743 3.475-4.544ZM112.872 6.384s-4.852-.292-6.277 5.316c-1.426 5.608 5.695 3.572 7.241-.389 1.547-3.961-.964-4.927-.964-4.927Z" fill="#525375" stroke="#525375" stroke-linecap="round" stroke-linejoin="round"/><path d="M130.622 46.785c-1.164.76-3.753-1.392-4.633-2.03-8.054-5.869-17.478-7.521-29.11-9.569-4.852-.85-20.91-3.487-38.401 2.704-11.735 4.15-18.57 11.325-21.226 8.895-1.868-1.707-.637-7.102 1.546-10.438 1.104-1.689 1.662-1.653 5.016-4.86 5.61-5.329 4.809-6.155 7.526-7.735 3.693-2.144 4.96-.492 10.77-2.85 4.446-1.822 3.906-2.855 6.987-3.723 5.13-1.44 6.671 1.47 13.894 1.355 6.004-.092 6.362-2.127 11.383-1.544 4.597.535 4.385 2.248 10.134 3.61 6.72 1.585 8.709-.353 12.445 1.992.94.608.812.717 5.403 6.191 4.943 5.893 5.392 6.112 6.368 7.898 2.026 3.876 3.372 9.138 1.898 10.104Z" fill="#fff" stroke="#525375" stroke-linecap="round" stroke-linejoin="round"/><path d="M93.144 38.51s13.305.856 12.626 7.521c-.679 6.665-21.499 11.623-30.541 3.93C66.186 42.272 87 38.34 93.144 38.51Z" fill="#525375" stroke="#525375" stroke-linecap="round" stroke-linejoin="round"/><path d="M97.872 46.019c.734-1.361.242-4.186-.291-6.288a31.827 31.827 0 0 0-4.64-.73 25.936 25.936 0 0 0-2.941.135c.273 3.323 1.213 7.849 1.213 7.849s5.404 1.355 6.659-.966ZM81.766 46.493c1.353.966 6.853-.195 6.853-.195 1.068-.941.607-4.86.182-7.503a49.84 49.84 0 0 0-7.55 1.555c-.2 2.425-.291 5.566.515 6.143Z" fill="#fff" stroke="#525375" stroke-linecap="round" stroke-linejoin="round"/></svg>