<svg width="98" height="159" viewBox="0 0 98 159" fill="none" xmlns="http://www.w3.org/2000/svg">
<path d="M91.9798 38.0116C91.9798 38.0116 96.8917 69.4217 92.5926 88.2068C88.2935 106.992 82.4601 120.231 74.1707 121.156C65.8813 122.08 22.8902 103.909 22.8902 90.0505C22.8902 76.1915 18.2872 96.2106 11.5321 89.1311C4.7771 82.0516 -4.4339 64.186 5.08106 56.4871C14.596 48.7882 22.2775 66.3393 22.2775 66.3393L21.3559 34.6243L31.1845 18.3023L65.8813 10.9131L83.0728 19.2266C83.0728 19.2266 89.8279 23.5429 91.9798 38.0116Z" fill="white" stroke="#525375" stroke-miterlimit="10" stroke-linecap="round" stroke-linejoin="round"/>
<path d="M73.4275 94.8746C74.3797 94.2234 75.6796 94.4674 76.3308 95.4197C76.982 96.372 76.738 97.6718 75.7857 98.3231C74.8335 98.9743 73.5336 98.7302 72.8824 97.778C72.2312 96.8257 72.4752 95.5258 73.4275 94.8746Z" fill="#EFEFF7"/>
<path d="M73.071 104.612C74.0233 103.961 75.3232 104.205 75.9744 105.157C76.6256 106.11 76.3816 107.41 75.4293 108.061C74.477 108.712 73.1772 108.468 72.5259 107.516C71.8747 106.564 72.1188 105.264 73.071 104.612Z" fill="#EFEFF7"/>
<path d="M59.7258 111.179C60.6781 110.528 61.9779 110.772 62.6292 111.724C63.2804 112.676 63.0363 113.976 62.0841 114.628C61.1318 115.279 59.8319 115.035 59.1807 114.082C58.5295 113.13 58.7735 111.83 59.7258 111.179Z" fill="#EFEFF7"/>
<path d="M65.7082 92.6402C66.6605 91.989 67.9604 92.2331 68.6116 93.1853C69.2628 94.1376 69.0188 95.4375 68.0665 96.0887C67.1142 96.7399 65.8144 96.4959 65.1631 95.5436C64.5119 94.5913 64.756 93.2915 65.7082 92.6402Z" fill="#EFEFF7"/>
<path d="M42.6687 98.2658C43.673 98.8335 44.0269 100.108 43.4592 101.112C42.8915 102.116 41.6171 102.47 40.6129 101.903C39.6086 101.335 39.2547 100.061 39.8224 99.0563C40.3901 98.052 41.6644 97.6981 42.6687 98.2658Z" fill="#EFEFF7"/>
<path d="M49.2246 93.8213C49.8507 93.3932 50.0111 92.5386 49.583 91.9125C49.1548 91.2864 48.3002 91.126 47.6741 91.5541C47.0481 91.9823 46.8876 92.8369 47.3158 93.4629C47.7439 94.089 48.5985 94.2495 49.2246 93.8213Z" fill="#EFEFF7"/>
<path d="M54.853 99.8794C55.4791 99.4513 55.6395 98.5967 55.2114 97.9706C54.7832 97.3445 53.9286 97.1841 53.3025 97.6122C52.6765 98.0404 52.516 98.895 52.9442 99.5211C53.3723 100.147 54.2269 100.308 54.853 99.8794Z" fill="#EFEFF7"/>
<path d="M73.2163 92.3527C73.5382 92.1325 73.6264 91.7013 73.4132 91.3896C73.2 91.0778 72.7662 91.0035 72.4442 91.2237C72.1223 91.4438 72.0342 91.875 72.2474 92.1868C72.4606 92.4986 72.8944 92.5728 73.2163 92.3527Z" fill="#EFEFF7"/>
<path d="M72.9004 100.98C73.2223 100.76 73.3104 100.329 73.0972 100.017C72.884 99.7052 72.4502 99.631 72.1283 99.8511C71.8064 100.071 71.7182 100.502 71.9314 100.814C72.1446 101.126 72.5785 101.2 72.9004 100.98Z" fill="#EFEFF7"/>
<path d="M65.1816 98.7523C65.5036 98.5322 65.5917 98.101 65.3785 97.7892C65.1653 97.4775 64.7315 97.4032 64.4096 97.6233C64.0876 97.8435 63.9995 98.2747 64.2127 98.5865C64.4259 98.8982 64.8597 98.9725 65.1816 98.7523Z" fill="#EFEFF7"/>
<path d="M36.95 100.487C37.2895 100.679 37.7154 100.568 37.9013 100.24C38.0871 99.9108 37.9626 99.4886 37.623 99.2967C37.2835 99.1048 36.8576 99.2158 36.6718 99.5445C36.4859 99.8733 36.6105 100.295 36.95 100.487Z" fill="#EFEFF7"/>
<path d="M59.4814 94.639C59.8034 94.4189 59.8915 93.9877 59.6783 93.6759C59.4651 93.3642 59.0313 93.2899 58.7094 93.5101C58.3874 93.7302 58.2993 94.1614 58.5125 94.4732C58.7257 94.7849 59.1595 94.8592 59.4814 94.639Z" fill="#EFEFF7"/>
<path d="M51.9785 86.5643C52.3004 86.3442 52.3886 85.913 52.1754 85.6012C51.9622 85.2895 51.5284 85.2152 51.2064 85.4354C50.8845 85.6555 50.7964 86.0867 51.0096 86.3985C51.2228 86.7102 51.6566 86.7845 51.9785 86.5643Z" fill="#EFEFF7"/>
<path d="M87.2251 85.9376C87.547 85.7175 87.6352 85.2863 87.422 84.9745C87.2087 84.6628 86.7749 84.5885 86.453 84.8086C86.1311 85.0288 86.043 85.46 86.2562 85.7718C86.4694 86.0835 86.9032 86.1578 87.2251 85.9376Z" fill="#EFEFF7"/>
<path d="M70.5049 98.5022C71.1309 98.0741 71.2914 97.2195 70.8632 96.5934C70.4351 95.9673 69.5805 95.8069 68.9544 96.235C68.3283 96.6632 68.1679 97.5178 68.596 98.1439C69.0242 98.7699 69.8788 98.9304 70.5049 98.5022Z" fill="#EFEFF7"/>
<path d="M39.5211 105.155C40.1814 105.529 41.0192 105.296 41.3925 104.636C41.7657 103.975 41.5331 103.137 40.8728 102.764C40.2125 102.391 39.3747 102.624 39.0014 103.284C38.6282 103.944 38.8609 104.782 39.5211 105.155Z" fill="#EFEFF7"/>
<path d="M64.519 102.182C65.1451 101.754 65.3055 100.899 64.8774 100.273C64.4492 99.6468 63.5946 99.4863 62.9686 99.9145C62.3425 100.343 62.182 101.197 62.6102 101.823C63.0383 102.449 63.893 102.61 64.519 102.182Z" fill="#EFEFF7"/>
<path d="M58.6772 101.969C59.3033 101.541 59.4637 100.686 59.0356 100.06C58.6074 99.4341 57.7528 99.2737 57.1268 99.7018C56.5007 100.13 56.3402 100.985 56.7684 101.611C57.1965 102.237 58.0512 102.397 58.6772 101.969Z" fill="#EFEFF7"/>
<path d="M31.1959 96.0669C31.8562 96.4401 32.6941 96.2075 33.0673 95.5472C33.4405 94.8869 33.2079 94.0491 32.5476 93.6758C31.8873 93.3026 31.0495 93.5353 30.6762 94.1955C30.303 94.8558 30.5357 95.6936 31.1959 96.0669Z" fill="#EFEFF7"/>
<path d="M60.4097 107.88C61.0357 107.452 61.1962 106.597 60.768 105.971C60.3399 105.345 59.4853 105.185 58.8592 105.613C58.2331 106.041 58.0727 106.896 58.5008 107.522C58.929 108.148 59.7836 108.308 60.4097 107.88Z" fill="#EFEFF7"/>
<path d="M77.9375 108.525C78.5636 108.097 78.724 107.242 78.2959 106.616C77.8677 105.99 77.0131 105.829 76.387 106.257C75.7609 106.686 75.6005 107.54 76.0287 108.166C76.4568 108.792 77.3114 108.953 77.9375 108.525Z" fill="#EFEFF7"/>
<path d="M63.688 115.043C64.314 114.614 64.4745 113.76 64.0463 113.134C63.6182 112.508 62.7636 112.347 62.1375 112.775C61.5114 113.203 61.351 114.058 61.7791 114.684C62.2073 115.31 63.0619 115.471 63.688 115.043Z" fill="#EFEFF7"/>
<path d="M55.7257 105.258C57.1725 104.269 57.5432 102.294 56.5539 100.847C55.5645 99.4003 53.5897 99.0295 52.1429 100.019C50.6962 101.008 50.3255 102.983 51.3148 104.43C52.3042 105.877 54.279 106.247 55.7257 105.258Z" fill="#EFEFF7"/>
<path d="M66.8224 106.236C68.2691 105.246 68.6399 103.272 67.6505 101.825C66.6612 100.378 64.6863 100.007 63.2396 100.997C61.7929 101.986 61.4222 103.961 62.4115 105.408C63.4009 106.854 65.3757 107.225 66.8224 106.236Z" fill="#EFEFF7"/>
<path d="M72.6504 117.115C73.8747 116.278 74.1885 114.607 73.3512 113.383C72.5139 112.158 70.8426 111.844 69.6183 112.682C68.3939 113.519 68.0801 115.19 68.9174 116.415C69.7547 117.639 71.426 117.953 72.6504 117.115Z" fill="#EFEFF7"/>
<path d="M62.7941 90.9313C63.5263 90.4305 63.714 89.431 63.2132 88.6987C62.7124 87.9665 61.7129 87.7788 60.9806 88.2796C60.2484 88.7803 60.0607 89.7799 60.5615 90.5121C61.0623 91.2444 62.0618 91.432 62.7941 90.9313Z" fill="#EFEFF7"/>
<path d="M66.7818 81.0861C67.5141 80.5853 67.7018 79.5858 67.201 78.8535C66.7002 78.1213 65.7007 77.9336 64.9684 78.4344C64.2362 78.9351 64.0485 79.9347 64.5493 80.6669C65.05 81.3992 66.0496 81.5868 66.7818 81.0861Z" fill="#EFEFF7"/>
<path d="M62.7218 92.8781C63.454 92.3773 63.6417 91.3777 63.1409 90.6455C62.6402 89.9132 61.6406 89.7256 60.9084 90.2263C60.1761 90.7271 59.9885 91.7267 60.4892 92.4589C60.99 93.1912 61.9895 93.3788 62.7218 92.8781Z" fill="#EFEFF7"/>
<path d="M54.2692 92.651C55.0014 92.1502 55.1891 91.1507 54.6883 90.4184C54.1875 89.6862 53.188 89.4985 52.4557 89.9993C51.7235 90.5001 51.5358 91.4996 52.0366 92.2319C52.5374 92.9641 53.5369 93.1518 54.2692 92.651Z" fill="#EFEFF7"/>
<path d="M48.1466 108.558C48.8788 108.058 49.0665 107.058 48.5657 106.326C48.065 105.594 47.0654 105.406 46.3332 105.907C45.6009 106.408 45.4133 107.407 45.914 108.139C46.4148 108.872 47.4143 109.059 48.1466 108.558Z" fill="#EFEFF7"/>
<path d="M46.6153 98.6398C47.3476 98.139 47.5353 97.1395 47.0345 96.4072C46.5337 95.675 45.5342 95.4873 44.8019 95.9881C44.0697 96.4888 43.882 97.4884 44.3828 98.2206C44.8835 98.9529 45.8831 99.1405 46.6153 98.6398Z" fill="#EFEFF7"/>
<path d="M22.2774 66.3389C22.2774 66.3389 26.8853 49.0976 32.7187 43.552C38.5522 38.0065 32.7187 30.0028 32.7187 30.0028C32.7187 30.0028 39.165 13.0661 76.3177 18.9165C76.3177 18.9165 85.5335 22.3038 87.6806 29.0784C89.8278 35.8531 91.9797 51.8655 94.1269 52.4848C96.274 53.1042 95.97 41.3986 92.9013 31.5415C89.8326 21.6845 78.1608 2.59447 64.038 1.36536C49.9151 0.136245 31.4883 1.67027 22.8901 11.2177C14.2919 20.765 2.85662 28.0768 8.99888 54.5608C9.35714 54.5366 9.7166 54.5366 10.0749 54.5608C16.6272 54.9963 20.9071 63.3774 22.2774 66.3389Z" fill="#525375" stroke="#525375" stroke-miterlimit="10" stroke-linecap="round" stroke-linejoin="round"/>
<path d="M17.3608 68.5992C11.8941 63.3779 9.30304 62.3084 8.14986 63.0584C4.87367 65.1199 10.7071 83.0436 14.2921 82.7629C15.6866 82.6565 16.6709 79.7918 17.3608 76.6077" stroke="#525375" stroke-miterlimit="10" stroke-linecap="round" stroke-linejoin="round"/>
<path d="M62.8517 41.3489C61.6191 39.105 52.0652 39.6487 45.0788 43.0693C40.694 45.2037 37.5662 48.3443 38.0486 48.9245C38.5309 49.5048 42.1069 46.567 48.382 45.9949C54.0724 45.4796 56.7666 47.3786 59.9577 45.6501C61.8432 44.6356 63.5143 42.5662 62.8517 41.3489Z" fill="#525375" stroke="#525375" stroke-miterlimit="10" stroke-linecap="round" stroke-linejoin="round"/>
<path d="M76.0147 47.0259C79.6666 45.0985 84.9793 45.3456 88.0272 47.899C90.2542 49.7812 91.3299 52.9978 90.4523 53.6444C90.3485 53.7226 90.0937 53.8503 89.1784 53.6444C86.9609 53.146 85.6398 51.7746 85.05 51.2845C81.5114 48.3604 73.5943 51.8611 72.8158 50.3661C72.3912 49.5589 74.3823 47.8908 76.0147 47.0259Z" fill="#525375" stroke="#525375" stroke-miterlimit="10" stroke-linecap="round" stroke-linejoin="round"/>
<path d="M73.2488 51.3525C72.7084 60.0337 75.0003 64.4856 77.2391 66.9584C78.7397 68.6085 83.2173 72.6781 83.28 75.6686C83.3249 76.0766 83.2848 76.4896 83.1621 76.8812C83.0394 77.2728 82.8369 77.6346 82.5674 77.9435C82.2979 78.2525 81.9673 78.5019 81.5966 78.6759C81.2259 78.8499 80.8231 78.9447 80.4139 78.9543C78.6142 79.0463 78.0738 77.4252 76.7276 77.6188C75.2801 77.822 75.3284 79.7818 73.9677 80.0819C71.9653 80.5222 70.2187 76.6945 68.4382 77.2074C67.5745 77.4687 67.7482 78.4463 66.6964 79.3609C64.916 80.919 61.2682 80.8512 59.84 79.2591C57.6639 76.8396 61.0173 71.2699 60.3515 70.9457C59.6856 70.6215 53.8525 76.5456 50.2578 85.2559C48.0528 90.6175 43.5383 96.8638 45.7578 98.7559C46.6311 99.5011 48.1288 100.046 49.2578 99.7559" stroke="#525375" stroke-miterlimit="10" stroke-linecap="round" stroke-linejoin="round"/>
<path d="M84.96 99.9984C85.2853 99.8354 83.6411 88.5255 78.5239 86.0538C77.1461 85.4338 75.6984 85.0837 74.2331 85.0163C72.8923 85.0163 72.3779 85.2661 70.7821 85.3639C69.2847 85.4292 67.7857 85.3128 66.3067 85.0163C60.9608 84.4731 54.5774 97.6897 55.0214 98.1515C55.2281 98.3633 56.4678 95.4896 59.7782 93.659C63.0886 91.8283 66.2539 92.1977 67.8937 92.3932C72.3559 92.9364 72.8087 94.8215 76.4708 94.4629C78.8184 94.2402 79.5482 93.3766 81.0429 94.0067C84.006 95.2561 84.7446 100.102 84.96 99.9984Z" fill="white" stroke="#525375" stroke-miterlimit="10" stroke-linecap="round" stroke-linejoin="round"/>
<path d="M56.4995 95.5L63.6664 89H72.0083C72.0083 89 83.3167 89.5052 84.9995 98" stroke="#525375" stroke-miterlimit="10" stroke-linecap="round" stroke-linejoin="round"/>
<path d="M57.1819 108.632C57.1819 108.632 64.347 99.922 64.9598 99.8059C65.5726 99.6898 71.6135 97.6477 75.1937 100.009C78.7739 102.371 82.3589 106.992 82.3589 106.992" stroke="#525375" stroke-miterlimit="10" stroke-linecap="round" stroke-linejoin="round"/>
<path d="M37.4279 60.5904L44.4995 56C44.4995 56 49.4616 51.4612 55.9995 53C62.5374 54.5389 59.0199 58.3354 59.0199 58.3354C59.0199 58.3354 49.6062 59.6709 46.6388 58.3354" stroke="#525375" stroke-miterlimit="10" stroke-linecap="round" stroke-linejoin="round"/>
<path d="M45.3073 61.4131C45.3073 61.4131 56.5641 62.2357 59.02 58.3354" stroke="#525375" stroke-miterlimit="10" stroke-linecap="round" stroke-linejoin="round"/>
<path d="M76.8291 54.948C76.8291 54.948 85.5141 54.3286 88.2933 57.5127C91.0726 60.6968 90.344 60.9 90.344 60.9C90.344 60.9 84.9158 60.1839 81.3356 59.8742C79.3277 59.6887 77.3106 59.6207 75.2947 59.6709C75.2947 59.6709 79.4925 63.1599 83.2801 63.1599" stroke="#525375" stroke-miterlimit="10" stroke-linecap="round" stroke-linejoin="round"/>
<path d="M79.7483 55.9645C79.2416 56.6565 79.4395 57.721 79.8303 58.384C80.5058 59.5502 82.1945 60.2616 83.4394 59.497C83.9077 59.1964 84.2616 58.7468 84.4445 58.2203C84.6274 57.6937 84.6286 57.1209 84.4478 56.5936C83.7723 54.9967 80.6795 54.7015 79.7483 55.9645Z" fill="#525375" stroke="#525375" stroke-miterlimit="10" stroke-linecap="round" stroke-linejoin="round"/>
<path d="M54.4319 54.2896C54.8173 54.4654 55.1549 54.7219 55.4191 55.0393C55.6834 55.3567 55.8671 55.7267 55.9565 56.1212C56.0381 56.5428 56.0032 56.977 55.8551 57.3822C55.7069 57.7874 55.4507 58.15 55.1108 58.435C54.0407 59.3128 52.4413 59.0527 51.4691 58.435C50.6003 57.8931 49.7431 56.7443 50.071 55.6822C50.4968 54.2246 52.9016 53.5797 54.4319 54.2896Z" fill="#525375" stroke="#525375" stroke-miterlimit="10" stroke-linecap="round" stroke-linejoin="round"/>
<path d="M48.7738 129.537C44.5716 122.262 37.8786 116.763 29.936 114.062C26.1983 122.529 24.1322 131.641 23.8521 140.892C31.477 141.736 39.1956 140.841 46.4308 138.273C46.4308 138.273 50.966 140.524 53.4965 140.45C56.0271 140.375 57.1082 146.918 63.075 152.217C69.0418 157.517 72.836 158.348 72.836 158.348C81.5211 139.623 81.1644 132.862 78.4973 130.584C73.7976 126.557 57.8989 133.092 57.6091 133.152C56.0274 132.254 54.3825 131.474 52.6874 130.816C51.4066 130.32 50.1002 129.893 48.7738 129.537Z" fill="#525375" stroke="#525375" stroke-miterlimit="10" stroke-linecap="round" stroke-linejoin="round"/>
</svg>
