<svg width="128" height="128" fill="none" viewBox="0 0 128 128" xmlns="http://www.w3.org/2000/svg"><path d="M116.014 53.064c-5.785-28.982-33.969-47.786-62.95-42.002-28.982 5.785-47.786 33.969-42.001 62.95 5.784 28.982 33.968 47.786 62.95 42.001 28.981-5.784 47.785-33.968 42.001-62.95Z" fill="#fff" stroke="#525375"/><path d="M14.424 62.742a2.119 2.119 0 1 1 1.536 3.95 2.119 2.119 0 0 1-1.536-3.95ZM51.447 102.607a2.118 2.118 0 1 1 1.536 3.949 2.118 2.118 0 0 1-1.536-3.949ZM88.424 101.742a2.119 2.119 0 1 1 1.536 3.95 2.119 2.119 0 0 1-1.536-3.95ZM77.755 100.185a2.119 2.119 0 1 1 1.535 3.949 2.119 2.119 0 0 1-1.535-3.949ZM41.424 106.742a2.119 2.119 0 1 1 1.536 3.95 2.119 2.119 0 0 1-1.536-3.95ZM30.376 86.462a1.393 1.393 0 1 0-1.01-2.596 1.393 1.393 0 0 0 1.01 2.596ZM34.542 93.741a1.393 1.393 0 1 0-1.01-2.596 1.393 1.393 0 0 0 1.01 2.596ZM15.266 70.527a.705.705 0 0 0 .416-.906.705.705 0 0 0-.919-.387.705.705 0 0 0-.416.906c.139.357.55.53.919.387ZM52.114 98.982a.705.705 0 0 0 .416-.906.705.705 0 0 0-.92-.387.705.705 0 0 0-.415.906c.139.357.55.53.919.387ZM64.266 113.527a.705.705 0 0 0 .416-.906.706.706 0 0 0-.919-.387.705.705 0 0 0-.416.906c.139.357.55.53.919.387ZM64.558 100.455a.706.706 0 0 0 .416-.906.705.705 0 0 0-.919-.387.705.705 0 0 0-.416.906c.139.357.55.53.919.387ZM56.551 106.174a.705.705 0 0 0 .416-.906.705.705 0 0 0-.919-.387.705.705 0 0 0-.416.906c.14.357.55.53.92.387ZM61.126 105.029a.705.705 0 0 0 .416-.906.706.706 0 0 0-.919-.387.705.705 0 0 0-.415.906c.138.357.55.53.918.387ZM49.689 110.75a.705.705 0 0 0 .416-.906.706.706 0 0 0-.919-.387.705.705 0 0 0-.416.906c.139.357.55.53.919.387ZM51.976 113.037a.705.705 0 0 0 .416-.906.706.706 0 0 0-.919-.387.705.705 0 0 0-.416.906c.139.357.55.53.919.387ZM56.266 114.527a.705.705 0 0 0 .416-.906.706.706 0 0 0-.919-.387.705.705 0 0 0-.416.906c.139.357.55.53.919.387ZM37.107 108.461a.705.705 0 0 0 .416-.906.705.705 0 0 0-.919-.387.705.705 0 0 0-.416.906c.139.357.55.53.919.387ZM31.266 103.527a.705.705 0 0 0 .416-.906.706.706 0 0 0-.919-.387.705.705 0 0 0-.416.906c.139.357.55.53.919.387ZM33.266 103.527a.705.705 0 0 0 .416-.906.706.706 0 0 0-.919-.387.705.705 0 0 0-.416.906c.139.357.55.53.919.387ZM34.266 105.527a.705.705 0 0 0 .416-.906.706.706 0 0 0-.919-.387.705.705 0 0 0-.416.906c.139.357.55.53.919.387ZM72.254 106.295c.54-.21.813-.804.61-1.328-.204-.523-.807-.777-1.348-.567-.54.211-.813.805-.61 1.328.204.524.807.778 1.347.567ZM74.956 112.25c.54-.21.813-.804.61-1.328-.204-.523-.807-.777-1.347-.566-.54.21-.814.804-.61 1.328.203.523.806.777 1.347.566ZM27.352 92.686c.703-.274 1.058-1.047.793-1.727-.264-.68-1.048-1.01-1.75-.737-.703.273-1.058 1.046-.794 1.726.265.68 1.049 1.01 1.751.738ZM18.662 87.934c.703-.274 1.058-1.047.793-1.727-.265-.68-1.049-1.01-1.751-.737-.703.273-1.058 1.046-.793 1.727.264.68 1.048 1.01 1.751.737Z" fill="#EFEFF7"/><path d="M19.592 89.756c.601-.234.905-.895.678-1.477-.226-.582-.897-.864-1.497-.63-.601.234-.905.895-.679 1.477.227.582.897.864 1.498.63ZM33.675 89.017a.705.705 0 0 0 .416-.906.705.705 0 0 0-.919-.386.705.705 0 0 0-.416.906c.14.356.55.53.92.386ZM24.266 93.527a.705.705 0 0 0 .416-.906.705.705 0 0 0-.919-.387.705.705 0 0 0-.416.906c.139.357.55.53.919.387ZM22.266 89.527a.705.705 0 0 0 .416-.906.705.705 0 0 0-.919-.387.705.705 0 0 0-.416.906c.139.357.55.53.919.387Z" fill="#EFEFF7"/><path d="M20.266 87.527a.705.705 0 0 0 .416-.906.705.705 0 0 0-.919-.387.705.705 0 0 0-.416.906c.139.357.55.53.919.387ZM19.266 83.527a.705.705 0 0 0 .416-.906.705.705 0 0 0-.919-.387.705.705 0 0 0-.416.906c.139.357.55.53.919.387ZM24.636 85.073a1.393 1.393 0 1 0-1.01-2.596 1.393 1.393 0 0 0 1.01 2.596ZM43.56 98.24a1.393 1.393 0 1 0-1.01-2.597 1.393 1.393 0 0 0 1.01 2.596ZM37.838 96.685a1.393 1.393 0 1 0-1.01-2.596 1.393 1.393 0 0 0 1.01 2.596ZM30.636 103.075a1.393 1.393 0 1 0-1.01-2.596 1.393 1.393 0 0 0 1.01 2.596ZM38.19 102.923a1.393 1.393 0 1 0-1.01-2.596 1.393 1.393 0 0 0 1.01 2.596ZM55.354 107.591a1.393 1.393 0 1 0-1.01-2.596 1.393 1.393 0 0 0 1.01 2.596ZM59.636 116.075a1.393 1.393 0 1 0-1.01-2.596 1.393 1.393 0 0 0 1.01 2.596Z" fill="#EFEFF7"/><path d="M57.636 114.075a1.393 1.393 0 1 0-1.01-2.596 1.393 1.393 0 0 0 1.01 2.596ZM73.636 113.075a1.393 1.393 0 1 0-1.01-2.596 1.393 1.393 0 0 0 1.01 2.596ZM34.166 99.254a3.218 3.218 0 1 0-2.333-5.999 3.218 3.218 0 0 0 2.333 5.999ZM44.903 102.774a3.22 3.22 0 1 0-2.335-6 3.22 3.22 0 0 0 2.335 6ZM27.572 98.209a2.218 2.218 0 1 0-1.608-4.134 2.218 2.218 0 0 0 1.608 4.134ZM65.657 110.645a3.22 3.22 0 1 0-2.335-6 3.22 3.22 0 0 0 2.335 6ZM20.396 80.037a2.724 2.724 0 1 0-1.974-5.077 2.724 2.724 0 0 0 1.974 5.077Z" fill="#EFEFF7"/><path d="M20.416 74.6a1.63 1.63 0 1 0-1.181-3.037 1.63 1.63 0 0 0 1.181 3.037ZM61.419 100.243a1.63 1.63 0 1 0-1.183-3.037 1.63 1.63 0 0 0 1.183 3.037ZM100.415 94.602a1.629 1.629 0 1 0-1.18-3.036 1.629 1.629 0 0 0 1.18 3.036Z" fill="#EFEFF7"/><path d="M55.72 45.197a3.055 3.055 0 1 1 2.98 5.334 3.055 3.055 0 0 1-2.98-5.334ZM79.705 31.016a3.055 3.055 0 1 1 2.98 5.334 3.055 3.055 0 0 1-2.98-5.334Z" fill="#525375"/><path d="M60.095 63.554c5.374 6.24 15.424 7.645 23.918 2.9 8.494-4.745 12.567-14.039 10.07-21.887" stroke="#525375" stroke-linecap="round"/></svg>