<svg width="76" height="121" viewBox="0 0 76 121" fill="none" xmlns="http://www.w3.org/2000/svg">
<path d="M65.1854 72.5881C65.2016 71.8446 65.3016 53.9169 50.5442 45.0856C49.4171 44.4118 36.2226 36.8037 23.6277 43.4592C12.8827 49.1376 7.14131 62.7867 10.4658 76.5798C8.90174 78.255 6.74739 81.0698 5.73297 85.008C3.56933 93.4374 8.15574 101.195 10.4658 104.081C23.6382 120.545 69.4383 111.897 74.2083 95.5053C75.3342 91.6322 75.2099 83.7569 70.6584 77.6149C69.163 75.6132 67.3068 73.9084 65.1854 72.5881Z" fill="white" stroke="#525375" stroke-linecap="round" stroke-linejoin="round"/>
<path d="M51.8078 101.766C52.3407 100.624 51.8472 99.267 50.7057 98.7341C49.5641 98.2012 48.2067 98.6947 47.6738 99.8362C47.141 100.978 47.6344 102.335 48.776 102.868C49.9175 103.401 51.2749 102.908 51.8078 101.766Z" fill="#EFEFF7"/>
<path d="M41.6281 100.087C42.161 98.9456 41.6675 97.5882 40.526 97.0553C39.3844 96.5224 38.027 97.0158 37.4942 98.1574C36.9613 99.299 37.4547 100.656 38.5963 101.189C39.7378 101.722 41.0952 101.229 41.6281 100.087Z" fill="#EFEFF7"/>
<path d="M18.5402 102.51C19.0731 101.368 18.5797 100.011 17.4381 99.4779C16.2965 98.945 14.9391 99.4384 14.4063 100.58C13.8734 101.722 14.3668 103.079 15.5084 103.612C16.6499 104.145 18.0073 103.651 18.5402 102.51Z" fill="#EFEFF7"/>
<path d="M24.9643 99.8323C25.3147 99.0818 26.2071 98.7574 26.9576 99.1077C27.7081 99.4581 28.0325 100.35 27.6822 101.101C27.3319 101.852 26.4394 102.176 25.6889 101.826C24.9384 101.475 24.614 100.583 24.9643 99.8323Z" fill="#EFEFF7"/>
<path d="M17.4389 94.8396C17.7893 94.0891 18.6817 93.7647 19.4322 94.115C20.1827 94.4654 20.5072 95.3578 20.1568 96.1083C19.8065 96.8589 18.914 97.1833 18.1635 96.8329C17.413 96.4826 17.0886 95.5902 17.4389 94.8396Z" fill="#EFEFF7"/>
<path d="M44.5949 101.616C44.775 101.231 45.224 101.059 45.5977 101.234C45.9715 101.408 46.1284 101.862 45.9483 102.248C45.7681 102.634 45.3191 102.806 44.9454 102.631C44.5716 102.457 44.4147 102.002 44.5949 101.616Z" fill="#EFEFF7"/>
<path d="M13.0519 75.5894C13.232 75.2035 13.681 75.032 14.0548 75.2065C14.4285 75.381 14.5854 75.8352 14.4053 76.2212C14.2251 76.6071 13.7761 76.7785 13.4024 76.604C13.0287 76.4296 12.8717 75.9753 13.0519 75.5894Z" fill="#EFEFF7"/>
<path d="M16.8234 83.5125C17.0035 83.1266 17.4525 82.9551 17.8263 83.1296C18.2 83.3041 18.3569 83.7583 18.1768 84.1442C17.9966 84.5302 17.5476 84.7016 17.1739 84.5271C16.8002 84.3527 16.6432 83.8984 16.8234 83.5125Z" fill="#EFEFF7"/>
<path d="M22.2648 88.9254C22.4449 88.5395 22.8939 88.3681 23.2677 88.5426C23.6414 88.717 23.7983 89.1713 23.6182 89.5572C23.438 89.9431 22.989 90.1146 22.6153 89.9401C22.2416 89.7656 22.0846 89.3114 22.2648 88.9254Z" fill="#EFEFF7"/>
<path d="M32.2941 95.5786C32.4742 95.1927 32.9232 95.0213 33.297 95.1958C33.6707 95.3702 33.8276 95.8245 33.6475 96.2104C33.4673 96.5963 33.0183 96.7678 32.6446 96.5933C32.2709 96.4188 32.1139 95.9646 32.2941 95.5786Z" fill="#EFEFF7"/>
<path d="M38.1652 102.672C38.3453 102.286 38.7943 102.115 39.1681 102.289C39.5418 102.464 39.6987 102.918 39.5186 103.304C39.3384 103.69 38.8894 103.861 38.5157 103.687C38.1419 103.512 37.985 103.058 38.1652 102.672Z" fill="#EFEFF7"/>
<path d="M32.3071 104.356C32.6574 103.605 33.5499 103.281 34.3004 103.631C35.0509 103.981 35.3753 104.874 35.025 105.624C34.6746 106.375 33.7822 106.699 33.0317 106.349C32.2812 105.998 31.9567 105.106 32.3071 104.356Z" fill="#EFEFF7"/>
<path d="M13.2446 84.8346C13.5949 84.0841 14.4874 83.7597 15.2379 84.11C15.9884 84.4604 16.3128 85.3528 15.9625 86.1033C15.6121 86.8539 14.7197 87.1783 13.9692 86.8279C13.2187 86.4776 12.8942 85.5852 13.2446 84.8346Z" fill="#EFEFF7"/>
<path d="M14.5083 91.0912C14.8586 90.3407 15.751 90.0163 16.5016 90.3666C17.2521 90.717 17.5765 91.6094 17.2262 92.3599C16.8758 93.1105 15.9834 93.4349 15.2329 93.0845C14.4823 92.7342 14.1579 91.8417 14.5083 91.0912Z" fill="#EFEFF7"/>
<path d="M7.83346 90.2709C8.1838 89.5204 9.07623 89.196 9.82676 89.5463C10.5773 89.8967 10.9017 90.7891 10.5513 91.5396C10.201 92.2901 9.30857 92.6145 8.55805 92.2642C7.80753 91.9139 7.48312 91.0214 7.83346 90.2709Z" fill="#EFEFF7"/>
<path d="M69.6342 94.359C69.9846 93.6085 70.877 93.2841 71.6275 93.6345C72.3781 93.9848 72.7025 94.8772 72.3521 95.6278C72.0018 96.3783 71.1094 96.7027 70.3588 96.3523C69.6083 96.002 69.2839 95.1096 69.6342 94.359Z" fill="#EFEFF7"/>
<path d="M64.6342 99.3589C64.9846 98.6084 65.877 98.284 66.6275 98.6343C67.3781 98.9847 67.7025 99.8771 67.3521 100.628C67.0018 101.378 66.1094 101.703 65.3588 101.352C64.6083 101.002 64.2839 100.109 64.6342 99.3589Z" fill="#EFEFF7"/>
<path d="M11.4862 94.8564C12.2957 93.1221 14.358 92.3725 16.0923 93.182C17.8266 93.9916 18.5762 96.0538 17.7666 97.7881C16.9571 99.5224 14.8949 100.272 13.1606 99.4625C11.4263 98.6529 10.6766 96.5907 11.4862 94.8564Z" fill="#EFEFF7"/>
<path d="M8.46763 83.0692C9.2772 81.3349 11.3394 80.5852 13.0737 81.3948C14.808 82.2044 15.5577 84.2666 14.7481 86.0009C13.9385 87.7352 11.8763 88.4848 10.142 87.6753C8.4077 86.8657 7.65805 84.8035 8.46763 83.0692Z" fill="#EFEFF7"/>
<path d="M20.995 104.231C21.8045 102.496 23.8668 101.747 25.6011 102.556C27.3354 103.366 28.085 105.428 27.2754 107.163C26.4659 108.897 24.4036 109.646 22.6693 108.837C20.935 108.027 20.1854 105.965 20.995 104.231Z" fill="#EFEFF7"/>
<path d="M34.7213 104.659C35.4065 103.192 37.1517 102.557 38.6194 103.242C40.0872 103.927 40.7216 105.673 40.0364 107.14C39.3513 108.608 37.6061 109.243 36.1383 108.557C34.6706 107.872 34.0362 106.127 34.7213 104.659Z" fill="#EFEFF7"/>
<path d="M52.7321 106.287C53.1418 105.409 54.1856 105.03 55.0634 105.439C55.9412 105.849 56.3206 106.893 55.9109 107.771C55.5011 108.649 54.4573 109.028 53.5795 108.618C52.7017 108.208 52.3223 107.165 52.7321 106.287Z" fill="#EFEFF7"/>
<path d="M60.025 100.238C60.4348 99.3606 61.4786 98.9811 62.3564 99.3909C63.2342 99.8006 63.6136 100.844 63.2039 101.722C62.7941 102.6 61.7503 102.979 60.8725 102.57C59.9947 102.16 59.6153 101.116 60.025 100.238Z" fill="#EFEFF7"/>
<path d="M40.0348 106.656C40.4446 105.778 41.4883 105.399 42.3661 105.809C43.2439 106.218 43.6234 107.262 43.2136 108.14C42.8039 109.018 41.7601 109.397 40.8823 108.987C40.0045 108.578 39.625 107.534 40.0348 106.656Z" fill="#EFEFF7"/>
<path d="M50.6471 106.712C51.0569 105.834 52.1006 105.455 52.9784 105.865C53.8563 106.274 54.2357 107.318 53.8259 108.196C53.4162 109.074 52.3724 109.453 51.4946 109.043C50.6168 108.634 50.2373 107.59 50.6471 106.712Z" fill="#EFEFF7"/>
<path d="M25.3317 94.1879C25.7414 93.3101 26.7852 92.9307 27.663 93.3405C28.5408 93.7502 28.9203 94.794 28.5105 95.6718C28.1007 96.5496 27.057 96.9291 26.1791 96.5193C25.3013 96.1095 24.9219 95.0658 25.3317 94.1879Z" fill="#EFEFF7"/>
<path d="M26.7028 108.145C27.1125 107.267 28.1563 106.888 29.0341 107.298C29.9119 107.708 30.2913 108.751 29.8816 109.629C29.4718 110.507 28.428 110.886 27.5502 110.477C26.6724 110.067 26.293 109.023 26.7028 108.145Z" fill="#EFEFF7"/>
<path d="M51.0778 100.822C51.4875 99.9442 52.5313 99.5647 53.4091 99.9745C54.2869 100.384 54.6663 101.428 54.2566 102.306C53.8468 103.184 52.803 103.563 51.9252 103.153C51.0474 102.744 50.668 101.7 51.0778 100.822Z" fill="#EFEFF7"/>
<path d="M59.9223 91.5229C58.9102 89.7339 55.8751 88.8928 54.0066 90.4844C52.2275 92.0027 52.3798 94.9872 53.859 96.2511C55.6694 97.7904 59.1682 96.5137 60.0699 94.3285C60.107 94.2437 60.6648 92.8287 59.9223 91.5229Z" fill="#525375" stroke="#525375" stroke-linecap="round" stroke-linejoin="round"/>
<path d="M44.6889 92.8531C43.2736 90.6133 39.9794 90.3403 37.7379 91.3743C35.2373 92.529 33.571 95.532 34.3356 97.4373C35.458 100.232 42.0256 101.191 44.3926 98.1761C45.4814 96.7902 45.7301 94.5028 44.6889 92.8531Z" fill="#525375" stroke="#525375" stroke-linecap="round" stroke-linejoin="round"/>
<path d="M25.7581 93.7371C24.6542 91.6297 21.5319 90.2519 19.5472 91.6669C17.8042 92.9088 17.5718 95.8491 18.9558 97.5812C20.6674 99.7199 24.4427 99.491 25.7581 97.5812C26.575 96.3986 26.3008 94.7745 25.7581 93.7371Z" fill="#525375" stroke="#525375" stroke-linecap="round" stroke-linejoin="round"/>
<path d="M58.598 76.8272C58.8304 70.9861 57.6684 65.82 54.3799 54.9277C53.9616 53.5453 53.8652 53.2491 53.5666 52.8192C53.0669 52.0943 50.9916 49.5385 37.0174 51.1928C24.641 52.6624 21.1399 55.2751 19.1691 57.358C18.609 57.9482 18.1803 58.4036 17.7085 59.1424C13.7136 65.4087 17.7724 74.7467 20.7913 81.6902C21.449 83.2005 21.6268 83.456 21.765 83.6373C23.9403 86.4707 27.9724 86.1687 45.1293 83.7987C52.3023 82.809 56.9817 82.1015 58.2726 78.9323C58.483 78.4211 58.5527 77.9681 58.598 76.8272Z" fill="white" stroke="#525375" stroke-linecap="round" stroke-linejoin="round"/>
<path d="M44.5641 66.4425L43.4255 54.9975L38.6233 54.6288L39.2548 63.1204H33.4411L32.178 58.1971L26.6172 59.5507L28.2603 69.7646L28.5118 78.7487L45.3214 77.1488L51.5151 70.9958L47.7232 69.2735L44.6899 72.5956L44.5641 66.4425Z" fill="white" stroke="#525375" stroke-linecap="round" stroke-linejoin="round"/>
<path d="M39.3022 67.0061L39.6357 71.1093L37.6022 71.3312L37.084 67.228L39.3022 67.0061Z" fill="#525375" stroke="#525375" stroke-linecap="round" stroke-linejoin="round"/>
<path d="M35.246 67.8558L35.7259 71.7L33.1753 72.2553L32.8418 68.1521L35.246 67.8558Z" fill="#525375" stroke="#525375" stroke-linecap="round" stroke-linejoin="round"/>
<path d="M29.394 7.38202C26.116 1.21562 16.9978 -0.530478 10.4639 2.35407C5.08039 4.73094 -0.334514 11.0403 1.29461 18.028C2.78893 24.4384 9.42045 28.0187 15.1967 28.0815C21.0741 28.143 26.0393 24.5545 28.5062 20.0982C29.0164 19.1688 32.3443 12.9327 29.394 7.38202ZM26.8086 15.4548C25.9835 19.6915 22.2268 24.917 16.0926 25.1191C10.9798 25.2875 5.9914 21.9128 4.90958 16.9929C3.71388 11.5537 7.9389 7.15313 11.6654 5.35247C14.8493 3.81435 20.3107 2.89659 24.0128 6.01115C27.8915 9.2721 26.9875 14.5509 26.8086 15.4548Z" fill="white" stroke="#525375" stroke-linecap="round" stroke-linejoin="round"/>
<path d="M18.7457 29.8566C17.6557 29.3861 16.3438 29.9542 15.7884 30.8917C14.982 32.2521 15.8453 34.2607 17.1189 34.5883C18.4784 34.9368 20.1773 33.3336 20.0773 31.7781C20.0479 31.3679 19.9087 30.9732 19.6745 30.6352C19.4402 30.2972 19.1194 30.0283 18.7457 29.8566Z" fill="white" stroke="#525375" stroke-linecap="round" stroke-linejoin="round"/>
<path d="M20.6686 34.8835C20.0249 34.4641 19.0546 34.8567 18.5236 35.3272C17.9182 35.8639 17.4243 36.9083 17.8578 37.6193C18.3481 38.4209 19.8517 38.5243 20.6686 37.7668C21.5204 36.9757 21.4565 35.3993 20.6686 34.8835Z" fill="white" stroke="#525375" stroke-linecap="round" stroke-linejoin="round"/>
<path d="M23.6261 38.5057C22.9893 38.0341 22.0957 38.235 21.6298 38.8019C21.1336 39.4049 21.165 40.3691 21.7774 40.8721C22.4316 41.4088 23.4611 41.1858 23.9224 40.5027C24.3279 39.9009 24.2664 38.9809 23.6261 38.5057Z" fill="white" stroke="#525375" stroke-linecap="round" stroke-linejoin="round"/>
</svg>
