<svg width="133" height="90" viewBox="0 0 133 90" fill="none" xmlns="http://www.w3.org/2000/svg">
<path d="M105.287 5.13361L78.9428 1L65.7732 21.6665L69.8707 26.9801L58.7492 36.4287C60.0164 40.6556 61.2847 44.8872 62.554 49.1234L53.1892 60.6381C47.0016 63.0707 41.0567 66.09 35.4345 69.6554C31.6205 72.074 22.993 77.9087 23.922 80.1232C24.9046 82.4645 35.6568 78.5071 51.4324 76.8757C65.1799 75.4529 68.0113 77.321 85.0884 77.4664C104.077 77.621 131.549 75.5782 131.914 71.5605C132.067 69.8517 126.789 66.9027 100.892 61.5226L106.746 42.0376L88.3076 29.6384C87.722 23.831 87.1369 18.0246 86.5523 12.2193L105.287 5.13361Z" fill="white" stroke="#525375" stroke-linecap="round" stroke-linejoin="round"/>
<path d="M113.967 72.8227C114.305 71.8958 113.827 70.8709 112.9 70.5335C111.973 70.1961 110.948 70.674 110.611 71.6009C110.274 72.5278 110.751 73.5527 111.678 73.8901C112.605 74.2275 113.63 73.7496 113.967 72.8227Z" fill="#EFEFF7"/>
<path d="M75.239 57.3831C75.5764 56.4562 75.0985 55.4313 74.1716 55.0939C73.2447 54.7565 72.2198 55.2344 71.8824 56.1613C71.545 57.0882 72.0229 58.1131 72.9498 58.4505C73.8767 58.7879 74.9016 58.31 75.239 57.3831Z" fill="#EFEFF7"/>
<path d="M100.357 65.5379C100.695 64.611 100.217 63.5861 99.2898 63.2487C98.3629 62.9113 97.338 63.3892 97.0006 64.3161C96.6632 65.243 97.141 66.2679 98.0679 66.6053C98.9948 66.9427 100.02 66.4648 100.357 65.5379Z" fill="#EFEFF7"/>
<path d="M88.5837 67.0106C88.9211 66.0837 88.4432 65.0588 87.5163 64.7214C86.5894 64.384 85.5645 64.8619 85.2271 65.7887C84.8897 66.7156 85.3676 67.7406 86.2945 68.078C87.2214 68.4154 88.2463 67.9375 88.5837 67.0106Z" fill="#EFEFF7"/>
<path d="M89.9675 72.8227C90.3049 71.8958 89.827 70.8709 88.9001 70.5335C87.9732 70.1961 86.9483 70.674 86.6109 71.6009C86.2735 72.5278 86.7514 73.5527 87.6783 73.8901C88.6052 74.2275 89.6301 73.7496 89.9675 72.8227Z" fill="#EFEFF7"/>
<path d="M93.4107 64.4822C93.6325 63.8728 94.3063 63.5586 94.9157 63.7805C95.5251 64.0023 95.8393 64.6761 95.6175 65.2855C95.3956 65.8949 94.7218 66.2091 94.1124 65.9873C93.503 65.7654 93.1888 65.0916 93.4107 64.4822Z" fill="#EFEFF7"/>
<path d="M98.7915 65.741C99.0133 65.1316 99.6872 64.8174 100.297 65.0392C100.906 65.2611 101.22 65.9349 100.998 66.5443C100.777 67.1537 100.103 67.4679 99.4933 67.2461C98.8839 67.0242 98.5697 66.3504 98.7915 65.741Z" fill="#EFEFF7"/>
<path d="M65.7154 62.4158C65.9372 61.8064 66.611 61.4922 67.2204 61.7141C67.8298 61.9359 68.144 62.6097 67.9222 63.2191C67.7003 63.8285 67.0265 64.1427 66.4171 63.9209C65.8077 63.699 65.4935 63.0252 65.7154 62.4158Z" fill="#EFEFF7"/>
<path d="M61.7905 70.741C62.0124 70.1316 62.6862 69.8174 63.2956 70.0392C63.905 70.2611 64.2192 70.9349 63.9974 71.5443C63.7755 72.1537 63.1017 72.4679 62.4923 72.2461C61.8829 72.0242 61.5687 71.3504 61.7905 70.741Z" fill="#EFEFF7"/>
<path d="M108.844 64.5281C108.958 64.2147 109.296 64.0503 109.6 64.1607C109.903 64.2712 110.057 64.6148 109.943 64.9281C109.829 65.2415 109.49 65.4059 109.187 65.2955C108.883 65.185 108.73 64.8415 108.844 64.5281Z" fill="#EFEFF7"/>
<path d="M67.3635 55.5521C67.4775 55.2388 67.816 55.0743 68.1195 55.1848C68.4229 55.2952 68.5765 55.6388 68.4624 55.9522C68.3483 56.2655 68.0099 56.43 67.7064 56.3195C67.403 56.2091 67.2494 55.8655 67.3635 55.5521Z" fill="#EFEFF7"/>
<path d="M78.1164 61.6344C78.2305 61.3211 78.5689 61.1566 78.8724 61.2671C79.1758 61.3775 79.3294 61.7211 79.2153 62.0344C79.1013 62.3478 78.7628 62.5123 78.4593 62.4018C78.1559 62.2913 78.0023 61.9478 78.1164 61.6344Z" fill="#EFEFF7"/>
<path d="M63.5949 67.2057C63.709 66.8924 64.0475 66.7279 64.3509 66.8383C64.6544 66.9488 64.8079 67.2924 64.6938 67.6057C64.5798 67.9191 64.2413 68.0835 63.9379 67.9731C63.6344 67.8626 63.4809 67.5191 63.5949 67.2057Z" fill="#EFEFF7"/>
<path d="M76.5959 70.2057C76.71 69.8924 77.0484 69.7279 77.3519 69.8383C77.6553 69.9488 77.8089 70.2924 77.6948 70.6057C77.5807 70.9191 77.2423 71.0835 76.9388 70.9731C76.6354 70.8626 76.4818 70.5191 76.5959 70.2057Z" fill="#EFEFF7"/>
<path d="M55.5959 67.4905C55.71 67.1772 56.0484 67.0127 56.3519 67.1231C56.6553 67.2336 56.8089 67.5772 56.6948 67.8905C56.5807 68.2039 56.2423 68.3683 55.9388 68.2579C55.6354 68.1474 55.4818 67.8039 55.5959 67.4905Z" fill="#EFEFF7"/>
<path d="M77.5959 70.2063C77.71 69.893 78.0484 69.7285 78.3519 69.839C78.6553 69.9494 78.8089 70.293 78.6948 70.6063C78.5807 70.9197 78.2423 71.0842 77.9388 70.9737C77.6354 70.8632 77.4818 70.5197 77.5959 70.2063Z" fill="#EFEFF7"/>
<path d="M56.5959 67.4911C56.71 67.1778 57.0484 67.0133 57.3519 67.1237C57.6553 67.2342 57.8089 67.5778 57.6948 67.8911C57.5807 68.2045 57.2423 68.369 56.9388 68.2585C56.6354 68.148 56.4818 67.8045 56.5959 67.4911Z" fill="#EFEFF7"/>
<path d="M59.5959 64.2057C59.71 63.8924 60.0484 63.7279 60.3519 63.8383C60.6553 63.9488 60.8089 64.2924 60.6948 64.6057C60.5807 64.9191 60.2423 65.0835 59.9388 64.9731C59.6354 64.8626 59.4818 64.5191 59.5959 64.2057Z" fill="#EFEFF7"/>
<path d="M95.2063 75.49C95.3203 75.1767 95.6588 75.0122 95.9622 75.1226C96.2657 75.2331 96.4192 75.5767 96.3052 75.89C96.1911 76.2034 95.8526 76.3679 95.5492 76.2574C95.2457 76.1469 95.0922 75.8034 95.2063 75.49Z" fill="#EFEFF7"/>
<path d="M98.2063 75.49C98.3203 75.1767 98.6588 75.0122 98.9622 75.1226C99.2657 75.2331 99.4192 75.5767 99.3052 75.89C99.1911 76.2034 98.8526 76.3679 98.5492 76.2574C98.2457 76.1469 98.0922 75.8034 98.2063 75.49Z" fill="#EFEFF7"/>
<path d="M118.596 72.2057C118.71 71.8924 119.048 71.7279 119.352 71.8383C119.655 71.9488 119.809 72.2924 119.695 72.6057C119.581 72.9191 119.242 73.0835 118.939 72.9731C118.635 72.8626 118.482 72.5191 118.596 72.2057Z" fill="#EFEFF7"/>
<path d="M103.902 65.792C104.016 65.4787 104.354 65.3142 104.658 65.4247C104.961 65.5351 105.115 65.8787 105 66.192C104.886 66.5054 104.548 66.6699 104.244 66.5594C103.941 66.4489 103.788 66.1054 103.902 65.792Z" fill="#EFEFF7"/>
<path d="M100.792 69.7416C101.013 69.1322 101.687 68.818 102.297 69.0399C102.906 69.2617 103.22 69.9355 102.998 70.5449C102.777 71.1543 102.103 71.4685 101.493 71.2467C100.884 71.0248 100.57 70.351 100.792 69.7416Z" fill="#EFEFF7"/>
<path d="M74.9321 61.6814C75.154 61.072 75.8278 60.7579 76.4372 60.9797C77.0466 61.2015 77.3608 61.8753 77.139 62.4847C76.9171 63.0941 76.2433 63.4083 75.6339 63.1865C75.0245 62.9647 74.7103 62.2908 74.9321 61.6814Z" fill="#EFEFF7"/>
<path d="M65.7905 69.741C66.0124 69.1316 66.6862 68.8174 67.2956 69.0392C67.905 69.2611 68.2192 69.9349 67.9974 70.5443C67.7755 71.1537 67.1017 71.4679 66.4923 71.2461C65.8829 71.0242 65.5687 70.3504 65.7905 69.741Z" fill="#EFEFF7"/>
<path d="M80.7154 67.4158C80.9372 66.8064 81.611 66.4922 82.2204 66.7141C82.8298 66.9359 83.144 67.6097 82.9222 68.2191C82.7003 68.8285 82.0265 69.1427 81.4171 68.9209C80.8077 68.699 80.4935 68.0252 80.7154 67.4158Z" fill="#EFEFF7"/>
<path d="M70.4019 73.026C70.6237 72.4166 71.2975 72.1025 71.9069 72.3243C72.5163 72.5461 72.8305 73.2199 72.6087 73.8293C72.3869 74.4387 71.713 74.7529 71.1036 74.5311C70.4942 74.3093 70.18 73.6354 70.4019 73.026Z" fill="#EFEFF7"/>
<path d="M80.2544 73.2631C80.4762 72.6537 81.1501 72.3395 81.7595 72.5613C82.3689 72.7832 82.683 73.457 82.4612 74.0664C82.2394 74.6758 81.5656 74.99 80.9562 74.7682C80.3468 74.5463 80.0326 73.8725 80.2544 73.2631Z" fill="#EFEFF7"/>
<path d="M76.4019 73.0258C76.6237 72.4164 77.2975 72.1022 77.9069 72.324C78.5163 72.5459 78.8305 73.2197 78.6087 73.8291C78.3869 74.4385 77.713 74.7527 77.1036 74.5308C76.4942 74.309 76.18 73.6352 76.4019 73.0258Z" fill="#EFEFF7"/>
<path d="M55.4019 70.3106C55.6237 69.7012 56.2975 69.387 56.9069 69.6088C57.5163 69.8307 57.8305 70.5045 57.6087 71.1139C57.3869 71.7233 56.713 72.0375 56.1036 71.8156C55.4942 71.5938 55.18 70.92 55.4019 70.3106Z" fill="#EFEFF7"/>
<path d="M49.4019 70.026C49.6237 69.4166 50.2975 69.1025 50.9069 69.3243C51.5163 69.5461 51.8305 70.2199 51.6087 70.8293C51.3869 71.4387 50.713 71.7529 50.1036 71.5311C49.4942 71.3093 49.18 70.6354 49.4019 70.026Z" fill="#EFEFF7"/>
<path d="M126.401 71.026C126.623 70.4166 127.297 70.1025 127.906 70.3243C128.515 70.5461 128.83 71.2199 128.608 71.8293C128.386 72.4387 127.712 72.7529 127.103 72.5311C126.493 72.3093 126.179 71.6354 126.401 71.026Z" fill="#EFEFF7"/>
<path d="M70.9663 54.1827C71.1882 53.5733 71.862 53.2591 72.4714 53.4809C73.0808 53.7027 73.395 54.3766 73.1731 54.986C72.9513 55.5953 72.2775 55.9095 71.6681 55.6877C71.0587 55.4659 70.7445 54.792 70.9663 54.1827Z" fill="#EFEFF7"/>
<path d="M106.402 74.026C106.624 73.4166 107.298 73.1025 107.907 73.3243C108.516 73.5461 108.831 74.2199 108.609 74.8293C108.387 75.4387 107.713 75.7529 107.104 75.5311C106.494 75.3093 106.18 74.6354 106.402 74.026Z" fill="#EFEFF7"/>
<path d="M63.3169 72.188C63.8295 70.7798 65.3866 70.0538 66.7948 70.5664C68.203 71.079 68.929 72.6361 68.4164 74.0443C67.9038 75.4524 66.3467 76.1785 64.9386 75.6659C63.5304 75.1533 62.8044 73.5962 63.3169 72.188Z" fill="#EFEFF7"/>
<path d="M81.9283 72.4726C82.4409 71.0644 83.998 70.3384 85.4061 70.851C86.8143 71.3635 87.5403 72.9206 87.0277 74.3288C86.5151 75.737 84.9581 76.463 83.5499 75.9504C82.1417 75.4378 81.4157 73.8807 81.9283 72.4726Z" fill="#EFEFF7"/>
<path d="M68.3003 61.1286C68.8129 59.7204 70.37 58.9944 71.7782 59.507C73.1864 60.0195 73.9124 61.5766 73.3998 62.9848C72.8872 64.393 71.3301 65.119 69.9219 64.6064C68.5138 64.0938 67.7878 62.5367 68.3003 61.1286Z" fill="#EFEFF7"/>
<path d="M90.6158 68.1845C91.1284 66.7763 92.6855 66.0503 94.0936 66.5629C95.5018 67.0755 96.2278 68.6325 95.7152 70.0407C95.2026 71.4489 93.6456 72.1749 92.2374 71.6623C90.8292 71.1497 90.1032 69.5926 90.6158 68.1845Z" fill="#EFEFF7"/>
<path d="M40.3077 73.2386C40.7415 72.0469 42.0593 71.4325 43.251 71.8663C44.4427 72.3001 45.0572 73.6178 44.6234 74.8096C44.1896 76.0013 42.8718 76.6157 41.6801 76.1819C40.4883 75.7481 39.8739 74.4304 40.3077 73.2386Z" fill="#EFEFF7"/>
<path d="M115.511 67.6131C115.77 66.9003 116.558 66.5329 117.271 66.7923C117.984 67.0517 118.351 67.8399 118.092 68.5526C117.832 69.2653 117.044 69.6328 116.332 69.3734C115.619 69.1139 115.251 68.3258 115.511 67.6131Z" fill="#EFEFF7"/>
<path d="M121.859 68.929C122.119 68.2162 122.907 67.8488 123.62 68.1082C124.332 68.3677 124.7 69.1558 124.44 69.8685C124.181 70.5813 123.393 70.9487 122.68 70.6893C121.967 70.4298 121.6 69.6417 121.859 68.929Z" fill="#EFEFF7"/>
<path d="M44.7666 70.2132C45.0261 69.5004 45.8142 69.133 46.5269 69.3924C47.2397 69.6518 47.6071 70.44 47.3477 71.1527C47.0883 71.8654 46.3001 72.2329 45.5874 71.9735C44.8747 71.714 44.5072 70.9259 44.7666 70.2132Z" fill="#EFEFF7"/>
<path d="M113.913 68.0878C114.173 67.3751 114.961 67.0076 115.673 67.267C116.386 67.5265 116.754 68.3146 116.494 69.0273C116.235 69.7401 115.447 70.1075 114.734 69.8481C114.021 69.5887 113.654 68.8005 113.913 68.0878Z" fill="#EFEFF7"/>
<path d="M77.8594 70.9284C78.1188 70.2156 78.907 69.8482 79.6197 70.1076C80.3324 70.3671 80.6999 71.1552 80.4405 71.8679C80.181 72.5807 79.3929 72.9481 78.6802 72.6887C77.9674 72.4292 77.6 71.6411 77.8594 70.9284Z" fill="#EFEFF7"/>
<path d="M56.8594 68.2132C57.1188 67.5004 57.907 67.133 58.6197 67.3924C59.3324 67.6518 59.6999 68.44 59.4405 69.1527C59.181 69.8654 58.3929 70.2329 57.6802 69.9735C56.9674 69.714 56.6 68.9259 56.8594 68.2132Z" fill="#EFEFF7"/>
<path d="M34.4698 72.2885C34.7292 71.5757 35.5173 71.2083 36.2301 71.4677C36.9428 71.7272 37.3103 72.5153 37.0508 73.228C36.7914 73.9408 36.0033 74.3082 35.2905 74.0488C34.5778 73.7893 34.2103 73.0012 34.4698 72.2885Z" fill="#EFEFF7"/>
<path d="M113.334 72.1365C113.593 71.4238 114.382 71.0563 115.094 71.3157C115.807 71.5752 116.175 72.3633 115.915 73.076C115.656 73.7888 114.868 74.1563 114.155 73.8968C113.442 73.6374 113.075 72.8493 113.334 72.1365Z" fill="#EFEFF7"/>
<path d="M53.1895 60.6381C53.1895 60.6381 60.5047 72.4466 87.4295 62.9995" stroke="#525375" stroke-linecap="round" stroke-linejoin="round"/>
<path d="M65.1468 54.1941C64.5443 54.0921 63.8667 54.4214 63.6859 54.9796C63.4498 55.7127 64.135 56.6529 64.9521 56.6482C65.6772 56.6482 66.3409 55.8951 66.2168 55.176C66.1263 54.6425 65.6281 54.2792 65.1468 54.1941Z" fill="#525375" stroke="#525375" stroke-linecap="round" stroke-linejoin="round"/>
<path d="M71.6419 54.8359C71.3261 54.1818 70.2515 53.9081 69.5969 54.4431C68.9746 54.9488 68.927 56.0236 69.5004 56.5061C70.0737 56.9885 71.018 56.6885 71.4472 56.1133C71.6802 55.7993 71.8534 55.2751 71.6419 54.8359Z" fill="#525375" stroke="#525375" stroke-linecap="round" stroke-linejoin="round"/>
<path d="M46.2863 71.9111L11.4592 42.7191L9.41113 44.1356L43.944 73.3261L46.2863 71.9111Z" fill="white" stroke="#525375" stroke-linecap="round" stroke-linejoin="round"/>
<path d="M46.2865 71.9111L20.1098 49.9703L18.793 52.0518L43.9441 73.3261L46.2865 71.9111Z" fill="#525375" stroke="#525375" stroke-linecap="round" stroke-linejoin="round"/>
<path d="M8.63116 37.4025C4.82177 35.587 1.73287 35.2189 1.11969 36.221C0.555562 37.1489 2.03946 39.4206 4.437 41.6335C3.89159 42.1009 3.40092 42.6296 2.97456 43.2093C2.77527 43.4784 0.917346 46.0007 1.5106 46.9486C2.03334 47.7837 4.45999 47.394 7.46151 46.1615C8.54531 49.3549 10.2469 51.3142 11.1682 51.0822C12.0895 50.8503 12.6782 48.3126 12.1447 44.98C12.9878 44.7434 14.0885 44.4187 15.3639 43.9965C19.1748 42.7331 19.2975 42.3372 19.3143 42.1888C19.4247 41.2083 16.1626 40.0577 14.2908 39.4685C14.6771 37.9113 15.4329 34.452 14.4441 33.9571C14.2908 33.8782 13.9306 33.8024 11.5606 35.3365C10.3419 36.1252 9.35778 36.8489 8.63116 37.4025Z" fill="white" stroke="#525375" stroke-linecap="round" stroke-linejoin="round"/>
</svg>
