<svg width="151" height="101" viewBox="0 0 151 101" fill="none" xmlns="http://www.w3.org/2000/svg">
<path d="M11.7681 39.6295C11.7681 39.6295 -2.06572 34.1979 3.40158 30.0438C8.8689 25.8898 51.9805 47.9351 51.9805 47.9351C51.9805 47.9351 40.0778 21.4195 61.6311 15.0315C65.3113 13.9397 68.4558 13.7163 71.1199 14.0928C70.7989 13.5356 70.3945 12.8755 69.8561 12.1024C66.6586 7.4639 64.2953 6.70092 64.4697 4.75316C64.6592 2.71755 67.5332 0.551334 69.4542 1.08094C72.7123 1.97701 73.554 10.7118 73.1168 14.5094C73.3948 14.5872 73.6703 14.6701 73.9382 14.7604C74.3882 12.017 76.0969 7.1226 80.0046 4.75316C80.1638 4.65778 83.3057 2.78029 84.428 3.79684C85.1534 4.45446 84.8375 6.15372 84.2662 7.31083C82.8608 10.1622 79.9288 9.67274 76.706 12.9006C76.0269 13.5737 75.4327 14.3263 74.9367 15.1419C84.4937 19.1956 86.0811 31.9589 86.0811 31.9589L85.4391 45.6961C88.9778 42.1821 137.663 20.7794 147.634 27.1674C157.606 33.5553 128.975 41.5421 128.975 41.5421C128.975 41.5421 139.379 39.4136 141.631 47.0816C143.883 54.7497 122.168 51.4541 122.115 51.4466C122.151 51.4466 130.371 53.5524 131.013 57.9424C131.051 58.1934 131.222 59.3606 130.654 60.2667C128.172 64.2375 113.883 59.3957 112.141 58.7933C112.611 59.1548 116.185 61.966 115.786 65.8213C115.7 66.7887 115.351 67.7146 114.775 68.4995C111.378 72.5606 94.579 64.0543 92.7844 63.1331C93.0574 64.1823 94.3895 69.6591 91.5004 74.9878C94.0862 74.7368 98.4008 74.8874 101.229 78.0676C105.491 82.8592 94.5538 80.1458 94.5538 80.1458C94.5538 80.1458 98.4135 82.7814 95.6002 85.3365C92.7869 87.8917 89.2457 80.8638 89.2457 80.8638C89.2457 80.8638 91.4978 88.2908 87.5572 86.4535C85.4871 85.4897 84.9259 83.2256 84.8602 81.2904C83.6007 81.8991 82.2865 82.389 80.9348 82.7537C71.1452 85.5725 62.8595 79.7969 62.311 79.4029C55.8579 74.7518 54.0102 66.9558 53.4794 62.7164C53.5325 66.5893 52.7919 73.1079 47.4762 75.0857C41.6424 77.2594 43.7075 68.4869 45.0649 64.0693C43.9881 66.0372 41.4706 68.9638 35.5735 71.893C25.2784 77.0033 33.966 59.4334 33.966 59.4334C33.966 59.4334 18.522 61.6697 12.7337 60.0709C6.94536 58.472 21.4212 53.3642 21.4212 53.3642C21.4212 53.3642 14.0228 55.2794 4.04868 47.2926C-5.92543 39.3058 11.7681 39.6295 11.7681 39.6295Z" fill="white" stroke="#525375" stroke-linecap="round" stroke-linejoin="round"/>
<path d="M7.01322 91.5013C7.01322 91.5013 21.2245 87.194 23.2344 94.5162C25.2443 101.838 8.881 98.9656 8.881 98.9656L6.87109 79.8751L20.5072 80.8902" stroke="#525375" stroke-linecap="round" stroke-linejoin="round"/>
<path d="M26.4282 86.8555C23.7213 91.4742 24.7702 96.2791 27.3993 97.8187C29.284 98.9251 31.9198 98.3025 33.571 97.1013C36.3118 95.1016 37.2626 90.8043 35.4185 86.7473" stroke="#525375" stroke-linecap="round" stroke-linejoin="round"/>
<path d="M33.8233 80.8756C33.2853 80.8519 32.7236 81.6674 32.9063 82.3272C32.9577 82.5349 33.0747 82.7205 33.2398 82.8564C33.405 82.9923 33.6096 83.0713 33.8233 83.0818C34.3342 83.0445 34.6624 82.405 34.6286 81.8975C34.5947 81.3899 34.2361 80.8925 33.8233 80.8756Z" fill="white" stroke="#525375" stroke-linecap="round" stroke-linejoin="round"/>
<path d="M29.2304 82.0034C29.0683 81.8825 28.8738 81.8128 28.6719 81.8032C28.4699 81.7935 28.2697 81.8443 28.0968 81.9492C27.9676 82.0329 27.8572 82.1428 27.7728 82.2715C27.6884 82.4003 27.6318 82.5452 27.6067 82.6971C27.5815 82.8491 27.5883 83.0047 27.6267 83.1538C27.6651 83.3029 27.7342 83.4423 27.8295 83.5632C27.9999 83.7453 28.2291 83.8615 28.4767 83.8912C28.7242 83.9209 28.9744 83.8622 29.183 83.7256C29.3103 83.6227 29.4138 83.4934 29.4863 83.3466C29.5589 83.1998 29.5988 83.0391 29.6033 82.8754C29.6078 82.7117 29.5768 82.5491 29.5124 82.3986C29.4481 82.2481 29.3518 82.1132 29.2304 82.0034Z" fill="white" stroke="#525375" stroke-linecap="round" stroke-linejoin="round"/>
<path d="M84.9699 72.8719C85.5028 71.7303 85.0093 70.373 83.8678 69.8401C82.7262 69.3072 81.3688 69.8006 80.836 70.9422C80.3031 72.0837 80.7965 73.4411 81.9381 73.974C83.0796 74.5069 84.437 74.0135 84.9699 72.8719Z" fill="#EFEFF7"/>
<path d="M81.846 80.2072C82.1569 79.5411 81.869 78.7492 81.2029 78.4382C80.5369 78.1273 79.7449 78.4152 79.434 79.0813C79.1231 79.7473 79.411 80.5393 80.0771 80.8502C80.7431 81.1611 81.5351 80.8732 81.846 80.2072Z" fill="#EFEFF7"/>
<path d="M78.9299 75.3269C79.4627 74.1853 78.9693 72.8279 77.8277 72.295C76.6862 71.7622 75.3288 72.2556 74.7959 73.3971C74.263 74.5387 74.7565 75.8961 75.898 76.429C77.0396 76.9619 78.397 76.4684 78.9299 75.3269Z" fill="#EFEFF7"/>
<path d="M83.4183 72.7014C83.971 71.5175 85.3788 71.0057 86.5627 71.5584C87.7467 72.1111 88.2584 73.5189 87.7058 74.7028C87.1531 75.8868 85.7453 76.3985 84.5613 75.8459C83.3774 75.2932 82.8656 73.8854 83.4183 72.7014Z" fill="#EFEFF7"/>
<path d="M77.8286 67.6569C78.1789 66.9064 79.0714 66.582 79.8219 66.9323C80.5724 67.2827 80.8968 68.1751 80.5465 68.9256C80.1961 69.6761 79.3037 70.0005 78.5532 69.6502C77.8026 69.2998 77.4782 68.4074 77.8286 67.6569Z" fill="#EFEFF7"/>
<path d="M89.1974 68.574C89.3775 68.1881 89.8265 68.0167 90.2003 68.1911C90.574 68.3656 90.7309 68.8199 90.5508 69.2058C90.3706 69.5917 89.9216 69.7631 89.5479 69.5887C89.1742 69.4142 89.0172 68.9599 89.1974 68.574Z" fill="#EFEFF7"/>
<path d="M73.4415 48.4065C73.6217 48.0206 74.0707 47.8492 74.4444 48.0236C74.8182 48.1981 74.9751 48.6524 74.7949 49.0383C74.6148 49.4242 74.1658 49.5956 73.792 49.4212C73.4183 49.2467 73.2614 48.7924 73.4415 48.4065Z" fill="#EFEFF7"/>
<path d="M77.213 56.3296C77.3932 55.9437 77.8422 55.7723 78.2159 55.9467C78.5896 56.1212 78.7466 56.5755 78.5664 56.9614C78.3863 57.3473 77.9373 57.5187 77.5635 57.3443C77.1898 57.1698 77.0329 56.7155 77.213 56.3296Z" fill="#EFEFF7"/>
<path d="M82.6544 61.7427C82.8346 61.3568 83.2836 61.1854 83.6573 61.3598C84.031 61.5343 84.188 61.9886 84.0078 62.3745C83.8277 62.7604 83.3787 62.9318 83.0049 62.7574C82.6312 62.5829 82.4743 62.1286 82.6544 61.7427Z" fill="#EFEFF7"/>
<path d="M85.1974 67.574C85.3775 67.1881 85.8265 67.0167 86.2003 67.1911C86.574 67.3656 86.7309 67.8199 86.5508 68.2058C86.3706 68.5917 85.9216 68.7631 85.5479 68.5887C85.1742 68.4142 85.0172 67.9599 85.1974 67.574Z" fill="#EFEFF7"/>
<path d="M83.1974 75.574C83.3775 75.1881 83.8265 75.0167 84.2003 75.1911C84.574 75.3656 84.7309 75.8199 84.5508 76.2058C84.3706 76.5917 83.9216 76.7631 83.5479 76.5887C83.1742 76.4142 83.0172 75.9599 83.1974 75.574Z" fill="#EFEFF7"/>
<path d="M90.5053 77.2342C90.8557 76.4836 91.7481 76.1592 92.4986 76.5096C93.2492 76.8599 93.5736 77.7524 93.2232 78.5029C92.8729 79.2534 91.9804 79.5778 91.2299 79.2275C90.4794 78.8771 90.155 77.9847 90.5053 77.2342Z" fill="#EFEFF7"/>
<path d="M73.6333 57.6518C73.9836 56.9012 74.876 56.5768 75.6266 56.9272C76.3771 57.2775 76.7015 58.17 76.3512 58.9205C76.0008 59.671 75.1084 59.9954 74.3579 59.6451C73.6073 59.2947 73.2829 58.4023 73.6333 57.6518Z" fill="#EFEFF7"/>
<path d="M74.8979 63.9085C75.2483 63.158 76.1407 62.8336 76.8912 63.1839C77.6417 63.5342 77.9661 64.4267 77.6158 65.1772C77.2655 65.9277 76.373 66.2521 75.6225 65.9018C74.872 65.5514 74.5476 64.659 74.8979 63.9085Z" fill="#EFEFF7"/>
<path d="M68.2231 63.088C68.5735 62.3375 69.4659 62.0131 70.2164 62.3635C70.9669 62.7138 71.2913 63.6062 70.941 64.3568C70.5907 65.1073 69.6982 65.4317 68.9477 65.0813C68.1972 64.731 67.8728 63.8386 68.2231 63.088Z" fill="#EFEFF7"/>
<path d="M126.63 57.9666C126.912 57.3638 127.628 57.1032 128.231 57.3846C128.834 57.666 129.095 58.3828 128.813 58.9856C128.532 59.5884 127.815 59.8489 127.212 59.5675C126.609 59.2861 126.349 58.5694 126.63 57.9666Z" fill="#EFEFF7"/>
<path d="M106.034 62.4815C106.248 62.0235 106.793 61.8256 107.251 62.0393C107.709 62.2531 107.907 62.7977 107.693 63.2557C107.479 63.7137 106.934 63.9117 106.476 63.6979C106.018 63.4841 105.82 62.9395 106.034 62.4815Z" fill="#EFEFF7"/>
<path d="M71.8758 67.6735C72.6854 65.9392 74.7476 65.1896 76.4819 65.9992C78.2162 66.8087 78.9659 68.871 78.1563 70.6053C77.3467 72.3396 75.2845 73.0892 73.5502 72.2796C71.8159 71.4701 71.0663 69.4078 71.8758 67.6735Z" fill="#EFEFF7"/>
<path d="M68.8573 55.8863C69.6668 54.152 71.7291 53.4024 73.4634 54.2119C75.1977 55.0215 75.9473 57.0837 75.1377 58.818C74.3282 60.5523 72.2659 61.302 70.5316 60.4924C68.7973 59.6828 68.0477 57.6206 68.8573 55.8863Z" fill="#EFEFF7"/>
<path d="M68.3358 76.0153C69.1454 74.281 71.2076 73.5314 72.9419 74.341C74.6762 75.1505 75.4258 77.2128 74.6162 78.9471C73.8067 80.6814 71.7445 81.431 70.0102 80.6214C68.2759 79.8119 67.5262 77.7496 68.3358 76.0153Z" fill="#EFEFF7"/>
<path d="M96.3465 77.8932C96.609 77.331 97.2774 77.088 97.8396 77.3504C98.4018 77.6128 98.6448 78.2813 98.3824 78.8435C98.12 79.4057 97.4515 79.6487 96.8893 79.3863C96.3271 79.1238 96.0841 78.4554 96.3465 77.8932Z" fill="#EFEFF7"/>
<path d="M98.6129 61.4647C99.0227 60.5869 100.066 60.2074 100.944 60.6172C101.822 61.027 102.202 62.0707 101.792 62.9486C101.382 63.8264 100.338 64.2058 99.4604 63.796C98.5826 63.3863 98.2032 62.3425 98.6129 61.4647Z" fill="#EFEFF7"/>
<path d="M97.6129 60.4647C98.0227 59.5869 99.0665 59.2074 99.9443 59.6172C100.822 60.027 101.202 61.0707 100.792 61.9486C100.382 62.8264 99.3382 63.2058 98.4604 62.796C97.5826 62.3863 97.2032 61.3425 97.6129 60.4647Z" fill="#EFEFF7"/>
<path d="M123.613 58.4646C124.023 57.5867 125.066 57.2073 125.944 57.6171C126.822 58.0268 127.202 59.0706 126.792 59.9484C126.382 60.8262 125.338 61.2057 124.46 60.7959C123.583 60.3861 123.203 59.3424 123.613 58.4646Z" fill="#EFEFF7"/>
<path d="M111.673 63.96C111.809 63.6681 112.156 63.542 112.448 63.6782C112.74 63.8144 112.866 64.1614 112.73 64.4533C112.594 64.7451 112.247 64.8713 111.955 64.735C111.663 64.5988 111.537 64.2518 111.673 63.96Z" fill="#EFEFF7"/>
<path d="M85.7213 67.0051C86.1311 66.1273 87.1749 65.7478 88.0527 66.1576C88.9305 66.5674 89.3099 67.6111 88.9001 68.489C88.4904 69.3668 87.4466 69.7462 86.5688 69.3364C85.691 68.9267 85.3116 67.8829 85.7213 67.0051Z" fill="#EFEFF7"/>
<path d="M87.0924 80.9624C87.5022 80.0846 88.5459 79.7051 89.4238 80.1149C90.3016 80.5246 90.681 81.5684 90.2712 82.4462C89.8615 83.324 88.8177 83.7035 87.9399 83.2937C87.0621 82.8839 86.6826 81.8402 87.0924 80.9624Z" fill="#EFEFF7"/>
<path d="M109.613 65.4647C110.023 64.5869 111.066 64.2074 111.944 64.6172C112.822 65.027 113.202 66.0707 112.792 66.9486C112.382 67.8264 111.338 68.2058 110.46 67.796C109.583 67.3863 109.203 66.3425 109.613 65.4647Z" fill="#EFEFF7"/>
<path d="M52.7001 85.7281C53.8477 85.3039 68.4373 79.6564 71.5513 66.2405C71.9835 64.3781 73.806 56.5168 69.6733 49.2027C69.0301 48.0667 68.2758 46.9964 67.4211 46.0074L53.8552 56.9762L52.7001 85.7281Z" fill="white" stroke="#525375" stroke-linecap="round" stroke-linejoin="round"/>
<path d="M70.0146 52.1393C70.0146 52.1393 68.2958 74.4506 52.6977 85.738C52.6977 85.738 44.5031 66.0496 48.7344 56.8731C52.9657 47.6965 70.0146 52.1393 70.0146 52.1393Z" fill="#525375" stroke="#525375" stroke-linecap="round" stroke-linejoin="round"/>
<path d="M56.717 59.4234C56.717 59.4234 56.1306 68.9914 51.4443 68.5723C51.4443 68.5723 59.0602 71.8353 59.9398 59.5087L60.4453 56.0675L56.717 59.4234Z" fill="white" stroke="#525375" stroke-linecap="round" stroke-linejoin="round"/>
<path d="M68.549 32.3931C67.4321 31.6735 66.1728 31.2002 64.856 31.0049C63.5391 30.8096 62.1955 30.8969 60.9156 31.2611C57.66 32.1292 54.5728 33.5297 51.7806 35.4051C36.9054 45.4451 36.9155 65.3117 36.9559 67.6887C49.6595 65.8632 61.4936 60.2126 70.8619 51.4992C70.8619 51.4992 76.5061 37.6666 68.549 32.3931Z" fill="white" stroke="#525375" stroke-linecap="round" stroke-linejoin="round"/>
<path d="M56.5908 38.2892C55.2427 39.0472 54.5999 39.509 54.6622 39.6747C54.7128 39.7952 55.1416 39.7601 55.9488 39.5693" fill="white"/>
<path d="M56.5908 38.2892C55.2427 39.0472 54.5999 39.509 54.6622 39.6747C54.7128 39.7952 55.1416 39.7601 55.9488 39.5693" stroke="#525375" stroke-linecap="round" stroke-linejoin="round"/>
<path d="M62.275 39.7347C63.0333 40.5655 63.3088 41.3838 63.0333 41.7427C62.9715 41.8112 62.8953 41.8655 62.8102 41.9015C62.725 41.9375 62.6329 41.9543 62.5404 41.9511" fill="white"/>
<path d="M62.275 39.7347C63.0333 40.5655 63.3088 41.3838 63.0333 41.7427C62.9715 41.8112 62.8953 41.8655 62.8102 41.9015C62.725 41.9375 62.6329 41.9543 62.5404 41.9511" stroke="#525375" stroke-linecap="round" stroke-linejoin="round"/>
<path d="M60.1294 26.9566C60.0611 26.2036 60.6349 25.3602 61.4159 25.3602C62.197 25.3602 62.7885 26.1885 62.705 26.9566C62.6317 27.6242 62.0352 28.2893 61.3098 28.2341C60.64 28.1839 60.185 27.5389 60.1294 26.9566Z" fill="#525375" stroke="#525375" stroke-linecap="round" stroke-linejoin="round"/>
<path d="M65.384 25.7843C65.8137 24.9736 66.9612 24.5645 67.7448 25.0313C68.6092 25.5559 68.7381 26.984 67.9571 27.6918C67.7818 27.8398 67.5786 27.9517 67.3594 28.0211C67.1401 28.0906 66.9092 28.1161 66.68 28.0963C66.4508 28.0764 66.2278 28.0116 66.024 27.9056C65.8201 27.7995 65.6396 27.6544 65.4926 27.4786C65.32 27.2332 65.2185 26.9453 65.1993 26.6465C65.1802 26.3477 65.244 26.0495 65.384 25.7843Z" fill="#525375" stroke="#525375" stroke-linecap="round" stroke-linejoin="round"/>
</svg>
