<svg width="109" height="88" viewBox="0 0 109 88" fill="none" xmlns="http://www.w3.org/2000/svg">
<g clip-path="url(#clip0_80_1049)">
<path d="M92.3339 2.91253L108.829 10.7493L103.887 37.0496L85.7747 35.1122C85.1796 40.1129 84.5791 45.1123 83.9732 50.1108C82.5436 61.929 81.086 73.7451 79.6003 85.5589C79.6003 85.5589 63.6487 87.0991 47.4382 87.6125C28.2263 88.2228 18.5137 87.916 13.7366 83.502C0.0877102 70.9089 17.9218 33.1845 18.7789 31.4118L3.44494 41.1731L0.162109 11.9731L13.4228 6.80673C19.0092 4.63671 25.0761 4.00134 30.992 4.96676C36.9078 5.93219 42.4563 8.46309 47.0598 12.296L51.617 16.087L57.9498 10.3198L60.9674 7.57204C65.1403 3.77189 70.3526 1.29907 75.9393 0.46918C81.5259 -0.360711 87.2336 0.489907 92.3339 2.91253Z" fill="white" stroke="#525375" stroke-linecap="round" stroke-linejoin="round"/>
<path d="M57.6105 75.976C58.1434 74.8344 57.65 73.477 56.5084 72.9441C55.3669 72.4112 54.0095 72.9047 53.4766 74.0462C52.9437 75.1878 53.4371 76.5452 54.5787 77.0781C55.7202 77.6109 57.0776 77.1175 57.6105 75.976Z" fill="#EFEFF7"/>
<path d="M47.4308 74.2971C47.9637 73.1556 47.4703 71.7982 46.3287 71.2653C45.1872 70.7324 43.8298 71.2259 43.2969 72.3674C42.764 73.509 43.2574 74.8664 44.399 75.3992C45.5406 75.9321 46.898 75.4387 47.4308 74.2971Z" fill="#EFEFF7"/>
<path d="M24.3429 76.7197C24.8758 75.5781 24.3824 74.2207 23.2408 73.6879C22.0993 73.155 20.7419 73.6484 20.209 74.79C19.6761 75.9315 20.1696 77.2889 21.3111 77.8218C22.4527 78.3547 23.8101 77.8612 24.3429 76.7197Z" fill="#EFEFF7"/>
<path d="M30.768 74.0423C31.1184 73.2917 32.0108 72.9673 32.7613 73.3177C33.5118 73.668 33.8363 74.5604 33.4859 75.311C33.1356 76.0615 32.2431 76.3859 31.4926 76.0356C30.7421 75.6852 30.4177 74.7928 30.768 74.0423Z" fill="#EFEFF7"/>
<path d="M23.2417 69.0497C23.592 68.2992 24.4844 67.9748 25.235 68.3251C25.9855 68.6754 26.3099 69.5679 25.9595 70.3184C25.6092 71.0689 24.7168 71.3933 23.9663 71.043C23.2157 70.6926 22.8913 69.8002 23.2417 69.0497Z" fill="#EFEFF7"/>
<path d="M50.3976 75.8265C50.5777 75.4406 51.0267 75.2692 51.4005 75.4437C51.7742 75.6181 51.9311 76.0724 51.751 76.4583C51.5708 76.8442 51.1218 77.0156 50.7481 76.8412C50.3744 76.6667 50.2174 76.2125 50.3976 75.8265Z" fill="#EFEFF7"/>
<path d="M63.3263 84.6988C63.5064 84.3128 63.9555 84.1414 64.3292 84.3159C64.7029 84.4903 64.8598 84.9446 64.6797 85.3305C64.4996 85.7164 64.0505 85.8879 63.6768 85.7134C63.3031 85.539 63.1461 85.0847 63.3263 84.6988Z" fill="#EFEFF7"/>
<path d="M50.3263 84.6987C50.5064 84.3128 50.9555 84.1414 51.3292 84.3159C51.7029 84.4903 51.8598 84.9446 51.6797 85.3305C51.4996 85.7164 51.0505 85.8879 50.6768 85.7134C50.3031 85.5389 50.1461 85.0847 50.3263 84.6987Z" fill="#EFEFF7"/>
<path d="M69.3263 78.6988C69.5064 78.3128 69.9555 78.1414 70.3292 78.3159C70.7029 78.4903 70.8598 78.9446 70.6797 79.3305C70.4996 79.7164 70.0505 79.8879 69.6768 79.7134C69.3031 79.539 69.1461 79.0847 69.3263 78.6988Z" fill="#EFEFF7"/>
<path d="M16.6105 48.9669C16.7906 48.5809 17.2396 48.4095 17.6134 48.584C17.9871 48.7584 18.144 49.2127 17.9639 49.5986C17.7837 49.9845 17.3347 50.156 16.961 49.9815C16.5873 49.8071 16.4303 49.3528 16.6105 48.9669Z" fill="#EFEFF7"/>
<path d="M23.6105 61.9668C23.7906 61.5809 24.2396 61.4095 24.6134 61.5839C24.9871 61.7584 25.144 62.2127 24.9639 62.5986C24.7837 62.9845 24.3347 63.1559 23.961 62.9815C23.5873 62.807 23.4303 62.3527 23.6105 61.9668Z" fill="#EFEFF7"/>
<path d="M15.6105 76.9669C15.7906 76.581 16.2396 76.4095 16.6134 76.584C16.9871 76.7585 17.144 77.2127 16.9639 77.5987C16.7837 77.9846 16.3347 78.156 15.961 77.9815C15.5873 77.8071 15.4303 77.3528 15.6105 76.9669Z" fill="#EFEFF7"/>
<path d="M27.6105 63.9669C27.7906 63.5809 28.2396 63.4095 28.6134 63.584C28.9871 63.7584 29.144 64.2127 28.9639 64.5986C28.7837 64.9845 28.3347 65.156 27.961 64.9815C27.5873 64.8071 27.4303 64.3528 27.6105 63.9669Z" fill="#EFEFF7"/>
<path d="M38.0968 69.7887C38.277 69.4028 38.726 69.2313 39.0997 69.4058C39.4734 69.5803 39.6304 70.0345 39.4502 70.4204C39.2701 70.8064 38.8211 70.9778 38.4473 70.8033C38.0736 70.6289 37.9167 70.1746 38.0968 69.7887Z" fill="#EFEFF7"/>
<path d="M43.9679 76.8821C44.148 76.4962 44.5971 76.3248 44.9708 76.4992C45.3445 76.6737 45.5014 77.128 45.3213 77.5139C45.1412 77.8998 44.6921 78.0712 44.3184 77.8968C43.9447 77.7223 43.7878 77.268 43.9679 76.8821Z" fill="#EFEFF7"/>
<path d="M38.1098 78.5655C38.4602 77.815 39.3526 77.4906 40.1031 77.8409C40.8536 78.1913 41.1781 79.0837 40.8277 79.8342C40.4774 80.5847 39.5849 80.9092 38.8344 80.5588C38.0839 80.2085 37.7595 79.316 38.1098 78.5655Z" fill="#EFEFF7"/>
<path d="M19.0473 59.0446C19.3977 58.2941 20.2901 57.9697 21.0406 58.32C21.7911 58.6704 22.1156 59.5628 21.7652 60.3133C21.4149 61.0638 20.5224 61.3882 19.7719 61.0379C19.0214 60.6876 18.697 59.7951 19.0473 59.0446Z" fill="#EFEFF7"/>
<path d="M20.311 65.3013C20.6613 64.5507 21.5538 64.2263 22.3043 64.5767C23.0548 64.927 23.3792 65.8194 23.0289 66.57C22.6785 67.3205 21.7861 67.6449 21.0356 67.2946C20.2851 66.9442 19.9607 66.0518 20.311 65.3013Z" fill="#EFEFF7"/>
<path d="M13.6362 64.4809C13.9865 63.7304 14.879 63.406 15.6295 63.7563C16.38 64.1067 16.7044 64.9991 16.3541 65.7496C16.0037 66.5001 15.1113 66.8245 14.3608 66.4742C13.6103 66.1239 13.2859 65.2314 13.6362 64.4809Z" fill="#EFEFF7"/>
<path d="M18.9184 80.6271C19.2688 79.8765 20.1612 79.5521 20.9117 79.9025C21.6622 80.2528 21.9867 81.1452 21.6363 81.8958C21.286 82.6463 20.3935 82.9707 19.643 82.6203C18.8925 82.27 18.5681 81.3776 18.9184 80.6271Z" fill="#EFEFF7"/>
<path d="M52.4483 78.8743C52.6621 78.4163 53.2067 78.2183 53.6647 78.4321C54.1226 78.6459 54.3206 79.1905 54.1068 79.6485C53.893 80.1065 53.3485 80.3044 52.8905 80.0906C52.4325 79.8768 52.2345 79.3323 52.4483 78.8743Z" fill="#EFEFF7"/>
<path d="M17.2899 69.0663C18.0995 67.332 20.1617 66.5824 21.896 67.392C23.6303 68.2015 24.3799 70.2637 23.5703 71.998C22.7608 73.7323 20.6986 74.482 18.9643 73.6724C17.23 72.8628 16.4803 70.8006 17.2899 69.0663Z" fill="#EFEFF7"/>
<path d="M14.2704 57.2791C15.0799 55.5448 17.1421 54.7952 18.8764 55.6048C20.6107 56.4143 21.3604 58.4766 20.5508 60.2109C19.7412 61.9452 17.679 62.6948 15.9447 61.8852C14.2104 61.0757 13.4608 59.0134 14.2704 57.2791Z" fill="#EFEFF7"/>
<path d="M26.7977 78.4407C27.6073 76.7064 29.6695 75.9568 31.4038 76.7664C33.1381 77.5759 33.8877 79.6382 33.0782 81.3725C32.2686 83.1068 30.2064 83.8564 28.4721 83.0468C26.7378 82.2373 25.9881 80.175 26.7977 78.4407Z" fill="#EFEFF7"/>
<path d="M40.5241 78.8693C41.2092 77.4016 42.9544 76.7672 44.4222 77.4523C45.8899 78.1375 46.5243 79.8827 45.8392 81.3504C45.154 82.8182 43.4088 83.4526 41.9411 82.7675C40.4733 82.0823 39.8389 80.3371 40.5241 78.8693Z" fill="#EFEFF7"/>
<path d="M59.026 79.8575C59.4358 78.9797 60.4795 78.6003 61.3574 79.0101C62.2352 79.4198 62.6146 80.4636 62.2048 81.3414C61.7951 82.2192 60.7513 82.5986 59.8735 82.1889C58.9957 81.7791 58.6162 80.7353 59.026 79.8575Z" fill="#EFEFF7"/>
<path d="M73.7418 80.5894C74.1516 79.7116 75.1954 79.3322 76.0732 79.7419C76.951 80.1517 77.3304 81.1955 76.9206 82.0733C76.5109 82.9511 75.4671 83.3305 74.5893 82.9208C73.7115 82.511 73.3321 81.4672 73.7418 80.5894Z" fill="#EFEFF7"/>
<path d="M45.8375 80.8661C46.2473 79.9883 47.2911 79.6089 48.1689 80.0186C49.0467 80.4284 49.4261 81.4722 49.0164 82.35C48.6066 83.2278 47.5628 83.6072 46.685 83.1975C45.8072 82.7877 45.4278 81.7439 45.8375 80.8661Z" fill="#EFEFF7"/>
<path d="M56.4498 80.9219C56.8596 80.0441 57.9034 79.6647 58.7812 80.0744C59.659 80.4842 60.0384 81.528 59.6287 82.4058C59.2189 83.2836 58.1751 83.663 57.2973 83.2533C56.4195 82.8435 56.0401 81.7997 56.4498 80.9219Z" fill="#EFEFF7"/>
<path d="M31.1344 68.3979C31.5442 67.5201 32.5879 67.1406 33.4657 67.5504C34.3436 67.9602 34.723 69.0039 34.3132 69.8817C33.9035 70.7596 32.8597 71.139 31.9819 70.7292C31.1041 70.3195 30.7246 69.2757 31.1344 68.3979Z" fill="#EFEFF7"/>
<path d="M32.5055 82.3552C32.9153 81.4774 33.959 81.0979 34.8368 81.5077C35.7147 81.9175 36.0941 82.9612 35.6843 83.8391C35.2746 84.7169 34.2308 85.0963 33.353 84.6865C32.4752 84.2768 32.0957 83.233 32.5055 82.3552Z" fill="#EFEFF7"/>
<path d="M56.8805 75.032C57.2903 74.1542 58.334 73.7747 59.2118 74.1845C60.0897 74.5943 60.4691 75.638 60.0593 76.5158C59.6496 77.3937 58.6058 77.7731 57.728 77.3633C56.8502 76.9536 56.4707 75.9098 56.8805 75.032Z" fill="#EFEFF7"/>
<path d="M57.1766 37.4629L57.9496 10.3264L51.6168 16.0934L45.8564 11.1594L46.0602 38.8998L57.1766 37.4629Z" fill="white" stroke="#525375" stroke-linecap="round" stroke-linejoin="round"/>
<path d="M45.5137 30.2009L57.1055 36.2294" stroke="#525375" stroke-linecap="round" stroke-linejoin="round"/>
<path d="M57.2444 28.1472L45.9922 36.365" stroke="#525375" stroke-linecap="round" stroke-linejoin="round"/>
<path d="M57.5867 20.6818L46.6094 25.7513" stroke="#525375" stroke-linecap="round" stroke-linejoin="round"/>
<path d="M56.8331 26.3648L46.6094 19.6549" stroke="#525375" stroke-linecap="round" stroke-linejoin="round"/>
<path d="M102.389 9.92595L106.367 17.4624" stroke="#525375" stroke-linecap="round" stroke-linejoin="round"/>
<path d="M107.739 11.1594L100.193 16.3646" stroke="#525375" stroke-linecap="round" stroke-linejoin="round"/>
<path d="M104.996 26.6393L100.193 18.4214" stroke="#525375" stroke-linecap="round" stroke-linejoin="round"/>
<path d="M105.681 19.106L98.2715 25.8191" stroke="#525375" stroke-linecap="round" stroke-linejoin="round"/>
<path d="M103.075 35.406C102.8 34.857 98.5469 27.7339 98.5469 27.7339" stroke="#525375" stroke-linecap="round" stroke-linejoin="round"/>
<path d="M104.035 29.3807L96.2148 34.8603L101.703 8.42123" stroke="#525375" stroke-linecap="round" stroke-linejoin="round"/>
<path d="M6.2002 10.6137L10.1784 35.1348" stroke="#525375" stroke-linecap="round" stroke-linejoin="round"/>
<path d="M5.51425 12.1184L1.67188 19.3805" stroke="#525375" stroke-linecap="round" stroke-linejoin="round"/>
<path d="M1.12207 12.5285L6.74656 18.6959" stroke="#525375" stroke-linecap="round" stroke-linejoin="round"/>
<path d="M7.02132 20.3395L2.35742 26.7781" stroke="#525375" stroke-linecap="round" stroke-linejoin="round"/>
<path d="M2.21875 21.2985L7.98232 25.4058" stroke="#525375" stroke-linecap="round" stroke-linejoin="round"/>
<path d="M8.80665 28.9706L4.8252 37.0528" stroke="#525375" stroke-linecap="round" stroke-linejoin="round"/>
<path d="M9.35374 35.2704L2.63281 30.0652" stroke="#525375" stroke-linecap="round" stroke-linejoin="round"/>
</g>
<defs>
<clipPath id="clip0_80_1049">
<rect width="109" height="88" fill="white"/>
</clipPath>
</defs>
</svg>
