<svg width="95" height="154" viewBox="0 0 95 154" fill="none" xmlns="http://www.w3.org/2000/svg">
<path d="M82.8689 131.817C85.8724 129.059 87.8386 125.335 88.4368 121.271C89.3405 114.578 77.4103 70.1381 73.2991 62.817C69.0738 55.2949 60.7474 50.6261 60.1755 51.1614L25.861 61.6546C25.1642 60.9754 20.0162 76.1897 21.8318 81.8778C23.289 86.4508 33.5524 131.389 35.7964 135.755C36.5572 137.272 37.621 138.614 38.92 139.696C41.7731 142.046 45.0782 142.442 47.3348 142.685C50.0425 142.974 51.9751 142.697 55.6501 142.146C58.8621 141.704 62.0355 141.02 65.1438 140.099C72.8811 137.761 78.6895 134.322 82.8689 131.817Z" fill="white" stroke="#525375" stroke-linecap="round" stroke-linejoin="round"/>
<path d="M39.8081 46.618C43.7946 44.3234 42.2578 40.5039 46.3285 32.8822C47.3064 31.0496 48.2897 29.6027 47.8361 27.8288C47.4726 26.4075 46.2332 24.937 44.7168 24.7556C42.2479 24.4534 40.2538 27.6958 39.6512 28.6697C37.953 31.4265 37.993 33.9552 37.7329 33.942C36.9446 33.9159 40.2904 11.6903 33.0899 8.48824C30.6022 7.38255 27.7712 8.94906 27.4234 9.14045C23.604 11.3127 22.3972 17.2228 23.8052 21.4509C25.0574 25.2066 28.292 27.3622 27.799 27.9437C27.2184 28.6387 23.1852 24.9112 20.1353 26.2604C18.6268 26.9309 17.4681 28.7869 17.5879 30.4413C17.8029 33.4261 21.9581 33.5248 26.9464 37.8391C32.4902 42.6376 33.2245 47.6072 37.0157 47.5599C38.201 47.5414 39.0442 47.0525 39.8081 46.618Z" fill="#525375" stroke="#525375" stroke-linecap="round" stroke-linejoin="round"/>
<path d="M42.2949 13.1502C42.208 11.052 42.8549 6.95352 45.6066 6.26117C47.2192 5.84876 49.4226 6.66465 49.9978 8.10217C51.2164 11.1536 45.0422 16.8138 43.1146 15.9046C42.3935 15.5646 42.3414 14.3239 42.2949 13.1502Z" fill="#525375" stroke="#525375" stroke-linecap="round" stroke-linejoin="round"/>
<path d="M79.0542 124.364C79.2877 123.126 78.4733 121.933 77.2353 121.7C75.9973 121.467 74.8045 122.281 74.5711 123.519C74.3377 124.757 75.152 125.95 76.39 126.183C77.628 126.417 78.8208 125.602 79.0542 124.364Z" fill="#EFEFF7"/>
<path d="M68.7759 125.26C69.0093 124.022 68.195 122.829 66.957 122.596C65.719 122.362 64.5262 123.177 64.2928 124.415C64.0593 125.653 64.8737 126.846 66.1117 127.079C67.3497 127.312 68.5425 126.498 68.7759 125.26Z" fill="#EFEFF7"/>
<path d="M47.0083 133.327C47.2418 132.089 46.4274 130.897 45.1894 130.663C43.9514 130.43 42.7586 131.244 42.5252 132.482C42.2918 133.72 43.1061 134.913 44.3441 135.146C45.5821 135.38 46.7749 134.565 47.0083 133.327Z" fill="#EFEFF7"/>
<path d="M52.5687 129.142C52.7221 128.328 53.5063 127.792 54.3203 127.946C55.1342 128.099 55.6696 128.884 55.5161 129.698C55.3627 130.511 54.5785 131.047 53.7645 130.893C52.9506 130.74 52.4152 129.956 52.5687 129.142Z" fill="#EFEFF7"/>
<path d="M44.0413 126.169C44.1948 125.356 44.979 124.82 45.7929 124.974C46.6069 125.127 47.1423 125.911 46.9888 126.725C46.8353 127.539 46.0511 128.075 45.2372 127.921C44.4233 127.768 43.8879 126.983 44.0413 126.169Z" fill="#EFEFF7"/>
<path d="M72.0287 126.007C72.1076 125.588 72.5001 125.311 72.9054 125.387C73.3107 125.464 73.5753 125.865 73.4964 126.283C73.4175 126.702 73.025 126.979 72.6196 126.903C72.2143 126.826 71.9497 126.425 72.0287 126.007Z" fill="#EFEFF7"/>
<path d="M32.641 108.356C32.7199 107.937 33.1124 107.66 33.5177 107.737C33.923 107.813 34.1876 108.214 34.1087 108.633C34.0298 109.051 33.6373 109.329 33.232 109.252C32.8266 109.176 32.5621 108.774 32.641 108.356Z" fill="#EFEFF7"/>
<path d="M42.6429 119.216C42.7218 118.798 43.1144 118.52 43.5197 118.597C43.925 118.673 44.1896 119.074 44.1107 119.493C44.0317 119.912 43.6392 120.189 43.2339 120.112C42.8286 120.036 42.564 119.635 42.6429 119.216Z" fill="#EFEFF7"/>
<path d="M38.6087 135.731C38.6876 135.312 39.0802 135.035 39.4855 135.111C39.8908 135.188 40.1554 135.589 40.0765 136.008C39.9976 136.426 39.605 136.703 39.1997 136.627C38.7944 136.551 38.5298 136.149 38.6087 135.731Z" fill="#EFEFF7"/>
<path d="M47.014 120.163C47.0929 119.745 47.4855 119.467 47.8908 119.544C48.2961 119.62 48.5607 120.021 48.4817 120.44C48.4028 120.858 48.0103 121.136 47.605 121.059C47.1997 120.983 46.9351 120.582 47.014 120.163Z" fill="#EFEFF7"/>
<path d="M58.6156 123.205C58.6945 122.786 59.087 122.509 59.4923 122.585C59.8976 122.662 60.1622 123.063 60.0833 123.482C60.0044 123.9 59.6119 124.177 59.2066 124.101C58.8013 124.025 58.5367 123.623 58.6156 123.205Z" fill="#EFEFF7"/>
<path d="M66.0619 128.622C66.1408 128.204 66.5333 127.927 66.9386 128.003C67.3439 128.079 67.6085 128.481 67.5296 128.899C67.4507 129.318 67.0582 129.595 66.6529 129.519C66.2475 129.442 65.983 129.041 66.0619 128.622Z" fill="#EFEFF7"/>
<path d="M60.803 131.705C60.9565 130.891 61.7407 130.355 62.5546 130.509C63.3686 130.662 63.904 131.447 63.7505 132.261C63.5971 133.074 62.8128 133.61 61.9989 133.456C61.185 133.303 60.6496 132.519 60.803 131.705Z" fill="#EFEFF7"/>
<path d="M37.4983 117.516C37.6518 116.702 38.436 116.166 39.25 116.32C40.0639 116.473 40.5993 117.258 40.4458 118.072C40.2924 118.885 39.5082 119.421 38.6942 119.267C37.8803 119.114 37.3449 118.33 37.4983 117.516Z" fill="#EFEFF7"/>
<path d="M40.2728 123.264C40.4262 122.45 41.2104 121.915 42.0244 122.068C42.8383 122.222 43.3737 123.006 43.2202 123.82C43.0668 124.634 42.2826 125.169 41.4686 125.016C40.6547 124.862 40.1193 124.078 40.2728 123.264Z" fill="#EFEFF7"/>
<path d="M33.6028 124.123C33.7563 123.309 34.5405 122.774 35.3545 122.927C36.1684 123.081 36.7038 123.865 36.5503 124.679C36.3969 125.493 35.6126 126.028 34.7987 125.875C33.9848 125.721 33.4494 124.937 33.6028 124.123Z" fill="#EFEFF7"/>
<path d="M42.721 138.457C42.8745 137.643 43.6587 137.108 44.4726 137.261C45.2865 137.415 45.822 138.199 45.6685 139.013C45.515 139.827 44.7308 140.362 43.9169 140.209C43.103 140.055 42.5675 139.271 42.721 138.457Z" fill="#EFEFF7"/>
<path d="M74.7713 128.451C74.865 127.955 75.3435 127.628 75.8402 127.722C76.3369 127.815 76.6636 128.294 76.57 128.79C76.4763 129.287 75.9978 129.614 75.5011 129.52C75.0044 129.427 74.6777 128.948 74.7713 128.451Z" fill="#EFEFF7"/>
<path d="M38.2783 127.661C38.633 125.78 40.4451 124.542 42.3259 124.897C44.2067 125.252 45.444 127.064 45.0894 128.945C44.7347 130.826 42.9226 132.063 41.0418 131.708C39.1609 131.354 37.9237 129.541 38.2783 127.661Z" fill="#EFEFF7"/>
<path d="M32.4326 116.989C32.7873 115.108 34.5994 113.871 36.4802 114.226C38.361 114.58 39.5983 116.393 39.2437 118.273C38.889 120.154 37.0769 121.391 35.1961 121.037C33.3152 120.682 32.078 118.87 32.4326 116.989Z" fill="#EFEFF7"/>
<path d="M49.8135 134.387C50.1681 132.506 51.9803 131.269 53.8611 131.623C55.7419 131.978 56.9791 133.79 56.6245 135.671C56.2699 137.552 54.4577 138.789 52.5769 138.434C50.6961 138.08 49.4589 136.267 49.8135 134.387Z" fill="#EFEFF7"/>
<path d="M63.2177 131.401C63.5178 129.809 65.0515 128.762 66.6432 129.062C68.2349 129.362 69.282 130.896 68.9819 132.488C68.6818 134.08 67.1481 135.127 65.5564 134.826C63.9647 134.526 62.9176 132.993 63.2177 131.401Z" fill="#EFEFF7"/>
<path d="M81.3874 127.774C81.5669 126.822 82.4841 126.196 83.4361 126.375C84.388 126.555 85.0142 127.472 84.8348 128.424C84.6553 129.376 83.738 130.002 82.7861 129.823C81.8341 129.643 81.2079 128.726 81.3874 127.774Z" fill="#EFEFF7"/>
<path d="M83.28 119.032C83.4595 118.08 84.3767 117.454 85.3286 117.634C86.2806 117.813 86.9068 118.73 86.7273 119.682C86.5478 120.634 85.6306 121.261 84.6787 121.081C83.7267 120.902 83.1005 119.984 83.28 119.032Z" fill="#EFEFF7"/>
<path d="M68.86 132.019C69.0395 131.067 69.9568 130.441 70.9087 130.62C71.8607 130.8 72.4869 131.717 72.3074 132.669C72.1279 133.621 71.2107 134.247 70.2587 134.068C69.3068 133.888 68.6806 132.971 68.86 132.019Z" fill="#EFEFF7"/>
<path d="M79.155 129.444C79.3345 128.492 80.2517 127.865 81.2036 128.045C82.1556 128.224 82.7818 129.142 82.6023 130.094C82.4228 131.046 81.5056 131.672 80.5537 131.492C79.6017 131.313 78.9755 130.396 79.155 129.444Z" fill="#EFEFF7"/>
<path d="M51.5261 123.583C51.7056 122.631 52.6228 122.004 53.5747 122.184C54.5267 122.363 55.1529 123.281 54.9734 124.233C54.7939 125.185 53.8767 125.811 52.9248 125.631C51.9728 125.452 51.3466 124.535 51.5261 123.583Z" fill="#EFEFF7"/>
<path d="M56.3122 136.765C56.4917 135.813 57.4089 135.187 58.3609 135.366C59.3128 135.546 59.939 136.463 59.7596 137.415C59.5801 138.367 58.6629 138.993 57.7109 138.814C56.7589 138.634 56.1327 137.717 56.3122 136.765Z" fill="#EFEFF7"/>
<path d="M78.113 123.631C78.2925 122.679 79.2097 122.052 80.1617 122.232C81.1136 122.411 81.7398 123.329 81.5603 124.281C81.3809 125.232 80.4636 125.859 79.5117 125.679C78.5597 125.5 77.9335 124.583 78.113 123.631Z" fill="#EFEFF7"/>
<path d="M62.224 51.3336C62.3091 51.6664 62.5607 52.8854 60.2531 55.1321C55.1631 60.0908 44.9638 62.9375 41.8021 63.7778C38.5171 64.6257 35.1395 65.0639 31.7446 65.0825C28.6544 65.0975 26.1908 64.7404 24.9554 63.0188C24.6593 62.6604 24.4632 62.229 24.3875 61.7695C24.2277 59.5902 29.0335 57.57 37.5305 54.4179C40.4173 53.5155 57.6811 48.1742 60.9299 49.9551C61.9961 50.5345 62.224 51.3336 62.224 51.3336Z" fill="white" stroke="#525375" stroke-linecap="round" stroke-linejoin="round"/>
<path d="M60.8162 50.3404C61.4925 52.4036 54.855 56.8001 50.0287 59.0769C39.0579 64.2606 26.0813 63.8658 25.4057 61.204C24.7816 58.7636 34.5059 54.2965 39.8841 52.372C48.7846 49.1828 60.0023 47.8621 60.8162 50.3404Z" fill="white" stroke="#525375" stroke-linecap="round" stroke-linejoin="round"/>
<path d="M60.2927 51.7233C57.5197 51.4452 54.7285 51.4291 51.9554 51.6752C44.2833 52.3565 38.6349 54.8966 34.9354 56.5996C31.6758 58.0995 28.5477 59.8732 25.5838 61.902" stroke="#525375" stroke-linecap="round" stroke-linejoin="round"/>
<path d="M43.1034 53.7131C43.1034 53.7131 41.1845 57.1691 43.7575 56.2792C46.3304 55.3892 45.1677 53.7945 45.1677 53.7945C45.1677 53.7945 49.2144 47.308 47.2076 46.8536C45.2007 46.3992 43.4525 46.752 43.1879 49.502C42.9233 52.252 43.1034 53.7131 43.1034 53.7131Z" fill="white" stroke="#525375" stroke-linecap="round" stroke-linejoin="round"/>
<path d="M44.561 51.0838C44.561 51.0838 44.5203 49.3359 45.1582 48.866C45.796 48.3961 46.1588 48.3832 46.0339 48.9047C45.9089 49.4261 44.791 51.9343 44.561 51.0838Z" fill="#525375" stroke="#525375" stroke-linecap="round" stroke-linejoin="round"/>
<path d="M36.6964 59.0994C36.6964 59.0994 40.3855 55.7543 42.5866 56.1945C44.7876 56.6347 45.4915 57.3599 44.1354 58.0748C42.7793 58.7897 35.2932 61.1612 36.6964 59.0994Z" fill="#525375" stroke="#525375" stroke-linecap="round" stroke-linejoin="round"/>
<path d="M84.5704 132.331C80.6711 134.958 76.5215 137.187 72.1825 138.985C63.7772 142.446 54.7924 144.271 45.699 144.366C45.1448 144.06 43.9212 143.336 44.0423 142.797C44.1634 142.258 45.6385 142.156 46.3141 142.118C50.0029 141.897 53.6795 141.536 57.3635 141.255C59.672 141.078 61.5028 140.536 65.1636 139.449C69.2601 138.234 75.5915 135.9 82.9096 131.237C82.9713 131.109 83.0593 130.996 83.1677 130.905C83.2762 130.814 83.4027 130.748 83.5388 130.71C83.6749 130.673 83.8175 130.665 83.9571 130.687C84.0967 130.71 84.2302 130.762 84.3487 130.84C84.4672 130.919 84.568 131.022 84.6444 131.142C84.7208 131.263 84.7711 131.398 84.7919 131.539C84.8127 131.681 84.8035 131.824 84.765 131.962C84.7265 132.099 84.6595 132.226 84.5686 132.334L84.5704 132.331Z" fill="white" stroke="#525375" stroke-linecap="round" stroke-linejoin="round"/>
<path d="M73.3693 94.5877C70.2742 84.3262 59.0941 77.4474 48.7746 80.4173C37.4397 83.6814 31.4576 97.5875 36.4989 108.566C41.3145 119.02 54.6624 123.555 64.4039 118.1C72.4869 113.575 76.0106 103.341 73.3693 94.5877Z" stroke="#525375" stroke-linecap="round" stroke-linejoin="round"/>
<path d="M59.0755 83.93C53.4641 81.1841 47.4806 84.4186 46.8127 84.7931C39.8367 88.7074 37.1036 98.2288 39.0482 105.567C40.5268 111.103 45.1339 117.091 48.6462 116.415C51.6704 115.834 54.1679 111.723 54.2421 111.4C55.5829 105.588 50.3336 101.874 51.6658 97.9605C53.5831 92.3366 60.5238 90.4012 60.7775 86.5046C60.9778 83.8416 59.5324 84.1519 59.0755 83.93Z" fill="#525375" stroke="#525375" stroke-linecap="round" stroke-linejoin="round"/>
<path d="M67.6061 93.2011C64.6667 92.4048 59.9256 97.1632 58.228 102.419C56.2813 108.45 59.0029 113.088 56.0842 115.513C54.2565 117.038 53.1727 117.105 53.1827 117.348C53.1947 117.692 56.9552 118.55 61.9829 116.446C68.7021 113.625 72.0525 105.597 71.0021 99.3212C70.8457 98.3927 70.0894 93.8706 67.6061 93.2011Z" fill="#525375" stroke="#525375" stroke-linecap="round" stroke-linejoin="round"/>
<path d="M49.4316 125.295L51.1131 129.917" stroke="#525375" stroke-linecap="round" stroke-linejoin="round"/>
<path d="M56.7744 123.417L58.2254 128.437" stroke="#525375" stroke-linecap="round" stroke-linejoin="round"/>
<path d="M56.916 125.99L60.0587 124.881" stroke="#525375" stroke-linecap="round" stroke-linejoin="round"/>
<path d="M55.8604 123.756L60.8173 122.105" stroke="#525375" stroke-linecap="round" stroke-linejoin="round"/>
<path d="M57.623 128.402L61.0871 127.197" stroke="#525375" stroke-linecap="round" stroke-linejoin="round"/>
<path d="M63.9621 121.579L64.2818 127.391" stroke="#525375" stroke-linecap="round" stroke-linejoin="round"/>
<path d="M73.422 117.849L74.611 124.452" stroke="#525375" stroke-linecap="round" stroke-linejoin="round"/>
<path d="M47.4258 123.956L53.309 125.484L49.8477 128.523" stroke="#525375" stroke-linecap="round" stroke-linejoin="round"/>
<path d="M63.8274 121.335L66.9149 122.611L64.5038 125.291" stroke="#525375" stroke-linecap="round" stroke-linejoin="round"/>
</svg>
