<svg width="84" height="165" viewBox="0 0 84 165" fill="none" xmlns="http://www.w3.org/2000/svg">
<path d="M15.1996 35.4326C15.9843 47.6969 15.4985 60.0092 13.75 72.1739C12.0078 84.3028 10.326 87.0942 8.82288 96.475C5.95677 114.365 2.14212 138.175 15.1996 150.864C28.9369 164.217 59.8139 163.762 74.617 145.945C86.677 131.429 82.2794 112.349 81.5745 109.494C76.5642 89.2228 57.138 73.5639 32.2983 69.8588L26.2108 33.9858L15.1996 35.4326Z" fill="white" stroke="#525375" stroke-linecap="round" stroke-linejoin="round"/>
<path d="M52.8801 145.905C53.4129 144.763 52.9195 143.406 51.7779 142.873C50.6364 142.34 49.279 142.834 48.7461 143.975C48.2132 145.117 48.7067 146.474 49.8482 147.007C50.9898 147.54 52.3472 147.047 52.8801 145.905Z" fill="#EFEFF7"/>
<path d="M14.7824 114.048C15.3153 112.906 14.8218 111.549 13.6803 111.016C12.5387 110.483 11.1813 110.977 10.6485 112.118C10.1156 113.26 10.609 114.617 11.7506 115.15C12.8921 115.683 14.2495 115.189 14.7824 114.048Z" fill="#EFEFF7"/>
<path d="M42.6994 144.226C43.2323 143.085 42.7388 141.727 41.5973 141.194C40.4557 140.661 39.0983 141.155 38.5654 142.296C38.0326 143.438 38.526 144.795 39.6676 145.328C40.8091 145.861 42.1665 145.368 42.6994 144.226Z" fill="#EFEFF7"/>
<path d="M19.6125 146.649C20.1454 145.507 19.6519 144.15 18.5104 143.617C17.3688 143.084 16.0114 143.577 15.4785 144.719C14.9457 145.861 15.4391 147.218 16.5806 147.751C17.7222 148.284 19.0796 147.79 19.6125 146.649Z" fill="#EFEFF7"/>
<path d="M26.0366 143.971C26.3869 143.221 27.2794 142.896 28.0299 143.247C28.7804 143.597 29.1048 144.489 28.7545 145.24C28.4041 145.991 27.5117 146.315 26.7612 145.965C26.0107 145.614 25.6862 144.722 26.0366 143.971Z" fill="#EFEFF7"/>
<path d="M18.5112 138.979C18.8615 138.228 19.754 137.904 20.5045 138.254C21.255 138.604 21.5794 139.497 21.2291 140.247C20.8787 140.998 19.9863 141.322 19.2358 140.972C18.4853 140.622 18.1609 139.729 18.5112 138.979Z" fill="#EFEFF7"/>
<path d="M45.6661 145.756C45.8463 145.37 46.2953 145.198 46.669 145.373C47.0428 145.547 47.1997 146.001 47.0195 146.387C46.8394 146.773 46.3904 146.945 46.0167 146.77C45.6429 146.596 45.486 146.141 45.6661 145.756Z" fill="#EFEFF7"/>
<path d="M14.1232 119.728C14.3033 119.342 14.7523 119.171 15.1261 119.345C15.4998 119.52 15.6567 119.974 15.4766 120.36C15.2964 120.746 14.8474 120.917 14.4737 120.743C14.1 120.569 13.943 120.114 14.1232 119.728Z" fill="#EFEFF7"/>
<path d="M17.8947 127.651C18.0748 127.266 18.5238 127.094 18.8975 127.269C19.2713 127.443 19.4282 127.897 19.2481 128.283C19.0679 128.669 18.6189 128.841 18.2452 128.666C17.8714 128.492 17.7145 128.037 17.8947 127.651Z" fill="#EFEFF7"/>
<path d="M23.3361 133.064C23.5162 132.679 23.9652 132.507 24.3389 132.682C24.7127 132.856 24.8696 133.31 24.6895 133.696C24.5093 134.082 24.0603 134.254 23.6866 134.079C23.3128 133.905 23.1559 133.45 23.3361 133.064Z" fill="#EFEFF7"/>
<path d="M33.3654 139.718C33.5455 139.332 33.9945 139.16 34.3682 139.335C34.742 139.509 34.8989 139.964 34.7188 140.349C34.5386 140.735 34.0896 140.907 33.7159 140.732C33.3421 140.558 33.1852 140.104 33.3654 139.718Z" fill="#EFEFF7"/>
<path d="M39.2374 146.811C39.4176 146.425 39.8666 146.254 40.2403 146.428C40.614 146.603 40.771 147.057 40.5908 147.443C40.4107 147.829 39.9617 148 39.5879 147.826C39.2142 147.651 39.0573 147.197 39.2374 146.811Z" fill="#EFEFF7"/>
<path d="M33.3784 148.495C33.7287 147.744 34.6212 147.42 35.3717 147.77C36.1222 148.12 36.4466 149.013 36.0963 149.763C35.7459 150.514 34.8535 150.838 34.103 150.488C33.3524 150.137 33.028 149.245 33.3784 148.495Z" fill="#EFEFF7"/>
<path d="M14.3159 128.974C14.6662 128.223 15.5587 127.899 16.3092 128.249C17.0597 128.599 17.3841 129.492 17.0338 130.242C16.6834 130.993 15.791 131.317 15.0405 130.967C14.2899 130.617 13.9655 129.724 14.3159 128.974Z" fill="#EFEFF7"/>
<path d="M15.5796 135.23C15.9299 134.48 16.8223 134.155 17.5729 134.506C18.3234 134.856 18.6478 135.749 18.2974 136.499C17.9471 137.25 17.0547 137.574 16.3041 137.224C15.5536 136.873 15.2292 135.981 15.5796 135.23Z" fill="#EFEFF7"/>
<path d="M10.7046 134.498C11.0549 133.748 11.9473 133.423 12.6979 133.774C13.4484 134.124 13.7728 135.017 13.4224 135.767C13.0721 136.518 12.1797 136.842 11.4291 136.492C10.6786 136.141 10.3542 135.249 10.7046 134.498Z" fill="#EFEFF7"/>
<path d="M72.1938 140.745C72.5442 139.994 73.4366 139.67 74.1871 140.02C74.9376 140.37 75.262 141.263 74.9117 142.013C74.5614 142.764 73.6689 143.088 72.9184 142.738C72.1679 142.388 71.8435 141.495 72.1938 140.745Z" fill="#EFEFF7"/>
<path d="M9.70455 109.498C10.0549 108.748 10.9473 108.423 11.6979 108.774C12.4484 109.124 12.7728 110.017 12.4224 110.767C12.0721 111.518 11.1797 111.842 10.4291 111.492C9.67862 111.141 9.35421 110.249 9.70455 109.498Z" fill="#EFEFF7"/>
<path d="M46.2358 156.588C46.5861 155.838 47.4786 155.513 48.2291 155.864C48.9796 156.214 49.304 157.107 48.9537 157.857C48.6033 158.608 47.7109 158.932 46.9604 158.582C46.2099 158.231 45.8855 157.339 46.2358 156.588Z" fill="#EFEFF7"/>
<path d="M12.5584 138.995C13.368 137.261 15.4302 136.511 17.1645 137.321C18.8988 138.131 19.6485 140.193 18.8389 141.927C18.0293 143.661 15.9671 144.411 14.2328 143.601C12.4985 142.792 11.7489 140.73 12.5584 138.995Z" fill="#EFEFF7"/>
<path d="M9.53891 127.208C10.3485 125.474 12.4107 124.724 14.145 125.534C15.8793 126.343 16.6289 128.406 15.8194 130.14C15.0098 131.874 12.9476 132.624 11.2133 131.814C9.47899 131.005 8.72934 128.943 9.53891 127.208Z" fill="#EFEFF7"/>
<path d="M22.0672 148.37C22.8768 146.635 24.939 145.886 26.6733 146.695C28.4076 147.505 29.1573 149.567 28.3477 151.301C27.5381 153.036 25.4759 153.785 23.7416 152.976C22.0073 152.166 21.2577 150.104 22.0672 148.37Z" fill="#EFEFF7"/>
<path d="M35.7926 148.798C36.4777 147.331 38.223 146.696 39.6907 147.381C41.1585 148.066 41.7929 149.812 41.1077 151.279C40.4226 152.747 38.6774 153.382 37.2096 152.696C35.7419 152.011 35.1075 150.266 35.7926 148.798Z" fill="#EFEFF7"/>
<path d="M53.8043 150.426C54.2141 149.548 55.2579 149.169 56.1357 149.578C57.0135 149.988 57.3929 151.032 56.9831 151.91C56.5734 152.788 55.5296 153.167 54.6518 152.757C53.774 152.347 53.3946 151.304 53.8043 150.426Z" fill="#EFEFF7"/>
<path d="M61.0963 144.377C61.5061 143.5 62.5499 143.12 63.4277 143.53C64.3055 143.94 64.6849 144.983 64.2751 145.861C63.8654 146.739 62.8216 147.119 61.9438 146.709C61.066 146.299 60.6866 145.255 61.0963 144.377Z" fill="#EFEFF7"/>
<path d="M41.1071 150.795C41.5168 149.917 42.5606 149.538 43.4384 149.948C44.3162 150.357 44.6956 151.401 44.2859 152.279C43.8761 153.157 42.8323 153.536 41.9545 153.126C41.0767 152.717 40.6973 151.673 41.1071 150.795Z" fill="#EFEFF7"/>
<path d="M51.7184 150.851C52.1281 149.973 53.1719 149.594 54.0497 150.003C54.9275 150.413 55.307 151.457 54.8972 152.335C54.4874 153.213 53.4437 153.592 52.5659 153.182C51.6881 152.773 51.3086 151.729 51.7184 150.851Z" fill="#EFEFF7"/>
<path d="M26.403 138.327C26.8127 137.449 27.8565 137.07 28.7343 137.479C29.6121 137.889 29.9915 138.933 29.5818 139.811C29.172 140.689 28.1282 141.068 27.2504 140.658C26.3726 140.249 25.9932 139.205 26.403 138.327Z" fill="#EFEFF7"/>
<path d="M27.774 152.284C28.1838 151.406 29.2276 151.027 30.1054 151.437C30.9832 151.846 31.3626 152.89 30.9529 153.768C30.5431 154.646 29.4993 155.025 28.6215 154.616C27.7437 154.206 27.3643 153.162 27.774 152.284Z" fill="#EFEFF7"/>
<path d="M52.15 144.961C52.5598 144.083 53.6036 143.704 54.4814 144.113C55.3592 144.523 55.7386 145.567 55.3289 146.445C54.9191 147.323 53.8753 147.702 52.9975 147.292C52.1197 146.883 51.7403 145.839 52.15 144.961Z" fill="#EFEFF7"/>
<path d="M15.3594 40.3812C15.3594 40.3812 6.93372 37.2153 7.22725 32.2481C7.52078 27.281 11.8187 28.01 11.8187 22.7489C11.8187 18.8318 16.881 3.91186 26.1955 1.41526C29.3567 0.56877 34.2806 0.818268 36.4644 4.04655C38.4853 7.03451 37.8245 12.0859 34.7032 14.2748C33.0281 15.4488 30.746 15.729 28.8358 15.1504C25.2658 14.0697 24.6341 10.4832 23.2618 10.768C21.3715 11.1583 19.5642 18.5746 22.6747 21.8718C24.9937 24.3209 28.8588 23.4729 30.6369 26.571C30.9873 27.1833 31.1824 27.9303 31.1824 28.8855C31.1824 33.2695 27.345 39.9532 27.345 39.9532L15.3594 40.3812Z" fill="white" stroke="#525375" stroke-linecap="round" stroke-linejoin="round"/>
<path d="M47.5759 112.121C45.0291 109.142 39.6513 109.365 36.9051 112.389C33.6886 115.931 34.7693 122.562 38.4673 124.455C41.8873 126.207 46.7631 123.507 48.357 119.628C49.224 117.52 49.4346 114.295 47.5759 112.121Z" fill="#525375" stroke="#525375" stroke-linecap="round" stroke-linejoin="round"/>
<path d="M46.7933 105.552C46.8662 104.643 46.0178 103.848 45.1627 103.816C44.0661 103.783 43.113 105.035 43.4239 105.987C43.6676 106.733 44.6525 107.173 45.4895 106.963C46.1032 106.808 46.7352 106.28 46.7933 105.552Z" fill="#525375" stroke="#525375" stroke-linecap="round" stroke-linejoin="round"/>
<path d="M33.86 108.047C33.039 107.552 31.8889 108.082 31.4687 108.915C31.1373 109.571 31.2091 110.513 31.7944 110.977C32.5607 111.583 33.9465 111.168 34.4031 110.217C34.7447 109.505 34.5728 108.478 33.86 108.047Z" fill="#525375" stroke="#525375" stroke-linecap="round" stroke-linejoin="round"/>
<path d="M30.381 120.632C29.4894 120.301 28.3769 120.95 28.2072 121.934C28.0376 122.918 28.8904 123.911 29.8378 123.887C30.5905 123.869 31.2305 123.223 31.3591 122.476C31.4878 121.73 31.095 120.897 30.381 120.632Z" fill="#525375" stroke="#525375" stroke-linecap="round" stroke-linejoin="round"/>
<path d="M39.0767 128.552C38.3696 128.516 37.5007 128.982 37.4461 129.745C37.3925 130.49 38.143 131.109 38.8592 131.156C39.7292 131.208 40.5969 130.408 40.4898 129.636C40.4021 129.011 39.6973 128.583 39.0767 128.552Z" fill="#525375" stroke="#525375" stroke-linecap="round" stroke-linejoin="round"/>
<path d="M50.7048 124.755C49.9408 124.3 48.8624 124.458 48.3135 125.188C47.6303 126.104 48.0858 127.493 48.9649 127.901C50.0125 128.388 51.5087 127.411 51.5736 126.273C51.6158 125.655 51.2218 125.061 50.7048 124.755Z" fill="#525375" stroke="#525375" stroke-linecap="round" stroke-linejoin="round"/>
<path d="M53.6421 113.689C53.1707 112.923 52.0924 112.6 51.3647 113.037C50.4879 113.562 50.357 115.029 51.1472 115.75C51.7906 116.338 52.9384 116.336 53.5385 115.637C54.0145 115.085 53.994 114.259 53.6421 113.689Z" fill="#525375" stroke="#525375" stroke-linecap="round" stroke-linejoin="round"/>
<path d="M34.0344 76.3997C33.7987 76.2599 33.4161 76.3679 33.3455 76.6179C33.3267 76.7266 33.3481 76.8384 33.4057 76.9325C33.4633 77.0266 33.5532 77.0965 33.6587 77.1294C33.9103 77.2066 34.2087 77.0328 34.2428 76.7952C34.2495 76.7163 34.2335 76.6372 34.1966 76.5671C34.1596 76.497 34.1034 76.4389 34.0344 76.3997Z" fill="white" stroke="#525375" stroke-linecap="round" stroke-linejoin="round"/>
<path d="M47.1269 80.8845C47.013 80.6243 46.5872 80.522 46.348 80.7288C46.2982 80.7733 46.2577 80.8274 46.2291 80.8877C46.2004 80.948 46.1841 81.0135 46.1812 81.0802C46.1782 81.1469 46.1886 81.2135 46.2118 81.2761C46.235 81.3387 46.2705 81.3961 46.3162 81.4449C46.5006 81.6131 46.799 81.5585 46.9709 81.413C47.0471 81.3508 47.1028 81.2671 47.1306 81.1728C47.1585 81.0786 47.1572 80.9781 47.1269 80.8845Z" fill="white" stroke="#525375" stroke-linecap="round" stroke-linejoin="round"/>
<path d="M38.3462 152.954C38.2175 152.655 37.7233 152.537 37.4466 152.775C37.2188 152.974 37.1756 153.386 37.4113 153.601C37.6242 153.795 37.9681 153.738 38.1663 153.566C38.254 153.493 38.3181 153.397 38.3502 153.288C38.3822 153.179 38.3808 153.062 38.3462 152.954Z" fill="white" stroke="#525375" stroke-linecap="round" stroke-linejoin="round"/>
<path d="M22.96 147.669C22.7243 147.404 22.1811 147.382 22.0001 147.669C21.8509 147.906 21.967 148.326 22.2802 148.465C22.356 148.496 22.4372 148.511 22.5189 148.509C22.6006 148.507 22.6812 148.489 22.7557 148.456C22.8302 148.422 22.8971 148.374 22.9524 148.314C23.0076 148.254 23.0501 148.183 23.0773 148.106C23.0917 148.029 23.0887 147.95 23.0684 147.874C23.0481 147.799 23.0111 147.729 22.96 147.669Z" fill="white" stroke="#525375" stroke-linecap="round" stroke-linejoin="round"/>
<path d="M57.0097 86.2453C56.9562 86.1851 56.8864 86.1416 56.8088 86.1198C56.7312 86.098 56.6489 86.0989 56.5718 86.1224C56.4947 86.1459 56.4259 86.191 56.3737 86.2523C56.3215 86.3136 56.288 86.3886 56.2772 86.4684C56.2664 86.5481 56.2788 86.6293 56.3129 86.7023C56.347 86.7752 56.4013 86.8369 56.4694 86.8799C56.5376 86.923 56.6166 86.9456 56.6973 86.9451C56.7779 86.9446 56.8567 86.9211 56.9243 86.8772C56.9734 86.8428 57.0149 86.7986 57.0461 86.7475C57.0772 86.6963 57.0975 86.6393 57.1055 86.5799C57.1135 86.5206 57.1091 86.4602 57.0927 86.4026C57.0762 86.345 57.0479 86.2915 57.0097 86.2453Z" fill="white" stroke="#525375" stroke-linecap="round" stroke-linejoin="round"/>
<path d="M15.7884 32.9326C15.5527 32.794 15.1701 32.9008 15.1052 33.152C15.0866 33.2604 15.1082 33.3719 15.1657 33.4658C15.2233 33.5596 15.3131 33.6295 15.4183 33.6623C15.6699 33.7396 15.9683 33.5657 16.0024 33.3293C16.0084 33.2497 15.9914 33.17 15.9535 33.0997C15.9156 33.0295 15.8583 32.9715 15.7884 32.9326Z" fill="white" stroke="#525375" stroke-linecap="round" stroke-linejoin="round"/>
<path d="M24.7888 32.0861C24.6749 31.8258 24.2491 31.7235 24.0099 31.9304C23.96 31.9748 23.9196 32.0287 23.891 32.089C23.8623 32.1493 23.8461 32.2147 23.8432 32.2813C23.8404 32.348 23.8509 32.4145 23.8743 32.477C23.8976 32.5395 23.9333 32.5967 23.9792 32.6452C24.1637 32.8146 24.4609 32.7646 24.6328 32.6145C24.7092 32.5524 24.7649 32.4687 24.7928 32.3744C24.8206 32.2801 24.8192 32.1796 24.7888 32.0861Z" fill="white" stroke="#525375" stroke-linecap="round" stroke-linejoin="round"/>
<path d="M23.9827 26.0127C23.7709 25.7752 23.2847 25.7559 23.123 26.0127C22.9898 26.2253 23.0934 26.6026 23.3747 26.7288C23.4428 26.7565 23.5158 26.77 23.5893 26.7686C23.6628 26.7673 23.7352 26.751 23.8022 26.7208C23.8692 26.6906 23.9294 26.6471 23.979 26.593C24.0286 26.5389 24.0667 26.4752 24.0909 26.406C24.1034 26.3365 24.1002 26.2652 24.0815 26.1971C24.0628 26.1291 24.029 26.0661 23.9827 26.0127Z" fill="white" stroke="#525375" stroke-linecap="round" stroke-linejoin="round"/>
<path d="M15.2645 27.6904C15.2257 27.6456 15.1782 27.6092 15.1249 27.5834C15.0715 27.5575 15.0135 27.5428 14.9543 27.54C14.8951 27.5373 14.8359 27.5465 14.7804 27.5673C14.7249 27.588 14.6742 27.6199 14.6314 27.6608C14.572 27.7196 14.531 27.7943 14.5135 27.8758C14.496 27.9574 14.5026 28.0423 14.5326 28.1202C14.5626 28.198 14.6146 28.2655 14.6824 28.3143C14.7502 28.3632 14.8307 28.3912 14.9142 28.3951C14.9977 28.399 15.0806 28.3786 15.1526 28.3363C15.2246 28.294 15.2828 28.2316 15.3199 28.1569C15.3571 28.0822 15.3716 27.9982 15.3618 27.9154C15.3519 27.8325 15.3181 27.7544 15.2645 27.6904Z" fill="white" stroke="#525375" stroke-linecap="round" stroke-linejoin="round"/>
<path d="M66.1318 92.8722C65.9041 92.7825 65.6194 92.9041 65.5522 93.0995C65.4645 93.3484 65.7503 93.711 66.0419 93.6769C66.1333 93.6648 66.218 93.6225 66.2826 93.5568C66.3472 93.491 66.3879 93.4057 66.3982 93.3142C66.4086 93.2227 66.388 93.1304 66.3397 93.052C66.2914 92.9735 66.2182 92.9135 66.1318 92.8813V92.8722Z" fill="white" stroke="#525375" stroke-linecap="round" stroke-linejoin="round"/>
<path d="M56.4861 151.761C56.4191 151.729 56.346 151.71 56.2716 151.708C56.1972 151.705 56.1231 151.718 56.054 151.746C55.9849 151.773 55.9223 151.815 55.8702 151.868C55.8181 151.921 55.7777 151.985 55.7516 152.054C55.7323 152.128 55.7292 152.205 55.7424 152.279C55.7555 152.354 55.7848 152.425 55.828 152.488C55.8712 152.551 55.9275 152.603 55.9929 152.642C56.0583 152.681 56.1314 152.705 56.2071 152.713C56.3398 152.719 56.4697 152.673 56.5701 152.587C56.6706 152.5 56.7342 152.378 56.748 152.246C56.7563 152.149 56.736 152.051 56.6895 151.965C56.643 151.878 56.5723 151.808 56.4861 151.761Z" fill="white" stroke="#525375" stroke-linecap="round" stroke-linejoin="round"/>
<path d="M18.3164 33.2982L22.7357 141.317" stroke="#525375" stroke-linecap="round" stroke-linejoin="round"/>
<path d="M39.4717 83.1869L41.1164 147.819" stroke="#525375" stroke-linecap="round" stroke-linejoin="round"/>
<path d="M56.1426 93.0757L61.1426 144.717" stroke="#525375" stroke-linecap="round" stroke-linejoin="round"/>
</svg>
