<svg width="102" height="134" viewBox="0 0 102 134" fill="none" xmlns="http://www.w3.org/2000/svg">
<path d="M39.6622 116.404C41.5408 118.07 44.0279 120.195 47.0406 122.551C54.3371 128.257 57.5245 129.698 57.2853 130.292C56.39 132.513 10.1623 116.355 10.6722 114.679C10.8151 114.209 14.4531 115.349 21.5468 115.475C25.6245 115.548 29.7016 115.268 33.7331 114.641C37.1365 106.305 39.6259 99.232 41.3516 94.0144C44.8219 83.5201 45.0155 81.0912 43.7838 78.895C41.1692 74.2344 35.1751 76.0576 28.805 69.8065C28.4808 69.489 25.0425 66.0503 23.2399 61.0077C20.226 52.5725 23.502 44.4334 26.1368 38.1424C26.1368 38.1424 30.9438 25.959 49.1258 8.41235C49.3743 8.1744 49.6459 7.96203 49.9366 7.77839C51.8288 6.57012 54.0839 6.94795 55.07 7.12677C60.4409 8.10431 65.7449 9.41739 70.9512 11.0584C70.9512 11.0584 78.5228 13.5633 82.759 16.1588C84.0528 16.933 85.2165 17.9068 86.2074 19.0445C86.8246 19.782 87.3733 20.5745 87.8468 21.4122C89.8954 25.1382 89.5489 30.6541 89.5364 30.8467C88.4733 47.8162 89.7591 50.1077 87.1421 60.2532C85.1581 67.9429 84.0932 71.8694 80.5261 75.8558C79.2154 77.3226 75.4629 81.515 69.4075 83.0308C61.3338 85.0514 57.5702 80.21 52.6581 82.8768C49.9547 84.3438 48.7003 88.1122 46.305 95.5869C42.9995 105.903 40.6822 113.193 39.6622 116.404Z" fill="white" stroke="#525375" stroke-linecap="round" stroke-linejoin="round"/>
<path d="M50.7111 80.81C51.244 79.6685 50.7506 78.3111 49.609 77.7782C48.4674 77.2453 47.11 77.7387 46.5772 78.8803C46.0443 80.0219 46.5377 81.3792 47.6793 81.9121C48.8208 82.445 50.1782 81.9516 50.7111 80.81Z" fill="#EFEFF7"/>
<path d="M28.9963 119.119C29.4723 118.099 29.0315 116.886 28.0117 116.41C26.992 115.934 25.7794 116.375 25.3033 117.395C24.8273 118.415 25.2681 119.627 26.2879 120.103C27.3077 120.579 28.5203 120.139 28.9963 119.119Z" fill="#EFEFF7"/>
<path d="M37.0385 112.873C37.3889 112.122 38.2813 111.798 39.0318 112.148C39.7824 112.499 40.1068 113.391 39.7564 114.142C39.4061 114.892 38.5137 115.216 37.7631 114.866C37.0126 114.516 36.6882 113.623 37.0385 112.873Z" fill="#EFEFF7"/>
<path d="M44.3263 123.6C44.5064 123.214 44.9555 123.043 45.3292 123.217C45.7029 123.392 45.8598 123.846 45.6797 124.232C45.4996 124.618 45.0505 124.789 44.6768 124.615C44.3031 124.441 44.1461 123.986 44.3263 123.6Z" fill="#EFEFF7"/>
<path d="M55.3253 79.6004C55.5055 79.2145 55.9545 79.043 56.3282 79.2175C56.7019 79.3919 56.8589 79.8462 56.6787 80.2321C56.4986 80.6181 56.0496 80.7895 55.6758 80.615C55.3021 80.4406 55.1452 79.9863 55.3253 79.6004Z" fill="#EFEFF7"/>
<path d="M45.3253 87.6004C45.5055 87.2145 45.9545 87.043 46.3282 87.2175C46.7019 87.3919 46.8589 87.8462 46.6787 88.2321C46.4986 88.6181 46.0496 88.7895 45.6758 88.615C45.3021 88.4406 45.1452 87.9863 45.3253 87.6004Z" fill="#EFEFF7"/>
<path d="M44.3253 90.6004C44.5055 90.2145 44.9545 90.043 45.3282 90.2175C45.7019 90.3919 45.8589 90.8462 45.6787 91.2321C45.4986 91.6181 45.0496 91.7895 44.6758 91.615C44.3021 91.4406 44.1452 90.9863 44.3253 90.6004Z" fill="#EFEFF7"/>
<path d="M42.3253 74.6004C42.5055 74.2145 42.9545 74.043 43.3282 74.2175C43.7019 74.3919 43.8589 74.8462 43.6787 75.2321C43.4986 75.6181 43.0496 75.7895 42.6758 75.615C42.3021 75.4406 42.1452 74.9863 42.3253 74.6004Z" fill="#EFEFF7"/>
<path d="M20.3263 116.6C20.5064 116.214 20.9555 116.043 21.3292 116.217C21.7029 116.392 21.8598 116.846 21.6797 117.232C21.4996 117.618 21.0505 117.789 20.6768 117.615C20.3031 117.441 20.1461 116.986 20.3263 116.6Z" fill="#EFEFF7"/>
<path d="M41.3263 102.6C41.5064 102.214 41.9555 102.043 42.3292 102.217C42.7029 102.392 42.8598 102.846 42.6797 103.232C42.4996 103.618 42.0505 103.789 41.6768 103.615C41.3031 103.441 41.1461 102.986 41.3263 102.6Z" fill="#EFEFF7"/>
<path d="M40.3263 105.6C40.5064 105.214 40.9555 105.043 41.3292 105.217C41.7029 105.392 41.8598 105.846 41.6797 106.232C41.4996 106.618 41.0505 106.789 40.6768 106.615C40.3031 106.441 40.1461 105.986 40.3263 105.6Z" fill="#EFEFF7"/>
<path d="M45.6342 125.261C45.9846 124.51 46.877 124.186 47.6275 124.536C48.3781 124.886 48.7025 125.779 48.3521 126.529C48.0018 127.28 47.1094 127.604 46.3588 127.254C45.6083 126.903 45.2839 126.011 45.6342 125.261Z" fill="#EFEFF7"/>
<path d="M44.6333 85.2605C44.9836 84.51 45.876 84.1856 46.6266 84.5359C47.3771 84.8863 47.7015 85.7787 47.3512 86.5292C47.0008 87.2798 46.1084 87.6042 45.3579 87.2538C44.6073 86.9035 44.2829 86.0111 44.6333 85.2605Z" fill="#EFEFF7"/>
<path d="M40.6342 100.261C40.9846 99.51 41.877 99.1856 42.6275 99.5359C43.3781 99.8863 43.7025 100.779 43.3521 101.529C43.0018 102.28 42.1094 102.604 41.3588 102.254C40.6083 101.903 40.2839 101.011 40.6342 100.261Z" fill="#EFEFF7"/>
<path d="M42.6333 93.2605C42.9836 92.51 43.876 92.1856 44.6266 92.5359C45.3771 92.8863 45.7015 93.7787 45.3512 94.5292C45.0008 95.2798 44.1084 95.6042 43.3579 95.2538C42.6073 94.9035 42.2829 94.0111 42.6333 93.2605Z" fill="#EFEFF7"/>
<path d="M45.6333 76.2605C45.9836 75.51 46.876 75.1856 47.6266 75.5359C48.3771 75.8863 48.7015 76.7787 48.3512 77.5292C48.0008 78.2798 47.1084 78.6042 46.3579 78.2538C45.6073 77.9035 45.2829 77.0111 45.6333 76.2605Z" fill="#EFEFF7"/>
<path d="M65.6333 80.2605C65.9836 79.51 66.876 79.1856 67.6266 79.5359C68.3771 79.8863 68.7015 80.7787 68.3512 81.5292C68.0008 82.2798 67.1084 82.6042 66.3579 82.2538C65.6073 81.9035 65.2829 81.0111 65.6333 80.2605Z" fill="#EFEFF7"/>
<path d="M33.0682 117.271C33.8778 115.537 35.94 114.787 37.6743 115.597C39.4086 116.407 40.1582 118.469 39.3487 120.203C38.5391 121.937 36.4769 122.687 34.7426 121.877C33.0083 121.068 32.2586 119.006 33.0682 117.271Z" fill="#EFEFF7"/>
<path d="M35.7418 111.491C36.1516 110.613 37.1954 110.234 38.0732 110.644C38.951 111.053 39.3304 112.097 38.9206 112.975C38.5109 113.853 37.4671 114.232 36.5893 113.822C35.7115 113.413 35.3321 112.369 35.7418 111.491Z" fill="#EFEFF7"/>
<path d="M37.4049 107.228C37.8147 106.351 38.8584 105.971 39.7363 106.381C40.6141 106.791 40.9935 107.835 40.5837 108.712C40.174 109.59 39.1302 109.97 38.2524 109.56C37.3746 109.15 36.9951 108.106 37.4049 107.228Z" fill="#EFEFF7"/>
<path d="M38.776 121.186C39.1858 120.308 40.2295 119.929 41.1074 120.338C41.9852 120.748 42.3646 121.792 41.9548 122.67C41.5451 123.547 40.5013 123.927 39.6235 123.517C38.7457 123.107 38.3662 122.064 38.776 121.186Z" fill="#EFEFF7"/>
<path d="M27.7418 118.491C28.1516 117.613 29.1954 117.234 30.0732 117.644C30.951 118.053 31.3304 119.097 30.9206 119.975C30.5109 120.853 29.4671 121.232 28.5893 120.822C27.7115 120.413 27.3321 119.369 27.7418 118.491Z" fill="#EFEFF7"/>
<path d="M72.2416 43.9538C74.4473 44.2326 79.6997 44.8948 82.1542 47.6399C87.5955 53.7387 81.8934 72.9554 69.725 77.3532C63.9641 79.4362 55.5887 78.6359 53.3795 75.59C53.0934 75.1901 52.2431 73.8337 50.5937 73.1865C48.9443 72.5393 47.3793 72.958 46.9238 73.058C42.4732 74.0252 30.888 68.9838 27.6943 59.5817C27.0231 57.6025 25.5998 53.6101 27.3463 49.9012C30.6728 42.8326 43.1109 41.7407 49.9288 42.3614C55.2655 42.8457 57.175 44.3811 63.7403 44.1523C67.2003 44.032 68.8711 43.5284 72.2416 43.9538Z" fill="#525375" stroke="#525375" stroke-linecap="round" stroke-linejoin="round"/>
<path d="M78.5352 48.5294C81.4544 49.989 81.823 52.8364 81.2112 54.6526C79.7762 58.9141 64.6991 57.4064 60.6417 57.0007C54.8162 56.4182 31.3423 54.5815 31.3425 50.962" stroke="white" stroke-linecap="round" stroke-linejoin="round"/>
<path d="M60.5722 9.53249C64.3243 10.2683 66.9712 11.2482 71.0315 12.7728C75.7049 14.5278 78.0986 15.443 80.9365 17.3115C83.583 19.054 87.1882 21.9771 86.7913 22.63C86.3278 23.3942 80.846 20.4249 70.0744 16.1163C58.3558 11.4267 51.5947 9.64134 51.7839 8.85995C51.9532 8.167 57.4231 8.91722 60.5722 9.53249Z" fill="#525375" stroke="#525375" stroke-linecap="round" stroke-linejoin="round"/>
</svg>
