<svg width="154" height="129" viewBox="0 0 154 129" fill="none" xmlns="http://www.w3.org/2000/svg">
<g clip-path="url(#clip0_81_1238)">
<path d="M46.4593 28.2706C46.4593 28.2706 66.7476 51.484 85.608 56.9606C104.468 62.4371 92.1163 84.0822 63.431 70.2399C44.496 61.1057 41.8162 51.0794 38.3636 43.0677C36.584 38.9426 34.5993 35.3487 30.0868 32.6935C16.7998 24.8735 4.59318 37.4014 1.06423 21.8983C-2.46471 6.39522 14.7742 1.94829 30.9634 5.33847C47.1526 8.72865 71.1549 25.7553 64.33 29.8764C57.505 33.9976 46.4593 28.2706 46.4593 28.2706Z" fill="white" stroke="#525375" stroke-linecap="round" stroke-linejoin="round"/>
<path d="M48.2453 49.1234C48.9868 48.4728 49.0604 47.3443 48.4098 46.6029C47.7592 45.8615 46.6308 45.7879 45.8893 46.4385C45.1479 47.089 45.0743 48.2175 45.7249 48.9589C46.3755 49.7003 47.5039 49.774 48.2453 49.1234Z" fill="#EFEFF7"/>
<path d="M52.2742 58.5175C53.3766 57.5502 53.4861 55.8724 52.5188 54.7701C51.5515 53.6677 49.8737 53.5582 48.7714 54.5255C47.669 55.4928 47.5595 57.1706 48.5268 58.2729C49.4941 59.3753 51.1719 59.4848 52.2742 58.5175Z" fill="#EFEFF7"/>
<path d="M62.1467 62.9425C62.8881 62.2919 62.9618 61.1634 62.3112 60.422C61.6606 59.6806 60.5321 59.607 59.7907 60.2576C59.0493 60.9081 58.9756 62.0366 59.6262 62.778C60.2768 63.5194 61.4053 63.5931 62.1467 62.9425Z" fill="#EFEFF7"/>
<path d="M66.6985 67.8629C67.4399 67.2123 67.5135 66.0839 66.8629 65.3424C66.2123 64.601 65.0839 64.5274 64.3425 65.178C63.601 65.8286 63.5274 66.957 64.178 67.6984C64.8286 68.4398 65.957 68.5135 66.6985 67.8629Z" fill="#EFEFF7"/>
<path d="M68.6985 67.8629C69.4399 67.2123 69.5135 66.0839 68.8629 65.3424C68.2123 64.601 67.0839 64.5274 66.3425 65.178C65.601 65.8286 65.5274 66.957 66.178 67.6984C66.8286 68.4398 67.957 68.5135 68.6985 67.8629Z" fill="#EFEFF7"/>
<path d="M68.8455 65.2581C69.4733 64.7072 69.5354 63.7515 68.9842 63.1234C68.433 62.4952 67.4773 62.4326 66.8496 62.9834C66.2218 63.5343 66.1597 64.49 66.7109 65.1182C67.2621 65.7463 68.2178 65.8089 68.8455 65.2581Z" fill="#EFEFF7"/>
<path d="M79.9924 69.9842C80.7338 69.3336 80.8075 68.2052 80.1569 67.4638C79.5063 66.7223 78.3778 66.6487 77.6364 67.2993C76.895 67.9499 76.8214 69.0783 77.4719 69.8198C78.1225 70.5612 79.251 70.6348 79.9924 69.9842Z" fill="#EFEFF7"/>
<path d="M56.121 57.5509C56.3716 57.3309 56.7475 57.3494 56.9605 57.5921C57.1735 57.8349 57.143 58.2099 56.8923 58.4299C56.6417 58.6498 56.2658 58.6314 56.0528 58.3886C55.8398 58.1459 55.8703 57.7708 56.121 57.5509Z" fill="#EFEFF7"/>
<path d="M84.454 65.3983C84.7046 65.1783 85.0805 65.1968 85.2935 65.4396C85.5065 65.6823 85.476 66.0574 85.2253 66.2773C84.9747 66.4972 84.5988 66.4788 84.3858 66.236C84.1728 65.9933 84.2034 65.6182 84.454 65.3983Z" fill="#EFEFF7"/>
<path d="M77.2976 72.0582C77.1719 71.7493 77.3125 71.4002 77.6116 71.2785C77.9108 71.1568 78.2551 71.3085 78.3808 71.6174C78.5065 71.9262 78.3659 72.2753 78.0668 72.397C77.7677 72.5188 77.4233 72.367 77.2976 72.0582Z" fill="#EFEFF7"/>
<path d="M60.2273 65.0001C60.1016 64.6912 60.2422 64.3421 60.5413 64.2204C60.8404 64.0987 61.1848 64.2504 61.3105 64.5593C61.4362 64.8681 61.2956 65.2172 60.9965 65.3389C60.6974 65.4606 60.353 65.3089 60.2273 65.0001Z" fill="#EFEFF7"/>
<path d="M54.2273 60.0001C54.1016 59.6912 54.2422 59.3421 54.5413 59.2204C54.8404 59.0987 55.1848 59.2504 55.3105 59.5593C55.4362 59.8681 55.2956 60.2172 54.9965 60.3389C54.6974 60.4606 54.353 60.3089 54.2273 60.0001Z" fill="#EFEFF7"/>
<path d="M54.4034 61.9631C54.1567 61.3568 54.4327 60.6716 55.0199 60.4326C55.607 60.1937 56.2831 60.4915 56.5298 61.0978C56.7765 61.7042 56.5006 62.3894 55.9134 62.6283C55.3262 62.8673 54.6502 62.5695 54.4034 61.9631Z" fill="#EFEFF7"/>
<path d="M86.0722 72.3548C86.3228 72.1349 86.6987 72.1534 86.9117 72.3961C87.1247 72.6388 87.0941 73.0139 86.8435 73.2338C86.5928 73.4538 86.217 73.4353 86.004 73.1926C85.791 72.9498 85.8215 72.5748 86.0722 72.3548Z" fill="#EFEFF7"/>
<path d="M90.454 66.3984C90.7046 66.1785 91.0805 66.1969 91.2935 66.4397C91.5065 66.6824 91.476 67.0575 91.2253 67.2774C90.9747 67.4974 90.5988 67.4789 90.3858 67.2362C90.1728 66.9934 90.2034 66.6183 90.454 66.3984Z" fill="#EFEFF7"/>
<path d="M52.6005 50.8075C52.8511 50.5875 53.227 50.606 53.44 50.8487C53.653 51.0915 53.6225 51.4665 53.3718 51.6865C53.1212 51.9064 52.7453 51.8879 52.5323 51.6452C52.3193 51.4025 52.3498 51.0274 52.6005 50.8075Z" fill="#EFEFF7"/>
<path d="M83.2575 70.8654C83.7449 70.4377 84.4868 70.4861 84.9146 70.9736C85.3423 71.461 85.2939 72.2029 84.8064 72.6307C84.319 73.0584 83.5771 73.01 83.1493 72.5225C82.7216 72.0351 82.77 71.2932 83.2575 70.8654Z" fill="#EFEFF7"/>
<path d="M71.2633 65.7013C71.7508 65.2735 72.4927 65.3219 72.9204 65.8094C73.3482 66.2968 73.2998 67.0388 72.8123 67.4665C72.3248 67.8942 71.5829 67.8458 71.1552 67.3584C70.7275 66.8709 70.7759 66.129 71.2633 65.7013Z" fill="#EFEFF7"/>
<path d="M60.0114 53.5248C60.4988 53.097 61.2407 53.1454 61.6685 53.6329C62.0962 54.1203 62.0478 54.8622 61.5603 55.29C61.0729 55.7177 60.331 55.6693 59.9033 55.1818C59.4755 54.6944 59.5239 53.9525 60.0114 53.5248Z" fill="#EFEFF7"/>
<path d="M59.9391 58.0821C60.4266 57.6544 61.1685 57.7028 61.5962 58.1903C62.0239 58.6777 61.9755 59.4196 61.4881 59.8473C61.0006 60.2751 60.2587 60.2267 59.831 59.7392C59.4033 59.2518 59.4517 58.5099 59.9391 58.0821Z" fill="#EFEFF7"/>
<path d="M73.1106 65.8127C74.237 64.8243 75.9514 64.9362 76.9398 66.0626C77.9282 67.189 77.8163 68.9033 76.6899 69.8917C75.5635 70.8801 73.8491 70.7683 72.8607 69.6419C71.8723 68.5155 71.9842 66.8011 73.1106 65.8127Z" fill="#EFEFF7"/>
<path d="M52.1025 45.297C52.6726 44.7968 53.5403 44.8534 54.0406 45.4235C54.5409 45.9936 54.4843 46.8614 53.9141 47.3616C53.344 47.8619 52.4763 47.8053 51.976 47.2352C51.4757 46.665 51.5324 45.7973 52.1025 45.297Z" fill="#EFEFF7"/>
<path d="M57.0361 49.5024C57.6062 49.0021 58.4739 49.0587 58.9742 49.6288C59.4745 50.1989 59.4178 51.0667 58.8477 51.5669C58.2776 52.0672 57.4099 52.0106 56.9096 51.4405C56.4093 50.8704 56.4659 50.0026 57.0361 49.5024Z" fill="#EFEFF7"/>
<path d="M50.4736 44.9455C51.0437 44.4452 51.9114 44.5018 52.4117 45.0719C52.912 45.6421 52.8553 46.5098 52.2852 47.0101C51.7151 47.5103 50.8474 47.4537 50.3471 46.8836C49.8468 46.3135 49.9034 45.4457 50.4736 44.9455Z" fill="#EFEFF7"/>
<path d="M48.0195 48.2172C48.5896 47.7169 49.4573 47.7735 49.9576 48.3437C50.4579 48.9138 50.4012 49.7815 49.8311 50.2818C49.261 50.7821 48.3933 50.7254 47.893 50.1553C47.3927 49.5852 47.4493 48.7175 48.0195 48.2172Z" fill="#EFEFF7"/>
<path d="M40.0078 13.1871C40.0078 13.1871 36.3984 8.96305 30.3747 10.8881C24.351 12.8131 44.1942 21.9458 40.0078 13.1871Z" fill="#525375" stroke="#525375" stroke-linecap="round" stroke-linejoin="round"/>
<path d="M101.589 74.0704C107.791 81.0006 115.36 86.5773 123.823 90.451C127.639 92.176 131.611 93.5339 135.686 94.5061L131.932 111.299C140.376 112.89 148.034 117.279 153.666 123.756C152.123 120.107 149.168 114.738 143.578 110.413C142.321 109.447 140.992 108.578 139.603 107.813C140.521 104.444 141.394 100.845 142.175 97.0238C142.938 93.292 143.538 89.722 144.012 86.3367C138.376 86.8234 132.699 86.5292 127.144 85.4625C117.871 83.6459 109.133 79.7505 101.589 74.0704Z" fill="white" stroke="#525375" stroke-linecap="round" stroke-linejoin="round"/>
<path d="M94.7324 77.4939L102.908 102.392L110.307 94.7121C113.37 98.4934 113.531 105.44 116.594 109.225C113.78 108.022 113.871 103.657 111.057 102.458L101.63 113.491L94.7324 77.4939Z" fill="white" stroke="#525375" stroke-linecap="round" stroke-linejoin="round"/>
<path d="M104.008 67.6519L124.062 61.5109C124.062 61.5109 112.486 59.8696 112.351 60.886C112.216 61.9024 104.008 67.6519 104.008 67.6519Z" fill="white" stroke="#525375" stroke-linecap="round" stroke-linejoin="round"/>
</g>
<defs>
<clipPath id="clip0_81_1238">
<rect width="124" height="150" fill="white" transform="translate(149.925) rotate(88.1893)"/>
</clipPath>
</defs>
</svg>
