<svg width="138" height="110" viewBox="0 0 138 110" fill="none" xmlns="http://www.w3.org/2000/svg">
<path d="M78.6663 41.3186L78.1052 103.727L0.85498 105.427L2.54435 40.748L78.6663 41.3186Z" fill="white" stroke="#525375" stroke-linecap="round" stroke-linejoin="round"/>
<path d="M75.2765 89.4448C75.3971 88.332 74.5917 87.3331 73.4775 87.2138C72.3634 87.0944 71.3624 87.8997 71.2418 89.0125C71.1212 90.1253 71.9266 91.1241 73.0408 91.2435C74.1549 91.3629 75.1559 90.5575 75.2765 89.4448Z" fill="#EFEFF7"/>
<path d="M31.9327 80.1147C32.0533 79.0019 31.2479 78.003 30.1338 77.8837C29.0196 77.7643 28.0187 78.5696 27.8981 79.6824C27.7775 80.7952 28.5829 81.794 29.697 81.9134C30.8112 82.0328 31.8121 81.2275 31.9327 80.1147Z" fill="#EFEFF7"/>
<path d="M26.4072 90.1278C26.5036 89.2385 25.8599 88.4403 24.9695 88.3449C24.0791 88.2495 23.2792 88.8931 23.1828 89.7824C23.0864 90.6717 23.7301 91.4699 24.6205 91.5653C25.5109 91.6607 26.3108 91.0171 26.4072 90.1278Z" fill="#EFEFF7"/>
<path d="M29.1974 92.6987C29.318 91.5859 28.5126 90.587 27.3984 90.4677C26.2843 90.3483 25.2833 91.1536 25.1627 92.2664C25.0421 93.3792 25.8475 94.378 26.9617 94.4974C28.0758 94.6168 29.0768 93.8114 29.1974 92.6987Z" fill="#EFEFF7"/>
<path d="M18.8126 102.171C18.9332 101.059 18.1278 100.06 17.0137 99.9403C15.8995 99.8209 14.8986 100.626 14.7779 101.739C14.6573 102.852 15.4628 103.851 16.5769 103.97C17.691 104.089 18.692 103.284 18.8126 102.171Z" fill="#EFEFF7"/>
<path d="M52.1204 95.5396C52.1997 94.808 52.8577 94.2785 53.5902 94.357C54.3227 94.4355 54.8523 95.0922 54.773 95.8238C54.6937 96.5554 54.0356 97.0848 53.3031 97.0063C52.5706 96.9279 52.0411 96.2712 52.1204 95.5396Z" fill="#EFEFF7"/>
<path d="M44.3489 93.5103C44.4282 92.7787 45.0863 92.2492 45.8188 92.3277C46.5513 92.4062 47.0808 93.0629 47.0015 93.7945C46.9222 94.5261 46.2641 95.0555 45.5316 94.977C44.7991 94.8986 44.2696 94.2419 44.3489 93.5103Z" fill="#EFEFF7"/>
<path d="M54.7029 98.145C54.7822 97.4134 55.4403 96.884 56.1728 96.9624C56.9053 97.0409 57.4348 97.6976 57.3555 98.4292C57.2762 99.1608 56.6181 99.6903 55.8856 99.6118C55.1531 99.5333 54.6236 98.8766 54.7029 98.145Z" fill="#EFEFF7"/>
<path d="M69.1611 91.3941C69.2019 91.0179 69.5307 90.7447 69.8954 90.7837C70.2602 90.8228 70.5228 91.1595 70.482 91.5356C70.4413 91.9118 70.1125 92.1851 69.7478 92.146C69.383 92.107 69.1204 91.7703 69.1611 91.3941Z" fill="#EFEFF7"/>
<path d="M69.6333 83.4058C69.6741 83.0297 70.0028 82.7564 70.3676 82.7955C70.7323 82.8345 70.995 83.1712 70.9542 83.5474C70.9134 83.9236 70.5847 84.1968 70.2199 84.1578C69.8552 84.1187 69.5925 83.782 69.6333 83.4058Z" fill="#EFEFF7"/>
<path d="M66.6333 86.4058C66.6741 86.0297 67.0028 85.7564 67.3676 85.7955C67.7323 85.8345 67.995 86.1712 67.9542 86.5474C67.9134 86.9236 67.5847 87.1968 67.2199 87.1578C66.8552 87.1187 66.5925 86.782 66.6333 86.4058Z" fill="#EFEFF7"/>
<path d="M52.6333 87.4058C52.6741 87.0297 53.0028 86.7564 53.3676 86.7955C53.7323 86.8345 53.995 87.1712 53.9542 87.5474C53.9134 87.9236 53.5847 88.1968 53.2199 88.1578C52.8552 88.1187 52.5925 87.782 52.6333 87.4058Z" fill="#EFEFF7"/>
<path d="M79.6333 72.5015C79.6741 72.1254 80.0028 71.8521 80.3676 71.8912C80.7323 71.9302 80.995 72.2669 80.9542 72.6431C80.9134 73.0193 80.5847 73.2925 80.2199 73.2535C79.8552 73.2144 79.5925 72.8777 79.6333 72.5015Z" fill="#EFEFF7"/>
<path d="M35.4287 78.2945C35.4695 77.9183 35.7982 77.6451 36.163 77.6841C36.5277 77.7232 36.7904 78.0599 36.7496 78.436C36.7088 78.8122 36.3801 79.0855 36.0153 79.0464C35.6506 79.0073 35.3879 78.6707 35.4287 78.2945Z" fill="#EFEFF7"/>
<path d="M8.56738 78.1187C8.60816 77.7425 8.9369 77.4693 9.30166 77.5083C9.66641 77.5474 9.92905 77.8841 9.88828 78.2603C9.84751 78.6364 9.51876 78.9097 9.15401 78.8706C8.78925 78.8316 8.52661 78.4949 8.56738 78.1187Z" fill="#EFEFF7"/>
<path d="M17.3862 88.6168C17.427 88.2406 17.7558 87.9673 18.1205 88.0064C18.4853 88.0455 18.7479 88.3821 18.7071 88.7583C18.6664 89.1345 18.3376 89.4078 17.9729 89.3687C17.6081 89.3296 17.3455 88.993 17.3862 88.6168Z" fill="#EFEFF7"/>
<path d="M21.6618 96.1427C21.7183 95.6212 22.1741 95.2424 22.6797 95.2965C23.1854 95.3507 23.5495 95.8174 23.493 96.3389C23.4364 96.8604 22.9807 97.2393 22.475 97.1851C21.9694 97.1309 21.6053 96.6642 21.6618 96.1427Z" fill="#EFEFF7"/>
<path d="M40.5732 84.1676C40.614 83.7914 40.9428 83.5181 41.3075 83.5572C41.6723 83.5962 41.9349 83.9329 41.8941 84.3091C41.8534 84.6853 41.5246 84.9586 41.1599 84.9195C40.7951 84.8804 40.5325 84.5437 40.5732 84.1676Z" fill="#EFEFF7"/>
<path d="M8.99902 80.2633C9.0398 79.8871 9.36854 79.6138 9.7333 79.6529C10.0981 79.692 10.3607 80.0286 10.3199 80.4048C10.2791 80.781 9.9504 81.0543 9.58565 81.0152C9.22089 80.9761 8.95825 80.6395 8.99902 80.2633Z" fill="#EFEFF7"/>
<path d="M23.6333 101.406C23.6741 101.03 24.0028 100.756 24.3676 100.795C24.7323 100.835 24.995 101.171 24.9542 101.547C24.9134 101.924 24.5847 102.197 24.2199 102.158C23.8552 102.119 23.5925 101.782 23.6333 101.406Z" fill="#EFEFF7"/>
<path d="M16.6333 97.4058C16.6741 97.0297 17.0028 96.7564 17.3676 96.7954C17.7323 96.8345 17.995 97.1712 17.9542 97.5474C17.9134 97.9236 17.5847 98.1968 17.2199 98.1578C16.8552 98.1187 16.5925 97.782 16.6333 97.4058Z" fill="#EFEFF7"/>
<path d="M9.6333 95.4058C9.67407 95.0297 10.0028 94.7564 10.3676 94.7954C10.7323 94.8345 10.995 95.1712 10.9542 95.5474C10.9134 95.9236 10.5847 96.1968 10.2199 96.1578C9.85517 96.1187 9.59253 95.782 9.6333 95.4058Z" fill="#EFEFF7"/>
<path d="M11.6333 99.4058C11.6741 99.0297 12.0028 98.7564 12.3676 98.7954C12.7323 98.8345 12.995 99.1712 12.9542 99.5474C12.9134 99.9236 12.5847 100.197 12.2199 100.158C11.8552 100.119 11.5925 99.782 11.6333 99.4058Z" fill="#EFEFF7"/>
<path d="M27.6333 99.4058C27.6741 99.0297 28.0028 98.7564 28.3676 98.7954C28.7323 98.8345 28.995 99.1712 28.9542 99.5474C28.9134 99.9236 28.5847 100.197 28.2199 100.158C27.8552 100.119 27.5925 99.782 27.6333 99.4058Z" fill="#EFEFF7"/>
<path d="M46.7114 87.1519C46.7522 86.7758 47.0809 86.5025 47.4457 86.5415C47.8105 86.5806 48.0731 86.9173 48.0323 87.2935C47.9915 87.6696 47.6628 87.9429 47.298 87.9038C46.9333 87.8648 46.6707 87.5281 46.7114 87.1519Z" fill="#EFEFF7"/>
<path d="M57.0688 89.859C57.1096 89.4828 57.4384 89.2095 57.8031 89.2486C58.1679 89.2877 58.4305 89.6243 58.3897 90.0005C58.349 90.3767 58.0202 90.65 57.6555 90.6109C57.2907 90.5718 57.0281 90.2352 57.0688 89.859Z" fill="#EFEFF7"/>
<path d="M48.6333 97.5015C48.6741 97.1254 49.0028 96.8521 49.3676 96.8912C49.7323 96.9302 49.995 97.2669 49.9542 97.6431C49.9134 98.0193 49.5847 98.2925 49.2199 98.2535C48.8552 98.2144 48.5925 97.8777 48.6333 97.5015Z" fill="#EFEFF7"/>
<path d="M71.6333 98.5015C71.6741 98.1254 72.0028 97.8521 72.3676 97.8912C72.7323 97.9302 72.995 98.2669 72.9542 98.6431C72.9134 99.0193 72.5847 99.2925 72.2199 99.2535C71.8552 99.2144 71.5925 98.8777 71.6333 98.5015Z" fill="#EFEFF7"/>
<path d="M66.6333 101.406C66.6741 101.03 67.0028 100.756 67.3676 100.795C67.7323 100.835 67.995 101.171 67.9542 101.547C67.9134 101.924 67.5847 102.197 67.2199 102.158C66.8552 102.119 66.5925 101.782 66.6333 101.406Z" fill="#EFEFF7"/>
<path d="M59.6333 100.406C59.6741 100.03 60.0028 99.7564 60.3676 99.7954C60.7323 99.8345 60.995 100.171 60.9542 100.547C60.9134 100.924 60.5847 101.197 60.2199 101.158C59.8552 101.119 59.5925 100.782 59.6333 100.406Z" fill="#EFEFF7"/>
<path d="M57.6333 102.406C57.6741 102.03 58.0028 101.756 58.3676 101.795C58.7323 101.835 58.995 102.171 58.9542 102.547C58.9134 102.924 58.5847 103.197 58.2199 103.158C57.8552 103.119 57.5925 102.782 57.6333 102.406Z" fill="#EFEFF7"/>
<path d="M83.6333 69.5015C83.6741 69.1253 84.0028 68.8521 84.3676 68.8911C84.7323 68.9302 84.995 69.2669 84.9542 69.6431C84.9134 70.0193 84.5847 70.2925 84.2199 70.2535C83.8552 70.2144 83.5925 69.8777 83.6333 69.5015Z" fill="#EFEFF7"/>
<path d="M64.0508 94.1324C64.0916 93.7562 64.4203 93.4829 64.7851 93.522C65.1498 93.5611 65.4124 93.8977 65.3717 94.2739C65.3309 94.6501 65.0022 94.9234 64.6374 94.8843C64.2726 94.8452 64.01 94.5086 64.0508 94.1324Z" fill="#EFEFF7"/>
<path d="M59.6033 97.231C59.6826 96.4994 60.3406 95.9699 61.0731 96.0484C61.8056 96.1269 62.3352 96.7836 62.2559 97.5152C62.1766 98.2468 61.5185 98.7762 60.786 98.6977C60.0535 98.6193 59.524 97.9626 59.6033 97.231Z" fill="#EFEFF7"/>
<path d="M52.7029 102.051C52.7822 101.32 53.4403 100.79 54.1728 100.869C54.9053 100.947 55.4348 101.604 55.3555 102.335C55.2762 103.067 54.6181 103.597 53.8856 103.518C53.1531 103.44 52.6236 102.783 52.7029 102.051Z" fill="#EFEFF7"/>
<path d="M72.7029 101.051C72.7822 100.32 73.4403 99.7902 74.1728 99.8687C74.9053 99.9472 75.4348 100.604 75.3555 101.335C75.2762 102.067 74.6181 102.597 73.8856 102.518C73.1531 102.44 72.6236 101.783 72.7029 101.051Z" fill="#EFEFF7"/>
<path d="M10.8445 82.8911C10.9238 82.1595 11.5819 81.63 12.3144 81.7085C13.0469 81.787 13.5764 82.4437 13.4971 83.1753C13.4178 83.9069 12.7597 84.4364 12.0272 84.3579C11.2947 84.2794 10.7652 83.6227 10.8445 82.8911Z" fill="#EFEFF7"/>
<path d="M7.70287 101.049C7.78217 100.318 8.44026 99.7882 9.17276 99.8667C9.90525 99.9452 10.4348 100.602 10.3555 101.334C10.2762 102.065 9.61811 102.595 8.88561 102.516C8.15311 102.438 7.62358 101.781 7.70287 101.049Z" fill="#EFEFF7"/>
<path d="M37.9402 86.3071C38.0195 85.5755 38.6776 85.0461 39.4101 85.1245C40.1426 85.203 40.6721 85.8597 40.5928 86.5913C40.5135 87.3229 39.8554 87.8524 39.1229 87.7739C38.3904 87.6954 37.8609 87.0387 37.9402 86.3071Z" fill="#EFEFF7"/>
<path d="M40.8035 91.2017C40.8828 90.4701 41.5408 89.9406 42.2733 90.0191C43.0058 90.0976 43.5354 90.7543 43.4561 91.4859C43.3768 92.2175 42.7187 92.7469 41.9862 92.6684C41.2537 92.59 40.7242 91.9333 40.8035 91.2017Z" fill="#EFEFF7"/>
<path d="M34.9475 92.4341C35.0268 91.7025 35.6849 91.173 36.4174 91.2515C37.1499 91.33 37.6794 91.9867 37.6001 92.7183C37.5208 93.4499 36.8627 93.9793 36.1302 93.9009C35.3977 93.8224 34.8682 93.1657 34.9475 92.4341Z" fill="#EFEFF7"/>
<path d="M26.3489 77.7505C26.4282 77.0189 27.0863 76.4894 27.8188 76.5679C28.5513 76.6464 29.0808 77.3031 29.0015 78.0347C28.9222 78.7663 28.2641 79.2958 27.5316 79.2173C26.7991 79.1388 26.2696 78.4821 26.3489 77.7505Z" fill="#EFEFF7"/>
<path d="M3.93627 76.3345C4.01557 75.6029 4.67366 75.0734 5.40615 75.1519C6.13865 75.2304 6.66818 75.8871 6.58889 76.6187C6.50959 77.3503 5.8515 77.8797 5.11901 77.8013C4.38651 77.7228 3.85698 77.0661 3.93627 76.3345Z" fill="#EFEFF7"/>
<path d="M17.7029 94.0493C17.7822 93.3177 18.4403 92.7883 19.1728 92.8667C19.9053 92.9452 20.4348 93.6019 20.3555 94.3335C20.2762 95.0651 19.6181 95.5946 18.8856 95.5161C18.1531 95.4376 17.6236 94.7809 17.7029 94.0493Z" fill="#EFEFF7"/>
<path d="M11.8911 89.8818C12.0743 88.1912 13.595 86.9678 15.2877 87.1491C16.9803 87.3305 18.204 88.848 18.0207 90.5385C17.8375 92.2291 16.3168 93.4526 14.6242 93.2712C12.9315 93.0899 11.7079 91.5724 11.8911 89.8818Z" fill="#EFEFF7"/>
<path d="M33.4126 86.1982C33.5958 84.5076 35.1165 83.2842 36.8092 83.4655C38.5018 83.6469 39.7255 85.1644 39.5422 86.855C39.359 88.5455 37.8383 89.769 36.1456 89.5877C34.453 89.4063 33.2294 87.8888 33.4126 86.1982Z" fill="#EFEFF7"/>
<path d="M61.7237 96.7892C61.8787 95.3585 63.1657 94.323 64.5982 94.4765C66.0307 94.63 67.0662 95.9142 66.9111 97.345C66.7561 98.7757 65.4691 99.8111 64.0366 99.6577C62.6041 99.5042 61.5686 98.2199 61.7237 96.7892Z" fill="#EFEFF7"/>
<path d="M66.4258 76.3766C66.5459 75.2689 67.5422 74.4673 68.6513 74.5861C69.7603 74.7049 70.562 75.6992 70.442 76.8069C70.3219 77.9146 69.3256 78.7162 68.2165 78.5974C67.1075 78.4785 66.3058 77.4843 66.4258 76.3766Z" fill="#EFEFF7"/>
<path d="M57.8404 84.3146C57.9954 82.8838 59.2824 81.8484 60.7149 82.0019C62.1474 82.1554 63.1829 83.4396 63.0278 84.8704C62.8728 86.3011 61.5858 87.3365 60.1533 87.183C58.7208 87.0296 57.6853 85.7453 57.8404 84.3146Z" fill="#EFEFF7"/>
<path d="M75.8404 80.4122C75.9954 78.9815 77.2824 77.9461 78.7149 78.0996C80.1474 78.253 81.1829 79.5373 81.0278 80.968C80.8728 82.3988 79.5858 83.4342 78.1533 83.2807C76.7208 83.1272 75.6853 81.843 75.8404 80.4122Z" fill="#EFEFF7"/>
<path d="M12.9649 82.4493C13.1199 81.0186 14.4069 79.9832 15.8394 80.1367C17.2719 80.2902 18.3074 81.5744 18.1524 83.0051C17.9973 84.4359 16.7103 85.4713 15.2778 85.3178C13.8454 85.1643 12.8098 83.8801 12.9649 82.4493Z" fill="#EFEFF7"/>
<path d="M2.84036 101.315C2.99543 99.8838 4.2824 98.8484 5.71488 99.0019C7.14736 99.1554 8.18291 100.44 8.02785 101.87C7.87278 103.301 6.58581 104.337 5.15333 104.183C3.72084 104.03 2.68529 102.745 2.84036 101.315Z" fill="#EFEFF7"/>
<path d="M77.356 92.9815C77.4487 92.1259 78.2184 91.5066 79.0751 91.5984C79.9319 91.6902 80.5512 92.4583 80.4585 93.3139C80.3657 94.1696 79.596 94.7889 78.7393 94.6971C77.8826 94.6053 77.2632 93.8372 77.356 92.9815Z" fill="#EFEFF7"/>
<path d="M66.771 96.9444C66.8637 96.0888 67.6334 95.4695 68.4902 95.5613C69.3469 95.6531 69.9662 96.4212 69.8735 97.2768C69.7807 98.1325 69.0111 98.7518 68.1543 98.66C67.2976 98.5682 66.6783 97.8001 66.771 96.9444Z" fill="#EFEFF7"/>
<path d="M18.0122 82.6046C18.105 81.7489 18.8747 81.1296 19.7314 81.2214C20.5881 81.3132 21.2074 82.0813 21.1147 82.937C21.022 83.7927 20.2523 84.4119 19.3955 84.3201C18.5388 84.2283 17.9195 83.4603 18.0122 82.6046Z" fill="#EFEFF7"/>
<path d="M75.7222 93.9366C75.8149 93.0809 76.5846 92.4617 77.4413 92.5535C78.2981 92.6453 78.9174 93.4133 78.8247 94.269C78.7319 95.1247 77.9622 95.7439 77.1055 95.6522C76.2488 95.5604 75.6294 94.7923 75.7222 93.9366Z" fill="#EFEFF7"/>
<path d="M80.7276 84.3702C80.8203 83.5145 81.59 82.8953 82.4467 82.9871C83.3034 83.0789 83.9228 83.8469 83.83 84.7026C83.7373 85.5583 82.9676 86.1775 82.1109 86.0858C81.2541 85.994 80.6348 85.2259 80.7276 84.3702Z" fill="#EFEFF7"/>
<path d="M50.8062 90.6925C50.8989 89.8368 51.6686 89.2176 52.5253 89.3093C53.3821 89.4011 54.0014 90.1692 53.9086 91.0249C53.8159 91.8806 53.0462 92.4998 52.1895 92.408C51.3328 92.3162 50.7134 91.5482 50.8062 90.6925Z" fill="#EFEFF7"/>
<path d="M69.7275 87.2745C69.8203 86.4188 70.59 85.7996 71.4467 85.8914C72.3034 85.9832 72.9228 86.7512 72.83 87.6069C72.7373 88.4626 71.9676 89.0818 71.1109 88.9901C70.2541 88.8983 69.6348 88.1302 69.7275 87.2745Z" fill="#EFEFF7"/>
<path d="M50.4498 85.7376C50.5197 85.0925 51.1 84.6257 51.7458 84.6949C52.3917 84.7641 52.8586 85.3431 52.7887 85.9882C52.7188 86.6333 52.1385 87.1002 51.4926 87.031C50.8468 86.9618 50.3799 86.3827 50.4498 85.7376Z" fill="#EFEFF7"/>
<path d="M58.7275 91.2745C58.8203 90.4188 59.59 89.7996 60.4467 89.8914C61.3034 89.9832 61.9228 90.7512 61.83 91.6069C61.7373 92.4626 60.9676 93.0818 60.1109 92.9901C59.2541 92.8983 58.6348 92.1302 58.7275 91.2745Z" fill="#EFEFF7"/>
<path d="M6.72755 86.3704C6.82029 85.5148 7.58999 84.8955 8.44672 84.9873C9.30344 85.0791 9.92277 85.8472 9.83003 86.7029C9.73729 87.5585 8.96759 88.1778 8.11087 88.086C7.25414 87.9942 6.63481 87.2261 6.72755 86.3704Z" fill="#EFEFF7"/>
<path d="M19.0894 97.3151C19.1605 96.659 19.7506 96.1842 20.4075 96.2546C21.0644 96.325 21.5392 96.9139 21.4681 97.5699C21.397 98.226 20.8069 98.7008 20.15 98.6304C19.4931 98.56 19.0183 97.9711 19.0894 97.3151Z" fill="#EFEFF7"/>
<path d="M81.7275 75.3702C81.8203 74.5145 82.59 73.8953 83.4467 73.9871C84.3034 74.0789 84.9228 74.8469 84.83 75.7026C84.7373 76.5583 83.9676 77.1775 83.1109 77.0858C82.2541 76.994 81.6348 76.2259 81.7275 75.3702Z" fill="#EFEFF7"/>
<path d="M78.105 103.728L119.264 75.9297V18.0566L78.6661 41.32L78.105 103.728Z" fill="white" stroke="#525375" stroke-linecap="round" stroke-linejoin="round"/>
<path d="M110.089 61.5729C109.631 60.5515 108.432 60.0958 107.41 60.5551C106.388 61.0144 105.93 62.2149 106.388 63.2364C106.845 64.2579 108.045 64.7136 109.067 64.2542C110.089 63.7949 110.546 62.5944 110.089 61.5729Z" fill="#EFEFF7"/>
<path d="M96.5162 62.1647C96.0586 61.1433 94.8591 60.6875 93.8371 61.1469C92.815 61.6062 92.3574 62.8067 92.815 63.8282C93.2726 64.8497 94.4721 65.3054 95.4941 64.846C96.5162 64.3867 96.9737 63.1862 96.5162 62.1647Z" fill="#EFEFF7"/>
<path d="M96.8011 73.5968C96.4354 72.7805 95.4768 72.4163 94.66 72.7834C93.8432 73.1505 93.4775 74.1098 93.8432 74.9262C94.2089 75.7425 95.1675 76.1067 95.9843 75.7396C96.8011 75.3725 97.1668 74.4132 96.8011 73.5968Z" fill="#EFEFF7"/>
<path d="M100.507 74.4069C100.049 73.3854 98.8498 72.9297 97.8278 73.3891C96.8057 73.8484 96.3482 75.0489 96.8057 76.0704C97.2633 77.0918 98.4628 77.5476 99.4848 77.0882C100.507 76.6289 100.964 75.4284 100.507 74.4069Z" fill="#EFEFF7"/>
<path d="M96.3238 87.8269C95.8662 86.8054 94.6667 86.3497 93.6447 86.809C92.6226 87.2683 92.1651 88.4688 92.6226 89.4903C93.0802 90.5118 94.2797 90.9675 95.3017 90.5081C96.3238 90.0488 96.7814 88.8483 96.3238 87.8269Z" fill="#EFEFF7"/>
<path d="M110.104 76.0339C109.803 75.3623 110.104 74.573 110.776 74.2711C111.448 73.9691 112.236 74.2687 112.537 74.9402C112.838 75.6118 112.537 76.4011 111.865 76.7031C111.193 77.0051 110.405 76.7055 110.104 76.0339Z" fill="#EFEFF7"/>
<path d="M113.996 67.4597C113.695 66.7881 113.996 65.9988 114.668 65.6968C115.34 65.3948 116.129 65.6944 116.429 66.366C116.73 67.0376 116.429 67.8268 115.757 68.1288C115.086 68.4308 114.297 68.1312 113.996 67.4597Z" fill="#EFEFF7"/>
<path d="M113.104 46.0339C112.803 45.3623 113.104 44.573 113.776 44.2711C114.448 43.9691 115.236 44.2687 115.537 44.9402C115.838 45.6118 115.537 46.4011 114.865 46.7031C114.193 47.0051 113.405 46.7055 113.104 46.0339Z" fill="#EFEFF7"/>
<path d="M115.839 40.892C115.685 40.5466 115.83 40.1448 116.165 39.9944C116.5 39.844 116.896 40.0021 117.051 40.3474C117.206 40.6927 117.06 41.0946 116.725 41.2449C116.391 41.3953 115.994 41.2373 115.839 40.892Z" fill="#EFEFF7"/>
<path d="M98.6146 58.8256C98.46 58.4802 98.6058 58.0784 98.9404 57.928C99.275 57.7776 99.6717 57.9357 99.8264 58.281C99.981 58.6263 99.8352 59.0282 99.5006 59.1785C99.166 59.3289 98.7693 59.1709 98.6146 58.8256Z" fill="#EFEFF7"/>
<path d="M90.8393 69.8939C90.6846 69.5486 90.8304 69.1467 91.165 68.9964C91.4996 68.846 91.8963 69.004 92.051 69.3493C92.2057 69.6947 92.0598 70.0965 91.7252 70.2469C91.3906 70.3973 90.9939 70.2392 90.8393 69.8939Z" fill="#EFEFF7"/>
<path d="M88.2504 76.847C88.0957 76.5017 88.2415 76.0999 88.5761 75.9495C88.9107 75.7991 89.3074 75.9571 89.4621 76.3025C89.6168 76.6478 89.4709 77.0496 89.1363 77.2C88.8017 77.3504 88.4051 77.1924 88.2504 76.847Z" fill="#EFEFF7"/>
<path d="M95.74 81.185C95.5256 80.7063 95.7278 80.1492 96.1916 79.9407C96.6555 79.7322 97.2054 79.9513 97.4198 80.4301C97.6343 80.9088 97.4321 81.4659 96.9682 81.6744C96.5043 81.8828 95.9545 81.6637 95.74 81.185Z" fill="#EFEFF7"/>
<path d="M106.02 61.3002C105.866 60.9548 106.012 60.553 106.346 60.4026C106.681 60.2522 107.077 60.4103 107.232 60.7556C107.387 61.1009 107.241 61.5028 106.906 61.6531C106.572 61.8035 106.175 61.6455 106.02 61.3002Z" fill="#EFEFF7"/>
<path d="M89.8393 74.8939C89.6846 74.5486 89.8304 74.1467 90.165 73.9964C90.4996 73.846 90.8963 74.004 91.051 74.3493C91.2057 74.6947 91.0598 75.0965 90.7252 75.2469C90.3906 75.3973 89.9939 75.2392 89.8393 74.8939Z" fill="#EFEFF7"/>
<path d="M100.099 84.7338C99.9443 84.3884 100.09 83.9866 100.425 83.8362C100.759 83.6858 101.156 83.8439 101.311 84.1892C101.465 84.5345 101.32 84.9364 100.985 85.0867C100.65 85.2371 100.254 85.0791 100.099 84.7338Z" fill="#EFEFF7"/>
<path d="M92.037 84.8138C91.8823 84.4685 92.0282 84.0667 92.3628 83.9163C92.6974 83.7659 93.094 83.9239 93.2487 84.2693C93.4034 84.6146 93.2576 85.0164 92.923 85.1668C92.5884 85.3172 92.1917 85.1592 92.037 84.8138Z" fill="#EFEFF7"/>
<path d="M84.9848 86.6205C84.8301 86.2752 84.9759 85.8733 85.3105 85.7229C85.6451 85.5725 86.0418 85.7306 86.1965 86.0759C86.3512 86.4212 86.2053 86.8231 85.8707 86.9735C85.5361 87.1238 85.1395 86.9658 84.9848 86.6205Z" fill="#EFEFF7"/>
<path d="M88.7304 89.0638C88.5757 88.7185 88.7215 88.3167 89.0561 88.1663C89.3907 88.0159 89.7874 88.1739 89.9421 88.5193C90.0968 88.8646 89.9509 89.2664 89.6163 89.4168C89.2817 89.5672 88.8851 89.4092 88.7304 89.0638Z" fill="#EFEFF7"/>
<path d="M102.542 80.9877C102.388 80.6423 102.534 80.2405 102.868 80.0901C103.203 79.9397 103.599 80.0978 103.754 80.4431C103.909 80.7884 103.763 81.1903 103.428 81.3407C103.094 81.491 102.697 81.333 102.542 80.9877Z" fill="#EFEFF7"/>
<path d="M112.825 60.7767C112.67 60.4314 112.816 60.0296 113.151 59.8792C113.485 59.7288 113.882 59.8868 114.037 60.2322C114.191 60.5775 114.046 60.9793 113.711 61.1297C113.376 61.2801 112.98 61.1221 112.825 60.7767Z" fill="#EFEFF7"/>
<path d="M111.839 70.892C111.685 70.5466 111.83 70.1448 112.165 69.9944C112.5 69.844 112.896 70.0021 113.051 70.3474C113.206 70.6927 113.06 71.0946 112.725 71.2449C112.391 71.3953 111.994 71.2373 111.839 70.892Z" fill="#EFEFF7"/>
<path d="M114.839 74.892C114.685 74.5466 114.83 74.1448 115.165 73.9944C115.5 73.844 115.896 74.0021 116.051 74.3474C116.206 74.6927 116.06 75.0946 115.725 75.2449C115.391 75.3953 114.994 75.2373 114.839 74.892Z" fill="#EFEFF7"/>
<path d="M114.839 32.892C114.685 32.5466 114.83 32.1448 115.165 31.9944C115.5 31.844 115.896 32.0021 116.051 32.3474C116.206 32.6927 116.06 33.0946 115.725 33.2449C115.391 33.3953 114.994 33.2373 114.839 32.892Z" fill="#EFEFF7"/>
<path d="M109.839 79.892C109.685 79.5466 109.83 79.1448 110.165 78.9944C110.5 78.844 110.896 79.0021 111.051 79.3474C111.206 79.6927 111.06 80.0946 110.725 80.2449C110.391 80.3953 109.994 80.2373 109.839 79.892Z" fill="#EFEFF7"/>
<path d="M115.103 56.0319C114.803 55.3603 115.103 54.5711 115.775 54.2691C116.447 53.9671 117.236 54.2667 117.537 54.9383C117.838 55.6099 117.537 56.3991 116.865 56.7011C116.193 57.0031 115.404 56.7035 115.103 56.0319Z" fill="#EFEFF7"/>
<path d="M116.103 72.0319C115.803 71.3603 116.103 70.5711 116.775 70.2691C117.447 69.9671 118.236 70.2667 118.537 70.9383C118.838 71.6099 118.537 72.3991 117.865 72.7011C117.193 73.0031 116.404 72.7035 116.103 72.0319Z" fill="#EFEFF7"/>
<path d="M79.7133 75.2057C79.4125 74.5342 79.7133 73.7449 80.3853 73.4429C81.0572 73.1409 81.8458 73.4405 82.1467 74.1121C82.4475 74.7837 82.1467 75.5729 81.4747 75.8749C80.8028 76.1769 80.0142 75.8773 79.7133 75.2057Z" fill="#EFEFF7"/>
<path d="M86.167 92.4655C85.8661 91.7939 86.167 91.0047 86.8389 90.7027C87.5109 90.4007 88.2995 90.7003 88.6003 91.3719C88.9011 92.0435 88.6003 92.8327 87.9284 93.1347C87.2564 93.4367 86.4678 93.1371 86.167 92.4655Z" fill="#EFEFF7"/>
<path d="M104.828 64.4772C104.527 63.8056 104.828 63.0164 105.5 62.7144C106.171 62.4124 106.96 62.712 107.261 63.3836C107.562 64.0552 107.261 64.8444 106.589 65.1464C105.917 65.4484 105.128 65.1488 104.828 64.4772Z" fill="#EFEFF7"/>
<path d="M109.77 67.2565C109.47 66.5849 109.77 65.7957 110.442 65.4937C111.114 65.1917 111.903 65.4913 112.204 66.1629C112.505 66.8345 112.204 67.6237 111.532 67.9257C110.86 68.2277 110.071 67.9281 109.77 67.2565Z" fill="#EFEFF7"/>
<path d="M105.337 71.2761C105.036 70.6045 105.337 69.8152 106.009 69.5132C106.681 69.2112 107.469 69.5108 107.77 70.1824C108.071 70.854 107.77 71.6433 107.098 71.9453C106.426 72.2472 105.638 71.9476 105.337 71.2761Z" fill="#EFEFF7"/>
<path d="M90.5024 62.9421C90.2016 62.2705 90.5024 61.4812 91.1744 61.1793C91.8463 60.8773 92.6349 61.1769 92.9357 61.8484C93.2366 62.52 92.9357 63.3093 92.2638 63.6113C91.5919 63.9133 90.8033 63.6137 90.5024 62.9421Z" fill="#EFEFF7"/>
<path d="M81.104 67.0339C80.8031 66.3623 81.104 65.573 81.7759 65.271C82.4479 64.9691 83.2365 65.2687 83.5373 65.9402C83.8382 66.6118 83.5373 67.4011 82.8654 67.7031C82.1934 68.0051 81.4048 67.7055 81.104 67.0339Z" fill="#EFEFF7"/>
<path d="M91.2661 81.3757C90.9652 80.7041 91.2661 79.9148 91.938 79.6128C92.61 79.3108 93.3986 79.6105 93.6994 80.282C94.0003 80.9536 93.6994 81.7429 93.0275 82.0449C92.3555 82.3469 91.5669 82.0472 91.2661 81.3757Z" fill="#EFEFF7"/>
<path d="M84.1457 80.7113C83.4505 79.1595 84.1457 77.3357 85.6984 76.6378C87.2511 75.94 89.0734 76.6323 89.7686 78.1842C90.4638 79.7361 89.7686 81.5599 88.2159 82.2577C86.6632 82.9556 84.8409 82.2632 84.1457 80.7113Z" fill="#EFEFF7"/>
<path d="M100.864 66.6684C100.169 65.1165 100.864 63.2927 102.417 62.5949C103.97 61.897 105.792 62.5893 106.487 64.1412C107.183 65.6931 106.487 67.5169 104.935 68.2147C103.382 68.9126 101.56 68.2203 100.864 66.6684Z" fill="#EFEFF7"/>
<path d="M110.624 70.2392C110.036 68.9258 110.624 67.3824 111.938 66.7918C113.252 66.2012 114.795 66.7871 115.383 68.1005C115.971 69.4138 115.383 70.9573 114.069 71.5479C112.755 72.1385 111.213 71.5525 110.624 70.2392Z" fill="#EFEFF7"/>
<path d="M111.624 55.2411C111.036 53.9278 111.624 52.3843 112.938 51.7937C114.252 51.2032 115.795 51.7891 116.383 53.1024C116.971 54.4158 116.383 55.9592 115.069 56.5498C113.755 57.1404 112.213 56.5545 111.624 55.2411Z" fill="#EFEFF7"/>
<path d="M104.624 43.2411C104.036 41.9278 104.624 40.3843 105.938 39.7937C107.252 39.2032 108.795 39.7891 109.383 41.1024C109.971 42.4158 109.383 43.9592 108.069 44.5498C106.755 45.1404 105.213 44.5545 104.624 43.2411Z" fill="#EFEFF7"/>
<path d="M81.3206 73.7529C80.7323 72.4395 81.3206 70.896 82.6347 70.3055C83.9487 69.7149 85.4909 70.3008 86.0793 71.6141C86.6676 72.9275 86.0793 74.471 84.7652 75.0615C83.4511 75.6521 81.9089 75.0662 81.3206 73.7529Z" fill="#EFEFF7"/>
<path d="M82.1033 95.1493C81.515 93.836 82.1033 92.2925 83.4174 91.7019C84.7315 91.1114 86.2736 91.6973 86.862 93.0106C87.4503 94.324 86.862 95.8674 85.5479 96.458C84.2339 97.0486 82.6917 96.4627 82.1033 95.1493Z" fill="#EFEFF7"/>
<path d="M107.196 79.4233C106.844 78.6378 107.196 77.7147 107.982 77.3615C108.768 77.0083 109.69 77.3587 110.042 78.1442C110.394 78.9296 110.042 79.8527 109.256 80.206C108.47 80.5592 107.548 80.2088 107.196 79.4233Z" fill="#EFEFF7"/>
<path d="M85.7556 71.3393C85.4038 70.5538 85.7556 69.6307 86.5416 69.2775C87.3275 68.9243 88.2498 69.2747 88.6017 70.0602C88.9535 70.8457 88.6017 71.7688 87.8158 72.122C87.0299 72.4752 86.1075 72.1248 85.7556 71.3393Z" fill="#EFEFF7"/>
<path d="M106.196 69.4233C105.844 68.6378 106.196 67.7147 106.982 67.3615C107.768 67.0083 108.69 67.3587 109.042 68.1442C109.394 68.9296 109.042 69.8527 108.256 70.206C107.47 70.5592 106.548 70.2088 106.196 69.4233Z" fill="#EFEFF7"/>
<path d="M80.1961 83.4252C79.8442 82.6398 80.1961 81.7167 80.982 81.3634C81.7679 81.0102 82.6902 81.3606 83.0421 82.1461C83.394 82.9316 83.0421 83.8547 82.2562 84.2079C81.4703 84.5611 80.5479 84.2107 80.1961 83.4252Z" fill="#EFEFF7"/>
<path d="M110.196 57.4233C109.844 56.6378 110.196 55.7147 110.982 55.3615C111.768 55.0083 112.69 55.3587 113.042 56.1442C113.394 56.9296 113.042 57.8527 112.256 58.206C111.47 58.5592 110.548 58.2088 110.196 57.4233Z" fill="#EFEFF7"/>
<path d="M80.1961 88.4252C79.8442 87.6397 80.1961 86.7166 80.982 86.3634C81.7679 86.0102 82.6902 86.3606 83.0421 87.1461C83.394 87.9316 83.0421 88.8547 82.2562 89.2079C81.4703 89.5611 80.5479 89.2107 80.1961 88.4252Z" fill="#EFEFF7"/>
<path d="M94.1107 83.4938C93.8409 82.8915 94.1107 82.1838 94.7133 81.913C95.3158 81.6422 96.023 81.9108 96.2928 82.5131C96.5626 83.1153 96.2928 83.8231 95.6902 84.0939C95.0877 84.3647 94.3805 84.096 94.1107 83.4938Z" fill="#EFEFF7"/>
<path d="M108.196 49.4252C107.844 48.6398 108.196 47.7167 108.982 47.3634C109.768 47.0102 110.69 47.3606 111.042 48.1461C111.394 48.9316 111.042 49.8547 110.256 50.2079C109.47 50.5611 108.548 50.2107 108.196 49.4252Z" fill="#EFEFF7"/>
<path d="M2.54395 40.7494L39.7573 18.6213L119.264 18.0566L78.6659 41.32L2.54395 40.7494Z" fill="#525375" stroke="#525375" stroke-linecap="round" stroke-linejoin="round"/>
<path d="M47.6549 103.727L49.3442 40.748L29.6743 41.0631L29.9224 104.606L47.6549 103.727Z" fill="white" stroke="#525375" stroke-linecap="round" stroke-linejoin="round"/>
<path d="M65.5113 18.6207L29.6743 41.0638L49.3442 40.7488L85.0572 18.3711L65.5113 18.6207Z" fill="white" stroke="#525375" stroke-linecap="round" stroke-linejoin="round"/>
<path d="M107.362 83.6808L106.606 25.1777L96.5815 31.2343L97.3376 90.2366L107.362 83.6808Z" fill="white" stroke="#525375" stroke-linecap="round" stroke-linejoin="round"/>
<path d="M28.6701 25.6829L60.2424 25.4809L106.605 25.1777L96.5815 31.2343L18.144 31.7336L28.6701 25.6829Z" fill="white" stroke="#525375" stroke-linecap="round" stroke-linejoin="round"/>
<path d="M87.184 13.7002C87.184 13.7002 98.4483 9.10574 87.4852 2.6688C81.023 -1.12323 74.555 4.45191 70.3552 9.67635C68.4 5.40288 64.4483 1.81287 56.7694 1.1353C35.7586 -0.701283 49.7636 16.7672 49.7636 16.7672C49.7636 16.7672 35.1504 10.6393 27.8435 19.8281C24.642 23.8519 30.3717 26.1759 38.7713 27.2814C37.4068 28.803 36.6504 30.3007 37.2824 31.4716C38.5465 33.849 42.9355 30.794 46.2847 27.9054C47.1766 27.947 48.0565 27.9826 48.978 28.0064C49.2674 30.0748 50.9568 32.898 56.1608 36.3274C67.7324 43.9888 65.6118 31.424 65.6118 31.424C65.6118 31.424 74.4725 36.6365 86.3217 30.1995C89.6354 28.4165 89.9363 26.7524 88.6486 25.3022C91.2291 24.6056 93.5784 23.2289 95.4537 21.314C103.93 12.1846 87.184 13.7002 87.184 13.7002Z" fill="white" stroke="#525375" stroke-linecap="round" stroke-linejoin="round"/>
<path d="M88.5957 25.3672C88.5957 25.3672 80.3262 18.9302 69.5166 18.6211L88.5957 25.3672Z" fill="white"/>
<path d="M88.5957 25.3672C88.5957 25.3672 80.3262 18.9302 69.5166 18.6211" stroke="#525375" stroke-linecap="round" stroke-linejoin="round"/>
<path d="M38.7295 27.2982C38.7295 27.2982 45.611 21.5331 51.5533 21.9907L38.7295 27.2982Z" fill="white"/>
<path d="M38.7295 27.2982C38.7295 27.2982 45.611 21.5331 51.5533 21.9907" stroke="#525375" stroke-linecap="round" stroke-linejoin="round"/>
<path d="M70.3431 9.69336C70.3431 9.69336 68.6065 12.1839 68.2993 14.3296L70.3431 9.69336Z" fill="white"/>
<path d="M70.3431 9.69336C70.3431 9.69336 68.6065 12.1839 68.2993 14.3296" stroke="#525375" stroke-linecap="round" stroke-linejoin="round"/>
</svg>
