<svg width="188" height="188" viewBox="0 0 188 188" fill="none" xmlns="http://www.w3.org/2000/svg">
<path d="M53.0835 80.205C44.1878 86.9687 52.5623 96.2429 45.6086 127.583C41.4541 146.303 33.7652 164.164 40.8628 179.268C41.5869 180.821 42.1774 181.705 43.1318 182.439C49.8506 187.571 64.3312 177.005 100.362 152.379C128.193 133.364 132.707 130.681 133.318 124.174C134.927 107.078 106.913 92.4568 98.8223 88.2324C88.9664 83.091 65.4422 70.8121 53.0835 80.205Z" fill="white" stroke="#525375" stroke-miterlimit="10" stroke-linecap="round" stroke-linejoin="round"/>
<path d="M100.541 132.547C99.538 132.347 98.5625 132.997 98.3622 134.001C98.162 135.004 98.8129 135.979 99.816 136.179C100.819 136.38 101.795 135.729 101.995 134.726C102.195 133.722 101.544 132.747 100.541 132.547Z" fill="#EFEFF7"/>
<path d="M104.217 140.365C103.214 140.165 102.238 140.816 102.038 141.819C101.838 142.822 102.489 143.798 103.492 143.998C104.495 144.198 105.47 143.547 105.671 142.544C105.871 141.541 105.22 140.565 104.217 140.365Z" fill="#EFEFF7"/>
<path d="M106.061 128.041C105.058 127.841 104.082 128.492 103.882 129.495C103.682 130.498 104.333 131.473 105.336 131.674C106.339 131.874 107.315 131.223 107.515 130.22C107.715 129.217 107.064 128.241 106.061 128.041Z" fill="#EFEFF7"/>
<path d="M119.918 123.276C119.258 123.144 118.83 122.503 118.962 121.843C119.093 121.184 119.735 120.756 120.394 120.888C121.054 121.019 121.482 121.661 121.35 122.32C121.218 122.98 120.577 123.407 119.918 123.276Z" fill="#EFEFF7"/>
<path d="M117.432 130.174C116.772 130.043 116.344 129.401 116.476 128.742C116.608 128.082 117.249 127.654 117.908 127.786C118.568 127.918 118.996 128.559 118.864 129.218C118.733 129.878 118.091 130.306 117.432 130.174Z" fill="#EFEFF7"/>
<path d="M99.8371 130.417C99.4979 130.35 99.2762 130.028 99.3417 129.7C99.4073 129.372 99.7353 129.16 100.074 129.228C100.414 129.296 100.635 129.617 100.57 129.945C100.504 130.274 100.176 130.485 99.8371 130.417Z" fill="#EFEFF7"/>
<path d="M103.094 137.345C102.755 137.277 102.533 136.956 102.599 136.628C102.665 136.299 102.993 136.088 103.332 136.156C103.671 136.223 103.893 136.544 103.827 136.873C103.762 137.201 103.434 137.413 103.094 137.345Z" fill="#EFEFF7"/>
<path d="M108.614 132.843C108.275 132.775 108.054 132.454 108.119 132.126C108.185 131.797 108.513 131.586 108.852 131.654C109.191 131.721 109.413 132.043 109.347 132.371C109.282 132.699 108.954 132.911 108.614 132.843Z" fill="#EFEFF7"/>
<path d="M111.835 127.507C111.496 127.439 111.274 127.118 111.34 126.79C111.405 126.461 111.733 126.25 112.072 126.318C112.412 126.385 112.633 126.707 112.568 127.035C112.502 127.363 112.174 127.575 111.835 127.507Z" fill="#EFEFF7"/>
<path d="M115.15 118.314C114.811 118.246 114.589 117.925 114.655 117.597C114.72 117.268 115.048 117.057 115.387 117.124C115.727 117.192 115.948 117.513 115.883 117.842C115.817 118.17 115.489 118.381 115.15 118.314Z" fill="#EFEFF7"/>
<path d="M119.613 112.316C119.274 112.248 119.053 111.927 119.118 111.598C119.184 111.27 119.512 111.059 119.851 111.126C120.19 111.194 120.412 111.515 120.346 111.844C120.281 112.172 119.953 112.383 119.613 112.316Z" fill="#EFEFF7"/>
<path d="M104.186 134.491C103.527 134.359 103.099 133.718 103.23 133.058C103.362 132.399 104.003 131.971 104.663 132.102C105.322 132.234 105.75 132.875 105.619 133.535C105.487 134.194 104.846 134.622 104.186 134.491Z" fill="#EFEFF7"/>
<path d="M110.348 135.411C109.688 135.279 109.26 134.638 109.392 133.978C109.524 133.319 110.165 132.891 110.824 133.022C111.484 133.154 111.912 133.795 111.78 134.455C111.649 135.114 111.007 135.542 110.348 135.411Z" fill="#EFEFF7"/>
<path d="M115.039 133.207C114.38 133.076 113.952 132.434 114.083 131.775C114.215 131.115 114.856 130.688 115.516 130.819C116.175 130.951 116.603 131.592 116.472 132.252C116.34 132.911 115.699 133.339 115.039 133.207Z" fill="#EFEFF7"/>
<path d="M115.681 138.631C115.021 138.5 114.593 137.858 114.725 137.199C114.857 136.539 115.498 136.111 116.157 136.243C116.817 136.375 117.245 137.016 117.113 137.676C116.982 138.335 116.34 138.763 115.681 138.631Z" fill="#EFEFF7"/>
<path d="M101.606 145.249C100.947 145.117 100.519 144.476 100.651 143.816C100.782 143.156 101.424 142.729 102.083 142.86C102.743 142.992 103.171 143.633 103.039 144.293C102.907 144.952 102.266 145.38 101.606 145.249Z" fill="#EFEFF7"/>
<path d="M118.59 134.865C117.066 134.561 116.077 133.079 116.382 131.555C116.686 130.031 118.168 129.042 119.692 129.347C121.216 129.651 122.205 131.133 121.9 132.657C121.596 134.181 120.114 135.17 118.59 134.865Z" fill="#EFEFF7"/>
<path d="M109.877 139.518C108.353 139.214 107.364 137.732 107.669 136.208C107.973 134.684 109.455 133.695 110.979 133.999C112.503 134.303 113.492 135.785 113.187 137.309C112.883 138.833 111.401 139.822 109.877 139.518Z" fill="#EFEFF7"/>
<path d="M121.844 114.649C120.554 114.391 119.717 113.137 119.975 111.847C120.232 110.558 121.486 109.721 122.776 109.978C124.066 110.236 124.903 111.49 124.645 112.78C124.388 114.069 123.134 114.906 121.844 114.649Z" fill="#EFEFF7"/>
<path d="M107.845 125.635C107.073 125.481 106.573 124.731 106.727 123.959C106.881 123.188 107.631 122.687 108.402 122.841C109.174 122.995 109.674 123.745 109.52 124.517C109.366 125.288 108.616 125.789 107.845 125.635Z" fill="#EFEFF7"/>
<path d="M122.396 110.072C121.625 109.918 121.125 109.168 121.278 108.397C121.432 107.625 122.183 107.125 122.954 107.279C123.725 107.433 124.226 108.183 124.072 108.954C123.918 109.726 123.168 110.226 122.396 110.072Z" fill="#EFEFF7"/>
<path d="M108.58 127.197C107.809 127.043 107.308 126.293 107.462 125.522C107.616 124.75 108.366 124.25 109.138 124.404C109.909 124.558 110.409 125.308 110.255 126.079C110.101 126.851 109.351 127.351 108.58 127.197Z" fill="#EFEFF7"/>
<path d="M115.396 124.074C114.625 123.92 114.125 123.17 114.278 122.399C114.432 121.627 115.183 121.127 115.954 121.281C116.725 121.435 117.226 122.185 117.072 122.956C116.918 123.728 116.168 124.228 115.396 124.074Z" fill="#EFEFF7"/>
<path d="M129.396 120.072C128.625 119.918 128.125 119.168 128.278 118.397C128.432 117.625 129.183 117.125 129.954 117.279C130.725 117.433 131.226 118.183 131.072 118.954C130.918 119.726 130.168 120.226 129.396 120.072Z" fill="#EFEFF7"/>
<path d="M79.5411 147.547C78.538 147.347 77.5625 147.997 77.3622 149.001C77.162 150.004 77.8129 150.979 78.816 151.179C79.8191 151.38 80.7946 150.729 80.9949 149.726C81.1951 148.722 80.5442 147.747 79.5411 147.547Z" fill="#EFEFF7"/>
<path d="M83.2169 155.365C82.2138 155.165 81.2383 155.816 81.038 156.819C80.8378 157.822 81.4887 158.798 82.4918 158.998C83.4949 159.198 84.4704 158.547 84.6706 157.544C84.8709 156.541 84.22 155.565 83.2169 155.365Z" fill="#EFEFF7"/>
<path d="M85.0611 143.041C84.058 142.841 83.0825 143.492 82.8823 144.495C82.682 145.498 83.3329 146.473 84.336 146.674C85.3392 146.874 86.3147 146.223 86.5149 145.22C86.7151 144.217 86.0642 143.241 85.0611 143.041Z" fill="#EFEFF7"/>
<path d="M98.9175 138.276C98.258 138.144 97.8301 137.503 97.9617 136.843C98.0934 136.184 98.7347 135.756 99.3942 135.888C100.054 136.019 100.482 136.661 100.35 137.32C100.218 137.98 99.577 138.407 98.9175 138.276Z" fill="#EFEFF7"/>
<path d="M96.4317 145.174C95.7722 145.043 95.3443 144.401 95.4759 143.742C95.6075 143.082 96.2489 142.654 96.9084 142.786C97.5679 142.918 97.9958 143.559 97.8642 144.218C97.7325 144.878 97.0912 145.306 96.4317 145.174Z" fill="#EFEFF7"/>
<path d="M78.8371 145.417C78.4979 145.35 78.2762 145.028 78.3417 144.7C78.4073 144.372 78.7353 144.16 79.0744 144.228C79.4136 144.296 79.6353 144.617 79.5698 144.945C79.5042 145.274 79.1762 145.485 78.8371 145.417Z" fill="#EFEFF7"/>
<path d="M82.0944 152.345C81.7553 152.277 81.5335 151.956 81.599 151.628C81.6646 151.299 81.9926 151.088 82.3318 151.156C82.6709 151.223 82.8927 151.544 82.8271 151.873C82.7616 152.201 82.4335 152.413 82.0944 152.345Z" fill="#EFEFF7"/>
<path d="M87.6144 147.843C87.2753 147.775 87.0535 147.454 87.1191 147.126C87.1846 146.797 87.5127 146.586 87.8518 146.654C88.1909 146.721 88.4127 147.043 88.3471 147.371C88.2816 147.699 87.9535 147.911 87.6144 147.843Z" fill="#EFEFF7"/>
<path d="M90.8351 142.507C90.496 142.439 90.2742 142.118 90.3398 141.79C90.4053 141.461 90.7334 141.25 91.0725 141.318C91.4116 141.385 91.6334 141.707 91.5678 142.035C91.5023 142.363 91.1742 142.575 90.8351 142.507Z" fill="#EFEFF7"/>
<path d="M94.15 133.314C93.8109 133.246 93.5892 132.925 93.6547 132.597C93.7203 132.268 94.0483 132.057 94.3874 132.124C94.7266 132.192 94.9483 132.513 94.8828 132.842C94.8172 133.17 94.4892 133.381 94.15 133.314Z" fill="#EFEFF7"/>
<path d="M98.6134 127.316C98.2743 127.248 98.0525 126.927 98.1181 126.598C98.1836 126.27 98.5117 126.059 98.8508 126.126C99.1899 126.194 99.4117 126.515 99.3462 126.844C99.2806 127.172 98.9525 127.383 98.6134 127.316Z" fill="#EFEFF7"/>
<path d="M83.1861 149.491C82.5266 149.359 82.0986 148.718 82.2303 148.058C82.3619 147.399 83.0033 146.971 83.6628 147.102C84.3223 147.234 84.7502 147.875 84.6186 148.535C84.4869 149.194 83.8456 149.622 83.1861 149.491Z" fill="#EFEFF7"/>
<path d="M89.3477 150.411C88.6882 150.279 88.2603 149.638 88.3919 148.978C88.5235 148.319 89.1649 147.891 89.8244 148.022C90.4839 148.154 90.9118 148.795 90.7802 149.455C90.6486 150.114 90.0072 150.542 89.3477 150.411Z" fill="#EFEFF7"/>
<path d="M94.0391 148.207C93.3796 148.076 92.9517 147.434 93.0833 146.775C93.215 146.115 93.8563 145.688 94.5158 145.819C95.1753 145.951 95.6032 146.592 95.4716 147.252C95.34 147.911 94.6986 148.339 94.0391 148.207Z" fill="#EFEFF7"/>
<path d="M94.6807 153.631C94.0212 153.5 93.5933 152.858 93.7249 152.199C93.8566 151.539 94.4979 151.111 95.1574 151.243C95.8169 151.375 96.2448 152.016 96.1132 152.676C95.9816 153.335 95.3402 153.763 94.6807 153.631Z" fill="#EFEFF7"/>
<path d="M80.6065 160.249C79.947 160.117 79.5191 159.476 79.6507 158.816C79.7823 158.156 80.4237 157.729 81.0832 157.86C81.7427 157.992 82.1706 158.633 82.039 159.293C81.9073 159.952 81.266 160.38 80.6065 160.249Z" fill="#EFEFF7"/>
<path d="M97.5902 149.865C96.0662 149.561 95.0774 148.079 95.3815 146.555C95.6857 145.031 97.1678 144.042 98.6918 144.347C100.216 144.651 101.205 146.133 100.9 147.657C100.596 149.181 99.1142 150.17 97.5902 149.865Z" fill="#EFEFF7"/>
<path d="M88.8773 154.518C87.3533 154.214 86.3645 152.732 86.6687 151.208C86.9728 149.684 88.4549 148.695 89.9789 148.999C91.5028 149.303 92.4917 150.785 92.1875 152.309C91.8833 153.833 90.4013 154.822 88.8773 154.518Z" fill="#EFEFF7"/>
<path d="M100.844 129.649C99.554 129.391 98.7172 128.137 98.9746 126.847C99.2321 125.558 100.486 124.721 101.776 124.978C103.066 125.236 103.903 126.49 103.645 127.78C103.388 129.069 102.134 129.906 100.844 129.649Z" fill="#EFEFF7"/>
<path d="M86.8446 140.635C86.0732 140.481 85.5727 139.731 85.7267 138.959C85.8807 138.188 86.6308 137.687 87.4022 137.841C88.1735 137.995 88.674 138.745 88.52 139.517C88.3661 140.288 87.616 140.789 86.8446 140.635Z" fill="#EFEFF7"/>
<path d="M101.396 125.072C100.625 124.918 100.125 124.168 100.278 123.397C100.432 122.625 101.183 122.125 101.954 122.279C102.725 122.433 103.226 123.183 103.072 123.954C102.918 124.726 102.168 125.226 101.396 125.072Z" fill="#EFEFF7"/>
<path d="M87.58 142.197C86.8086 142.043 86.3081 141.293 86.4621 140.522C86.616 139.75 87.3662 139.25 88.1375 139.404C88.9089 139.558 89.4094 140.308 89.2554 141.079C89.1014 141.851 88.3513 142.351 87.58 142.197Z" fill="#EFEFF7"/>
<path d="M94.3964 139.074C93.625 138.92 93.1245 138.17 93.2785 137.399C93.4324 136.627 94.1826 136.127 94.9539 136.281C95.7253 136.435 96.2258 137.185 96.0718 137.956C95.9178 138.728 95.1677 139.228 94.3964 139.074Z" fill="#EFEFF7"/>
<path d="M108.396 135.072C107.625 134.918 107.125 134.168 107.278 133.397C107.432 132.625 108.183 132.125 108.954 132.279C109.725 132.433 110.226 133.183 110.072 133.954C109.918 134.726 109.168 135.226 108.396 135.072Z" fill="#EFEFF7"/>
<path d="M57.5411 162.547C56.538 162.347 55.5625 162.997 55.3622 164.001C55.162 165.004 55.8129 165.979 56.816 166.179C57.8191 166.38 58.7946 165.729 58.9949 164.726C59.1951 163.722 58.5442 162.747 57.5411 162.547Z" fill="#EFEFF7"/>
<path d="M61.2169 170.365C60.2138 170.165 59.2383 170.816 59.038 171.819C58.8378 172.822 59.4887 173.798 60.4918 173.998C61.4949 174.198 62.4704 173.547 62.6706 172.544C62.8709 171.541 62.22 170.565 61.2169 170.365Z" fill="#EFEFF7"/>
<path d="M63.0611 158.041C62.058 157.841 61.0825 158.492 60.8823 159.495C60.682 160.498 61.3329 161.473 62.336 161.674C63.3392 161.874 64.3147 161.223 64.5149 160.22C64.7151 159.217 64.0642 158.241 63.0611 158.041Z" fill="#EFEFF7"/>
<path d="M76.9175 153.276C76.258 153.144 75.8301 152.503 75.9617 151.843C76.0934 151.184 76.7347 150.756 77.3942 150.888C78.0537 151.019 78.4817 151.661 78.35 152.32C78.2184 152.98 77.577 153.407 76.9175 153.276Z" fill="#EFEFF7"/>
<path d="M74.4317 160.174C73.7722 160.043 73.3443 159.401 73.4759 158.742C73.6075 158.082 74.2489 157.654 74.9084 157.786C75.5679 157.918 75.9958 158.559 75.8642 159.218C75.7325 159.878 75.0912 160.306 74.4317 160.174Z" fill="#EFEFF7"/>
<path d="M56.8371 160.417C56.4979 160.35 56.2762 160.028 56.3417 159.7C56.4073 159.372 56.7353 159.16 57.0744 159.228C57.4136 159.296 57.6353 159.617 57.5698 159.945C57.5042 160.274 57.1762 160.485 56.8371 160.417Z" fill="#EFEFF7"/>
<path d="M60.0944 167.345C59.7553 167.277 59.5335 166.956 59.599 166.628C59.6646 166.299 59.9926 166.088 60.3318 166.156C60.6709 166.223 60.8927 166.544 60.8271 166.873C60.7616 167.201 60.4335 167.413 60.0944 167.345Z" fill="#EFEFF7"/>
<path d="M65.6144 162.843C65.2753 162.775 65.0535 162.454 65.1191 162.126C65.1846 161.797 65.5127 161.586 65.8518 161.654C66.1909 161.721 66.4127 162.043 66.3471 162.371C66.2816 162.699 65.9535 162.911 65.6144 162.843Z" fill="#EFEFF7"/>
<path d="M68.8351 157.507C68.496 157.439 68.2742 157.118 68.3398 156.79C68.4053 156.461 68.7334 156.25 69.0725 156.318C69.4116 156.385 69.6334 156.707 69.5678 157.035C69.5023 157.363 69.1742 157.575 68.8351 157.507Z" fill="#EFEFF7"/>
<path d="M72.15 148.314C71.8109 148.246 71.5892 147.925 71.6547 147.597C71.7203 147.268 72.0483 147.057 72.3874 147.124C72.7266 147.192 72.9483 147.513 72.8828 147.842C72.8172 148.17 72.4892 148.381 72.15 148.314Z" fill="#EFEFF7"/>
<path d="M76.6134 142.316C76.2743 142.248 76.0525 141.927 76.1181 141.598C76.1836 141.27 76.5117 141.059 76.8508 141.126C77.1899 141.194 77.4117 141.515 77.3462 141.844C77.2806 142.172 76.9525 142.383 76.6134 142.316Z" fill="#EFEFF7"/>
<path d="M61.1861 164.491C60.5266 164.359 60.0986 163.718 60.2303 163.058C60.3619 162.399 61.0033 161.971 61.6628 162.102C62.3223 162.234 62.7502 162.875 62.6186 163.535C62.4869 164.194 61.8456 164.622 61.1861 164.491Z" fill="#EFEFF7"/>
<path d="M67.3477 165.411C66.6882 165.279 66.2603 164.638 66.3919 163.978C66.5235 163.319 67.1649 162.891 67.8244 163.022C68.4839 163.154 68.9118 163.795 68.7802 164.455C68.6486 165.114 68.0072 165.542 67.3477 165.411Z" fill="#EFEFF7"/>
<path d="M72.0391 163.207C71.3796 163.076 70.9517 162.434 71.0833 161.775C71.215 161.115 71.8563 160.688 72.5158 160.819C73.1753 160.951 73.6032 161.592 73.4716 162.252C73.34 162.911 72.6986 163.339 72.0391 163.207Z" fill="#EFEFF7"/>
<path d="M72.6807 168.631C72.0212 168.5 71.5933 167.858 71.7249 167.199C71.8566 166.539 72.4979 166.111 73.1574 166.243C73.8169 166.375 74.2448 167.016 74.1132 167.676C73.9816 168.335 73.3402 168.763 72.6807 168.631Z" fill="#EFEFF7"/>
<path d="M58.6065 175.249C57.947 175.117 57.5191 174.476 57.6507 173.816C57.7823 173.156 58.4237 172.729 59.0832 172.86C59.7427 172.992 60.1706 173.633 60.039 174.293C59.9073 174.952 59.266 175.38 58.6065 175.249Z" fill="#EFEFF7"/>
<path d="M75.5902 164.865C74.0662 164.561 73.0774 163.079 73.3815 161.555C73.6857 160.031 75.1678 159.042 76.6918 159.347C78.2157 159.651 79.2046 161.133 78.9004 162.657C78.5962 164.181 77.1142 165.17 75.5902 164.865Z" fill="#EFEFF7"/>
<path d="M66.8773 169.518C65.3533 169.214 64.3645 167.732 64.6687 166.208C64.9728 164.684 66.4549 163.695 67.9789 163.999C69.5028 164.303 70.4917 165.785 70.1875 167.309C69.8833 168.833 68.4013 169.822 66.8773 169.518Z" fill="#EFEFF7"/>
<path d="M78.8438 144.649C77.554 144.391 76.7172 143.137 76.9746 141.847C77.2321 140.558 78.4863 139.721 79.776 139.978C81.0658 140.236 81.9026 141.49 81.6452 142.78C81.3878 144.069 80.1335 144.906 78.8438 144.649Z" fill="#EFEFF7"/>
<path d="M64.8446 155.635C64.0732 155.481 63.5727 154.731 63.7267 153.959C63.8807 153.188 64.6308 152.687 65.4022 152.841C66.1735 152.995 66.674 153.745 66.52 154.517C66.3661 155.288 65.616 155.789 64.8446 155.635Z" fill="#EFEFF7"/>
<path d="M79.3964 140.072C78.625 139.918 78.1245 139.168 78.2785 138.397C78.4324 137.625 79.1826 137.125 79.9539 137.279C80.7253 137.433 81.2258 138.183 81.0718 138.954C80.9178 139.726 80.1677 140.226 79.3964 140.072Z" fill="#EFEFF7"/>
<path d="M65.58 157.197C64.8086 157.043 64.3081 156.293 64.4621 155.522C64.616 154.75 65.3662 154.25 66.1375 154.404C66.9089 154.558 67.4094 155.308 67.2554 156.079C67.1014 156.851 66.3513 157.351 65.58 157.197Z" fill="#EFEFF7"/>
<path d="M72.3964 154.074C71.625 153.92 71.1245 153.17 71.2785 152.399C71.4324 151.627 72.1826 151.127 72.9539 151.281C73.7253 151.435 74.2258 152.185 74.0718 152.956C73.9178 153.728 73.1677 154.228 72.3964 154.074Z" fill="#EFEFF7"/>
<path d="M86.3964 150.072C85.625 149.918 85.1245 149.168 85.2785 148.397C85.4324 147.625 86.1826 147.125 86.9539 147.279C87.7253 147.433 88.2258 148.183 88.0718 148.954C87.9178 149.726 87.1677 150.226 86.3964 150.072Z" fill="#EFEFF7"/>
<path d="M78.4104 72.7993C78.4104 72.7993 67.42 54.7862 82.6813 50.7485C97.9426 46.7108 87.7483 32.7265 87.7483 32.7265L97.8699 30.1646C97.8699 30.1646 109.086 54.0122 84.447 57.7285C84.447 57.7285 77.4186 61.2576 86.9846 71.4549L78.4104 72.7993Z" fill="white" stroke="#525375" stroke-miterlimit="10" stroke-linecap="round" stroke-linejoin="round"/>
<path d="M123.424 90.0367C123.424 90.0367 144.081 94.3779 144.349 79.7694C144.618 65.161 151.309 56.0785 162.8 59.0678L157.738 68.5436C157.738 68.5436 148.745 68.271 150.771 77.5215C152.797 86.772 144.221 104.506 121.995 94.522L123.424 90.0367Z" fill="white" stroke="#525375" stroke-miterlimit="10" stroke-linecap="round" stroke-linejoin="round"/>
<path d="M146.999 13.9667C146.999 13.9667 125.52 9.64098 129.071 28.2349C132.623 46.8289 131.29 45.4253 119.333 47.7201C107.377 50.0149 118.838 68.7832 118.838 68.7832L124.506 63.9382C124.506 63.9382 116.432 57.5478 122.391 53.6284C128.347 49.7209 137.967 53.2958 138.154 45.3975C138.346 37.5065 131.977 24.7919 135.673 23.0934C139.37 21.3949 145.922 21.7698 145.922 21.7698L146.999 13.9667Z" fill="white" stroke="#525375" stroke-miterlimit="10" stroke-linecap="round" stroke-linejoin="round"/>
<path d="M54.8613 79.0493C54.2496 79.3922 53.653 79.7764 53.0954 80.2077C49.3373 83.0675 48.6674 86.3712 48.613 91.5972C86.5806 113.081 99.6754 137.068 104.137 149.813C108.947 146.534 112.967 143.788 116.334 141.45C108.474 113.054 72.3144 89.1513 54.8613 79.0493Z" fill="#525375" stroke="#525375" stroke-miterlimit="10" stroke-linecap="round" stroke-linejoin="round"/>
<path d="M47.4562 117.588C47.01 120.644 46.416 123.972 45.6133 127.59C45.3919 128.606 45.1512 129.623 44.906 130.633C62.9353 144.27 71.3185 159.755 75.1003 169.574C78.2658 167.47 81.7071 165.138 85.4673 162.58C79.8152 139.863 60.7306 125.26 47.4562 117.588Z" fill="#525375" stroke="#525375" stroke-miterlimit="10" stroke-linecap="round" stroke-linejoin="round"/>
<path d="M38.7317 156.509C37.4672 164.569 37.5541 172.219 40.8674 179.277C41.5915 180.829 42.182 181.714 43.1363 182.448C46.1468 184.741 50.7137 183.888 58.0766 180.043C53.3379 167.609 44.8335 160.348 38.7317 156.509Z" fill="#525375" stroke="#525375" stroke-miterlimit="10" stroke-linecap="round" stroke-linejoin="round"/>
<path d="M173.236 34.8954C173.236 34.8954 167.249 31.2294 165.667 32.5391C164.084 33.8488 166.971 40.2566 166.971 40.2566C166.971 40.2566 162.846 44.3927 162.954 45.683C163.067 46.9807 170.252 46.3322 170.252 46.3322C170.252 46.3322 172.556 51.2222 173.357 51.837C174.158 52.4518 177.535 46.393 177.008 44.4167C177.008 44.4167 179.997 43.8682 183.329 42.3519C186.66 40.8356 178.547 37.8699 178.547 37.8699C178.547 37.8699 180.199 33.036 179.725 31.2801C179.244 29.5288 173.236 34.8954 173.236 34.8954Z" fill="#525375" stroke="#525375" stroke-miterlimit="10" stroke-linecap="round" stroke-linejoin="round"/>
<path d="M55.8239 39.2684C55.8239 39.2684 52.6244 37.3133 51.7749 38.0138C50.9254 38.7143 52.4664 42.1369 52.4664 42.1369C52.4664 42.1369 50.2568 44.3454 50.3223 45.0342C50.3879 45.723 54.2256 45.3857 54.2256 45.3857C54.2256 45.3857 55.4585 48.0043 55.8894 48.3285C56.3129 48.6572 58.1179 45.42 57.8392 44.3653C57.8392 44.3653 59.4331 44.071 61.2162 43.2563C62.9994 42.4417 58.6589 40.8588 58.6589 40.8588C58.6589 40.8588 59.5444 38.2738 59.2873 37.3375C59.0301 36.4012 55.8239 39.2684 55.8239 39.2684Z" fill="white" stroke="#525375" stroke-miterlimit="10" stroke-linecap="round" stroke-linejoin="round"/>
<path d="M124.694 7.05862C124.694 7.05862 115.747 -1.9576 110.871 9.31784C105.994 20.5933 118.413 16.8628 121.537 13.8435C124.66 10.8242 124.694 7.05862 124.694 7.05862Z" fill="white" stroke="#525375" stroke-miterlimit="10" stroke-linecap="round" stroke-linejoin="round"/>
<path d="M103.319 62.7134C103.319 62.7134 97.5122 63.8268 99.2293 67.6379C100.946 71.4489 103.951 68.4009 103.951 68.4009C103.951 68.4009 108.055 65.4924 103.319 62.7134Z" fill="#525375" stroke="#525375" stroke-miterlimit="10" stroke-linecap="round" stroke-linejoin="round"/>
<path d="M173.491 83.5477L166.564 93.7869L179.779 93.8525L173.491 83.5477Z" fill="#525375" stroke="#525375" stroke-miterlimit="10" stroke-linecap="round" stroke-linejoin="round"/>
</svg>
