<svg width="221" height="90" viewBox="0 0 221 90" fill="none" xmlns="http://www.w3.org/2000/svg">
<path d="M111.129 24.8508C111.129 24.8508 94.3623 13.5534 81.621 24.1875C81.621 24.1875 60.8283 12.8848 49.4254 23.5242C49.4254 23.5242 27.2942 14.88 20.5916 23.5242C18.3871 22.98 16.2491 22.1989 14.2157 21.1947C8.77087 18.4312 4.19865 14.2352 1.00021 9.0667C1.07007 13.196 2.15532 17.2461 4.16182 20.8656C5.34831 22.9384 6.81638 24.84 8.52484 26.517C11.9011 29.8015 16.0502 32.1997 20.5969 33.4949C20.5378 33.9638 20.3856 34.4165 20.149 34.8268C19.1584 36.5033 17.293 36.2422 16.3445 37.8718C16.218 38.0964 15.6648 39.0417 16.0653 39.9192C16.5184 40.9064 17.8358 41.0683 17.9675 41.0839C16.9136 41.951 16.6343 43.262 17.1296 44.129C17.762 45.2415 19.4165 45.1422 19.6431 45.1266C20.36 45.0766 21.0433 44.8064 21.5981 44.3536C21.3767 49.0439 21.1537 58.7341 20.9288 63.4244C20.9288 63.4244 18.3574 62.2075 18.1361 64.4221C17.9148 66.6367 19.4745 67.5246 21.0395 66.6367C21.496 66.3799 21.892 66.0294 22.201 65.6087C22.5099 65.1881 22.7247 64.7071 22.8311 64.1975C22.8311 64.1975 21.8773 68.8512 24.9388 68.8512C28.0003 68.8512 25.7766 65.1428 25.7766 65.1428C25.7766 65.1428 28.8486 68.9086 30.4716 67.232C32.0946 65.5554 26.6724 62.9073 26.6724 62.9073L27.6209 48.1612C31.0686 51.2886 34.8333 54.0541 38.8551 56.4136C44.4143 59.678 54.6947 64.6451 56.46 62.3992C56.8235 61.9291 56.9869 60.9315 55.6221 58.4767C83.6111 62.6175 112.098 62.1445 139.931 57.077L140.938 66.0553C140.938 66.0553 136.686 65.3868 136.802 68.2699C136.917 71.153 141.828 67.8259 141.828 67.8259C141.828 67.8259 140.042 72.4797 143.504 71.5918C146.966 70.7039 143.841 67.7162 143.841 67.7162C143.841 67.7162 147.756 71.3724 149.638 69.5966C151.519 67.8207 145.728 66.0553 145.728 66.0553L145.391 57.3015C145.391 57.3015 159.365 61.7306 160.034 49.4356C160.034 49.4356 169.087 59.4064 169.756 46.4428L173.297 41.4287C173.484 41.5002 173.685 41.5332 173.885 41.5255C174.086 41.5179 174.283 41.4699 174.464 41.3844C174.646 41.2989 174.808 41.1776 174.94 41.0281C175.073 40.8786 175.174 40.704 175.236 40.5147C175.279 40.2295 175.232 39.9381 175.102 39.6803C174.972 39.4224 174.765 39.2104 174.509 39.0732C176.264 39.1358 177.476 38.7492 177.581 38.1904C177.686 37.6315 176.859 37.1458 176.632 36.9683L191.555 31.1549C191.555 31.1549 186.191 21.5133 167.074 21.179C167.074 21.179 168.08 10.8791 162.379 10.5449C162.379 10.5449 164.392 2.89828 159.365 4.23016C159.365 4.23016 156.345 -1.75541 151.65 2.56927C146.956 6.89394 143.936 3.56691 139.578 11.8768C135.221 20.1866 131.195 22.5108 131.195 22.5108C131.195 22.5108 118.506 14.2167 111.129 24.8508Z" fill="white" stroke="#525375" stroke-linecap="round" stroke-linejoin="round"/>
<path d="M161.12 37.5543C160.652 36.5376 159.446 36.0923 158.428 36.5597C157.41 37.0271 156.965 38.2303 157.434 39.247C157.902 40.2637 159.108 40.709 160.126 40.2416C161.144 39.7741 161.589 38.571 161.12 37.5543Z" fill="#EFEFF7"/>
<path d="M119.105 51.7262C118.637 50.7095 117.431 50.2642 116.413 50.7316C115.395 51.199 114.95 52.4021 115.418 53.4188C115.887 54.4356 117.092 54.8809 118.111 54.4134C119.129 53.946 119.574 52.7429 119.105 51.7262Z" fill="#EFEFF7"/>
<path d="M123.225 63.9254C122.757 62.9087 121.551 62.4634 120.533 62.9308C119.515 63.3982 119.07 64.6013 119.539 65.6181C120.007 66.6348 121.213 67.0801 122.231 66.6127C123.249 66.1452 123.694 64.9421 123.225 63.9254Z" fill="#EFEFF7"/>
<path d="M144.37 54.6349C144.062 53.9665 144.355 53.1755 145.024 52.8682C145.694 52.5609 146.486 52.8537 146.794 53.5221C147.102 54.1905 146.809 54.9815 146.14 55.2888C145.471 55.5962 144.678 55.3034 144.37 54.6349Z" fill="#EFEFF7"/>
<path d="M136.653 56.8693C136.345 56.2009 136.638 55.4099 137.307 55.1026C137.977 54.7953 138.769 55.088 139.077 55.7565C139.385 56.4249 139.093 57.2159 138.423 57.5232C137.754 57.8305 136.961 57.5378 136.653 56.8693Z" fill="#EFEFF7"/>
<path d="M156.872 42.3576C156.714 42.0139 156.856 41.6112 157.189 41.4582C157.522 41.3051 157.921 41.4597 158.079 41.8034C158.238 42.1471 158.096 42.5498 157.763 42.7029C157.429 42.8559 157.031 42.7013 156.872 42.3576Z" fill="#EFEFF7"/>
<path d="M121.061 48.7892C120.903 48.4455 121.045 48.0428 121.378 47.8898C121.711 47.7368 122.11 47.8914 122.268 48.2351C122.427 48.5788 122.285 48.9815 121.952 49.1345C121.618 49.2875 121.22 49.1329 121.061 48.7892Z" fill="#EFEFF7"/>
<path d="M128.608 50.7812C128.449 50.4375 128.591 50.0348 128.924 49.8817C129.258 49.7287 129.656 49.8833 129.815 50.227C129.973 50.5707 129.831 50.9734 129.498 51.1264C129.165 51.2795 128.766 51.1249 128.608 50.7812Z" fill="#EFEFF7"/>
<path d="M146.287 68.1764C146.129 67.8327 146.271 67.43 146.604 67.277C146.937 67.124 147.336 67.2786 147.494 67.6223C147.653 67.966 147.511 68.3687 147.178 68.5217C146.844 68.6747 146.446 68.5201 146.287 68.1764Z" fill="#EFEFF7"/>
<path d="M135.413 50.2013C135.254 49.8576 135.396 49.4549 135.729 49.3019C136.063 49.1489 136.461 49.3035 136.62 49.6472C136.778 49.9909 136.637 50.3936 136.303 50.5466C135.97 50.6996 135.571 50.5451 135.413 50.2013Z" fill="#EFEFF7"/>
<path d="M145.698 47.2248C145.54 46.8811 145.682 46.4784 146.015 46.3254C146.348 46.1723 146.747 46.3269 146.905 46.6706C147.064 47.0143 146.922 47.417 146.589 47.57C146.256 47.7231 145.857 47.5685 145.698 47.2248Z" fill="#EFEFF7"/>
<path d="M153.891 47.3205C153.732 46.9768 153.874 46.5741 154.207 46.4211C154.541 46.268 154.939 46.4226 155.098 46.7663C155.256 47.11 155.115 47.5127 154.781 47.6657C154.448 47.8188 154.049 47.6642 153.891 47.3205Z" fill="#EFEFF7"/>
<path d="M151.664 52.256C151.356 51.5876 151.649 50.7966 152.318 50.4893C152.987 50.182 153.78 50.4747 154.088 51.1432C154.396 51.8116 154.103 52.6026 153.434 52.9099C152.765 53.2172 151.972 52.9245 151.664 52.256Z" fill="#EFEFF7"/>
<path d="M127.447 53.967C127.139 53.2985 127.432 52.5075 128.101 52.2002C128.771 51.8929 129.563 52.1857 129.871 52.8541C130.179 53.5226 129.887 54.3136 129.217 54.6209C128.548 54.9282 127.755 54.6354 127.447 53.967Z" fill="#EFEFF7"/>
<path d="M132.422 56.7014C132.114 56.0329 132.407 55.2419 133.076 54.9346C133.746 54.6273 134.538 54.9201 134.846 55.5885C135.154 56.2569 134.862 57.0479 134.192 57.3553C133.523 57.6626 132.731 57.3698 132.422 56.7014Z" fill="#EFEFF7"/>
<path d="M128.027 60.756C127.719 60.0876 128.012 59.2966 128.681 58.9893C129.35 58.682 130.143 58.9747 130.451 59.6432C130.759 60.3116 130.466 61.1026 129.797 61.4099C129.127 61.7172 128.335 61.4245 128.027 60.756Z" fill="#EFEFF7"/>
<path d="M113.096 52.5549C112.788 51.8864 113.08 51.0954 113.75 50.7881C114.419 50.4808 115.212 50.7736 115.52 51.442C115.828 52.1105 115.535 52.9015 114.866 53.2088C114.196 53.5161 113.404 53.2233 113.096 52.5549Z" fill="#EFEFF7"/>
<path d="M133.24 60.9095C132.528 59.3649 133.205 57.5371 134.752 56.8269C136.298 56.1168 138.129 56.7933 138.842 58.338C139.554 59.8826 138.877 61.7104 137.33 62.4205C135.784 63.1307 133.952 62.4542 133.24 60.9095Z" fill="#EFEFF7"/>
<path d="M123.504 56.1888C122.791 54.6442 123.468 52.8164 125.015 52.1062C126.562 51.3961 128.393 52.0726 129.105 53.6173C129.817 55.1619 129.14 56.9897 127.593 57.6998C126.047 58.41 124.216 57.7335 123.504 56.1888Z" fill="#EFEFF7"/>
<path d="M153.259 50.7938C152.657 49.4865 153.229 47.9396 154.538 47.3387C155.847 46.7377 157.397 47.3102 158 48.6174C158.602 49.9247 158.03 51.4716 156.721 52.0725C155.412 52.6735 153.862 52.101 153.259 50.7938Z" fill="#EFEFF7"/>
<path d="M164.725 39.5247C164.364 38.7429 164.707 37.8177 165.49 37.4583C166.273 37.0989 167.199 37.4413 167.56 38.2231C167.92 39.0049 167.578 39.93 166.795 40.2895C166.012 40.6489 165.085 40.3065 164.725 39.5247Z" fill="#EFEFF7"/>
<path d="M157.671 48.3411C157.311 47.5593 157.653 46.6341 158.436 46.2747C159.219 45.9153 160.146 46.2577 160.506 47.0395C160.867 47.8213 160.524 48.7464 159.741 49.1059C158.958 49.4653 158.032 49.1229 157.671 48.3411Z" fill="#EFEFF7"/>
<path d="M163.813 41.1809C163.452 40.3991 163.795 39.474 164.578 39.1145C165.36 38.7551 166.287 39.0975 166.648 39.8793C167.008 40.6611 166.666 41.5863 165.883 41.9457C165.1 42.3051 164.173 41.9627 163.813 41.1809Z" fill="#EFEFF7"/>
<path d="M140.75 51.1458C140.39 50.364 140.732 49.4388 141.515 49.0794C142.298 48.72 143.225 49.0624 143.585 49.8442C143.946 50.626 143.603 51.5511 142.82 51.9106C142.037 52.27 141.111 51.9276 140.75 51.1458Z" fill="#EFEFF7"/>
<path d="M171.941 36.3606C171.581 35.5788 171.923 34.6536 172.706 34.2942C173.489 33.9348 174.416 34.2772 174.776 35.059C175.137 35.8408 174.794 36.766 174.011 37.1254C173.228 37.4848 172.302 37.1424 171.941 36.3606Z" fill="#EFEFF7"/>
<path d="M98.828 48.8643C98.8316 47.745 97.9262 46.8358 96.8057 46.8336C95.6852 46.8313 94.7739 47.7369 94.7702 48.8562C94.7666 49.9755 95.672 50.8846 96.7925 50.8869C97.9131 50.8891 98.8244 49.9836 98.828 48.8643Z" fill="#EFEFF7"/>
<path d="M54.746 44.1165C54.7496 42.9972 53.8442 42.088 52.7236 42.0858C51.6031 42.0835 50.6918 42.9891 50.6882 44.1084C50.6846 45.2276 51.59 46.1368 52.7105 46.1391C53.831 46.1413 54.7423 45.2358 54.746 44.1165Z" fill="#EFEFF7"/>
<path d="M53.3407 56.917C53.3443 55.7978 52.4389 54.8886 51.3184 54.8863C50.1978 54.8841 49.2866 55.7896 49.2829 56.9089C49.2793 58.0282 50.1847 58.9374 51.3052 58.9396C52.4258 58.9419 53.3371 58.0363 53.3407 56.917Z" fill="#EFEFF7"/>
<path d="M76.4352 57.3465C76.4375 56.6107 77.0367 56.0153 77.7734 56.0168C78.5101 56.0183 79.1053 56.616 79.1029 57.3519C79.1006 58.0878 78.5014 58.6831 77.7647 58.6816C77.028 58.6802 76.4328 58.0824 76.4352 57.3465Z" fill="#EFEFF7"/>
<path d="M69.0045 57.3324C69.0069 56.5965 69.606 56.0011 70.3427 56.0026C71.0794 56.0041 71.6747 56.6019 71.6723 57.3377C71.6699 58.0736 71.0708 58.669 70.3341 58.6675C69.5974 58.666 69.0021 58.0683 69.0045 57.3324Z" fill="#EFEFF7"/>
<path d="M92.9501 51.4443C92.9514 51.0659 93.2497 50.7597 93.6166 50.7605C93.9834 50.7612 94.2798 51.0686 94.2786 51.4469C94.2774 51.8253 93.979 52.1315 93.6121 52.1307C93.2453 52.13 92.9489 51.8227 92.9501 51.4443Z" fill="#EFEFF7"/>
<path d="M116.006 54.747C116.007 54.3686 116.305 54.0625 116.672 54.0632C117.039 54.0639 117.335 54.3713 117.334 54.7497C117.333 55.1281 117.035 55.4342 116.668 55.4335C116.301 55.4327 116.005 55.1254 116.006 54.747Z" fill="#EFEFF7"/>
<path d="M58.0327 41.9401C58.0339 41.5617 58.3323 41.2556 58.6991 41.2563C59.0659 41.2571 59.3623 41.5644 59.3611 41.9428C59.3599 42.3212 59.0615 42.6273 58.6947 42.6266C58.3278 42.6259 58.0314 42.3185 58.0327 41.9401Z" fill="#EFEFF7"/>
<path d="M31.3002 44.5746C31.3015 44.1963 31.5998 43.8901 31.9667 43.8908C32.3335 43.8916 32.6299 44.1989 32.6287 44.5773C32.6275 44.9557 32.3291 45.2619 31.9622 45.2611C31.5954 45.2604 31.299 44.953 31.3002 44.5746Z" fill="#EFEFF7"/>
<path d="M41.1679 54.0934C41.1691 53.7151 41.4675 53.4089 41.8344 53.4096C42.2012 53.4104 42.4976 53.7177 42.4964 54.0961C42.4951 54.4745 42.1968 54.7807 41.8299 54.7799C41.4631 54.7792 41.1667 54.4718 41.1679 54.0934Z" fill="#EFEFF7"/>
<path d="M22.0024 62.6852C22.0036 62.3069 22.302 62.0007 22.6688 62.0014C23.0357 62.0022 23.3321 62.3095 23.3308 62.6879C23.3296 63.0663 23.0312 63.3724 22.6644 63.3717C22.2975 63.371 22.0012 63.0636 22.0024 62.6852Z" fill="#EFEFF7"/>
<path d="M24.0024 56.6852C24.0036 56.3069 24.302 56.0007 24.6688 56.0014C25.0357 56.0022 25.3321 56.3095 25.3308 56.6879C25.3296 57.0663 25.0312 57.3724 24.6644 57.3717C24.2975 57.371 24.0012 57.0636 24.0024 56.6852Z" fill="#EFEFF7"/>
<path d="M23.0024 53.6852C23.0036 53.3069 23.302 53.0007 23.6688 53.0014C24.0357 53.0022 24.3321 53.3095 24.3308 53.6879C24.3296 54.0663 24.0312 54.3724 23.6644 54.3717C23.2975 54.371 23.0012 54.0636 23.0024 53.6852Z" fill="#EFEFF7"/>
<path d="M23.0024 59.6852C23.0036 59.3069 23.302 59.0007 23.6688 59.0014C24.0357 59.0022 24.3321 59.3095 24.3308 59.6879C24.3296 60.0663 24.0312 60.3724 23.6644 60.3717C23.2975 60.371 23.0012 60.0636 23.0024 59.6852Z" fill="#EFEFF7"/>
<path d="M23.0042 58.3731C23.0067 57.6147 23.6047 57.0012 24.3398 57.0027C25.075 57.0041 25.669 57.6201 25.6666 58.3784C25.6641 59.1367 25.0661 59.7503 24.3309 59.7488C23.5958 59.7473 23.0018 59.1314 23.0042 58.3731Z" fill="#EFEFF7"/>
<path d="M63.7631 47.2421C63.7643 46.8637 64.0627 46.5576 64.4296 46.5583C64.7964 46.5591 65.0928 46.8664 65.0916 47.2448C65.0903 47.6232 64.792 47.9293 64.4251 47.9286C64.0583 47.9279 63.7619 47.6205 63.7631 47.2421Z" fill="#EFEFF7"/>
<path d="M31.9536 46.6623C31.9548 46.2839 32.2532 45.9777 32.62 45.9785C32.9868 45.9792 33.2832 46.2866 33.282 46.665C33.2808 47.0434 32.9824 47.3495 32.6156 47.3488C32.2487 47.348 31.9523 47.0407 31.9536 46.6623Z" fill="#EFEFF7"/>
<path d="M70.1791 49.569C70.1804 49.1906 70.4787 48.8845 70.8456 48.8852C71.2124 48.886 71.5088 49.1933 71.5076 49.5717C71.5064 49.9501 71.208 50.2562 70.8411 50.2555C70.4743 50.2548 70.1779 49.9474 70.1791 49.569Z" fill="#EFEFF7"/>
<path d="M80.7631 51.1791C80.7643 50.8008 81.0627 50.4946 81.4296 50.4953C81.7964 50.4961 82.0928 50.8034 82.0916 51.1818C82.0903 51.5602 81.792 51.8663 81.4251 51.8656C81.0583 51.8649 80.7619 51.5575 80.7631 51.1791Z" fill="#EFEFF7"/>
<path d="M110.058 57.7543C110.059 57.3759 110.357 57.0698 110.724 57.0705C111.091 57.0713 111.387 57.3786 111.386 57.757C111.385 58.1354 111.086 58.4415 110.72 58.4408C110.353 58.4401 110.056 58.1327 110.058 57.7543Z" fill="#EFEFF7"/>
<path d="M99.0024 58.6852C99.0036 58.3068 99.302 58.0007 99.6688 58.0014C100.036 58.0022 100.332 58.3095 100.331 58.6879C100.33 59.0663 100.031 59.3724 99.6644 59.3717C99.2975 59.371 99.0012 59.0636 99.0024 58.6852Z" fill="#EFEFF7"/>
<path d="M132.346 51.9262C132.347 51.5478 132.645 51.2417 133.012 51.2424C133.379 51.2431 133.675 51.5505 133.674 51.9289C133.673 52.3073 133.374 52.6134 133.008 52.6127C132.641 52.6119 132.344 52.3046 132.346 51.9262Z" fill="#EFEFF7"/>
<path d="M88.1537 54.6992C88.155 54.3208 88.4533 54.0146 88.8202 54.0154C89.187 54.0161 89.4834 54.3234 89.4822 54.7018C89.481 55.0802 89.1826 55.3864 88.8158 55.3856C88.4489 55.3849 88.1525 55.0775 88.1537 54.6992Z" fill="#EFEFF7"/>
<path d="M84.0543 58.2472C84.0567 57.5113 84.6558 56.9159 85.3925 56.9174C86.1292 56.9189 86.7245 57.5166 86.7221 58.2525C86.7197 58.9884 86.1206 59.5838 85.3839 59.5823C84.6472 59.5808 84.0519 58.9831 84.0543 58.2472Z" fill="#EFEFF7"/>
<path d="M34.0641 49.0838C34.0664 48.3479 34.6656 47.7526 35.4023 47.7541C36.139 47.7556 36.7342 48.3533 36.7319 49.0892C36.7295 49.8251 36.1303 50.4204 35.3936 50.419C34.657 50.4175 34.0617 49.8197 34.0641 49.0838Z" fill="#EFEFF7"/>
<path d="M61.3678 49.6471C61.3702 48.9112 61.9693 48.3158 62.706 48.3173C63.4427 48.3188 64.0379 48.9165 64.0356 49.6524C64.0332 50.3883 63.434 50.9837 62.6974 50.9822C61.9607 50.9807 61.3654 50.383 61.3678 49.6471Z" fill="#EFEFF7"/>
<path d="M64.7276 54.2157C64.73 53.4798 65.3292 52.8844 66.0658 52.8859C66.8025 52.8874 67.3978 53.4852 67.3954 54.221C67.393 54.9569 66.7939 55.5523 66.0572 55.5508C65.3205 55.5493 64.7253 54.9516 64.7276 54.2157Z" fill="#EFEFF7"/>
<path d="M59.0323 56.0531C59.0347 55.3172 59.6338 54.7218 60.3705 54.7233C61.1072 54.7248 61.7025 55.3226 61.7001 56.0584C61.6977 56.7943 61.0986 57.3897 60.3619 57.3882C59.6252 57.3867 59.0299 56.789 59.0323 56.0531Z" fill="#EFEFF7"/>
<path d="M48.9464 42.3497C48.9488 41.6138 49.5479 41.0185 50.2846 41.02C51.0213 41.0214 51.6166 41.6192 51.6142 42.3551C51.6118 43.0909 51.0127 43.6863 50.276 43.6848C49.5393 43.6833 48.944 43.0856 48.9464 42.3497Z" fill="#EFEFF7"/>
<path d="M26.5084 43.2845C26.5108 42.5486 27.1099 41.9533 27.8466 41.9548C28.5833 41.9562 29.1786 42.554 29.1762 43.2899C29.1738 44.0258 28.5747 44.6211 27.838 44.6196C27.1013 44.6182 26.506 44.0204 26.5084 43.2845Z" fill="#EFEFF7"/>
<path d="M66.0098 54.0791C66.0153 52.3786 67.3998 51.0028 69.1021 51.0063C70.8045 51.0097 72.18 52.391 72.1745 54.0914C72.169 55.7919 70.7845 57.1676 69.0822 57.1642C67.3799 57.1608 66.0043 55.7795 66.0098 54.0791Z" fill="#EFEFF7"/>
<path d="M56.8536 50.0124C56.8591 48.3119 58.2436 46.9362 59.9459 46.9396C61.6482 46.943 63.0238 48.3243 63.0183 50.0248C63.0128 51.7253 61.6283 53.101 59.926 53.0976C58.2236 53.0941 56.8481 51.7129 56.8536 50.0124Z" fill="#EFEFF7"/>
<path d="M86.117 57.5857C86.1216 56.1466 87.2933 54.9823 88.734 54.9852C90.1747 54.9881 91.3388 56.1571 91.3341 57.5962C91.3295 59.0353 90.1578 60.1996 88.7171 60.1967C87.2764 60.1938 86.1123 59.0248 86.117 57.5857Z" fill="#EFEFF7"/>
<path d="M138.02 49.7764C138.025 48.3373 139.197 47.173 140.637 47.1759C142.078 47.1788 143.242 48.3478 143.237 49.7869C143.233 51.226 142.061 52.3902 140.62 52.3873C139.18 52.3844 138.016 51.2155 138.02 49.7764Z" fill="#EFEFF7"/>
<path d="M36.1262 48.4224C36.1309 46.9833 37.3026 45.819 38.7433 45.8219C40.1839 45.8248 41.3481 46.9937 41.3434 48.4328C41.3387 49.872 40.1671 51.0362 38.7264 51.0333C37.2857 51.0304 36.1216 49.8615 36.1262 48.4224Z" fill="#EFEFF7"/>
<path d="M101.266 52.1638C101.268 51.3032 101.969 50.6068 102.831 50.6086C103.692 50.6103 104.389 51.3094 104.386 52.1701C104.383 53.0308 103.682 53.7271 102.821 53.7254C101.959 53.7236 101.263 53.0245 101.266 52.1638Z" fill="#EFEFF7"/>
<path d="M91.1529 57.211C91.1557 56.3503 91.8564 55.654 92.718 55.6557C93.5797 55.6574 94.2759 56.3565 94.2731 57.2172C94.2703 58.0779 93.5696 58.7742 92.708 58.7725C91.8463 58.7708 91.1501 58.0716 91.1529 57.211Z" fill="#EFEFF7"/>
<path d="M41.1626 48.0476C41.1654 47.1869 41.8662 46.4906 42.7278 46.4924C43.5894 46.4941 44.2857 47.1932 44.2829 48.0539C44.2801 48.9146 43.5793 49.6109 42.7177 49.6092C41.8561 49.6074 41.1599 48.9083 41.1626 48.0476Z" fill="#EFEFF7"/>
<path d="M99.7408 53.2857C99.7436 52.425 100.444 51.7287 101.306 51.7304C102.168 51.7321 102.864 52.4312 102.861 53.2919C102.858 54.1526 102.157 54.8489 101.296 54.8472C100.434 54.8455 99.738 54.1464 99.7408 53.2857Z" fill="#EFEFF7"/>
<path d="M114.414 56.117C114.417 55.2563 115.118 54.56 115.979 54.5617C116.841 54.5634 117.537 55.2625 117.534 56.1232C117.532 56.9839 116.831 57.6802 115.969 57.6785C115.108 57.6768 114.411 56.9777 114.414 56.117Z" fill="#EFEFF7"/>
<path d="M141.004 64.5584C141.007 63.6977 141.708 63.0014 142.57 63.0031C143.431 63.0048 144.127 63.704 144.125 64.5646C144.122 65.4253 143.421 66.1216 142.56 66.1199C141.698 66.1182 141.002 65.4191 141.004 64.5584Z" fill="#EFEFF7"/>
<path d="M74.6226 52.6646C74.6254 51.8039 75.3261 51.1076 76.1878 51.1093C77.0494 51.111 77.7456 51.8102 77.7428 52.6708C77.7401 53.5315 77.0393 54.2278 76.1777 54.2261C75.316 54.2244 74.6198 53.5253 74.6226 52.6646Z" fill="#EFEFF7"/>
<path d="M109.145 52.3176C109.148 51.457 109.849 50.7606 110.71 50.7624C111.572 50.7641 112.268 51.4632 112.265 52.3239C112.263 53.1846 111.562 53.8809 110.7 53.8792C109.839 53.8775 109.142 53.1783 109.145 52.3176Z" fill="#EFEFF7"/>
<path d="M123.818 55.149C123.821 54.2883 124.522 53.5919 125.384 53.5937C126.245 53.5954 126.941 54.2945 126.939 55.1552C126.936 56.0159 126.235 56.7122 125.373 56.7105C124.512 56.7088 123.816 56.0096 123.818 55.149Z" fill="#EFEFF7"/>
<path d="M196.14 30.9198C194.822 28.7575 191.724 28.9717 191.276 29.0082C190.828 29.0448 188.741 29.2223 188.425 30.2565C188.109 31.2906 189.927 32.7792 191.107 33.3903C192.815 34.2991 195.623 34.8632 196.477 33.641C197.172 32.6591 196.182 30.9929 196.14 30.9198Z" fill="#525375" stroke="#525375" stroke-linecap="round" stroke-linejoin="round"/>
<path d="M141.53 18.3627C141.53 18.3627 140.76 49.5965 130.991 56.0104C121.222 62.4243 103.996 62.4451 104.739 68.671C105.482 74.8969 138.99 76.8138 146.678 54.6159C154.366 32.4179 144.011 17.7568 144.011 17.7568L141.53 18.3627Z" fill="#525375" stroke="#525375" stroke-linecap="round" stroke-linejoin="round"/>
<path d="M167.996 21.1636C170.221 18.9806 167.18 8.87322 160.363 7.84442C157.634 7.4329 154.33 8.48182 152.718 10.7753C150.07 14.5492 153.148 20.0346 156.403 22.2528C157.091 22.7195 158.971 23.9941 161.158 23.7181C161.749 23.6429 161.969 23.5074 163.892 22.7596C167.497 21.3695 167.663 21.4899 167.996 21.1636Z" fill="white" stroke="#525375" stroke-linecap="round" stroke-linejoin="round"/>
<path d="M161.22 9.53686C163.643 10.0174 164.908 12.0334 165.577 13.1459C167.032 15.5067 167.833 19.1473 166.394 20.4165C165.793 20.9388 165.34 20.5992 163.111 21.5289C161.883 22.0512 161.731 22.2707 161.098 22.3594C159.565 22.5788 158.237 21.5655 157.652 21.1215C157.394 20.9283 152.667 17.2252 154.438 13.0729C155.014 11.8227 155.993 10.7972 157.22 10.1574C158.447 9.51746 159.854 9.29927 161.22 9.53686Z" fill="white" stroke="#525375" stroke-linecap="round" stroke-linejoin="round"/>
<path d="M158.716 18.1914C159.258 17.5914 159.935 16.4821 160.716 16.2568C161.496 16.0316 162.349 16.6994 163.131 16.9169" stroke="#525375" stroke-linecap="round" stroke-linejoin="round"/>
<path d="M188.425 60.8633C184.6 61.075 180.874 62.1467 177.528 63.9972C174.188 65.8148 172.517 66.7235 172.501 67.8203C172.454 71.0795 184.294 75.3938 195.802 74.3022C202.811 73.6389 211.442 70.8027 211.394 67.9875C211.336 64.0337 194.216 61.2916 193.479 61.1976C191.811 60.912 190.117 60.8001 188.425 60.8633Z" fill="white" stroke="#525375" stroke-linecap="round" stroke-linejoin="round"/>
<path d="M187.588 65.5174C189.142 65.1414 191.071 64.9324 194.438 65.3503C195.239 65.4495 204.165 66.5412 204.16 68.176C204.16 69.5653 197.715 70.9441 192.088 70.8344C187.909 70.7509 182.292 69.79 182.197 68.3379C182.144 67.1419 185.817 65.9405 187.588 65.5174Z" fill="#525375" stroke="#525375" stroke-linecap="round" stroke-linejoin="round"/>
<path d="M174.135 26.6579C174.254 26.5868 174.388 26.5423 174.526 26.5275C174.664 26.5127 174.804 26.5279 174.936 26.5721C175.068 26.6163 175.189 26.6886 175.29 26.7836C175.391 26.8787 175.469 26.9944 175.521 27.1227C175.581 27.3207 175.57 27.5334 175.489 27.7241C175.408 27.9148 175.263 28.0716 175.078 28.1673C174.965 28.2112 174.844 28.2325 174.723 28.2299C174.601 28.2274 174.482 28.2011 174.37 28.1525C174.259 28.104 174.159 28.0342 174.075 27.9471C173.991 27.86 173.926 27.7573 173.882 27.645C173.811 27.4754 173.797 27.2877 173.843 27.1098C173.889 26.9319 173.991 26.7734 174.135 26.6579Z" fill="white" stroke="#525375" stroke-linecap="round" stroke-linejoin="round"/>
<path d="M175.204 30.5857C175.257 30.4407 175.356 30.3168 175.487 30.2335C175.618 30.1501 175.772 30.1118 175.927 30.1244C176.082 30.1371 176.228 30.2 176.343 30.3035C176.459 30.4069 176.536 30.5452 176.564 30.6967C176.592 30.8483 176.568 31.0047 176.497 31.1418C176.426 31.2788 176.312 31.3887 176.171 31.4546C176.031 31.5204 175.872 31.5385 175.72 31.5061C175.568 31.4736 175.432 31.3924 175.331 31.275C175.248 31.1826 175.192 31.0695 175.17 30.9479C175.148 30.8263 175.16 30.701 175.204 30.5857Z" fill="white" stroke="#525375" stroke-linecap="round" stroke-linejoin="round"/>
<path d="M155.703 21.6958C155.161 21.8674 154.68 22.1874 154.314 22.6191C153.949 23.0508 153.714 23.5764 153.637 24.1349C153.629 24.8576 153.909 25.5541 154.417 26.0726C155.534 27.1747 156.957 26.527 157.942 27.6396C158.283 28.0511 158.495 28.552 158.554 29.0811C159.081 31.8702 155.803 33.2596 155.761 35.9495C155.719 38.3991 158.311 41.115 160.229 40.8225C160.924 40.6578 161.54 40.2576 161.969 39.6912C162.398 39.1247 162.614 38.4276 162.579 37.72C162.539 37.3246 162.394 36.9468 162.157 36.6256C161.921 36.3043 161.603 36.0512 161.236 35.892C160.461 35.5943 159.233 35.6987 158.78 36.6127C158.602 37.0277 158.583 37.4932 158.726 37.9213C158.87 38.3494 159.166 38.7107 159.56 38.9371" stroke="#525375" stroke-linecap="round" stroke-linejoin="round"/>
<path d="M154.617 20.808C154.774 20.6697 154.967 20.578 155.174 20.5438C155.381 20.5096 155.593 20.5342 155.787 20.6147C155.946 20.6887 156.088 20.7954 156.203 20.9277C156.318 21.0601 156.403 21.215 156.453 21.3823C156.502 21.5497 156.516 21.7258 156.492 21.8987C156.468 22.0715 156.407 22.2373 156.314 22.3853C156.144 22.6115 155.898 22.7698 155.62 22.8312C155.343 22.8925 155.052 22.853 154.802 22.7196C154.651 22.6147 154.525 22.4787 154.433 22.321C154.34 22.1633 154.283 21.9875 154.265 21.8058C154.248 21.6242 154.27 21.441 154.331 21.2687C154.392 21.0965 154.489 20.9393 154.617 20.808Z" fill="white" stroke="#525375" stroke-linecap="round" stroke-linejoin="round"/>
<path d="M177.75 50.5586C179.659 55.8743 183.028 60.5559 187.477 64.0758C187.477 64.0758 186.581 66.4 185.691 66.844C185.673 66.8493 185.656 66.8586 185.642 66.8713C185.629 66.884 185.618 66.8996 185.612 66.9171C185.527 67.3297 189.353 68.8653 192.788 69.0586C195.324 69.1721 197.845 68.6323 200.107 67.4916C199.725 67.1931 199.372 66.8591 199.054 66.4941C198.526 65.899 198.092 65.228 197.768 64.5041C199.651 63.2024 201.295 61.5893 202.626 59.7354C204.484 57.1371 205.692 54.1386 206.151 50.9868L177.75 50.5586Z" fill="white" stroke="#525375" stroke-linecap="round" stroke-linejoin="round"/>
<path d="M185.464 48.3439C188.989 47.8906 192.557 47.8906 196.082 48.3439C199.069 48.6938 206.093 49.5242 206.146 51.0023C206.199 52.4804 199.254 54.507 192.62 54.5435C185.153 54.5853 177.644 52.1149 177.75 50.5584C177.834 49.3676 182.376 48.7565 185.464 48.3439Z" fill="white" stroke="#525375" stroke-linecap="round" stroke-linejoin="round"/>
<path d="M201.588 56.7898C201.451 55.5206 204.75 53.468 207.959 53.7135C208.486 53.7553 211.289 53.9695 212.174 55.8027C213.228 57.9912 210.873 61.3287 208.233 62.7024C204.544 64.5983 199.596 63.094 199.349 61.7047C199.342 61.4149 199.428 61.1306 199.594 60.8916C199.759 60.6527 199.996 60.4713 200.271 60.3729C200.977 60.1431 201.641 60.7855 202.279 61.1198C204.666 62.3733 209.224 60.6392 209.824 58.2105C210.103 57.098 209.592 55.6669 208.649 55.2229C207.358 54.6118 205.53 56.0064 205.34 56.1579C204.244 57.0144 204.144 57.8501 203.348 57.9441C202.553 58.0381 201.657 57.4375 201.588 56.7898Z" fill="white" stroke="#525375" stroke-linecap="round" stroke-linejoin="round"/>
<path d="M200.977 53.546C195.282 54.8944 189.344 54.8764 183.657 53.4938C186.346 52.1557 189.314 51.4632 192.323 51.4723C195.332 51.4813 198.296 52.1918 200.977 53.546Z" fill="#525375" stroke="#525375" stroke-linecap="round" stroke-linejoin="round"/>
<path d="M197.204 43.6903C197.204 43.6903 203.459 34.3828 208.601 37.7047C213.744 41.0265 218.213 31.9593 220.452 32.607" stroke="#525375" stroke-linecap="round" stroke-linejoin="round"/>
<path d="M201.672 45.7114C201.672 45.7114 206.589 43.4915 208.712 44.604C210.836 45.7165 213.075 47.2625 214.972 45.377" stroke="#525375" stroke-linecap="round" stroke-linejoin="round"/>
</svg>
