<svg width="144" height="144" viewBox="0 0 144 144" fill="none" xmlns="http://www.w3.org/2000/svg">
<circle cx="72" cy="72" r="71" fill="white"/>
<path d="M76.8798 49.1239C77.9765 47.1608 80.4569 46.4584 82.4201 47.555C84.3832 48.6517 85.0856 51.1322 83.989 53.0953C82.8923 55.0585 80.4118 55.7609 78.4487 54.6642C76.4855 53.5675 75.7831 51.0871 76.8798 49.1239Z" fill="#525375"/>
<path d="M133.635 67.8984C132.689 67.7097 131.77 68.3231 131.581 69.2686C131.393 70.2141 132.006 71.1336 132.952 71.3223C133.897 71.511 134.816 70.8975 135.005 69.952C135.194 69.0066 134.58 68.0871 133.635 67.8984Z" fill="#525375"/>
<path d="M133.395 84.6135C133.584 83.668 134.503 83.0546 135.449 83.2433C136.394 83.432 137.008 84.3515 136.819 85.2969C136.793 85.428 136.753 85.5528 136.7 85.6699C136.823 85.6534 136.95 85.6566 137.078 85.6821C137.699 85.8061 138.103 86.4104 137.979 87.0318C137.854 87.6532 137.25 88.0563 136.629 87.9323C136.009 87.8086 135.606 87.207 135.727 86.5873C135.431 86.7003 135.1 86.7339 134.765 86.6672C134.407 86.5956 134.096 86.4189 133.859 86.1755C133.756 86.2157 133.639 86.2278 133.522 86.2043C133.202 86.1405 132.993 85.8379 133.055 85.5284C133.091 85.3474 133.212 85.2041 133.37 85.1291C133.353 84.9611 133.36 84.7877 133.395 84.6135Z" fill="#525375"/>
<path d="M112.244 85.5583C112.433 84.6128 113.352 83.9993 114.298 84.188C115.243 84.3767 115.857 85.2962 115.668 86.2417C115.479 87.1872 114.56 87.8006 113.614 87.6119C112.669 87.4232 112.055 86.5037 112.244 85.5583Z" fill="#525375"/>
<path d="M107.204 94.3023C107.152 94.5647 107.014 94.7882 106.825 94.9495C107.729 95.17 108.306 96.0661 108.122 96.9869C107.933 97.9324 107.014 98.5459 106.069 98.3572C105.123 98.1684 104.51 97.249 104.698 96.3035C104.804 95.7745 105.138 95.3494 105.578 95.1106C105.119 94.8883 104.849 94.3767 104.953 93.853C105.077 93.2313 105.682 92.828 106.303 92.9521C106.925 93.0762 107.328 93.6807 107.204 94.3023Z" fill="#525375"/>
<path d="M123.935 114.254C124.123 113.308 125.043 112.695 125.988 112.883C126.934 113.072 127.547 113.992 127.359 114.937C127.17 115.883 126.25 116.496 125.305 116.307C124.359 116.119 123.746 115.199 123.935 114.254Z" fill="#525375"/>
<path d="M132.148 99.191C131.203 99.0023 130.283 99.6157 130.095 100.561C129.906 101.507 130.519 102.426 131.465 102.615C132.41 102.804 133.33 102.19 133.518 101.245C133.707 100.299 133.094 99.3797 132.148 99.191Z" fill="#525375"/>
<path d="M67.3841 126.037C66.4387 125.848 65.5192 126.461 65.3305 127.407C65.1418 128.352 65.7552 129.272 66.7007 129.46C67.6462 129.649 68.5657 129.036 68.7544 128.09C68.9431 127.145 68.3296 126.225 67.3841 126.037Z" fill="#525375"/>
<path d="M59.9511 138.933C60.1398 137.988 61.0593 137.374 62.0048 137.563C62.9502 137.751 63.5637 138.671 63.375 139.616C63.1863 140.562 62.2668 141.175 61.3213 140.987C60.3759 140.798 59.7624 139.878 59.9511 138.933Z" fill="#525375"/>
<path d="M40.3373 129.752C39.3918 129.563 38.4724 130.177 38.2837 131.122C38.095 132.068 38.7084 132.987 39.6539 133.176C40.5994 133.365 41.5188 132.751 41.7076 131.806C41.8963 130.86 41.2828 129.941 40.3373 129.752Z" fill="#525375"/>
<path d="M86.1419 110.425C86.3306 109.48 87.25 108.866 88.1955 109.055C89.141 109.244 89.7545 110.163 89.5657 111.109C89.5595 111.14 89.5524 111.171 89.5446 111.202C89.6751 111.03 89.9012 110.938 90.1328 110.984C90.4524 111.048 90.6614 111.351 90.5996 111.66C90.5379 111.97 90.2287 112.169 89.909 112.105C89.6189 112.047 89.4199 111.793 89.4319 111.515C89.273 111.85 89.0129 112.121 88.6977 112.295C88.8162 112.596 88.8525 112.934 88.7844 113.275C88.5957 114.22 87.6762 114.834 86.7308 114.645C85.7853 114.456 85.1718 113.537 85.3605 112.592C85.4652 112.067 85.7946 111.645 86.2286 111.405C86.1101 111.104 86.0738 110.766 86.1419 110.425Z" fill="#525375"/>
<path d="M96.0815 114.347C95.136 114.158 94.2165 114.771 94.0278 115.717C93.8391 116.662 94.4526 117.582 95.3981 117.77C96.3435 117.959 97.263 117.346 97.4517 116.4C97.6404 115.455 97.027 114.535 96.0815 114.347Z" fill="#525375"/>
<path d="M97.4923 123.086C97.681 122.14 98.6004 121.527 99.5459 121.715C100.491 121.904 101.105 122.823 100.916 123.769C100.727 124.714 99.808 125.328 98.8625 125.139C98.7134 125.109 98.5725 125.061 98.4418 124.998C98.4652 125.134 98.4646 125.275 98.4361 125.418C98.312 126.04 97.7075 126.443 97.0859 126.319C96.4642 126.195 96.0609 125.591 96.185 124.969C96.3091 124.347 96.9136 123.944 97.5352 124.068C97.5518 124.071 97.5683 124.075 97.5846 124.079C97.4616 123.774 97.4232 123.432 97.4923 123.086Z" fill="#525375"/>
<path d="M79.465 115.364C79.6538 114.418 80.5732 113.805 81.5187 113.994C82.4642 114.182 83.0777 115.102 82.8889 116.047C82.7002 116.993 81.7808 117.606 80.8353 117.417C79.8898 117.229 79.2763 116.309 79.465 115.364Z" fill="#525375"/>
<path d="M99.2303 111.47C99.419 110.525 100.338 109.911 101.284 110.1C102.229 110.289 102.843 111.208 102.654 112.154C102.465 113.099 101.546 113.713 100.6 113.524C99.655 113.335 99.0415 112.416 99.2303 111.47Z" fill="#525375"/>
<path d="M137.024 48.3101C136.078 48.1214 135.159 48.7349 134.97 49.6803C134.781 50.6258 135.395 51.5453 136.34 51.734C137.286 51.9227 138.205 51.3092 138.394 50.3638C138.583 49.4183 137.969 48.4988 137.024 48.3101Z" fill="#525375"/>
<path d="M125.523 64.5767C125.67 63.8397 126.387 63.3615 127.124 63.5086C127.861 63.6557 128.339 64.3725 128.192 65.1095C128.045 65.8465 127.328 66.3248 126.591 66.1777C125.854 66.0305 125.376 65.3138 125.523 64.5767Z" fill="#525375"/>
<path d="M121.425 78.6166C121.334 79.0744 120.982 79.4137 120.554 79.5111C120.4 80.2383 119.688 80.7079 118.957 80.5619C118.22 80.4148 117.742 79.698 117.889 78.961C118.022 78.2944 118.621 77.8395 119.279 77.8675C119.508 77.4229 120.01 77.1642 120.525 77.2669C121.146 77.3909 121.549 77.9952 121.425 78.6166Z" fill="#525375"/>
<path d="M123.292 87.4131C123.361 87.4268 123.429 87.4284 123.494 87.4194C123.511 88.0396 123.954 88.5881 124.588 88.7147C125.325 88.8618 126.042 88.3836 126.189 87.6465C126.336 86.9095 125.858 86.1927 125.121 86.0456C124.631 85.9479 124.151 86.126 123.84 86.4726C123.757 86.3834 123.646 86.3181 123.516 86.2922C123.196 86.2284 122.887 86.4276 122.825 86.7371C122.764 87.0467 122.973 87.3493 123.292 87.4131Z" fill="#525375"/>
<path d="M74.8316 116.883C74.0946 116.736 73.3778 117.214 73.2307 117.951C73.0836 118.689 73.5618 119.405 74.2989 119.552C75.0359 119.7 75.7527 119.221 75.8998 118.484C76.0469 117.747 75.5687 117.03 74.8316 116.883Z" fill="#525375"/>
<path d="M124.039 80.1478C124.318 78.7517 125.675 77.8459 127.072 78.1245C128.468 78.4032 129.373 79.7609 129.095 81.157C128.816 82.553 127.458 83.4589 126.062 83.1802C124.666 82.9016 123.76 81.5439 124.039 80.1478Z" fill="#525375"/>
<path d="M64.1915 137.144C64.6241 134.977 66.7319 133.571 68.8994 134.003C71.0669 134.436 72.4732 136.544 72.0406 138.711C71.9728 139.051 71.8639 139.372 71.7201 139.67C72.0151 139.448 72.3997 139.348 72.7902 139.426C73.5172 139.571 73.9889 140.278 73.8438 141.005C73.6987 141.732 72.9917 142.204 72.2646 142.059C71.5376 141.914 71.0659 141.206 71.211 140.479L71.2147 140.462C70.3075 141.569 68.8344 142.152 67.3327 141.852C65.1652 141.42 63.7588 139.312 64.1915 137.144Z" fill="#525375"/>
<path d="M115.703 120.044C114.076 119.719 112.493 120.752 112.128 122.36C111.829 122.515 111.6 122.8 111.529 123.156C111.405 123.777 111.808 124.381 112.428 124.506C112.836 125.247 113.547 125.816 114.432 126.015C114.562 126.385 114.878 126.678 115.29 126.76C115.911 126.884 116.516 126.48 116.64 125.859C116.653 125.794 116.66 125.728 116.662 125.664C117.381 125.238 117.923 124.52 118.099 123.635C118.212 123.071 118.161 122.513 117.98 122.008C117.99 121.995 118 121.982 118.009 121.969C119.432 122.231 120.806 121.303 121.09 119.88C121.377 118.443 120.445 117.046 119.008 116.76C117.572 116.473 116.175 117.405 115.888 118.841C115.802 119.275 115.826 119.705 115.942 120.102C115.894 120.088 115.846 120.076 115.797 120.064L115.758 120.056C115.74 120.052 115.721 120.048 115.703 120.044Z" fill="#525375"/>
<path d="M124.837 93.4751C125.103 93.5282 125.366 93.4847 125.589 93.3689C125.591 93.4353 125.596 93.5012 125.604 93.5664C125.403 93.5665 125.205 93.5895 125.014 93.6335C124.872 93.5153 124.699 93.4298 124.505 93.3911C123.884 93.2671 123.28 93.6703 123.156 94.2917C123.105 94.5446 123.142 94.7947 123.245 95.0107C123.137 95.2234 123.055 95.4543 123.006 95.7C122.719 97.1364 123.651 98.5332 125.088 98.82C126.524 99.1067 127.921 98.1747 128.208 96.7382C128.3 96.278 128.266 95.8217 128.132 95.4048C128.955 95.2438 129.641 94.6018 129.816 93.7276C130.046 92.5719 129.296 91.448 128.141 91.2174C127.366 91.0627 126.605 91.3488 126.119 91.9025C125.975 91.5651 125.673 91.3021 125.287 91.2249C124.665 91.1009 124.061 91.5041 123.937 92.1254C123.813 92.7468 124.216 93.3511 124.837 93.4751Z" fill="#525375"/>
<path d="M116.189 114.56C115.856 115.934 114.493 116.813 113.093 116.533C111.979 116.311 111.169 115.421 110.995 114.362C110.768 114.81 110.263 115.071 109.746 114.968C109.125 114.844 108.721 114.239 108.846 113.618C108.97 112.996 109.574 112.593 110.196 112.717C110.575 112.793 110.873 113.047 111.019 113.375C111.133 112.845 111.398 112.386 111.76 112.034C111.28 111.821 110.994 111.297 111.101 110.76C111.225 110.138 111.829 109.735 112.451 109.859C113.073 109.983 113.476 110.587 113.352 111.209C113.346 111.238 113.339 111.266 113.332 111.294C113.592 111.267 113.861 111.277 114.132 111.331C114.21 111.347 114.287 111.366 114.363 111.388C114.801 110.599 115.713 110.147 116.645 110.333C117.801 110.564 118.551 111.688 118.32 112.843C118.115 113.872 117.202 114.579 116.189 114.56Z" fill="#525375"/>
<path d="M46.9524 118.395C47.1831 117.24 48.307 116.49 49.4627 116.721C50.6183 116.951 51.3682 118.075 51.1375 119.231C50.9068 120.387 49.783 121.136 48.6273 120.906C47.4716 120.675 46.7218 119.551 46.9524 118.395Z" fill="#525375"/>
<path d="M129.837 56.1053C129.216 55.9813 128.813 55.377 128.937 54.7557C129.061 54.1343 129.665 53.7311 130.286 53.8551C130.908 53.9792 131.311 54.5834 131.187 55.2048C131.063 55.8262 130.458 56.2294 129.837 56.1053Z" fill="#525375"/>
<path d="M137.917 68.6802C137.682 68.4201 137.569 68.0562 137.643 67.6862C137.767 67.0648 138.371 66.6617 138.993 66.7857C139.614 66.9097 140.017 67.514 139.893 68.1354C139.8 68.6021 139.436 68.9458 138.997 69.0353C138.996 69.0628 138.992 69.0905 138.987 69.1183C138.925 69.4278 138.616 69.627 138.296 69.5632C137.976 69.4994 137.767 69.1968 137.829 68.8872C137.844 68.8107 137.875 68.7409 137.917 68.6802Z" fill="#525375"/>
<path d="M128.239 43.2861C127.618 43.1621 127.215 42.5578 127.339 41.9364C127.463 41.3151 128.067 40.9119 128.688 41.0359C129.31 41.1599 129.713 41.7642 129.589 42.3856C129.465 43.007 128.86 43.4101 128.239 43.2861Z" fill="#525375"/>
<path d="M134.43 79.9933C134.306 80.6147 134.71 81.2189 135.331 81.343C135.952 81.467 136.557 81.0638 136.681 80.4425C136.805 79.8211 136.402 79.2168 135.78 79.0928C135.159 78.9687 134.555 79.3719 134.43 79.9933Z" fill="#525375"/>
<path d="M140.534 77.0996C139.912 76.9756 139.509 76.3713 139.633 75.7499C139.757 75.1285 140.362 74.7254 140.983 74.8494C141.604 74.9734 142.008 75.5777 141.884 76.1991C141.759 76.8204 141.155 77.2236 140.534 77.0996Z" fill="#525375"/>
<path d="M114.79 97.3997C114.665 98.0213 115.069 98.6258 115.69 98.7499C116.312 98.874 116.917 98.4706 117.041 97.849C117.165 97.2274 116.761 96.6229 116.14 96.4988C115.518 96.3748 114.914 96.7781 114.79 97.3997Z" fill="#525375"/>
<path d="M126.048 103.706C125.426 103.582 125.023 102.977 125.147 102.356C125.271 101.734 125.875 101.331 126.497 101.455C127.119 101.579 127.522 102.183 127.398 102.805C127.274 103.427 126.669 103.83 126.048 103.706Z" fill="#525375"/>
<path d="M128.183 97.3297C128.058 97.9513 128.462 98.5558 129.083 98.6799C129.705 98.804 130.31 98.4007 130.434 97.779C130.558 97.1574 130.154 96.5529 129.533 96.4289C128.911 96.3048 128.307 96.7081 128.183 97.3297Z" fill="#525375"/>
<path d="M132.901 91.4862C132.279 91.3621 131.876 90.7576 132 90.136C132.124 89.5144 132.728 89.1111 133.35 89.2351C133.971 89.3592 134.375 89.9637 134.251 90.5853C134.127 91.2069 133.522 91.6103 132.901 91.4862Z" fill="#525375"/>
<path d="M130.009 82.0739C129.885 82.6955 130.288 83.3 130.91 83.4241C131.532 83.5482 132.136 83.1448 132.26 82.5232C132.384 81.9016 131.981 81.2971 131.359 81.173C130.738 81.049 130.133 81.4523 130.009 82.0739Z" fill="#525375"/>
<path d="M120.902 104.464C120.196 104.323 119.737 103.636 119.878 102.929C120.019 102.222 120.706 101.763 121.413 101.904C122.12 102.045 122.579 102.733 122.438 103.44C122.297 104.146 121.609 104.605 120.902 104.464Z" fill="#525375"/>
<path d="M114.344 105.608C113.723 105.484 113.32 104.879 113.444 104.258C113.568 103.636 114.172 103.233 114.794 103.357C115.415 103.481 115.819 104.086 115.695 104.707C115.571 105.329 114.966 105.732 114.344 105.608Z" fill="#525375"/>
<path d="M121.241 113.19C121.117 113.812 121.521 114.416 122.142 114.54C122.764 114.664 123.368 114.261 123.492 113.639C123.564 113.28 123.46 112.926 123.238 112.668C123.29 112.564 123.328 112.452 123.352 112.334C123.497 111.606 123.025 110.899 122.298 110.754C121.571 110.609 120.864 111.081 120.719 111.808C120.613 112.339 120.837 112.86 121.248 113.158L121.241 113.19Z" fill="#525375"/>
<path d="M121.153 116.831C121.029 117.452 121.433 118.057 122.054 118.181C122.676 118.305 123.28 117.901 123.405 117.28C123.529 116.658 123.125 116.054 122.504 115.93C121.882 115.806 121.278 116.209 121.153 116.831Z" fill="#525375"/>
<path d="M91.6875 100.088C91.5635 100.709 91.9668 101.314 92.5884 101.438C93.21 101.562 93.8145 101.159 93.9386 100.537C94.0627 99.9153 93.6593 99.3108 93.0377 99.1867C92.4161 99.0627 91.8116 99.466 91.6875 100.088Z" fill="#525375"/>
<path d="M82.4475 99.0076C81.8259 98.8835 81.4226 98.279 81.5467 97.6574C81.6707 97.0358 82.2752 96.6324 82.8969 96.7565C83.5185 96.8806 83.9218 97.4851 83.7977 98.1067C83.6736 98.7283 83.0691 99.1316 82.4475 99.0076Z" fill="#525375"/>
<path d="M94.9512 111.663C94.8894 111.973 95.0984 112.275 95.418 112.339C95.7377 112.403 96.0469 112.204 96.1087 111.894C96.1704 111.585 95.9614 111.282 95.6418 111.218C95.3221 111.154 95.0129 111.354 94.9512 111.663Z" fill="#525375"/>
<path d="M98.488 118.87C98.1684 118.806 97.9594 118.503 98.0212 118.194C98.083 117.884 98.3922 117.685 98.7118 117.749C99.0314 117.812 99.2405 118.115 99.1787 118.425C99.1169 118.734 98.8077 118.933 98.488 118.87Z" fill="#525375"/>
<path d="M103.224 113.95C103.162 114.26 103.371 114.562 103.691 114.626C104.011 114.69 104.32 114.491 104.382 114.181C104.443 113.872 104.234 113.569 103.915 113.505C103.595 113.441 103.286 113.641 103.224 113.95Z" fill="#525375"/>
<path d="M106.727 109.599C106.407 109.535 106.198 109.232 106.26 108.923C106.322 108.613 106.631 108.414 106.95 108.478C107.27 108.542 107.479 108.844 107.417 109.154C107.356 109.463 107.046 109.662 106.727 109.599Z" fill="#525375"/>
<path d="M92.8179 122.44C92.7561 122.75 92.9652 123.052 93.2848 123.116C93.6044 123.18 93.9136 122.981 93.9754 122.671C94.0372 122.362 93.8282 122.059 93.5086 121.995C93.1889 121.931 92.8797 122.131 92.8179 122.44Z" fill="#525375"/>
<path d="M97.4419 131.959C97.1223 131.895 96.9133 131.593 96.975 131.283C97.0368 130.974 97.346 130.774 97.6657 130.838C97.9853 130.902 98.1943 131.205 98.1325 131.514C98.0707 131.824 97.7616 132.023 97.4419 131.959Z" fill="#525375"/>
<path d="M97.756 129.117C97.6942 129.426 97.9032 129.729 98.2228 129.793C98.5425 129.857 98.8517 129.657 98.9135 129.348C98.9752 129.038 98.7662 128.736 98.4466 128.672C98.1269 128.608 97.8177 128.807 97.756 129.117Z" fill="#525375"/>
<path d="M107.381 122.793C107.319 123.103 107.528 123.405 107.848 123.469C108.167 123.533 108.476 123.334 108.538 123.024C108.6 122.715 108.391 122.412 108.071 122.348C107.752 122.284 107.442 122.484 107.381 122.793Z" fill="#525375"/>
<path d="M120.596 108.477C120.277 108.414 120.068 108.111 120.13 107.801C120.191 107.492 120.501 107.293 120.82 107.356C121.14 107.42 121.349 107.723 121.287 108.032C121.225 108.342 120.916 108.541 120.596 108.477Z" fill="#525375"/>
<path d="M81.229 139.581C80.9094 139.517 80.7004 139.214 80.7621 138.905C80.8239 138.595 81.1331 138.396 81.4528 138.46C81.7724 138.524 81.9814 138.826 81.9196 139.136C81.8578 139.445 81.5486 139.644 81.229 139.581Z" fill="#525375"/>
<path d="M90.0662 124.372C90.1412 124.435 90.2334 124.481 90.3373 124.501C90.4001 124.514 90.4626 124.516 90.5229 124.51C90.5481 125.114 90.9822 125.645 91.6016 125.769C92.3287 125.914 93.0357 125.442 93.1808 124.715C93.3259 123.988 92.8542 123.281 92.1272 123.136C91.6488 123.041 91.1792 123.212 90.8725 123.548C90.7913 123.465 90.6844 123.405 90.561 123.38C90.5157 123.371 90.4707 123.368 90.4265 123.369C90.6277 121.983 89.7102 120.666 88.3206 120.389C86.8842 120.102 85.4873 121.034 85.2006 122.471C85.0962 122.994 85.1534 123.512 85.3379 123.973C85.0595 123.968 84.8106 124.156 84.7558 124.43C84.7521 124.448 84.7493 124.467 84.7476 124.486C84.2813 124.554 83.8868 124.908 83.7892 125.397C83.6652 126.018 84.0685 126.623 84.6901 126.747C85.3117 126.871 85.9162 126.468 86.0403 125.846C86.11 125.497 86.0132 125.153 85.8046 124.896C85.8275 124.867 85.8477 124.836 85.8647 124.802C86.2302 125.193 86.7172 125.478 87.2823 125.591C88.4047 125.815 89.5029 125.295 90.0662 124.372Z" fill="#525375"/>
<path d="M80.4222 122.868C80.3604 123.177 80.5694 123.48 80.889 123.544C81.2087 123.608 81.5179 123.409 81.5797 123.099C81.6415 122.789 81.4324 122.487 81.1128 122.423C80.7932 122.359 80.484 122.558 80.4222 122.868Z" fill="#525375"/>
<path d="M61.7282 132.551C61.4086 132.487 61.1995 132.184 61.2613 131.875C61.3231 131.565 61.6323 131.366 61.952 131.43C62.2716 131.494 62.4806 131.796 62.4188 132.106C62.357 132.415 62.0478 132.615 61.7282 132.551Z" fill="#525375"/>
<path d="M27.8385 118.64C27.7523 119.072 28.0438 119.494 28.4896 119.583C28.9353 119.672 29.3665 119.394 29.4527 118.962C29.5388 118.531 29.2473 118.108 28.8016 118.02C28.3558 117.931 27.9247 118.208 27.8385 118.64Z" fill="#525375"/>
<path d="M30.6311 127.69C30.3486 127.518 30.1889 127.189 30.2556 126.855C30.3384 126.44 30.7397 126.167 31.1664 126.226C31.389 126.111 31.6502 126.069 31.9146 126.121C32.5362 126.246 32.9395 126.85 32.8155 127.472C32.6914 128.093 32.0869 128.497 31.4653 128.372C31.0768 128.295 30.7736 128.03 30.6311 127.69Z" fill="#525375"/>
<path d="M109.851 100.932C109.531 100.868 109.322 100.566 109.384 100.256C109.446 99.9466 109.755 99.7474 110.075 99.8112C110.394 99.875 110.603 100.178 110.541 100.487C110.48 100.797 110.17 100.996 109.851 100.932Z" fill="#525375"/>
<path d="M106.701 90.7197C106.639 91.0292 106.848 91.3318 107.168 91.3957C107.487 91.4594 107.796 91.2602 107.858 90.9507C107.92 90.6412 107.711 90.3385 107.391 90.2747C107.072 90.2109 106.763 90.4101 106.701 90.7197Z" fill="#525375"/>
<path d="M116.616 92.3531C116.296 92.2893 116.087 91.9867 116.149 91.6771C116.211 91.3676 116.52 91.1684 116.84 91.2322C117.159 91.296 117.368 91.5986 117.306 91.9082C117.245 92.2177 116.936 92.4169 116.616 92.3531Z" fill="#525375"/>
<path d="M118.178 88.0191C117.858 87.9553 117.649 87.6526 117.711 87.3431C117.773 87.0335 118.082 86.8343 118.402 86.8981C118.721 86.9619 118.931 87.2646 118.869 87.5741C118.807 87.8837 118.498 88.0829 118.178 88.0191Z" fill="#525375"/>
<path d="M121.704 72.8682C121.642 73.1777 121.851 73.4804 122.171 73.5442C122.491 73.608 122.8 73.4088 122.862 73.0992C122.923 72.7897 122.714 72.487 122.395 72.4232C122.075 72.3594 121.766 72.5586 121.704 72.8682Z" fill="#525375"/>
<path d="M138.901 74.6782C138.581 74.6144 138.372 74.3117 138.434 74.0022C138.496 73.6926 138.805 73.4934 139.125 73.5572C139.444 73.621 139.653 73.9237 139.591 74.2332C139.53 74.5428 139.22 74.742 138.901 74.6782Z" fill="#525375"/>
<path d="M131.845 75.2984C131.784 75.608 131.993 75.9106 132.312 75.9744C132.632 76.0382 132.941 75.839 133.003 75.5295C133.065 75.2199 132.856 74.9173 132.536 74.8535C132.216 74.7897 131.907 74.9889 131.845 75.2984Z" fill="#525375"/>
<path d="M103.704 84.0254C103.384 83.9616 103.175 83.6589 103.237 83.3494C103.299 83.0399 103.608 82.8407 103.927 82.9044C104.247 82.9683 104.456 83.2709 104.394 83.5804C104.332 83.89 104.023 84.0892 103.704 84.0254Z" fill="#525375"/>
<path d="M22.8122 115.604C22.726 116.035 23.0175 116.458 23.4633 116.546C23.909 116.635 24.3402 116.358 24.4264 115.926C24.5125 115.494 24.221 115.072 23.7753 114.983C23.3295 114.894 22.8984 115.172 22.8122 115.604Z" fill="#525375"/>
<path d="M38.5864 125.433C38.2668 125.37 38.0577 125.067 38.1195 124.757C38.1813 124.448 38.4905 124.249 38.8101 124.312C39.1298 124.376 39.3388 124.679 39.277 124.988C39.2152 125.298 38.906 125.497 38.5864 125.433Z" fill="#525375"/>
<path d="M33.698 126.836C33.6362 127.146 33.8452 127.448 34.1649 127.512C34.4845 127.576 34.7937 127.377 34.8555 127.067C34.9173 126.758 34.7083 126.455 34.3886 126.391C34.069 126.327 33.7598 126.527 33.698 126.836Z" fill="#525375"/>
<path d="M48.5511 135.146C48.2315 135.083 48.0225 134.78 48.0842 134.47C48.146 134.161 48.4552 133.962 48.7749 134.025C49.0945 134.089 49.3035 134.392 49.2417 134.701C49.18 135.011 48.8708 135.21 48.5511 135.146Z" fill="#525375"/>
<path d="M50.9439 136.726C50.8821 137.035 51.0912 137.338 51.4108 137.402C51.7304 137.466 52.0396 137.266 52.1014 136.957C52.1632 136.647 51.9542 136.345 51.6345 136.281C51.3149 136.217 51.0057 136.416 50.9439 136.726Z" fill="#525375"/>
<path d="M19.9548 112.597C19.6352 112.533 19.4261 112.23 19.4879 111.921C19.5497 111.611 19.8589 111.412 20.1785 111.476C20.4982 111.54 20.7072 111.842 20.6454 112.152C20.5836 112.461 20.2744 112.66 19.9548 112.597Z" fill="#525375"/>
<path d="M65.8594 122.515C65.7976 122.824 66.0066 123.127 66.3263 123.191C66.6459 123.255 66.9551 123.055 67.0169 122.746C67.0787 122.436 66.8696 122.134 66.55 122.07C66.2304 122.006 65.9212 122.205 65.8594 122.515Z" fill="#525375"/>
<path d="M51.6752 126.478C51.3556 126.415 51.1466 126.112 51.2083 125.802C51.2701 125.493 51.5793 125.294 51.899 125.357C52.2186 125.421 52.4276 125.724 52.3658 126.033C52.304 126.343 51.9949 126.542 51.6752 126.478Z" fill="#525375"/>
<path d="M88.2203 131.8C88.1585 132.11 88.3675 132.412 88.6871 132.476C89.0068 132.54 89.316 132.341 89.3778 132.031C89.4396 131.722 89.2305 131.419 88.9109 131.355C88.5913 131.291 88.2821 131.49 88.2203 131.8Z" fill="#525375"/>
<path d="M113.828 96.854C113.207 96.73 112.803 96.1255 112.928 95.5039C113.052 94.8823 113.656 94.4789 114.278 94.603C114.899 94.7271 115.303 95.3316 115.179 95.9532C115.054 96.5748 114.45 96.9781 113.828 96.854Z" fill="#525375"/>
<path d="M98.616 114.828C98.492 115.45 98.8953 116.054 99.5169 116.178C100.139 116.302 100.743 115.899 100.867 115.277C100.991 114.656 100.588 114.051 99.9662 113.927C99.3446 113.803 98.7401 114.207 98.616 114.828Z" fill="#525375"/>
<path d="M108.001 118.835C108.232 117.677 107.672 116.546 106.694 116C106.734 115.432 106.347 114.91 105.774 114.796C105.152 114.672 104.548 115.075 104.424 115.697C104.413 115.75 104.406 115.804 104.403 115.858C103.605 116.182 102.98 116.889 102.799 117.796C102.512 119.233 103.444 120.63 104.881 120.916C106.317 121.203 107.714 120.271 108.001 118.835Z" fill="#525375"/>
<path d="M110.351 120.083C109.729 119.959 109.326 119.354 109.45 118.733C109.574 118.111 110.179 117.708 110.8 117.832C111.422 117.956 111.825 118.56 111.701 119.182C111.577 119.804 110.972 120.207 110.351 120.083Z" fill="#525375"/>
<path d="M110.263 123.724C109.641 123.599 109.238 122.995 109.362 122.373C109.486 121.752 110.091 121.348 110.712 121.472C111.334 121.597 111.737 122.201 111.613 122.823C111.489 123.444 110.885 123.848 110.263 123.724Z" fill="#525375"/>
<path d="M75.1219 122.273C74.9979 122.895 75.4012 123.499 76.0228 123.623C76.6444 123.747 77.2489 123.344 77.373 122.722C77.4971 122.101 77.0938 121.496 76.4721 121.372C75.8505 121.248 75.246 121.652 75.1219 122.273Z" fill="#525375"/>
<path d="M56.7737 136.271C56.1521 136.147 55.7488 135.542 55.8728 134.921C55.9969 134.299 56.6014 133.896 57.223 134.02C57.8446 134.144 58.248 134.748 58.1239 135.37C57.9998 135.992 57.3953 136.395 56.7737 136.271Z" fill="#525375"/>
<path d="M77.8367 138.967C77.2151 138.843 76.8118 138.238 76.9359 137.616C77.06 136.995 77.6645 136.592 78.2861 136.716C78.9077 136.84 79.311 137.444 79.1869 138.066C79.1844 138.078 79.1817 138.091 79.1788 138.103C79.245 138.106 79.3118 138.115 79.3787 138.128C80.1057 138.273 80.5775 138.98 80.4323 139.707C80.2872 140.434 79.5802 140.906 78.8532 140.761C78.1261 140.616 77.6544 139.909 77.7995 139.182C77.8141 139.109 77.8343 139.038 77.8596 138.971L77.8367 138.967Z" fill="#525375"/>
<path d="M75.5819 141.826C74.9602 141.702 74.5569 141.098 74.681 140.476C74.8051 139.855 75.4096 139.451 76.0312 139.575C76.6528 139.699 77.0561 140.304 76.932 140.925C76.808 141.547 76.2035 141.95 75.5819 141.826Z" fill="#525375"/>
<path d="M52.4593 131.266C52.3182 131.974 52.777 132.661 53.4842 132.802C54.1913 132.944 54.879 132.485 55.0202 131.778C55.1613 131.07 54.7025 130.383 53.9953 130.242C53.2882 130.101 52.6005 130.559 52.4593 131.266Z" fill="#525375"/>
<path d="M58.7615 130C57.3251 129.713 56.3931 128.316 56.6798 126.88C56.9665 125.443 58.3634 124.511 59.7998 124.798C61.2362 125.085 62.1683 126.481 61.8815 127.918C61.5948 129.354 60.198 130.286 58.7615 130Z" fill="#525375"/>
<path d="M81.2107 135.643C79.7743 135.356 78.8423 133.959 79.129 132.523C79.1887 132.224 79.2965 131.946 79.4428 131.697C79.4155 131.539 79.4164 131.374 79.4496 131.207C79.5948 130.48 80.3018 130.008 81.0288 130.153C81.2314 130.194 81.4142 130.278 81.5693 130.394C81.7919 130.38 82.02 130.395 82.249 130.441C83.6854 130.728 84.6174 132.124 84.3307 133.561C84.044 134.997 82.6471 135.929 81.2107 135.643Z" fill="#525375"/>
<path d="M97.4333 98.725C97.1466 100.161 98.0786 101.558 99.5151 101.845C100.951 102.132 102.348 101.2 102.635 99.7633C102.922 98.3269 101.99 96.93 100.553 96.6433C99.1169 96.3566 97.7201 97.2886 97.4333 98.725Z" fill="#525375"/>
<path d="M81.4901 108.455C80.8685 108.331 80.4651 107.726 80.5892 107.105C80.7133 106.483 81.3178 106.08 81.9394 106.204C82.561 106.328 82.9643 106.933 82.8403 107.554C82.7162 108.176 82.1117 108.579 81.4901 108.455Z" fill="#525375"/>
<path d="M67.3242 113.341C67.2002 113.963 67.6035 114.567 68.2251 114.691C68.8467 114.815 69.4512 114.412 69.5753 113.79C69.6994 113.169 69.2961 112.564 68.6744 112.44C68.0528 112.316 67.4483 112.719 67.3242 113.341Z" fill="#525375"/>
<path d="M45.335 127.251C44.7134 127.127 44.3101 126.523 44.4341 125.901C44.5582 125.279 45.1627 124.876 45.7843 125C46.4059 125.124 46.8093 125.729 46.6852 126.35C46.5611 126.972 45.9566 127.375 45.335 127.251Z" fill="#525375"/>
<path d="M74.0011 108.403C73.877 109.024 74.2803 109.629 74.9019 109.753C75.5235 109.877 76.128 109.474 76.2521 108.852C76.3762 108.23 75.9729 107.626 75.3512 107.502C74.7296 107.378 74.1251 107.781 74.0011 108.403Z" fill="#525375"/>
<path d="M36.0633 119.013C35.4417 118.888 35.0384 118.284 35.1625 117.662C35.2865 117.041 35.891 116.637 36.5126 116.761C37.1343 116.886 37.5376 117.49 37.4135 118.112C37.2894 118.733 36.6849 119.137 36.0633 119.013Z" fill="#525375"/>
<path d="M49.417 109.136C48.7953 109.012 48.392 108.407 48.5161 107.786C48.6402 107.164 49.2447 106.761 49.8663 106.885C50.4879 107.009 50.8912 107.613 50.7671 108.235C50.6431 108.856 50.0386 109.26 49.417 109.136Z" fill="#525375"/>
<path d="M104.54 106.797C105.057 107.065 105.357 107.651 105.237 108.251C105.092 108.978 104.385 109.45 103.658 109.304C102.931 109.159 102.459 108.452 102.605 107.725L102.608 107.707C102.092 107.438 101.792 106.852 101.912 106.252C102.057 105.525 102.764 105.054 103.491 105.199C104.218 105.344 104.689 106.051 104.544 106.778L104.54 106.797Z" fill="#525375"/>
<path d="M76.951 129.058C76.2239 128.913 75.7522 128.206 75.8973 127.479C76.0424 126.752 76.7495 126.28 77.4765 126.425C78.2035 126.57 78.6753 127.277 78.5301 128.004C78.385 128.731 77.678 129.203 76.951 129.058Z" fill="#525375"/>
<path d="M75.0281 133.287C74.883 134.014 75.3547 134.721 76.0818 134.867C76.8088 135.012 77.5158 134.54 77.6609 133.813C77.8061 133.086 77.3343 132.379 76.6073 132.234C75.8803 132.089 75.1732 132.56 75.0281 133.287Z" fill="#525375"/>
<path d="M87.5122 129.217C87.367 129.944 87.8388 130.651 88.5658 130.796C89.2928 130.942 89.9999 130.47 90.145 129.743C90.2901 129.016 89.8184 128.309 89.0913 128.164C88.3643 128.019 87.6573 128.49 87.5122 129.217Z" fill="#525375"/>
<path d="M50.4523 28.6523C48.4892 27.5556 46.0087 28.258 44.9121 30.2212C43.8154 32.1843 44.5178 34.6648 46.4809 35.7614C48.4441 36.8581 50.9246 36.1557 52.0212 34.1925C53.1179 32.2294 52.4155 29.7489 50.4523 28.6523Z" fill="#525375"/>
<path d="M75.9709 71.4911C69.1042 79.4654 56.1529 81.3468 45.1076 75.1766C34.0622 69.0063 28.8738 56.9915 32.0638 46.9633C32.2001 46.5347 31.9632 46.0768 31.5346 45.9404C31.106 45.8041 30.6481 46.041 30.5117 46.4696C27.0467 57.3626 32.7163 70.12 44.3133 76.5984C55.9103 83.0768 69.7462 81.2158 77.2051 72.5539C77.4986 72.2131 77.4602 71.6989 77.1194 71.4054C76.7786 71.112 76.2644 71.1503 75.9709 71.4911Z" fill="#525375"/>
<path fill-rule="evenodd" clip-rule="evenodd" d="M86.0908 1.40641C47.103 -6.37572 9.18855 18.9214 1.40641 57.9092C-6.37572 96.897 18.9214 134.811 57.9092 142.594C96.897 150.376 134.811 125.079 142.594 86.0908C150.376 47.103 125.079 9.18855 86.0908 1.40641ZM3.00355 58.228C10.6096 20.1223 47.6663 -4.60252 85.772 3.00355C115.053 8.8481 136.433 32.0817 141.314 59.8184C141.076 59.5712 140.762 59.3917 140.4 59.3194C139.455 59.1306 138.535 59.7441 138.346 60.6896C138.158 61.6351 138.771 62.5545 139.717 62.7433C140.515 62.9026 141.295 62.4899 141.632 61.7883C142.77 69.5509 142.62 77.6375 140.996 85.772C140.365 88.9335 139.532 92.0029 138.511 94.9694C138.435 94.8596 138.351 94.7557 138.259 94.6586C138.63 94.3055 138.899 93.8387 139.007 93.2986C139.285 91.9025 138.379 90.5449 136.983 90.2662C135.587 89.9876 134.23 90.8934 133.951 92.2895C133.781 93.1435 134.053 93.9831 134.61 94.5701C134.24 94.9233 133.971 95.39 133.863 95.9301C133.584 97.3262 134.49 98.6838 135.886 98.9625C136.271 99.0394 136.654 99.0261 137.011 98.9371C135.594 102.367 133.922 105.643 132.021 108.746C131.925 108.108 131.675 107.508 131.303 106.995L131.336 107.002C132.043 107.143 132.73 106.685 132.871 105.978C133.012 105.271 132.554 104.584 131.847 104.443C131.14 104.302 130.453 104.76 130.312 105.467C130.272 105.664 130.279 105.86 130.326 106.043C129.893 105.746 129.394 105.53 128.847 105.421C127.23 105.098 125.646 105.799 124.766 107.075C124.581 106.748 124.259 106.5 123.861 106.42C123.134 106.275 122.427 106.747 122.282 107.474C122.136 108.201 122.608 108.908 123.335 109.053C123.593 109.105 123.848 109.078 124.077 108.991C123.896 111.001 125.256 112.866 127.28 113.27C127.88 113.39 128.476 113.369 129.033 113.229C124.343 119.709 118.603 125.3 112.113 129.802C112.115 129.721 112.112 129.64 112.105 129.56C112.213 129.308 112.297 129.04 112.353 128.76C112.786 126.592 111.379 124.484 109.212 124.052C107.898 123.789 106.606 124.203 105.695 125.053C105.653 124.906 105.583 124.77 105.489 124.653C106.21 124.787 106.907 124.317 107.051 123.596C107.196 122.869 106.724 122.162 105.997 122.016C105.27 121.871 104.563 122.343 104.418 123.07C104.332 123.502 104.463 123.926 104.736 124.23C104.143 124.154 103.585 124.549 103.466 125.144C103.457 125.19 103.451 125.236 103.447 125.282C102.462 125.296 101.587 125.994 101.386 126.998C101.258 127.643 101.434 128.278 101.816 128.753C101.302 129.286 100.93 129.967 100.775 130.746C100.406 132.594 101.374 134.399 103.011 135.159C101.54 135.882 100.043 136.555 98.5225 137.175C98.6737 136.904 98.7859 136.605 98.8499 136.284C98.8626 136.221 98.8732 136.157 98.8818 136.094C99.7209 136.123 100.482 135.541 100.651 134.691C100.74 134.245 100.651 133.805 100.433 133.445C100.535 132.836 100.135 132.252 99.5253 132.13C99.0099 132.027 98.5063 132.287 98.2785 132.733C98.0286 132.835 97.8047 132.995 97.6261 133.198C97.2858 132.956 96.8899 132.78 96.4537 132.693C96.0197 132.606 95.5889 132.616 95.1835 132.708C95.2467 132.273 95.0922 131.852 94.7981 131.561C95.7877 131.337 96.6029 130.552 96.8143 129.492C97.101 128.056 96.169 126.659 94.7326 126.372C93.2962 126.086 91.8993 127.018 91.6126 128.454C91.366 129.689 92.0208 130.895 93.1224 131.391C92.8303 131.582 92.6121 131.885 92.5385 132.254C92.4026 132.934 92.8076 133.598 93.4566 133.798C93.1684 134.164 92.9597 134.601 92.8623 135.089C92.5617 136.595 93.4247 138.063 94.8301 138.563C93.8993 138.883 92.9607 139.184 92.0149 139.465C92.1049 139.274 92.1734 139.069 92.2167 138.852C92.4029 137.919 92.0749 137.003 91.4283 136.397L91.4344 136.371C91.4374 136.358 91.4402 136.345 91.4428 136.332C91.5879 135.605 91.1162 134.898 90.3892 134.753C89.6624 134.608 88.9556 135.079 88.8101 135.806C88.6285 135.864 88.4543 135.941 88.2903 136.036C87.9087 135.713 87.4422 135.479 86.9172 135.375C86.8332 135.358 86.7493 135.345 86.6656 135.335C86.8903 135.291 87.0757 135.121 87.1221 134.889C87.1839 134.58 86.9748 134.277 86.6552 134.213C86.3356 134.149 86.0264 134.349 85.9646 134.658C85.9076 134.944 86.0813 135.224 86.3597 135.315C84.9164 135.295 83.6185 136.304 83.3258 137.771C83.0419 139.193 83.7964 140.582 85.0658 141.153C76.4412 142.785 67.3647 142.82 58.228 140.996C56.5746 140.666 54.9463 140.281 53.3448 139.842C53.8504 139.809 54.2911 139.442 54.395 138.921C54.5191 138.3 54.1158 137.695 53.4941 137.571C52.8725 137.447 52.268 137.851 52.144 138.472C52.052 138.933 52.2496 139.384 52.6108 139.637C17.729 129.679 -4.22194 94.427 3.00355 58.228ZM108.668 132.048L108.809 131.961L108.774 131.964L108.743 131.967C108.721 131.969 108.699 131.97 108.677 131.971C108.674 131.997 108.671 132.022 108.668 132.048Z" fill="#525375"/>
</svg>
