<svg width="353" height="214" viewBox="0 0 353 214" fill="none" xmlns="http://www.w3.org/2000/svg">
<path d="M131.5 191.6C131.5 191.6 134.6 197.5 132.6 199C130.6 200.5 125.4 194.9 124.7 189.8C124 184.7 131.5 191.6 131.5 191.6Z" fill="#DADBE8" stroke="#525375" stroke-linecap="round" stroke-linejoin="round"/>
<path d="M166.2 144.9C165.4 143.7 163.7 141.5 160.9 139C162.6 137.8 163.9 136.4 164.8 134.8C166.3 132.3 168.2 126.6 161.8 116.5C162 113.4 162 106.1 157.2 99.6996C151.1 91.4996 141.3 90.2996 134.7 89.5996C130 88.9996 111.6 87.6996 99.0995 100.3C96.8995 102.5 91.5995 108.1 89.7995 117C88.9995 121.2 89.1995 124.9 89.5995 127.3C89.5995 127.3 89.7995 131.7 93.0995 135.9C93.5995 136.5 94.1995 137.1 94.8995 137.7C92.3995 139.9 87.1995 145 84.6995 153.1C84.3995 154 79.7995 170.4 89.6995 181.5C93.9995 186.3 98.9995 187.9 106.3 190.1C118.4 193.9 128.7 193.1 133.4 192.6C145.7 191.2 157.4 189.8 164.7 180C175.2 166.1 167.9 147.3 166.2 144.9Z" fill="#DADBE8" stroke="#525375" stroke-linecap="round" stroke-linejoin="round"/>
<path d="M161.4 140.301C161.3 140.301 161.2 140.101 161.1 139.901C160.7 138.701 163.2 137.201 164.2 136.401C165.9 132.001 167.4 125.401 162.9 121.401C162.3 120.801 160.8 119.601 158.4 119.001C156.3 118.501 154.4 118.701 149.8 119.801H149.7C146.3 120.601 142.8 120.201 139.9 118.701C137.3 117.401 134.2 116.001 131.5 115.901C129.5 115.801 126.5 116.801 123.8 117.801C120.4 119.101 116.5 119.201 113.2 117.901C111.6 117.201 109.6 116.701 106.5 116.301C103.4 115.901 101.2 115.601 98.6998 116.501C93.8998 118.201 90.9998 123.101 90.7998 127.101C90.4998 131.901 93.6998 136.601 94.4998 137.701C94.1998 137.601 93.6998 138.001 93.0998 138.501C92.6998 138.801 92.6 140.301 92 141.001C81.8 152.401 83.3998 164.301 83.3998 164.301C83.9998 170.501 87.2998 181.901 95.6998 184.901C101.6 187.001 109.3 184.501 110 184.201C112 183.501 114.6 182.401 119.3 181.101C121.4 180.501 123.5 180.001 126.2 180.401C128.4 180.701 130 181.401 130.5 181.601C132 182.201 145 187.901 154.3 183.601C154.3 183.601 161.3 180.301 167.2 168.301C167.3 168.101 167.4 167.901 167.4 167.901C168 166.701 168.8 164.801 169.2 162.301C170.3 156.501 169.2 148.901 165.9 145.701C164.3 144.001 163.1 141.901 161.4 140.301Z" fill="#EFEFF7"/>
<path d="M143.605 114.186C145.418 113.997 146.706 112.106 146.482 109.964C146.258 107.822 144.607 106.239 142.794 106.428C140.981 106.618 139.693 108.508 139.917 110.65C140.141 112.793 141.792 114.376 143.605 114.186Z" fill="#525375"/>
<path d="M142.642 110.591C143.191 110.534 143.571 109.864 143.491 109.095C143.41 108.326 142.9 107.749 142.35 107.806C141.801 107.864 141.421 108.534 141.501 109.303C141.582 110.072 142.092 110.648 142.642 110.591Z" fill="white"/>
<path d="M123.744 111.509C123.765 109.355 122.305 107.594 120.482 107.576C118.66 107.558 117.165 109.29 117.144 111.444C117.123 113.598 118.583 115.358 120.405 115.376C122.228 115.394 123.723 113.663 123.744 111.509Z" fill="#525375"/>
<path d="M122.166 110.428C122.174 109.655 121.732 109.024 121.18 109.018C120.628 109.013 120.174 109.635 120.166 110.409C120.159 111.182 120.6 111.813 121.152 111.818C121.705 111.824 122.159 111.202 122.166 110.428Z" fill="white"/>
<path d="M135.601 120.899C135.901 120.199 135.801 119.399 135.201 118.899C134.401 118.299 133.201 117.699 131.301 117.899C129.301 118.099 127.601 118.699 126.501 119.199C125.601 119.599 125.401 120.699 125.901 121.399C126.301 121.899 126.801 122.499 127.701 123.199C130.501 125.499 129.601 126.799 131.801 125.899C133.301 125.199 134.901 122.399 135.601 120.899Z" fill="#525375"/>
<path d="M131 125.699C132.5 127.999 131.7 130.699 130.3 131.399C128.9 132.099 126.3 131.199 125.4 128.599" stroke="#525375" stroke-linecap="round" stroke-linejoin="round"/>
<path d="M136.099 128.199C136.499 129.699 135.399 130.999 134.199 131.199C133.099 131.299 131.999 130.499 131.699 129.299" stroke="#525375" stroke-linecap="round" stroke-linejoin="round"/>
<path d="M113.799 94.7004C114.499 90.8004 113.299 87.0004 110.599 84.9004C110.099 84.5004 106.899 82.1004 103.399 83.5004C100.799 84.5004 99.2989 87.2004 99.2989 89.5004C99.1989 93.2004 102.899 97.1004 108.299 97.7004" fill="#DADBE8"/>
<path d="M113.799 94.7004C114.499 90.8004 113.299 87.0004 110.599 84.9004C110.099 84.5004 106.899 82.1004 103.399 83.5004C100.799 84.5004 99.2989 87.2004 99.2989 89.5004C99.1989 93.2004 102.899 97.1004 108.299 97.7004" stroke="#525375" stroke-linecap="round" stroke-linejoin="round"/>
<path d="M141.1 92.5995C141 92.2995 139.1 88.2995 141.4 84.3995C142.5 82.4995 145.2 79.4995 148.3 80.1995C151.3 80.7995 152.8 84.4995 152.9 87.0995C153 90.4995 150.8 93.6995 147.2 95.3995" fill="#DADBE8"/>
<path d="M141.1 92.5995C141 92.2995 139.1 88.2995 141.4 84.3995C142.5 82.4995 145.2 79.4995 148.3 80.1995C151.3 80.7995 152.8 84.4995 152.9 87.0995C153 90.4995 150.8 93.6995 147.2 95.3995" stroke="#525375" stroke-linecap="round" stroke-linejoin="round"/>
<path d="M104.801 86.7002C104.801 86.7002 112.101 86.2002 111.201 95.3002Z" fill="#DADBE8"/>
<path d="M104.801 86.7002C104.801 86.7002 112.101 86.2002 111.201 95.3002" stroke="#525375" stroke-linecap="round" stroke-linejoin="round"/>
<path d="M148.3 83C148.3 83 142.3 83.6 143.4 93Z" fill="#DADBE8"/>
<path d="M148.3 83C148.3 83 142.3 83.6 143.4 93" stroke="#525375" stroke-linecap="round" stroke-linejoin="round"/>
<path d="M147.299 88.6992L143.699 92.0992" stroke="#525375" stroke-linecap="round" stroke-linejoin="round"/>
<path d="M107.6 93.5L111 94.3" stroke="#525375" stroke-linecap="round" stroke-linejoin="round"/>
<path d="M94 124.1L84 123.9" stroke="#525375" stroke-linecap="round" stroke-linejoin="round"/>
<path d="M94.1008 127L85.8008 128.7" stroke="#525375" stroke-linecap="round" stroke-linejoin="round"/>
<path d="M162.1 122.8L167.7 121.5" stroke="#525375" stroke-linecap="round" stroke-linejoin="round"/>
<path d="M162.1 126.199L170.4 126.599" stroke="#525375" stroke-linecap="round" stroke-linejoin="round"/>
<path d="M145.699 143.1C145.699 143.1 139.299 143.6 137.599 145.6C135.899 147.6 136.799 151.7 140.899 151.5C144.999 151.2 147.199 147.8 147.199 147.8" stroke="#525375" stroke-linecap="round" stroke-linejoin="round"/>
<path d="M113.6 142.6C113.6 142.6 120.4 141.4 122.4 144.8C124.4 148.2 118.2 152.1 113.6 148.8" stroke="#525375" stroke-linecap="round" stroke-linejoin="round"/>
<path d="M151.201 171.101C151.201 171.101 150.801 164.201 146.801 164.001C142.801 163.801 141.501 167.101 144.801 172.601" stroke="#525375" stroke-linecap="round" stroke-linejoin="round"/>
<path d="M107.699 170.799C107.699 170.799 112.099 162.199 114.999 165.299C117.899 168.399 115.899 171.299 113.399 173.699" stroke="#525375" stroke-linecap="round" stroke-linejoin="round"/>
<path d="M122.2 144.699L119 144.899" stroke="#525375" stroke-linecap="round" stroke-linejoin="round"/>
<path d="M121.9 147.199L118.9 147.399" stroke="#525375" stroke-linecap="round" stroke-linejoin="round"/>
<path d="M137.301 147.3L140.601 146.4" stroke="#525375" stroke-linecap="round" stroke-linejoin="round"/>
<path d="M138.6 150.7L141.4 149.1" stroke="#525375" stroke-linecap="round" stroke-linejoin="round"/>
<path d="M147.1 164.301L147.8 166.901" stroke="#525375" stroke-linecap="round" stroke-linejoin="round"/>
<path d="M144 165L145.1 167.4" stroke="#525375" stroke-linecap="round" stroke-linejoin="round"/>
<path d="M115.5 167.199L114.4 168.499" stroke="#525375" stroke-linecap="round" stroke-linejoin="round"/>
<path d="M114.3 165L112.5 166.9" stroke="#525375" stroke-linecap="round" stroke-linejoin="round"/>
<path d="M196.98 186.881C196.484 188.782 197.918 190.638 199.883 190.638H348.617C350.582 190.638 352.016 188.782 351.52 186.881L327.324 94.0868C326.979 92.7657 325.786 91.8438 324.421 91.8438H224.079C222.714 91.8438 221.521 92.7656 221.176 94.0868L196.98 186.881Z" fill="#EFEFF7" stroke="#525375" stroke-linecap="round" stroke-linejoin="round"/>
<path d="M309.22 77H303.682V92.8432H309.22V77Z" fill="#EFEFF7" stroke="#525375" stroke-linecap="round" stroke-linejoin="round"/>
<path d="M245.076 77H239.537V92.8432H245.076V77Z" fill="#EFEFF7" stroke="#525375" stroke-linecap="round" stroke-linejoin="round"/>
<path d="M273.928 179.044C294.344 179.044 310.895 162.493 310.895 142.077C310.895 121.66 294.344 105.109 273.928 105.109C253.511 105.109 236.96 121.66 236.96 142.077C236.96 162.493 253.511 179.044 273.928 179.044Z" fill="#EFEFF7" stroke="#525375" stroke-linecap="round" stroke-linejoin="round"/>
<path d="M274.571 154.571C281.969 154.571 287.967 148.574 287.967 141.175C287.967 133.777 281.969 127.779 274.571 127.779C267.173 127.779 261.175 133.777 261.175 141.175C261.175 148.574 267.173 154.571 274.571 154.571Z" fill="#F6D37E" stroke="#525375" stroke-width="1.14068" stroke-linecap="round" stroke-linejoin="round"/>
<path d="M274.186 124.172C277.458 124.172 280.111 121.52 280.111 118.247C280.111 114.975 277.458 112.322 274.186 112.322C270.914 112.322 268.261 114.975 268.261 118.247C268.261 121.52 270.914 124.172 274.186 124.172Z" fill="#525375" stroke="#525375" stroke-linecap="round" stroke-linejoin="round"/>
<path d="M274.186 169.899C277.458 169.899 280.111 167.246 280.111 163.974C280.111 160.702 277.458 158.049 274.186 158.049C270.914 158.049 268.261 160.702 268.261 163.974C268.261 167.246 270.914 169.899 274.186 169.899Z" fill="#525375" stroke="#525375" stroke-linecap="round" stroke-linejoin="round"/>
<path d="M297.114 147.1C300.386 147.1 303.039 144.447 303.039 141.175C303.039 137.903 300.386 135.25 297.114 135.25C293.841 135.25 291.189 137.903 291.189 141.175C291.189 144.447 293.841 147.1 297.114 147.1Z" fill="#525375" stroke="#525375" stroke-linecap="round" stroke-linejoin="round"/>
<path d="M251.387 147.1C254.66 147.1 257.312 144.447 257.312 141.175C257.312 137.903 254.66 135.25 251.387 135.25C248.115 135.25 245.462 137.903 245.462 141.175C245.462 144.447 248.115 147.1 251.387 147.1Z" fill="#525375" stroke="#525375" stroke-linecap="round" stroke-linejoin="round"/>
<path d="M290.415 130.87C293.687 130.87 296.34 128.217 296.34 124.945C296.34 121.672 293.687 119.02 290.415 119.02C287.142 119.02 284.49 121.672 284.49 124.945C284.49 128.217 287.142 130.87 290.415 130.87Z" fill="#525375" stroke="#525375" stroke-linecap="round" stroke-linejoin="round"/>
<path d="M258.085 163.202C261.357 163.202 264.01 160.549 264.01 157.277C264.01 154.004 261.357 151.352 258.085 151.352C254.812 151.352 252.159 154.004 252.159 157.277C252.159 160.549 254.812 163.202 258.085 163.202Z" fill="#525375" stroke="#525375" stroke-linecap="round" stroke-linejoin="round"/>
<path d="M258.085 130.87C261.357 130.87 264.01 128.217 264.01 124.945C264.01 121.672 261.357 119.02 258.085 119.02C254.812 119.02 252.159 121.672 252.159 124.945C252.159 128.217 254.812 130.87 258.085 130.87Z" fill="#525375" stroke="#525375" stroke-linecap="round" stroke-linejoin="round"/>
<path d="M303.866 172.634L308.248 167.74L294.238 155.197L289.856 160.091L303.866 172.634Z" fill="#525375" stroke="#525375" stroke-linecap="round" stroke-linejoin="round"/>
<path d="M147.3 105.001C147.3 105.001 145.9 102.201 142.9 103.501" stroke="#525375" stroke-linecap="round" stroke-linejoin="round"/>
<path d="M119.9 104.5C119.9 104.5 117.7 104 116 106.4" stroke="#525375" stroke-linecap="round" stroke-linejoin="round"/>
<path d="M282.379 10.6484L247.576 64.1807L260.451 72.5509C265.576 75.8827 267.13 82.7925 263.698 88.0704L239.843 124.764C236.493 129.916 229.591 131.507 224.341 128.094L211.466 119.724L176.091 174.135C195.091 186.488 220.514 181.027 232.932 161.926L241.919 148.103L245.84 142.071L281.95 86.5283L285.545 80.9991L294.286 67.5532C306.704 48.4525 301.378 23.0006 282.379 10.6484Z" fill="white" stroke="#525375" stroke-linecap="round" stroke-linejoin="round"/>
<path d="M245.414 64.1474L238.38 59.5745C234.799 57.2464 233.721 52.4676 235.99 48.9781L263.7 6.35594C265.969 2.8664 270.774 1.91234 274.354 4.24041L281.388 8.8134C282.284 9.39542 282.518 10.4343 281.951 11.3067L247.921 63.6497C247.435 64.3974 246.309 64.7295 245.414 64.1474Z" fill="#F6D37E" stroke="#525375" stroke-width="1.14068" stroke-linecap="round" stroke-linejoin="round"/>
<path d="M174.557 173.14L167.523 168.567C163.942 166.239 162.868 161.453 165.142 157.956L192.833 115.362C195.107 111.865 199.916 110.905 203.497 113.233L210.531 117.806C211.426 118.388 211.66 119.428 211.091 120.302L176.985 172.763C176.498 173.513 175.452 173.722 174.557 173.14Z" fill="#525375"/>
<path d="M174.557 173.147L167.523 168.574C163.942 166.246 162.868 161.461 165.142 157.964L192.833 115.37C195.107 111.873 199.916 110.912 203.497 113.24L210.531 117.813C211.426 118.395 211.66 119.436 211.091 120.31L176.985 172.771C176.498 173.521 175.452 173.729 174.557 173.147Z" fill="#F6D37E" stroke="#525375" stroke-width="1.14068" stroke-linecap="round" stroke-linejoin="round"/>
<path d="M209.1 179C214.3 185.8 213.5 194.3 209 197.8C203.6 202.1 193.3 198.7 192.6 195.1C192 191.8 199.3 186.6 201.7 188C204.5 189.7 202.9 201.9 196.4 207.7C183.4 219.5 150.2 206.2 150.3 198.4C150.4 194.2 160 189.3 164.5 192C167.7 193.9 168.8 199.9 166.9 204C162.7 213.3 142.6 213.8 132.1 211.8C101.6 205.8 73.2003 169.9 81.8003 149.1C86.4003 137.9 100.5 133.8 115 129.5C145 120.8 174.4 126.4 174.4 129.3C174.4 134.4 80.1003 136.6 80.2003 139.3C80.3003 141.9 171.9 138.8 172.2 143.7C172.5 148.8 75.8003 156.2 76.0003 163.9C76.1003 167.5 97.3003 171.4 171.1 174.5" stroke="#525375" stroke-linecap="round" stroke-linejoin="round"/>
<g clip-path="url(#clip0_1453_2)">
<path d="M210.5 176.5L214.397 186.547L211 187.5L205.94 178.728L210.5 176.5Z" fill="#525375"/>
</g>
<g clip-path="url(#clip1_1453_2)">
<path d="M91.3 35.3994C79 19.0994 54.4 22.3994 46 23.5994C42.9 23.9994 4.39998 29.6994 1.69998 51.4994C-0.300019 67.1994 17 85.4994 32.7 87.3994C42.6 88.5994 49.4 83.0994 59.7 87.7994C67.2 91.2994 71.9 98.0994 73 97.1994C74.2 96.1994 67.3 89.3994 69.2 83.6994C71.6 76.1994 86.1 79.7994 93.6 71.1994C101.1 62.9994 99.1 45.7994 91.3 35.3994Z" fill="#EFEFF7"/>
</g>
<path d="M1.32 44.35L1 70.44" stroke="#525375" stroke-linecap="round" stroke-linejoin="round"/>
<path d="M1 57.08L15.24 56.12" stroke="#525375" stroke-linecap="round" stroke-linejoin="round"/>
<path d="M14.0498 42.76V69" stroke="#525375" stroke-linecap="round" stroke-linejoin="round"/>
<path d="M24.0202 40.96L23.7002 65.14L36.4202 66.09" stroke="#525375" stroke-linecap="round" stroke-linejoin="round"/>
<path d="M36.7399 42.86L21.1499 42.23" stroke="#525375" stroke-linecap="round" stroke-linejoin="round"/>
<path d="M32.93 52.73L21.79 53.68" stroke="#525375" stroke-linecap="round" stroke-linejoin="round"/>
<path d="M44.3799 42.23L44.5899 66.2L56.6799 64.92" stroke="#525375" stroke-linecap="round" stroke-linejoin="round"/>
<path d="M58.0601 37.77L62.3001 64.92L72.4901 63.02" stroke="#525375" stroke-linecap="round" stroke-linejoin="round"/>
<path d="M96.35 54.5299C98.51 48.4199 95.2697 40.72 89.0297 38.94C84.0297 37.51 78.6497 40.2599 76.2997 44.3499C72.5497 50.8899 76.5995 61.0401 83.6195 62.4801C88.7195 63.5301 94.49 59.8099 96.35 54.5299Z" stroke="#525375" stroke-linecap="round" stroke-linejoin="round"/>
<path d="M107.38 33L107.17 54.85" stroke="#525375" stroke-linecap="round" stroke-linejoin="round"/>
<path d="M108.7 58.6901C108.482 58.483 108.206 58.3485 107.908 58.3056C107.611 58.2626 107.308 58.3132 107.04 58.4501C106.845 58.5219 106.67 58.6391 106.529 58.7921C106.388 58.9451 106.286 59.1295 106.23 59.33C106.204 59.5732 106.247 59.8191 106.355 60.0387C106.463 60.2583 106.631 60.4424 106.84 60.57C107.076 60.7407 107.359 60.8326 107.65 60.8326C107.941 60.8326 108.225 60.7407 108.46 60.57C108.739 60.3509 108.921 60.0311 108.966 59.6793C109.01 59.3275 108.915 58.9721 108.7 58.6901V58.6901Z" stroke="#525375" stroke-linecap="round" stroke-linejoin="round"/>
<defs>
<clipPath id="clip0_1453_2">
<rect width="8.53479" height="16.2674" fill="white" transform="translate(205 174.965) rotate(-6.494)"/>
</clipPath>
<clipPath id="clip1_1453_2">
<rect width="97.8" height="75.9" fill="white" transform="translate(1 22)"/>
</clipPath>
</defs>
</svg>
