<svg width="228" height="247" fill="none" xmlns="http://www.w3.org/2000/svg"><path d="M204.879 221.943c-9.385 14.937-33.099 19.141-67.695 16.072-34.597-3.069-97.524-1.011-96.494-12.616 1.03-11.604 58.731-25.428 93.328-22.358 34.596 3.069 71.891 7.298 70.861 18.902Z" fill="#EFEFF7"/><path d="M177.772 23.573c-3.231 19.237-6.434 38.511-9.67 57.78-.041.291-.428 3.47.17 3.654.602.151 1.872-3 1.968-3.217 3.231-13.464 6.424-26.9 9.654-40.362a.898.898 0 0 1 1.021-.713l10.208 1.882c.432-.037 1.099-.107 1.794-.371 3.196-1.228 4.337-4.86 4.677-5.867.851-2.75 1.151-7.16-1.378-9.467a5.502 5.502 0 0 0-.952-.697c-4.773-1.537-9.513-3.07-14.291-4.575-.092-.046-1.076-.516-2.079.067-1.071.607-1.108 1.79-1.122 1.886Z" fill="#525375" stroke="#525375" stroke-width="1.141" stroke-linecap="round" stroke-linejoin="round"/><path d="m152.738 221.223-8.921 3.046 12.436-82.248 7.499 1.829-11.014 77.373Z" fill="#fff" stroke="#525375" stroke-width="1.141" stroke-linecap="round" stroke-linejoin="round"/><path d="M143.715 224.119s14.679-88.884 13.657-92.573c-1.021-3.689-8.08-5.126-8.08-5.126l-15.362 93.672 9.785 4.027Z" fill="#E0E1EC" stroke="#525375" stroke-width="1.141" stroke-linecap="round" stroke-linejoin="round"/><path d="M154.041 216.349c-.427-.476 1.999-5.444 6.762-7.781 1.372-.664 2.888-1.103 3.241-2.378.326-1.133-.281-2.681-1.358-3.376-2.324-1.501-6.859 1.06-9.509 3.488-3.319 3.028-3.88 5.972-5.008 5.786-1.974-.347-.273-10.11-3.581-11.431-1.781-.716-4.775 1.122-5.763 3.533-1.703 4.142 2.908 9.037 1.988 9.838-1.312 1.143-9.165-9.594-14.862-7.812-3.031.935-5.155 5.278-4.062 7.442 1.839 3.625 12.468 2.329 12.471 2.583.002.198-6.003-.588-7.944 2.342-.083.113-.914 1.421-.453 2.433.95 2.024 6.262 1.207 7.5 1.053.59-.063 1.26-.606 1.742-.301.709.445.019 1.808.759 2.619.683.728 2.232.684 3.239.108 1.064-.632 1.081-1.621 1.616-1.626.93.018.876 3.041 2.431 3.59.989.357 2.388-.42 2.969-1.443.941-1.62-.208-3.755.157-3.9.476-.202 1.645 3.853 4.44 4.643 1.412.381 3.548.077 4.377-1.514.607-1.136.367-2.63-.519-3.864 1.186.299 3.527.726 6.08-.176 1.234-.436 3.422-1.221 3.715-2.891.264-1.612-1.303-3.489-3.026-4.008-3.361-.954-6.975 3.518-7.402 3.043Z" fill="#F6D37E" stroke="#525375" stroke-width="1.141" stroke-linecap="round" stroke-linejoin="round"/><path d="M113.52 145.271s89.151 5.823 92.519 5.086c3.367-.737 3.316-5.022 3.316-5.022l-93.931-6.072-1.904 6.008Z" fill="#fff" stroke="#525375" stroke-width="1.141" stroke-linecap="round" stroke-linejoin="round"/><path d="m114.459 140.323-32.745-9.762c-10.178 2.318-72.826 8.859-74.108 25.587-.115 1.356-.262 2.669-.57 3.999-.345 1.599-.152 3.274.728 5.086 1.188 2.406 3.727 3.866 6.26 4.815 10.005 3.857 20.985 2.791 31.323 1.006 13.88-2.419 27.468-6.644 40.364-12.342 8.584-3.8 19.782-8.876 28.036-13.39l.712-4.999Z" fill="#fff" stroke="#525375" stroke-width="1.141" stroke-linecap="round" stroke-linejoin="round"/><path d="M81.715 130.561c-10.952 2.521-82.867 9.94-73.243 29.711 1.187 2.406 3.726 3.866 6.259 4.815 10.005 3.856 20.986 2.791 31.323 1.006 13.88-2.419 27.469-6.644 40.364-12.342 8.584-3.8 19.782-8.876 28.037-13.39l-32.74-9.8Z" fill="#EFEFF7" stroke="#525375" stroke-width="1.141" stroke-linecap="round" stroke-linejoin="round"/><path d="m81.004 135.56 27.097 8.095c2.241-1.133 4.399-2.238 6.36-3.332l-32.745-9.762c-10.584 2.417-78.006 9.416-73.937 27.69 7.76-14.55 63.69-20.477 73.225-22.691Z" fill="#fff" stroke="#525375" stroke-width="1.141" stroke-linecap="round" stroke-linejoin="round"/><path d="m81.714 130.558 32.744 9.761 1.533-10.767c-11.431-.176-34.277 1.006-34.277 1.006Z" fill="#2F6A9A"/><path d="M81.583 130.932a7592.588 7592.588 0 0 0 28.569 8.501c1.39.433 2.786.828 4.176 1.261.225.071.516-.044.554-.313l1.533-10.768c.027-.192-.132-.45-.33-.439-11.47-.181-22.934.423-34.393.989-.51.006-.39.808.089.758 5.18-.282 10.387-.483 15.556-.689 4.296-.134 8.553-.273 12.838-.33.906-.028 1.846-.012 2.752-.04.39.016 3.082.125 2.686-.402.236.269-.323 2.269-.372 2.615l-1.161 8.152c.17-.093.341-.187.555-.313-9.521-2.846-19.043-5.693-28.57-8.5-1.39-.434-2.785-.829-4.175-1.262-.5-.071-.796.632-.307.78Z" fill="#3C77B4"/><path d="m81.71 130.558 9.11-63.99c1.259-8.845 5.198-17.78 14.64-20.162 4.636-1.145 9.833-.17 13.713 2.619 7.05 5.044 6.138 15.037 5.07 22.536l-4.549 31.957-5.233 36.763-32.75-9.723Z" fill="#E0E1EC" stroke="#525375" stroke-width="1.141" stroke-linecap="round" stroke-linejoin="round"/><path opacity=".3" d="M111.11 56.9c-9.789 10.339-15.437 64.346-16.304 77.602l19.686 5.862 9.787-68.759c.756-5.307 1.412-11.844-.717-17.012-.775-1.72-7.044-3.435-12.452 2.308Z" fill="#4A4D60"/><path d="M120.134 47.513c-2.027-1.465-4.472-2.48-7.032-2.963-.341-.087-2.302-.366-2.692-.383-2.593-.251-5.23.08-7.581.883-8.26 2.905-10.634 11.865-11.959 21.172l-9.164 64.374c-.346-.049 2.258.675 2.258.675l9.213-64.721c1.216-8.537 3.337-16.828 10.395-19.276 2.065-.726 4.339-.99 6.586-.788l2.461.35c2.214.433 4.324 1.322 6.105 2.595 6.088 4.359 5.818 12.873 4.603 21.41l-9.783 68.721a1.145 1.145 0 0 0 .99 1.318 1.145 1.145 0 0 0 1.318-.99l9.782-68.72c1.363-9.3 1.628-18.601-5.5-23.657Z" fill="#fff" stroke="#525375" stroke-width="1.141" stroke-linecap="round" stroke-linejoin="round"/><path d="M140.67 80.01 67.078 70.27l-5.992 45.288 73.591 9.737 5.993-45.287Z" fill="#F6D37E" stroke="#525375" stroke-width="1.141" stroke-linecap="round" stroke-linejoin="round"/><path d="m67.05 70.365 4.5 2.014a8.088 8.088 0 0 1 2.935 2.261l18.079 22.113-31.38 18.956 5.867-45.344ZM140.627 79.936l-5.548.937c-.725.132-1.39.39-1.999.814l-23.723 17.26 25.563 26.317 5.707-45.328Z" fill="#F6D37E" stroke="#525375" stroke-width="1.141" stroke-linecap="round" stroke-linejoin="round"/><path d="M109.357 98.948 92.53 96.709l-31.379 18.957 36.791 4.766 36.824 4.81-25.409-26.294Z" fill="#F6D37E" stroke="#525375" stroke-width="1.141" stroke-linecap="round" stroke-linejoin="round"/><path d="M138.509 83.518a3.75 3.75 0 0 1-1.45 1.363l-34.928 18.255a3.527 3.527 0 0 1-3.85-.509L69.2 75.653c-.554-.51-.972-1.158-1.143-1.889l-.996-3.477 36.786 4.805 36.785 4.805-2.124 3.621Z" fill="#F6D37E" stroke="#525375" stroke-width="1.141" stroke-linecap="round" stroke-linejoin="round"/><path d="M134.263 86.106 60.061 88.08l1.214 45.663 74.202-1.974-1.214-45.663Z" fill="#F6D37E" stroke="#525375" stroke-width="1.141" stroke-linecap="round" stroke-linejoin="round"/><path d="m60.043 88.2 4.763 1.266c1.209.33 2.34.922 3.242 1.757l21.313 18.963-28.01 23.673-1.308-45.66ZM134.228 86.047l-5.317 1.793c-.697.215-1.307.638-1.85 1.15l-20.694 20.791 29.362 21.953-1.501-45.687Z" fill="#F6D37E" stroke="#525375" stroke-width="1.141" stroke-linecap="round" stroke-linejoin="round"/><path d="m106.374 109.742-17.013.443-28.004 23.635 37.112-1.073 37.074-1.079-29.169-21.926Z" fill="#F6D37E" stroke="#525375" stroke-width="1.141" stroke-linecap="round" stroke-linejoin="round"/><path d="M132.658 89.904a3.582 3.582 0 0 1-1.203 1.556L99.82 114.97c-1.175.814-2.669.837-3.9.112L62.96 93.048a4.054 4.054 0 0 1-1.445-1.696l-1.496-3.274 37.107-1.034 37.106-1.035-1.574 3.895Z" fill="#F6D37E" stroke="#525375" stroke-width="1.141" stroke-linecap="round" stroke-linejoin="round"/><path d="M134.352 123.219s3.593.119 3.791 1.482c.16 1.356-3.822 2.32-6.421 1.283-2.637-1.043 2.63-2.765 2.63-2.765Z" fill="#DDD4CC" stroke="#525375" stroke-width="1.141" stroke-linecap="round" stroke-linejoin="round"/><path d="M121.615 94.453c-.758.088-2.274.265-4.174.936-.061-.4-.171-1.005-.512-1.642 0 0-.522-1.016-1.55-1.79-1.346-1.016-3.763-1.4-6.405-.755-.753-.774-5.123-5.084-10.967-4.543-5.328.497-8.403 4.728-10.736 7.888 0 0-6.28 8.287-4.852 17.828a9.51 9.51 0 0 0 .451 1.791c1.254 3.317 4.304 5.046 5.92 5.825.23.582.544 1.412 1.039 2.345.648 1.231.95 1.862 1.6 2.543.445.456 1.395 1.493 2.956 1.833 1.18.247 2.236.005 3.576-.315.527-.121.977-.253 1.307-.363 1.045 2.032 3.612 6.321 8.723 9.56 6.517 4.105 12.911 3.838 15.481 3.694 3.445-.216 11.432-.648 13.671-5.351 1.509-3.16-1.129-5.026-1.786-11.437-.966-9.75 4.993-12.197 2.381-18.101-3.768-8.54-14.53-10.112-16.123-9.946Z" fill="#DDD4CC" stroke="#525375" stroke-width="1.141" stroke-linecap="round" stroke-linejoin="round"/><path d="M118.171 95.493c-.038-.005-.121.023-.274 0-.539-.076-.704-.845-1.215-1.663-.127-.214-.666-1.115-1.633-1.763-.61-.4-1.137-.554-1.632-.664-.604-.164-1.851-.499-3.351-.163-3.405.771-4.672 4.161-4.678 4.2l-.005.038-.006.038c-.63 2.225-1.789 3.748-1.789 3.748-.675.884-.73.445-3.503 2.561-1.63 1.259-1.966 1.682-2.202 1.962-.34.462-.713 1.154-1.146 3.094-.762 3.422-.114 3.829-.827 4.983-.912 1.439-2.033.77-4.086 2.518-.67.571-2.586 2.182-2.733 4.593-.05 1.17.341 2.011.88 3.186.6 1.302 1.496 3.273 3.54 4.074 1.187.483 2.296.406 3.01.35a7.864 7.864 0 0 0 2.856-.77c.341.637.875 1.576 1.584 2.658a25.598 25.598 0 0 0 5.743 5.957 26.317 26.317 0 0 0 3.94 2.366c3.159 1.509 5.879 1.974 8.296 2.358 1.302.224 3.076.438 5.186.503.077-.539.585-4.939 1.062-8.285.076-.538.246-1.73.542-3.258.12-.571.252-1.219.433-1.939.279-1.137.636-2.264 1.47-3.44.725-.956 1.472-1.516 1.735-1.714.703-.528 6.815-5.151 7.285-10.655 0 0 .322-4.192-3.741-10.106a.775.775 0 0 0-.165-.22 11.728 11.728 0 0 0-2.176-2.35c-2.457-2.037-6.319-3.567-8.698-2.847-1.181.303-2.51.27-3.702.65Z" fill="#F4EDE9"/><path d="M100.248 98.995c.377-.912-.202-2.017-1.292-2.467-1.09-.45-2.28-.077-2.657.835-.377.912.201 2.017 1.292 2.468 1.09.45 2.28.076 2.657-.836Z" fill="#525375"/><path d="M98.238 98.567c.114-.277-.098-.629-.475-.784-.376-.156-.775-.057-.89.22-.114.278.098.63.475.785.377.156.775.057.89-.22Z" fill="#fff"/><path d="M94.883 108.948c.494-.854.066-2.025-.956-2.616-1.022-.59-2.25-.375-2.744.479-.494.855-.065 2.026.956 2.616 1.022.59 2.25.376 2.744-.479Z" fill="#525375"/><path d="M93.31 107.608c.15-.26-.013-.636-.366-.84-.353-.204-.761-.159-.912.101-.15.26.015.637.368.84.352.204.76.159.91-.101Z" fill="#fff"/><path d="M102.257 103.664c-.182-.379-.583-.593-.989-.494-.528.121-1.203.457-1.752 1.281a8.396 8.396 0 0 0-1.097 2.473c-.148.489.214.972.72 1.004.313.006.747-.011 1.357-.16 1.9-.396 2.175.428 2.543-.775.241-.868-.392-2.489-.782-3.329Z" fill="#525375"/><path d="M102.692 107.218c1.472.132 2.352 1.395 2.155 2.23-.198.835-1.444 1.599-2.829 1.127" stroke="#525375" stroke-width="1.141" stroke-linecap="round" stroke-linejoin="round"/><path d="M105.464 105.925c.737.34.962 1.236.606 1.813-.308.505-1.044.714-1.626.396" stroke="#525375" stroke-width="1.141" stroke-linecap="round" stroke-linejoin="round"/><path d="M84.102 105.788c-1.648-1.373-3.742-1.828-5.455-1.091-.291.116-2.334.963-2.58 2.968-.214 1.5.682 2.922 1.732 3.542 1.736 1.032 4.543.333 6.294-2.046" fill="#DDD4CC"/><path d="M84.102 105.788c-1.648-1.373-3.742-1.828-5.455-1.091-.291.116-2.334.963-2.58 2.968-.214 1.5.682 2.922 1.732 3.542 1.736 1.032 4.543.333 6.294-2.046" stroke="#525375" stroke-width="1.141" stroke-linecap="round" stroke-linejoin="round"/><path d="M90.33 92.354c-.192-.028-2.56-.208-3.786-2.344-.6-1.027-1.287-3.087-.162-4.378 1.12-1.253 3.197-.957 4.439-.31 1.604.856 2.55 2.757 2.408 4.855" fill="#DDD4CC"/><path d="M90.33 92.354c-.192-.028-2.56-.208-3.786-2.344-.6-1.027-1.287-3.087-.162-4.378 1.12-1.253 3.197-.957 4.439-.31 1.604.856 2.55 2.757 2.408 4.855M77.917 107.89s1.685-3.566 5.757-.75" stroke="#525375" stroke-width="1.141" stroke-linecap="round" stroke-linejoin="round"/><path d="M87.757 86.456s-1.328 2.989 3.375 4.953M90.147 88.406l.65 2.603M81.89 108.377l1.263-1.429M92.668 122.781l-3.843 3.847M93.817 123.808l-2.431 3.852" stroke="#525375" stroke-width="1.141" stroke-linecap="round" stroke-linejoin="round"/><path d="M102.396 130.247s-2.618 4.061-5.069 3.633c-2.373-.416-1.958-4.987 1.112-6.158l1.56-.759.165-.055" fill="#DDD4CC"/><path d="M102.396 130.247s-2.618 4.061-5.069 3.633c-2.373-.416-1.958-4.987 1.112-6.158l1.56-.759.165-.055M129.94 108.469s-3.341-1.614-4.505.222c-1.163 1.835.035 3.339 3.54 3.25M97.46 133.781l1.245-1.589M96.41 132.611l1.158-1.522" stroke="#525375" stroke-width="1.141" stroke-linecap="round" stroke-linejoin="round"/><path d="M123.719 94.831s1.481-4.615-.448-6.224c-1.824-1.515-5.064 1.673-4.018 4.804l.434 1.631" fill="#DDD4CC"/><path d="M123.719 94.831s1.481-4.615-.448-6.224c-1.824-1.515-5.064 1.673-4.018 4.804l.434 1.631M123.332 88.734l-.444 2.016M121.73 88.701l-.417 1.825M125.643 108.602l1.401.357M125.133 110.257l1.477.092M96.797 94.884s-1.72-.049-1.85 1.698M89.568 106.252s-.79.868-.136 2.335M113.985 92.662l1.301-2.797M115.473 93.775l2.882-3.434" stroke="#525375" stroke-width="1.141" stroke-linecap="round" stroke-linejoin="round"/><path d="m209.117 146.223-94.619-5.897 9.705-68.182c1.511-10.614 3.471-24.38-13.279-26.059l-.071-.05 95.485 13.593a14.936 14.936 0 0 1 12.698 16.913l-9.919 69.682Z" fill="#fff" stroke="#525375" stroke-width="1.141" stroke-linecap="round" stroke-linejoin="round"/><path d="m113.969 46.48-3.153-.45.071.05c1.082.115 2.121.263 3.071.476l.011-.077ZM132.152 143.388a1.145 1.145 0 0 1-.99-1.318l9.782-68.72c.608-4.269.979-8.532.456-12.294-.105-.643-1.58-6.267-5.053-9.155-1.44-1.186-2.314-1.938-3.704-2.097-.692-.098-1.45-.01-2.406-.46-.072-.05-1.539-.768-1.446-1.422.088-.615 1.61-.83 1.89-.869 3.164-.452 6.247 2.42 7.033 2.963 7.121 5.094 6.901 14.362 5.576 23.668l-9.782 68.72c-.126.61-.741 1.072-1.356.984ZM208.931 146.981c-.609-.126-.994-.73-.901-1.384l8.692-61.892c1.216-8.537 1.491-17.09-4.603-21.41-1.78-1.274-5.275-3.184-8.137-2.924-.198.01 1.641-2.435 5.982-.954 1.236.412 2.346 1.158 3.484 1.987 7.121 5.095 6.901 14.362 5.576 23.668l-8.703 61.969c-.088.615-.741 1.071-1.39.94Z" fill="#fff" stroke="#525375" stroke-width="1.141" stroke-linecap="round" stroke-linejoin="round"/><path d="M109.31 46.405c.313.006.582.044.896.05l2.461.35c2.214.433 4.324 1.322 6.104 2.595 6.089 4.359 5.818 12.873 4.603 21.41l-9.782 68.721a1.145 1.145 0 0 0 .989 1.318 1.145 1.145 0 0 0 1.318-.99l9.777-68.682c1.319-9.267 1.545-18.573-5.538-23.662-2.028-1.465-4.473-2.48-7.033-2.963-.341-.087-2.302-.367-2.692-.383l-1.362-.076" fill="#fff"/><path d="M109.31 46.405c.313.006.582.044.896.05l2.461.35c2.214.433 4.324 1.322 6.104 2.595 6.089 4.359 5.818 12.873 4.603 21.41l-9.782 68.721a1.145 1.145 0 0 0 .989 1.318 1.145 1.145 0 0 0 1.318-.99l9.777-68.682c1.319-9.267 1.545-18.573-5.538-23.662-2.028-1.465-4.473-2.48-7.033-2.963-.341-.087-2.302-.367-2.692-.383l-1.362-.076" stroke="#525375" stroke-width="1.141" stroke-linecap="round" stroke-linejoin="round"/><path d="M152.772 132.587s-.044.033-.049.071l-.137 1.511c-.005.038-.005.039.028.082 0 0 .033.044.071.05l1.511.136c.038.006.038.006.071.05 0 0 .033.044.028.082l-.049.621c-.006.038-.006.038-.05.071 0 0-.044.033-.082.028l-.972-.06-.813-.077-.077-.01c-.077-.011-.154-.022-.226-.072-.071-.049-.104-.093-.175-.143-.033-.043-.061-.126-.094-.17a.355.355 0 0 1-.011-.198l.011-.076.011-.352.076-1.088.044-.307.011-.352a.495.495 0 0 1 .071-.225c.049-.072.093-.105.143-.176.044-.033.126-.061.17-.094a.355.355 0 0 1 .198-.011l.077.011 1.785.137c.039.005.039.005.072.049 0 0 .033.044.027.083l-.049.62c-.006.039-.006.039-.049.072 0 0-.044.033-.083.027l-1.511-.136.022-.154ZM157.115 134.617c.038.006.038.006.071.049 0 0 .033.044.028.083l-.049.621c-.006.038-.006.038-.05.071 0 0-.044.033-.082.028l-2.016-.17c-.077-.011-.072-.049-.066-.088l.245-3.103c.011-.077.05-.072.088-.066l.66.054c.076.011.071.05.066.088l-.17 2.291c-.005.038-.005.038.028.082 0 0 .033.044.071.05l1.176.01ZM160.33 132.407s.033.044.028.082l-.038.27-.022.153-.028.193c-.005.038-.005.038-.049.071 0 0-.044.033-.083.028l-.351-.011-.972-.06-.27-.038s-.038-.006-.044.033l-.032.505.038.005 1.357.115c.039.006.039.006.072.049 0 0 .032.044.027.083l-.027.467c-.006.038-.006.038-.05.071 0 0-.044.033-.082.028l-1.357-.115s-.038-.005-.044.033l-.033.231-.038.269s-.005.038.033.044l.192.027 1.05.071.313.006c.038.005.038.005.071.049 0 0 .033.044.028.082l-.028.193-.033.23-.022.154c-.005.039-.005.039-.049.072 0 0-.044.033-.082.027l-.27-.038-1.785-.137-.269-.038c-.077-.011-.072-.049-.066-.088l.022-.154.229-2.713.033-.231c.006-.039.006-.039.049-.072 0 0 .044-.033.083-.027l.351.011 1.824.142.154.021c.137-.137.176-.131.17-.093ZM163.98 132.691l-.011.077-1.218 3.043c-.006.039-.006.039-.05.072-.038-.006-.043.033-.082.027l-.851-.082-.077-.01c-.039-.006-.033-.044-.028-.083l-.721-3.202.011-.077.044-.033.698.06.076.011c.039.006.033.044.028.082l.452 2.34.833-2.274c.006-.039.006-.039.05-.072 0 0 .044-.033.082-.027l.698.06.066.088ZM167.044 132.931s.033.044.027.083l-.038.269-.022.154-.027.192c-.006.039-.006.039-.05.072 0 0-.043.033-.082.027l-.351-.011-.973-.06-.269-.038s-.038-.005-.044.033l-.033.505.039.006 1.357.115c.038.005.038.005.071.049 0 0 .033.044.028.082l-.028.467c-.005.039-.005.039-.049.072 0 0-.044.033-.082.027l-1.357-.114s-.039-.006-.044.033l-.033.23-.038.269s-.006.039.033.044l.192.028 1.049.071.313.005c.039.005.039.005.072.049 0 0 .033.044.027.083l-.027.192-.033.231-.022.154c-.005.038-.005.038-.049.071 0 0-.044.033-.083.028l-.269-.039-1.785-.136-.269-.038c-.077-.011-.072-.05-.066-.088l.021-.154.23-2.714.033-.231c.005-.038.005-.038.049-.071 0 0 .044-.033.082-.028l.352.011 1.824.142.154.022c.137-.137.17-.094.17-.094ZM170.436 136.397l-.005.038-.044.033-.736-.066-.077-.01c-.039-.006-.033-.044-.072-.05l-.418-.923-.038-.005-.544-.038s-.038-.006-.044.033l-.082.851c-.011.077-.049.072-.088.066l-.659-.054c-.077-.011-.071-.05-.066-.088l.246-3.104c.011-.077.049-.071.088-.066l2.131.186c.077.011.154.022.225.071.072.049.105.093.176.143.033.044.061.126.094.17a.355.355 0 0 1 .011.198l-.098 1.241a.74.74 0 0 1-.121.297.451.451 0 0 1-.297.154c-.038-.006-.038-.006-.005.038l.423.885Zm-.743-2.499-1.126-.082-.076.813 1.126.082.076-.813ZM173.758 134.279s-.044.033-.049.071l-.137 1.511c-.005.038-.005.038.028.082 0 0 .033.044.071.05l1.511.136c.038.006.038.006.071.05 0 0 .033.044.028.082l-.049.621c-.006.038-.006.038-.05.071 0 0-.044.033-.082.028l-.972-.06-.814-.077-.076-.011a.479.479 0 0 1-.226-.071c-.071-.049-.104-.093-.176-.143-.033-.044-.06-.126-.093-.17-.028-.082-.022-.121-.011-.198l.011-.076.011-.352.076-1.088.044-.307.011-.352a.495.495 0 0 1 .071-.225c.049-.072.093-.105.143-.176.044-.033.126-.061.17-.094a.355.355 0 0 1 .198-.011l.077.011 1.785.137c.038.005.038.005.071.049 0 0 .033.044.028.082l-.049.621c-.006.039-.006.039-.05.072 0 0-.044.033-.082.027l-1.511-.136c.066-.187.028-.193.022-.154ZM178.416 133.804a.502.502 0 0 1 .226.071c.071.049.104.093.176.143.033.044.06.126.093.17.028.082.022.121.011.198l-.153 2.175c-.011.077-.021.154-.071.225-.049.072-.093.105-.143.176-.044.033-.126.061-.17.094a.355.355 0 0 1-.198.011l-1.67-.12a.498.498 0 0 1-.225-.071c-.071-.05-.104-.094-.176-.143-.033-.044-.06-.127-.093-.17-.028-.083-.022-.121-.011-.198l.152-2.176a.488.488 0 0 1 .072-.225c.049-.071.093-.104.142-.176.044-.033.127-.06.171-.093.082-.028.121-.022.197-.011l1.67.12Zm-.345.774-1.088-.076-.12 1.67 1.088.076.12-1.67ZM181.909 134.067a.495.495 0 0 1 .225.071c.072.05.105.094.176.143.033.044.061.126.094.17a.355.355 0 0 1 .011.198l-.153 2.175a.502.502 0 0 1-.071.226c-.05.071-.094.104-.143.175-.044.033-.126.061-.17.094a.355.355 0 0 1-.198.011l-2.131-.186c-.077-.011-.072-.049-.066-.088l.245-3.103c.011-.077.05-.072.088-.066l2.093.18Zm-1.597 2.401 1.087.077.121-1.67-1.088-.077-.12 1.67ZM185.667 134.406s.033.044.028.082l-.038.269-.022.154-.028.193c-.005.038-.005.038-.049.071 0 0-.044.033-.082.027l-.352-.01-.972-.06-.269-.039s-.039-.005-.044.033l-.033.506.038.005 1.357.115c.039.005.039.005.072.049 0 0 .033.044.027.083l-.027.467c-.006.038-.006.038-.049.071 0 0-.044.033-.083.028l-1.357-.115s-.038-.006-.044.033l-.033.231-.038.269s-.005.038.033.044l.192.027 1.05.071.313.005c.038.006.038.006.071.05 0 0 .033.044.028.082l-.028.192-.032.231-.022.154c-.006.038-.006.038-.05.071 0 0-.044.033-.082.028l-.269-.038-1.786-.137-.269-.038c-.077-.011-.071-.05-.066-.088l.022-.154.229-2.714.033-.23c.006-.039.006-.039.05-.072 0 0 .044-.033.082-.027l.352.011 1.823.141.154.022c.138-.137.132-.099.17-.093ZM189.937 137.21c.038.006.038.006.071.05 0 0 .033.044.028.082l-.05.621c-.005.038-.005.038-.049.071 0 0-.044.033-.082.028l-2.016-.17c-.077-.011-.072-.049-.066-.087l.245-3.104c.011-.077.05-.072.088-.066l.659.054c.077.011.072.05.066.088l-.169 2.291c-.005.038-.005.038.028.082 0 0 .033.044.071.05l1.176.01ZM192.848 134.956c.077.011.154.022.225.071.072.049.105.093.176.143.033.044.061.126.094.17a.355.355 0 0 1 .011.198l-.219 2.637c-.005.038-.005.038-.049.071 0 0-.044.033-.083.028l-.659-.055c-.038-.005-.038-.005-.071-.049 0 0-.033-.044-.028-.083l.082-.851c.006-.039.006-.039-.027-.083 0 0-.033-.044-.072-.049l-.928-.093c-.039-.005-.039-.005-.082.028 0 0-.044.032-.05.071l-.082.851c-.011.077-.049.072-.088.066l-.659-.054c-.077-.011-.071-.05-.066-.088l.219-2.637a.472.472 0 0 1 .071-.225c.049-.072.093-.105.143-.176.043-.033.126-.061.17-.094a.355.355 0 0 1 .198-.011l1.774.214Zm-.373 1.516.077-.813-1.088-.076-.077.813 1.088.076ZM196.507 136.812c-.005.038-.044.033-.011.076-.005.039-.005.039.028.083l.159.258s.033.044.028.082c-.006.039.033.044.027.083l-.049.62a.502.502 0 0 1-.071.226c-.05.071-.094.104-.143.176-.044.033-.126.06-.17.093-.083.028-.121.022-.198.011l-2.131-.186c-.077-.011-.072-.049-.066-.087l.245-3.104c.011-.077.05-.072.088-.066l2.132.185a.488.488 0 0 1 .225.072c.071.049.104.093.176.143.033.043.06.126.093.17.028.082.022.121.011.198l-.049.62-.011.077c-.005.039-.044.033-.049.072l-.264.198Zm-.423-.885-1.242-.098-.043.582 1.241.099.044-.583Zm-.093 1.203-1.242-.098-.054.659 1.241.099.055-.66Z" fill="#C3C5D1"/></svg>