<svg width="104" height="116" viewBox="0 0 104 116" fill="none" xmlns="http://www.w3.org/2000/svg">
<path d="M87.12 74.0797C89.8243 63.3473 92.8159 50.7809 86.3725 38.9559C84.4906 35.5407 82.0197 32.4855 79.0731 29.9316C80.5716 24.5118 80.6448 24.7718 82.1418 19.3576L43.4501 10.1084C42.0385 15.3751 42.0517 14.9622 40.6415 20.2232C37.1248 20.2709 33.6533 21.0229 30.432 22.4346C18.3338 27.8318 14.1983 41.3709 11.6227 49.9881C7.92077 62.285 2.68557 79.6129 12.082 91.8803C18.1425 99.79 27.3472 101.759 41.0373 104.696C54.0467 107.486 63.0323 109.412 71.3724 104.661C80.745 99.3067 83.3879 88.8665 87.12 74.0797Z" fill="white" stroke="#525375" stroke-linecap="round" stroke-linejoin="round"/>
<path d="M79.4971 47.9732C71.7708 47.3732 64.0851 46.3329 56.4773 44.8573C47.3284 43.0853 38.3128 40.6845 29.4942 37.6718C26.5308 44.8028 24.2785 52.2089 22.7704 59.7824C21.7491 64.9374 21.0768 70.1554 20.7588 75.4009C28.9493 79.4241 37.6206 82.3838 46.5617 84.2075C54.3425 85.7887 62.2752 86.4986 70.2132 86.3244C72.7916 79.7182 74.8865 72.9333 76.4811 66.0233C77.8581 60.0747 78.8654 54.0464 79.4971 47.9732V47.9732Z" fill="white" stroke="#525375" stroke-linecap="round" stroke-linejoin="round"/>
<path d="M38.7583 53.6954C38.7583 53.6954 38.1724 64.9542 35.1077 67.1843C32.043 69.4144 25.7122 66.6034 26.209 64.1152" stroke="#525375" stroke-width="2" stroke-linecap="round" stroke-linejoin="round"/>
<path d="M41.1572 53.695L34.8084 53.5445" stroke="#525375" stroke-width="2" stroke-linecap="round" stroke-linejoin="round"/>
<path d="M40.9255 68.8005C40.9255 68.8005 45.4158 55.5435 48.9162 56.361C52.4165 57.1786 50.2985 72.4326 50.2985 72.4326" stroke="#525375" stroke-width="2" stroke-linecap="round" stroke-linejoin="round"/>
<path d="M51.8358 66.9446L42.0061 64.2825" stroke="#525375" stroke-width="2" stroke-linecap="round" stroke-linejoin="round"/>
<path d="M54.8598 72.1951C54.8598 72.1951 60.2036 57.3322 61.8344 58.1734C63.4653 59.0147 62.4595 68.8666 62.4595 68.8666C62.4595 68.8666 65.6488 58.1462 68.6204 59.8922C71.5919 61.6383 67.075 74.2003 67.075 74.2003" stroke="#525375" stroke-width="2" stroke-linecap="round" stroke-linejoin="round"/>
<path d="M82.8626 23.1758C82.8626 23.1758 42.3282 19.0607 38.6383 14.3363C37.3842 12.7293 37.8909 10.812 38.7607 9.25149C39.2583 8.35611 40.0184 7.63501 40.9386 7.18514C41.8589 6.73528 42.8952 6.57845 43.9074 6.73581C53.4701 8.21645 83.8174 13.2331 84.6805 17.4925C85.7097 22.5539 82.8626 23.1758 82.8626 23.1758Z" fill="#525375" stroke="#525375" stroke-linecap="round" stroke-linejoin="round"/>
<path d="M88.2324 55.6701C87.142 55.2459 85.9142 55.7861 85.4901 56.8765C85.066 57.9669 85.6061 59.1947 86.6965 59.6188C87.7869 60.043 89.0147 59.5028 89.4389 58.4124C89.863 57.322 89.3229 56.0942 88.2324 55.6701Z" fill="#EFEFF7"/>
<path d="M57.3242 95.2072C56.2338 94.783 55.006 95.3232 54.5819 96.4136C54.1578 97.504 54.6979 98.7318 55.7883 99.1559C56.8787 99.5801 58.1065 99.0399 58.5307 97.9495C58.9548 96.8591 58.4147 95.6313 57.3242 95.2072Z" fill="#EFEFF7"/>
<path d="M24.1797 93.4162C23.0893 92.992 21.8615 93.5322 21.4374 94.6226C21.0132 95.713 21.5534 96.9408 22.6438 97.3649C23.7342 97.789 24.962 97.2489 25.3861 96.1585C25.8103 95.0681 25.2701 93.8403 24.1797 93.4162Z" fill="#EFEFF7"/>
<path d="M31.0166 92.7853C29.9262 92.3612 28.6984 92.9013 28.2743 93.9917C27.8501 95.0821 28.3903 96.3099 29.4807 96.7341C30.5711 97.1582 31.7989 96.6181 32.223 95.5276C32.6472 94.4372 32.107 93.2094 31.0166 92.7853Z" fill="#EFEFF7"/>
<path d="M67.6441 100.277C66.5536 99.8533 65.3258 100.393 64.9017 101.484C64.4776 102.574 65.0177 103.802 66.1081 104.226C67.1986 104.65 68.4263 104.11 68.8505 103.02C69.2746 101.929 68.7345 100.702 67.6441 100.277Z" fill="#EFEFF7"/>
<path d="M78.3948 79.064C77.6779 78.7851 77.3228 77.9779 77.6016 77.261C77.8804 76.5441 78.6877 76.189 79.4046 76.4678C80.1215 76.7467 80.4766 77.5539 80.1977 78.2708C79.9189 78.9877 79.1117 79.3428 78.3948 79.064Z" fill="#EFEFF7"/>
<path d="M74.2288 86.3413C73.5119 86.0625 73.1567 85.2552 73.4356 84.5383C73.7144 83.8214 74.5216 83.4663 75.2386 83.7452C75.9555 84.024 76.3106 84.8312 76.0317 85.5481C75.7529 86.265 74.9457 86.6201 74.2288 86.3413Z" fill="#EFEFF7"/>
<path d="M80.8146 59.8848C80.4459 59.7414 80.2597 59.3358 80.3985 58.9788C80.5374 58.6218 80.9488 58.4486 81.3174 58.592C81.686 58.7354 81.8723 59.141 81.7334 59.498C81.5946 59.855 81.1832 60.0282 80.8146 59.8848Z" fill="#EFEFF7"/>
<path d="M56.6573 91.584C56.2887 91.4406 56.1024 91.035 56.2413 90.678C56.3801 90.321 56.7915 90.1478 57.1602 90.2912C57.5288 90.4346 57.7151 90.8402 57.5762 91.1972C57.4374 91.5542 57.026 91.7274 56.6573 91.584Z" fill="#EFEFF7"/>
<path d="M44.213 93.0547C43.8444 92.9113 43.6581 92.5057 43.7969 92.1487C43.9358 91.7917 44.3472 91.6185 44.7158 91.7619C45.0845 91.9053 45.2707 92.3109 45.1319 92.6679C44.993 93.0249 44.5816 93.1981 44.213 93.0547Z" fill="#EFEFF7"/>
<path d="M52.2198 98.7735C51.8512 98.6301 51.6649 98.2244 51.8038 97.8674C51.9426 97.5105 52.354 97.3373 52.7227 97.4807C53.0913 97.6241 53.2776 98.0297 53.1387 98.3867C52.9999 98.7437 52.5885 98.9168 52.2198 98.7735Z" fill="#EFEFF7"/>
<path d="M47.6441 97.6309C47.2755 97.4875 47.0892 97.0819 47.2281 96.7249C47.367 96.3679 47.7784 96.1947 48.147 96.3381C48.5156 96.4815 48.7019 96.8871 48.563 97.2441C48.4242 97.6011 48.0128 97.7743 47.6441 97.6309Z" fill="#EFEFF7"/>
<path d="M59.0821 103.35C58.7135 103.206 58.5272 102.801 58.6661 102.444C58.8049 102.087 59.2163 101.913 59.585 102.057C59.9536 102.2 60.1399 102.606 60.001 102.963C59.8622 103.32 59.4508 103.493 59.0821 103.35Z" fill="#EFEFF7"/>
<path d="M56.795 105.637C56.4264 105.493 56.2401 105.088 56.379 104.731C56.5178 104.374 56.9292 104.201 57.2979 104.344C57.6665 104.487 57.8528 104.893 57.7139 105.25C57.5751 105.607 57.1637 105.78 56.795 105.637Z" fill="#EFEFF7"/>
<path d="M71.6642 101.063C71.2955 100.919 71.1093 100.513 71.2481 100.157C71.387 99.7995 71.7984 99.6264 72.167 99.7697C72.5356 99.9131 72.7219 100.319 72.5831 100.676C72.4442 101.033 72.0328 101.206 71.6642 101.063Z" fill="#EFEFF7"/>
<path d="M36.5175 98.8953C35.9771 98.6851 35.7041 98.0906 35.9076 97.5673C36.1112 97.044 36.7142 96.7902 37.2545 97.0004C37.7949 97.2105 38.0679 97.8051 37.8644 98.3284C37.6608 98.8517 37.0578 99.1055 36.5175 98.8953Z" fill="#EFEFF7"/>
<path d="M81.4191 85.2854C80.7166 85.0122 80.3616 84.2391 80.6262 83.5588C80.8908 82.8784 81.6748 82.5484 82.3774 82.8217C83.0799 83.0949 83.4349 83.868 83.1703 84.5483C82.9056 85.2287 82.1216 85.5587 81.4191 85.2854Z" fill="#EFEFF7"/>
<path d="M75.0958 81.6172C74.7272 81.4738 74.5409 81.0682 74.6798 80.7112C74.8186 80.3542 75.23 80.181 75.5986 80.3244C75.9673 80.4678 76.1535 80.8734 76.0147 81.2304C75.8758 81.5874 75.4644 81.7606 75.0958 81.6172Z" fill="#EFEFF7"/>
<path d="M77.3829 73.6113C77.0143 73.468 76.828 73.0623 76.9669 72.7053C77.1057 72.3483 77.5171 72.1752 77.8858 72.3186C78.2544 72.462 78.4407 72.8676 78.3018 73.2246C78.1629 73.5816 77.7515 73.7547 77.3829 73.6113Z" fill="#EFEFF7"/>
<path d="M80.2218 66.6563C79.8531 66.5129 79.6669 66.1072 79.8057 65.7503C79.9446 65.3933 80.356 65.2201 80.7246 65.3635C81.0933 65.5069 81.2795 65.9125 81.1407 66.2695C81.0018 66.6265 80.5904 66.7997 80.2218 66.6563Z" fill="#EFEFF7"/>
<path d="M82.5886 75.1597C81.8717 74.8808 81.5166 74.0736 81.7954 73.3567C82.0743 72.6398 82.8815 72.2847 83.5984 72.5635C84.3153 72.8424 84.6704 73.6496 84.3916 74.3665C84.1127 75.0834 83.3055 75.4385 82.5886 75.1597Z" fill="#EFEFF7"/>
<path d="M65.2112 90.8413C64.4943 90.5625 64.1392 89.7552 64.418 89.0383C64.6969 88.3214 65.5041 87.9663 66.221 88.2452C66.9379 88.524 67.293 89.3312 67.0141 90.0481C66.7353 90.765 65.9281 91.1201 65.2112 90.8413Z" fill="#EFEFF7"/>
<path d="M70.9329 89.2866C70.216 89.0078 69.8608 88.2005 70.1397 87.4836C70.4185 86.7667 71.2258 86.4116 71.9427 86.6905C72.6596 86.9693 73.0147 87.7765 72.7358 88.4934C72.457 89.2103 71.6498 89.5655 70.9329 89.2866Z" fill="#EFEFF7"/>
<path d="M70.5818 95.5231C69.8649 95.2442 69.5098 94.437 69.7886 93.7201C70.0675 93.0032 70.8747 92.6481 71.5916 92.9269C72.3085 93.2058 72.6636 94.013 72.3847 94.7299C72.1059 95.4468 71.2987 95.8019 70.5818 95.5231Z" fill="#EFEFF7"/>
<path d="M53.4167 100.193C52.6998 99.914 52.3447 99.1068 52.6236 98.3899C52.9024 97.673 53.7096 97.3179 54.4265 97.5967C55.1434 97.8756 55.4986 98.6828 55.2197 99.3997C54.9409 100.117 54.1336 100.472 53.4167 100.193Z" fill="#EFEFF7"/>
<path d="M74.605 91.854C72.9484 91.2096 72.1278 89.3443 72.7722 87.6877C73.4165 86.0311 75.2818 85.2105 76.9384 85.8548C78.595 86.4992 79.4156 88.3645 78.7713 90.0211C78.1269 91.6777 76.2616 92.4983 74.605 91.854Z" fill="#EFEFF7"/>
<path d="M63.8682 95.3734C62.2116 94.7291 61.391 92.8638 62.0353 91.2071C62.6797 89.5505 64.545 88.7299 66.2016 89.3743C67.8582 90.0187 68.6788 91.884 68.0345 93.5406C67.3901 95.1972 65.5248 96.0178 63.8682 95.3734Z" fill="#EFEFF7"/>
<path d="M43.1138 103.247C41.4572 102.602 40.6366 100.737 41.2809 99.0803C41.9253 97.4236 43.7906 96.6031 45.4472 97.2474C47.1038 97.8918 47.9244 99.7571 47.2801 101.414C46.6357 103.07 44.7704 103.891 43.1138 103.247Z" fill="#EFEFF7"/>
<path d="M82.2719 69.7264C80.8699 69.1811 80.1754 67.6025 80.7207 66.2005C81.266 64.7985 82.8447 64.1041 84.2466 64.6494C85.6486 65.1947 86.3431 66.7733 85.7978 68.1753C85.2525 69.5773 83.6738 70.2718 82.2719 69.7264Z" fill="#EFEFF7"/>
<path d="M83.9531 64.2487C83.1146 63.9226 82.6992 62.9784 83.0254 62.14C83.3515 61.3015 84.2956 60.8861 85.1341 61.2123C85.9726 61.5384 86.388 62.4825 86.0618 63.321C85.7357 64.1595 84.7916 64.5748 83.9531 64.2487Z" fill="#EFEFF7"/>
<path d="M47.3515 92.8444C46.513 92.5183 46.0977 91.5741 46.4238 90.7357C46.75 89.8972 47.6941 89.4818 48.5326 89.808C49.3711 90.1341 49.7864 91.0782 49.4603 91.9167C49.1341 92.7552 48.19 93.1705 47.3515 92.8444Z" fill="#EFEFF7"/>
<path d="M21.0439 90.4225C20.2054 90.0964 19.7901 89.1523 20.1162 88.3138C20.4423 87.4753 21.3865 87.06 22.2249 87.3861C23.0634 87.7122 23.4788 88.6564 23.1526 89.4948C22.8265 90.3333 21.8824 90.7487 21.0439 90.4225Z" fill="#EFEFF7"/>
</svg>
