<svg width="143" height="116" viewBox="0 0 143 116" fill="none" xmlns="http://www.w3.org/2000/svg">
<path d="M64.7766 62.7855C33.9628 67.8608 9.04159 62.8935 2.98697 49.5574C0.8246 44.8061 -0.580941 35.5194 4.28438 29.6883C9.09564 23.9111 17.6911 24.1811 21.7455 24.2351C46.4505 24.883 65.3172 50.9612 70.1284 57.9262L64.7766 62.7855Z" fill="white" stroke="#525375" stroke-miterlimit="10" stroke-linecap="round" stroke-linejoin="round"/>
<path d="M71.3721 53.4982C73.7507 25.9622 83.7516 5.01323 96.0771 1.61172C96.5636 1.50374 106.402 -1.08789 112.295 5.28319C117.268 10.6824 116.511 19.2132 116.295 21.6968C114.241 44.6435 87.8061 60.0313 78.2376 59.5993C73.2642 59.3834 71.3721 53.4982 71.3721 53.4982Z" fill="white" stroke="#525375" stroke-miterlimit="10" stroke-linecap="round" stroke-linejoin="round"/>
<path d="M82.6703 51.9866C82.6703 51.9866 32.9359 51.4467 37.8012 97.88C37.8012 97.88 98.888 127.036 100.51 68.1843L82.6703 51.9866Z" fill="white" stroke="#525375" stroke-miterlimit="10" stroke-linecap="round" stroke-linejoin="round"/>
<path d="M75.6426 47.1264C75.6426 47.1264 68.0743 20.6702 104.835 25.5295C141.595 30.3888 126.999 50.9058 121.052 57.3849C115.106 63.864 134.567 69.8031 134.567 69.8031C134.567 69.8031 138.351 70.343 141.595 67.1035C141.595 67.1035 137.811 79.5217 130.242 81.6814C130.242 81.6814 132.945 77.9019 128.621 74.6624C124.296 71.4229 121.052 67.1035 115.106 67.6434C109.159 68.1833 97.8068 84.9209 86.4544 72.5027C75.102 60.0845 75.6426 47.1264 75.6426 47.1264Z" fill="white" stroke="#525375" stroke-miterlimit="10" stroke-linecap="round" stroke-linejoin="round"/>
<path d="M117.754 49.5575C108.171 49.5575 100.401 41.7979 100.401 32.226C100.401 22.6541 108.171 14.8945 117.754 14.8945C127.338 14.8945 135.107 22.6541 135.107 32.226C135.107 41.7979 127.338 49.5575 117.754 49.5575Z" fill="white" stroke="#525375" stroke-miterlimit="10" stroke-linecap="round" stroke-linejoin="round"/>
<path d="M117.755 38.4871C114.291 38.4871 111.484 35.683 111.484 32.224C111.484 28.765 114.291 25.9609 117.755 25.9609C121.218 25.9609 124.025 28.765 124.025 32.224C124.025 35.683 121.218 38.4871 117.755 38.4871Z" fill="#525375" stroke="#525375" stroke-miterlimit="10" stroke-linecap="round" stroke-linejoin="round"/>
<path d="M92.9955 46.9649C86.2481 46.9649 80.7782 41.5018 80.7782 34.7627C80.7782 28.0236 86.2481 22.5605 92.9955 22.5605C99.743 22.5605 105.213 28.0236 105.213 34.7627C105.213 41.5018 99.743 46.9649 92.9955 46.9649Z" fill="white" stroke="#525375" stroke-miterlimit="10" stroke-linecap="round" stroke-linejoin="round"/>
<path d="M92.7251 37.8948C90.8442 37.8948 89.3194 36.3719 89.3194 34.4933C89.3194 32.6147 90.8442 31.0918 92.7251 31.0918C94.6061 31.0918 96.1309 32.6147 96.1309 34.4933C96.1309 36.3719 94.6061 37.8948 92.7251 37.8948Z" fill="#525375" stroke="#525375" stroke-miterlimit="10" stroke-linecap="round" stroke-linejoin="round"/>
<path d="M73.2642 80.0081C71.3833 80.0081 69.8585 78.4852 69.8585 76.6066C69.8585 74.728 71.3833 73.2051 73.2642 73.2051C75.1451 73.2051 76.6699 74.728 76.6699 76.6066C76.6699 78.4852 75.1451 80.0081 73.2642 80.0081Z" fill="white" stroke="#525375" stroke-miterlimit="10" stroke-linecap="round" stroke-linejoin="round"/>
<path d="M87.3194 82.7073C85.4384 82.7073 83.9137 81.1844 83.9137 79.3058C83.9137 77.4272 85.4384 75.9043 87.3194 75.9043C89.2003 75.9043 90.7251 77.4272 90.7251 79.3058C90.7251 81.1844 89.2003 82.7073 87.3194 82.7073Z" fill="white" stroke="#525375" stroke-miterlimit="10" stroke-linecap="round" stroke-linejoin="round"/>
<path d="M92.942 83.8438C92.942 83.8438 101.051 93.0224 108.619 90.8627" stroke="#525375" stroke-miterlimit="10" stroke-linecap="round" stroke-linejoin="round"/>
<path d="M87.5354 86.002C87.5354 86.002 92.9414 100.58 101.591 103.279" stroke="#525375" stroke-miterlimit="10" stroke-linecap="round" stroke-linejoin="round"/>
<path d="M80.5081 88.7031C80.5081 88.7031 80.5081 108.14 85.9141 110.3" stroke="#525375" stroke-miterlimit="10" stroke-linecap="round" stroke-linejoin="round"/>
<path d="M65.1514 81.1089C65.8018 80.1561 67.1015 79.9109 68.0543 80.5613C69.0071 81.2117 69.2523 82.5114 68.6019 83.4642C67.9516 84.417 66.6519 84.6622 65.6991 84.0118C64.7462 83.3614 64.501 82.0618 65.1514 81.1089Z" fill="#EFEFF7"/>
<path d="M68.3594 90.3101C69.0098 89.3573 70.3095 89.1121 71.2623 89.7625C72.2151 90.4129 72.4603 91.7125 71.8099 92.6654C71.1596 93.6182 69.8599 93.8634 68.9071 93.213C67.9542 92.5626 67.709 91.263 68.3594 90.3101Z" fill="#EFEFF7"/>
<path d="M57.1485 81.8336C57.7989 80.8807 59.0985 80.6355 60.0514 81.2859C61.0042 81.9363 61.2494 83.236 60.599 84.1888C59.9486 85.1416 58.649 85.3868 57.6961 84.7364C56.7433 84.0861 56.4981 82.7864 57.1485 81.8336Z" fill="#EFEFF7"/>
<path d="M42.2215 88.9259C42.6491 88.2995 42.4879 87.445 41.8615 87.0174C41.235 86.5898 40.3805 86.751 39.9529 87.3774C39.5253 88.0039 39.6865 88.8584 40.313 89.286C40.9394 89.7136 41.7939 89.5524 42.2215 88.9259Z" fill="#EFEFF7"/>
<path d="M49.6673 92.5236C50.0949 91.8971 49.9337 91.0426 49.3073 90.6151C48.6808 90.1875 47.8263 90.3486 47.3987 90.9751C46.9711 91.6015 47.1323 92.456 47.7588 92.8836C48.3852 93.3112 49.2397 93.15 49.6673 92.5236Z" fill="#EFEFF7"/>
<path d="M64.038 78.8363C64.2579 78.5142 64.1833 78.0804 63.8713 77.8675C63.5594 77.6546 63.1282 77.7431 62.9084 78.0652C62.6885 78.3873 62.7631 78.821 63.0751 79.034C63.387 79.2469 63.8182 79.1584 64.038 78.8363Z" fill="#EFEFF7"/>
<path d="M66.8798 86.9886C67.0997 86.6665 67.0251 86.2328 66.7131 86.0198C66.4012 85.8069 65.97 85.8954 65.7502 86.2175C65.5303 86.5397 65.6049 86.9734 65.9169 87.1863C66.2288 87.3992 66.6599 87.3107 66.8798 86.9886Z" fill="#EFEFF7"/>
<path d="M58.8798 87.7191C59.0997 87.397 59.0251 86.9632 58.7131 86.7503C58.4012 86.5374 57.97 86.6259 57.7502 86.948C57.5303 87.2701 57.6049 87.7039 57.9169 87.9168C58.2288 88.1297 58.6599 88.0412 58.8798 87.7191Z" fill="#EFEFF7"/>
<path d="M52.0742 85.9593C52.294 85.6372 52.2194 85.2035 51.9074 84.9905C51.5955 84.7776 51.1644 84.8661 50.9445 85.1882C50.7246 85.5104 50.7993 85.9441 51.1112 86.157C51.4232 86.37 51.8543 86.2814 52.0742 85.9593Z" fill="#EFEFF7"/>
<path d="M42.1489 81.1644C42.3687 80.8423 42.2941 80.4085 41.9821 80.1956C41.6702 79.9827 41.2391 80.0712 41.0192 80.3933C40.7993 80.7154 40.874 81.1492 41.1859 81.3621C41.4979 81.575 41.929 81.4865 42.1489 81.1644Z" fill="#EFEFF7"/>
<path d="M74.7563 67.7679C74.9762 67.4458 74.9015 67.012 74.5896 66.7991C74.2776 66.5862 73.8465 66.6747 73.6266 66.9968C73.4068 67.3189 73.4814 67.7527 73.7933 67.9656C74.1053 68.1785 74.5364 68.09 74.7563 67.7679Z" fill="#EFEFF7"/>
<path d="M63.7474 85.5509C64.175 84.9245 64.0138 84.07 63.3873 83.6424C62.7609 83.2148 61.9064 83.376 61.4788 84.0024C61.0512 84.6289 61.2124 85.4834 61.8389 85.911C62.4653 86.3386 63.3198 86.1774 63.7474 85.5509Z" fill="#EFEFF7"/>
<path d="M59.5091 91.1544C59.9367 90.528 59.7755 89.6735 59.1491 89.2459C58.5226 88.8183 57.6681 88.9795 57.2405 89.606C56.8129 90.2324 56.9741 91.0869 57.6006 91.5145C58.227 91.9421 59.0815 91.7809 59.5091 91.1544Z" fill="#EFEFF7"/>
<path d="M53.9896 93.0802C54.4172 92.4538 54.256 91.5993 53.6295 91.1717C53.0031 90.7441 52.1486 90.9053 51.721 91.5317C51.2934 92.1582 51.4546 93.0127 52.0811 93.4403C52.7075 93.8679 53.562 93.7067 53.9896 93.0802Z" fill="#EFEFF7"/>
<path d="M57.7523 97.9572C58.1799 97.3307 58.0187 96.4762 57.3922 96.0486C56.7658 95.621 55.9113 95.7822 55.4837 96.4087C55.0561 97.0351 55.2173 97.8896 55.8438 98.3172C56.4702 98.7448 57.3247 98.5836 57.7523 97.9572Z" fill="#EFEFF7"/>
<path d="M74.3153 92.1857C74.7429 91.5592 74.5817 90.7048 73.9552 90.2772C73.3288 89.8496 72.4743 90.0108 72.0467 90.6372C71.6191 91.2636 71.7803 92.1181 72.4067 92.5457C73.0332 92.9733 73.8877 92.8121 74.3153 92.1857Z" fill="#EFEFF7"/>
<path d="M52.4356 97.2169C53.4236 95.7693 53.0512 93.7948 51.6036 92.8067C50.156 91.8186 48.1815 92.1911 47.1934 93.6387C46.2053 95.0863 46.5778 97.0608 48.0254 98.0489C49.473 99.037 51.4475 98.6645 52.4356 97.2169Z" fill="#EFEFF7"/>
<path d="M63.1284 94.0938C64.1165 92.6462 63.744 90.6717 62.2964 89.6837C60.8489 88.6956 58.8744 89.0681 57.8863 90.5156C56.8982 91.9632 57.2707 93.9377 58.7183 94.9258C60.1658 95.9139 62.1403 95.5414 63.1284 94.0938Z" fill="#EFEFF7"/>
<path d="M72.5125 102.111C73.3488 100.886 73.0335 99.2147 71.8084 98.3785C70.5834 97.5422 68.9123 97.8575 68.0761 99.0826C67.2399 100.308 67.5551 101.979 68.7802 102.815C70.0053 103.651 71.6763 103.336 72.5125 102.111Z" fill="#EFEFF7"/>
<path d="M53.8123 81.3008C54.3124 80.5682 54.1238 79.5688 53.3912 79.0687C52.6585 78.5685 51.6591 78.7571 51.159 79.4898C50.6588 80.2224 50.8474 81.2218 51.5801 81.7219C52.3128 82.2221 53.3121 82.0335 53.8123 81.3008Z" fill="#EFEFF7"/>
<path d="M53.948 70.6797C54.4481 69.9471 54.2596 68.9477 53.5269 68.4476C52.7942 67.9474 51.7948 68.136 51.2947 68.8687C50.7946 69.6014 50.9831 70.6007 51.7158 71.1009C52.4485 71.601 53.4479 71.4124 53.948 70.6797Z" fill="#EFEFF7"/>
<path d="M54.4529 83.1407C54.953 82.408 54.7645 81.4086 54.0318 80.9085C53.2991 80.4084 52.2997 80.5969 51.7996 81.3296C51.2995 82.0623 51.488 83.0617 52.2207 83.5618C52.9534 84.0619 53.9528 83.8734 54.4529 83.1407Z" fill="#EFEFF7"/>
<path d="M46.4959 86.002C46.996 85.2693 46.8074 84.2699 46.0747 83.7698C45.3421 83.2697 44.3427 83.4582 43.8426 84.1909C43.3424 84.9236 43.531 85.923 44.2637 86.4231C44.9963 86.9232 45.9957 86.7347 46.4959 86.002Z" fill="#EFEFF7"/>
<path d="M41.5422 94.3633C42.0424 93.6307 41.8538 92.6313 41.1211 92.1312C40.3884 91.631 39.3891 91.8196 38.8889 92.5523C38.3888 93.2849 38.5774 94.2843 39.31 94.7844C40.0427 95.2846 41.0421 95.096 41.5422 94.3633Z" fill="#EFEFF7"/>
</svg>
