<svg width="158" height="126" viewBox="0 0 158 126" fill="none" xmlns="http://www.w3.org/2000/svg">
<path d="M93.385 51.2115C94.813 46.9689 98.7297 33.6291 92.569 19.7997C90.7739 15.8018 86.8979 7.07179 77.4734 3.07393C75.3926 2.17645 68.4976 -0.597584 60.7458 2.25803C54.6259 4.50174 50.6276 9.2339 48.9141 12.8646C44.0182 23.1448 50.2604 39.3403 65.6417 51.2115C19.2532 26.6532 5.29993 25.307 1.99521 29.5904C-0.819931 33.1803 2.68878 42.3591 8.11505 47.54C15.8669 54.9238 26.7602 53.496 28.5146 53.2512C16.7645 53.7408 8.64545 57.9018 8.52304 61.4101C8.40065 64.8777 16.1933 69.5283 27.6986 70.7929C24.3939 74.9131 23.9043 80.1348 26.0666 83.0313C28.8818 86.8252 36.9192 87.5595 42.3862 81.8074C42.5494 82.5009 43.5694 86.9883 47.2821 88.7425C51.5252 90.7414 57.8899 88.5385 61.1538 82.6233C62.4185 89.232 64.6625 93.8826 66.4576 96.9014C70.252 103.347 73.6791 105.142 76.6574 111.18C79.3093 116.524 79.8397 121.664 79.9213 125.05C111.337 123.826 118.803 120.848 119.088 118.115C119.374 115.259 111.745 113.75 106.849 104.244C104.074 98.9004 103.666 93.9234 103.585 92.822C103.381 89.8032 103.666 87.2739 103.993 85.4789C103.993 85.4789 119.904 96.9014 120.72 81.8074C120.72 81.8074 153.768 83.0313 138.672 66.3055C138.672 66.3055 159.887 71.2008 156.623 56.1069C153.36 41.0129 137.199 45.6993 137.199 45.6993C137.199 45.6993 164.783 31.2222 145.2 22.6553C125.616 14.0885 93.385 51.2115 93.385 51.2115Z" fill="white" stroke="#525375" stroke-miterlimit="10" stroke-linecap="round" stroke-linejoin="round"/>
<path d="M109.649 72.5458C108.646 72.3456 107.671 72.9965 107.471 73.9996C107.27 75.0027 107.921 75.9782 108.924 76.1785C109.928 76.3787 110.903 75.7278 111.103 74.7247C111.303 73.7216 110.653 72.7461 109.649 72.5458Z" fill="#EFEFF7"/>
<path d="M113.325 80.3642C112.322 80.164 111.347 80.8149 111.146 81.818C110.946 82.8211 111.597 83.7966 112.6 83.9968C113.603 84.1971 114.579 83.5462 114.779 82.5431C114.979 81.5399 114.328 80.5644 113.325 80.3642Z" fill="#EFEFF7"/>
<path d="M115.17 68.04C114.166 67.8398 113.191 68.4906 112.991 69.4938C112.79 70.4969 113.441 71.4724 114.444 71.6726C115.448 71.8728 116.423 71.222 116.623 70.2188C116.824 69.2157 116.173 68.2402 115.17 68.04Z" fill="#EFEFF7"/>
<path d="M129.026 63.2749C128.366 63.1433 127.938 62.5019 128.07 61.8424C128.202 61.1829 128.843 60.755 129.503 60.8866C130.162 61.0183 130.59 61.6596 130.458 62.3191C130.327 62.9787 129.685 63.4066 129.026 63.2749Z" fill="#EFEFF7"/>
<path d="M126.54 70.1734C125.881 70.0417 125.453 69.4004 125.584 68.7409C125.716 68.0814 126.357 67.6534 127.017 67.7851C127.676 67.9167 128.104 68.5581 127.973 69.2176C127.841 69.8771 127.2 70.305 126.54 70.1734Z" fill="#EFEFF7"/>
<path d="M108.945 70.4163C108.606 70.3486 108.385 70.0275 108.45 69.6991C108.516 69.3707 108.844 69.1594 109.183 69.227C109.522 69.2947 109.744 69.6158 109.678 69.9442C109.613 70.2727 109.285 70.484 108.945 70.4163Z" fill="#EFEFF7"/>
<path d="M112.203 77.3441C111.864 77.2764 111.642 76.9553 111.707 76.6269C111.773 76.2984 112.101 76.0871 112.44 76.1548C112.779 76.2225 113.001 76.5436 112.936 76.872C112.87 77.2004 112.542 77.4117 112.203 77.3441Z" fill="#EFEFF7"/>
<path d="M117.723 72.8421C117.384 72.7744 117.162 72.4533 117.227 72.1249C117.293 71.7965 117.621 71.5851 117.96 71.6528C118.299 71.7205 118.521 72.0416 118.456 72.37C118.39 72.6984 118.062 72.9098 117.723 72.8421Z" fill="#EFEFF7"/>
<path d="M120.944 67.5062C120.604 67.4385 120.383 67.1174 120.448 66.789C120.514 66.4606 120.842 66.2492 121.181 66.3169C121.52 66.3846 121.742 66.7057 121.676 67.0341C121.611 67.3625 121.283 67.5739 120.944 67.5062Z" fill="#EFEFF7"/>
<path d="M124.258 58.3128C123.919 58.2451 123.698 57.924 123.763 57.5956C123.829 57.2672 124.157 57.0558 124.496 57.1235C124.835 57.1912 125.057 57.5123 124.991 57.8407C124.926 58.1691 124.598 58.3805 124.258 58.3128Z" fill="#EFEFF7"/>
<path d="M128.722 52.3148C128.383 52.2471 128.161 51.926 128.226 51.5976C128.292 51.2691 128.62 51.0578 128.959 51.1255C129.298 51.1932 129.52 51.5143 129.455 51.8427C129.389 52.1711 129.061 52.3825 128.722 52.3148Z" fill="#EFEFF7"/>
<path d="M113.294 74.4898C112.635 74.3581 112.207 73.7168 112.339 73.0573C112.47 72.3978 113.112 71.9698 113.771 72.1015C114.431 72.2331 114.859 72.8745 114.727 73.534C114.595 74.1935 113.954 74.6214 113.294 74.4898Z" fill="#EFEFF7"/>
<path d="M119.456 75.4097C118.797 75.2781 118.369 74.6367 118.5 73.9772C118.632 73.3177 119.273 72.8898 119.933 73.0214C120.592 73.153 121.02 73.7944 120.889 74.4539C120.757 75.1134 120.116 75.5413 119.456 75.4097Z" fill="#EFEFF7"/>
<path d="M124.147 73.2066C123.488 73.0749 123.06 72.4336 123.192 71.7741C123.323 71.1146 123.965 70.6866 124.624 70.8183C125.284 70.9499 125.712 71.5913 125.58 72.2508C125.448 72.9103 124.807 73.3382 124.147 73.2066Z" fill="#EFEFF7"/>
<path d="M124.789 78.6304C124.13 78.4988 123.702 77.8574 123.833 77.1979C123.965 76.5384 124.606 76.1105 125.266 76.2421C125.925 76.3738 126.353 77.0151 126.222 77.6746C126.09 78.3341 125.449 78.762 124.789 78.6304Z" fill="#EFEFF7"/>
<path d="M110.715 85.2476C110.055 85.1159 109.627 84.4746 109.759 83.8151C109.891 83.1556 110.532 82.7277 111.192 82.8593C111.851 82.9909 112.279 83.6323 112.147 84.2918C112.016 84.9513 111.374 85.3792 110.715 85.2476Z" fill="#EFEFF7"/>
<path d="M127.699 74.8645C126.175 74.5603 125.186 73.0783 125.49 71.5543C125.794 70.0303 127.276 69.0415 128.8 69.3457C130.324 69.6499 131.313 71.1319 131.009 72.6559C130.705 74.1799 129.223 75.1687 127.699 74.8645Z" fill="#EFEFF7"/>
<path d="M118.986 79.5169C117.462 79.2127 116.473 77.7306 116.777 76.2067C117.081 74.6827 118.563 73.6938 120.087 73.998C121.611 74.3022 122.6 75.7843 122.296 77.3082C121.992 78.8322 120.51 79.8211 118.986 79.5169Z" fill="#EFEFF7"/>
<path d="M130.952 54.6478C129.662 54.3904 128.826 53.1361 129.083 51.8464C129.34 50.5566 130.595 49.7198 131.884 49.9772C133.174 50.2347 134.011 51.4889 133.754 52.7786C133.496 54.0684 132.242 54.9052 130.952 54.6478Z" fill="#EFEFF7"/>
<path d="M116.953 65.6337C116.182 65.4797 115.681 64.7296 115.835 63.9582C115.989 63.1869 116.739 62.6864 117.511 62.8404C118.282 62.9943 118.782 63.7444 118.628 64.5158C118.474 65.2872 117.724 65.7877 116.953 65.6337Z" fill="#EFEFF7"/>
<path d="M131.505 50.0712C130.733 49.9172 130.233 49.1671 130.387 48.3957C130.541 47.6244 131.291 47.1239 132.062 47.2779C132.834 47.4318 133.334 48.1819 133.18 48.9533C133.026 49.7247 132.276 50.2252 131.505 50.0712Z" fill="#EFEFF7"/>
<path d="M117.688 67.1962C116.917 67.0422 116.416 66.2921 116.57 65.5207C116.724 64.7494 117.475 64.2489 118.246 64.4029C119.017 64.5568 119.518 65.3069 119.364 66.0783C119.21 66.8497 118.46 67.3502 117.688 67.1962Z" fill="#EFEFF7"/>
<path d="M124.505 64.0731C123.733 63.9192 123.233 63.1691 123.387 62.3977C123.541 61.6263 124.291 61.1258 125.062 61.2798C125.834 61.4338 126.334 62.1839 126.18 62.9553C126.026 63.7266 125.276 64.2271 124.505 64.0731Z" fill="#EFEFF7"/>
<path d="M138.505 60.0712C137.733 59.9172 137.233 59.1671 137.387 58.3957C137.541 57.6244 138.291 57.1239 139.062 57.2779C139.834 57.4318 140.334 58.1819 140.18 58.9533C140.026 59.7247 139.276 60.2252 138.505 60.0712Z" fill="#EFEFF7"/>
<path d="M37.8389 58.5913C38.198 57.6335 37.7126 56.566 36.7547 56.2069C35.7969 55.8479 34.7294 56.3333 34.3703 57.2911C34.0113 58.2489 34.4967 59.3165 35.4545 59.6755C36.4123 60.0346 37.4799 59.5492 37.8389 58.5913Z" fill="#EFEFF7"/>
<path d="M24.2271 66.0347C24.5862 65.0769 24.1008 64.0093 23.1429 63.6503C22.1851 63.2912 21.1176 63.7766 20.7585 64.7345C20.3995 65.6923 20.8849 66.7598 21.8427 67.1189C22.8005 67.4779 23.8681 66.9925 24.2271 66.0347Z" fill="#EFEFF7"/>
<path d="M29.5294 60.9605C29.8884 60.0027 29.403 58.9351 28.4452 58.5761C27.4874 58.217 26.4198 58.7024 26.0608 59.6602C25.7017 60.6181 26.1871 61.6856 27.1449 62.0447C28.1028 62.4037 29.1703 61.9183 29.5294 60.9605Z" fill="#EFEFF7"/>
<path d="M41.397 64.7632C41.7561 63.8054 41.2707 62.7378 40.3129 62.3788C39.355 62.0197 38.2875 62.5051 37.9284 63.463C37.5694 64.4208 38.0548 65.4883 39.0126 65.8474C39.9704 66.2064 41.038 65.721 41.397 64.7632Z" fill="#EFEFF7"/>
<path d="M43.8711 79.2081C44.1072 78.5783 44.809 78.2592 45.4387 78.4953C46.0685 78.7313 46.3876 79.4332 46.1515 80.0629C45.9155 80.6926 45.2136 81.0118 44.5839 80.7757C43.9542 80.5396 43.635 79.8378 43.8711 79.2081Z" fill="#EFEFF7"/>
<path d="M37.4624 75.6436C37.6985 75.0139 38.4003 74.6947 39.0301 74.9308C39.6598 75.1669 39.9789 75.8687 39.7429 76.4985C39.5068 77.1282 38.8049 77.4473 38.1752 77.2112C37.5455 76.9752 37.2264 76.2733 37.4624 75.6436Z" fill="#EFEFF7"/>
<path d="M40.0544 58.24C40.1758 57.9162 40.5284 57.749 40.842 57.8665C41.1556 57.9841 41.3114 58.3418 41.19 58.6656C41.0686 58.9895 40.716 59.1567 40.4024 59.0391C40.0888 58.9216 39.933 58.5638 40.0544 58.24Z" fill="#EFEFF7"/>
<path d="M32.6916 60.3396C32.813 60.0158 33.1656 59.8486 33.4792 59.9661C33.7928 60.0837 33.9486 60.4415 33.8272 60.7653C33.7058 61.0891 33.3532 61.2563 33.0396 61.1387C32.7261 61.0212 32.5702 60.6634 32.6916 60.3396Z" fill="#EFEFF7"/>
<path d="M36.2468 66.5115C36.3682 66.1876 36.7208 66.0204 37.0344 66.138C37.348 66.2555 37.5038 66.6133 37.3824 66.9371C37.261 67.2609 36.9084 67.4281 36.5948 67.3106C36.2812 67.193 36.1254 66.8353 36.2468 66.5115Z" fill="#EFEFF7"/>
<path d="M40.9944 70.5486C41.1157 70.2248 41.4684 70.0576 41.7819 70.1751C42.0955 70.2926 42.2513 70.6504 42.1299 70.9742C42.0086 71.298 41.6559 71.4653 41.3424 71.3477C41.0288 71.2302 40.873 70.8724 40.9944 70.5486Z" fill="#EFEFF7"/>
<path d="M49.5349 75.3005C49.6563 74.9767 50.0089 74.8095 50.3225 74.9271C50.636 75.0446 50.7918 75.4024 50.6705 75.7262C50.5491 76.05 50.1965 76.2172 49.8829 76.0997C49.5693 75.9821 49.4135 75.6243 49.5349 75.3005Z" fill="#EFEFF7"/>
<path d="M54.7366 80.6716C54.8579 80.3478 55.2105 80.1806 55.5241 80.2981C55.8377 80.4157 55.9935 80.7735 55.8721 81.0973C55.7507 81.4211 55.3981 81.5883 55.0846 81.4708C54.771 81.3532 54.6152 80.9954 54.7366 80.6716Z" fill="#EFEFF7"/>
<path d="M35.334 61.876C35.5701 61.2463 36.2719 60.9272 36.9016 61.1632C37.5314 61.3993 37.8505 62.1011 37.6144 62.7309C37.3784 63.3606 36.6765 63.6797 36.0468 63.4437C35.4171 63.2076 35.0979 62.5057 35.334 61.876Z" fill="#EFEFF7"/>
<path d="M33.4331 67.8096C33.6692 67.1799 34.371 66.8608 35.0008 67.0968C35.6305 67.3329 35.9496 68.0347 35.7136 68.6645C35.4775 69.2942 34.7756 69.6133 34.1459 69.3773C33.5162 69.1412 33.1971 68.4393 33.4331 67.8096Z" fill="#EFEFF7"/>
<path d="M34.853 72.794C35.0891 72.1643 35.791 71.8451 36.4207 72.0812C37.0504 72.3173 37.3695 73.0191 37.1335 73.6488C36.8974 74.2786 36.1956 74.5977 35.5658 74.3616C34.9361 74.1256 34.617 73.4237 34.853 72.794Z" fill="#EFEFF7"/>
<path d="M29.3975 72.5538C29.6335 71.924 30.3354 71.6049 30.9651 71.841C31.5948 72.077 31.914 72.7789 31.6779 73.4086C31.4419 74.0383 30.74 74.3575 30.1103 74.1214C29.4805 73.8853 29.1614 73.1835 29.3975 72.5538Z" fill="#EFEFF7"/>
<path d="M25.1304 57.5987C25.3664 56.969 26.0683 56.6498 26.698 56.8859C27.3278 57.1219 27.6469 57.8238 27.4108 58.4535C27.1748 59.0833 26.4729 59.4024 25.8432 59.1663C25.2134 58.9303 24.8943 58.2284 25.1304 57.5987Z" fill="#EFEFF7"/>
<path d="M32.6463 76.0324C33.1918 74.5772 34.8136 73.8398 36.2688 74.3853C37.724 74.9308 38.4614 76.5526 37.9159 78.0078C37.3704 79.4629 35.7486 80.2004 34.2934 79.6549C32.8382 79.1094 32.1008 77.4876 32.6463 76.0324Z" fill="#EFEFF7"/>
<path d="M29.4559 66.6828C30.0013 65.2276 31.6232 64.4902 33.0784 65.0357C34.5335 65.5811 35.271 67.203 34.7255 68.6582C34.18 70.1133 32.5581 70.8508 31.103 70.3053C29.6478 69.7598 28.9104 68.1379 29.4559 66.6828Z" fill="#EFEFF7"/>
<path d="M52.0754 82.4969C52.5371 81.2653 53.9096 80.6413 55.1411 81.1029C56.3726 81.5645 56.9967 82.9371 56.5351 84.1686C56.0735 85.4001 54.7009 86.0242 53.4694 85.5626C52.2379 85.1009 51.6138 83.7284 52.0754 82.4969Z" fill="#EFEFF7"/>
<path d="M43.4851 66.9127C43.7612 66.1761 44.582 65.8029 45.3186 66.079C46.0551 66.3551 46.4284 67.176 46.1523 67.9125C45.8762 68.649 45.0553 69.0223 44.3187 68.7462C43.5822 68.4701 43.209 67.6492 43.4851 66.9127Z" fill="#EFEFF7"/>
<path d="M30.6086 81.3365C30.8847 80.6 31.7056 80.2267 32.4421 80.5028C33.1786 80.7789 33.5519 81.5998 33.2758 82.3363C32.9997 83.0728 32.1788 83.4461 31.4423 83.17C30.7058 82.8939 30.3325 82.073 30.6086 81.3365Z" fill="#EFEFF7"/>
<path d="M41.8244 67.3853C42.1005 66.6488 42.9214 66.2755 43.6579 66.5516C44.3945 66.8277 44.7677 67.6486 44.4916 68.3852C44.2155 69.1217 43.3946 69.4949 42.6581 69.2188C41.9216 68.9427 41.5483 68.1219 41.8244 67.3853Z" fill="#EFEFF7"/>
<path d="M43.8098 74.6158C44.0859 73.8793 44.9068 73.506 45.6433 73.7821C46.3798 74.0582 46.7531 74.8791 46.477 75.6156C46.2009 76.3521 45.38 76.7254 44.6435 76.4493C43.9069 76.1732 43.5337 75.3523 43.8098 74.6158Z" fill="#EFEFF7"/>
<path d="M16.6086 61.3345C16.8847 60.598 17.7056 60.2248 18.4421 60.5009C19.1786 60.777 19.5519 61.5978 19.2758 62.3344C18.9997 63.0709 18.1788 63.4441 17.4423 63.1681C16.7058 62.892 16.3325 62.0711 16.6086 61.3345Z" fill="#EFEFF7"/>
<path d="M61.9701 27.5501C61.9701 27.5501 49.7304 23.4707 45.2425 29.9978C40.7546 36.5249 54.2183 31.2216 54.2183 31.2216C54.2183 31.2216 46.8745 33.2613 49.7304 36.117C52.5863 38.9726 62.3781 32.0375 63.1941 29.9978C64.01 27.9581 61.9701 27.5501 61.9701 27.5501Z" fill="white" stroke="#525375" stroke-miterlimit="10" stroke-linecap="round" stroke-linejoin="round"/>
<path d="M62.6526 16.5709C62.0881 16.5082 61.4347 16.5752 60.8558 17.0042C59.8866 17.7411 59.8725 19.009 59.8725 19.2151C59.8725 20.3007 60.588 21.0289 60.8276 21.2685C61.5118 21.9525 62.7638 22.4792 63.9381 21.9424C65.1172 21.4034 65.6926 19.9513 65.4144 18.7619C65.1113 17.5563 64.0814 17.0291 63.7358 16.8563C63.7341 16.8555 63.7323 16.8548 63.7305 16.8541C63.5924 16.7976 63.1812 16.6296 62.6526 16.5709Z" fill="#525375" stroke="#525375"/>
<path d="M50.6489 15.0528L50.649 15.0529L50.6391 15.0602C49.918 15.5931 49.9036 16.5318 49.9036 16.6978C49.9036 17.1227 50.0339 17.474 50.1905 17.7377C50.3528 18.011 50.5284 18.1657 50.5785 18.1991L50.6197 18.2266L50.6547 18.2616C51.1681 18.7749 52.1351 19.1498 52.9911 18.7718C53.8934 18.3505 54.331 17.2614 54.101 16.3745L54.1 16.3703C53.8801 15.4909 53.0992 15.0864 52.8288 14.951C52.8271 14.9503 52.8255 14.9496 52.8238 14.9489C52.6958 14.8969 52.374 14.766 51.9702 14.7216C51.5399 14.6743 51.0634 14.7304 50.6489 15.0528Z" fill="#525375" stroke="#525375"/>
<path d="M54.218 31.2226C54.218 31.2226 71.3536 33.2623 80.7374 42.2371C80.7374 42.2371 83.1853 41.4212 85.6333 43.053C88.0812 44.6848 87.6732 49.5801 87.6732 49.5801C87.6732 49.5801 79.9214 48.3563 80.7374 43.4609" stroke="#525375" stroke-miterlimit="10" stroke-linecap="round" stroke-linejoin="round"/>
<path d="M76.2492 36.9343C76.3308 36.7303 77.0651 34.7314 79.1051 34.0786C80.8187 33.5483 82.777 34.201 84.001 35.7104C83.7154 36.2407 83.1034 37.179 81.961 37.7501C80.2067 38.6068 78.0035 38.2805 76.2492 36.9343Z" stroke="#525375" stroke-miterlimit="10" stroke-linecap="round" stroke-linejoin="round"/>
<path d="M75.0252 39.7871C75.0252 39.7871 70.9453 41.8268 75.0252 46.7222C75.0252 46.7222 79.9211 42.6427 75.0252 39.7871Z" stroke="#525375" stroke-miterlimit="10" stroke-linecap="round" stroke-linejoin="round"/>
<path d="M70.5375 33.6698C70.5375 33.6698 70.5375 30.4062 75.0254 30.4062C75.0254 30.4062 75.4334 33.6698 70.5375 33.6698Z" stroke="#525375" stroke-miterlimit="10" stroke-linecap="round" stroke-linejoin="round"/>
<path d="M69.3138 36.9336C69.3138 36.9336 66.4578 38.9734 68.9058 42.2369C68.9058 42.2369 71.7617 39.3813 69.3138 36.9336Z" stroke="#525375" stroke-miterlimit="10" stroke-linecap="round" stroke-linejoin="round"/>
<path d="M45.2422 29.9985C45.2422 29.9985 39.1223 29.5905 35.8584 30.4064" stroke="#525375" stroke-miterlimit="10" stroke-linecap="round" stroke-linejoin="round"/>
<path d="M64.3041 99.1195C64.3041 99.1195 59.7279 97.6342 61.4517 91.6608C63.1755 85.6873 69.0555 89.9348 64.3041 99.1195Z" fill="#525375" stroke="#525375" stroke-miterlimit="10" stroke-linecap="round" stroke-linejoin="round"/>
<path d="M68.4524 98.8791C68.4524 98.8791 76.0407 89.4045 71.2639 87.3008C66.487 85.1971 64.7374 94.5532 68.4524 98.8791Z" fill="#525375" stroke="#525375" stroke-miterlimit="10" stroke-linecap="round" stroke-linejoin="round"/>
<path d="M85.8611 97.0836C85.8611 97.0836 78.0326 89.5638 82.4933 86.4981C86.954 83.4324 85.8611 97.0836 85.8611 97.0836Z" fill="#525375" stroke="#525375" stroke-miterlimit="10" stroke-linecap="round" stroke-linejoin="round"/>
<path d="M90.6786 97.8709C90.6786 97.8709 85.7318 93.5672 87.0204 88.5353C88.3658 83.5128 95.7523 88.2154 90.6786 97.8709Z" fill="#525375" stroke="#525375" stroke-miterlimit="10" stroke-linecap="round" stroke-linejoin="round"/>
</svg>
