<svg width="107" height="144" viewBox="0 0 107 144" fill="none" xmlns="http://www.w3.org/2000/svg">
<path d="M8.89172 51.5238C8.89172 51.5238 -4.1086 114.072 3.26222 125.367C10.9258 137.103 23.3661 133.172 36.1982 135.519C53.323 138.651 70.7482 144.551 78.7622 135.519C83.0974 130.64 84.9268 109.662 87.817 88.0106C91.2206 62.568 88.5348 63.3463 91.7249 51.5238C97.4779 30.1723 108.539 18.955 103.436 12.4248C100.868 9.15749 96.0419 9.36219 95.6283 9.38494C86.5034 9.90827 77.8514 23.9059 74.8068 44.5703C67.8177 45.6124 62.2689 46.5772 58.6471 47.2325C50.2175 48.7615 45.7233 49.8037 39.2341 48.9163C35.2896 48.3748 33.3263 48.1061 32.2947 47.1778C24.3513 39.9651 44.7505 12.948 36.1982 3.73755C33.8988 1.262 30.0862 0.697851 27.5232 1.13471C17.3032 2.8776 10.3641 23.4783 8.89172 51.5238Z" fill="white" stroke="#525375" stroke-linecap="round" stroke-linejoin="round"/>
<path d="M73.4796 127.392C73.6002 126.279 72.7948 125.28 71.6807 125.161C70.5665 125.042 69.5655 125.847 69.4449 126.96C69.3243 128.073 70.1298 129.071 71.2439 129.191C72.358 129.31 73.359 128.505 73.4796 127.392Z" fill="#EFEFF7"/>
<path d="M30.1354 118.064C30.256 116.951 29.4506 115.952 28.3364 115.833C27.2223 115.714 26.2213 116.519 26.1007 117.632C25.9801 118.744 26.7855 119.743 27.8997 119.863C29.0138 119.982 30.0148 119.177 30.1354 118.064Z" fill="#EFEFF7"/>
<path d="M27.4 130.648C27.5206 129.535 26.7152 128.536 25.6011 128.417C24.4869 128.298 23.486 129.103 23.3654 130.216C23.2447 131.328 24.0502 132.327 25.1643 132.447C26.2784 132.566 27.2794 131.761 27.4 130.648Z" fill="#EFEFF7"/>
<path d="M50.323 133.489C50.4023 132.757 51.0604 132.228 51.7929 132.306C52.5254 132.385 53.0549 133.041 52.9756 133.773C52.8963 134.505 52.2382 135.034 51.5057 134.956C50.7732 134.877 50.2437 134.22 50.323 133.489Z" fill="#EFEFF7"/>
<path d="M42.5515 131.459C42.6308 130.728 43.2889 130.198 44.0214 130.277C44.7539 130.355 45.2834 131.012 45.2041 131.744C45.1248 132.475 44.4667 133.005 43.7342 132.926C43.0017 132.848 42.4722 132.191 42.5515 131.459Z" fill="#EFEFF7"/>
<path d="M52.906 136.094C52.9853 135.363 53.6434 134.833 54.3759 134.912C55.1084 134.99 55.6379 135.647 55.5586 136.378C55.4793 137.11 54.8212 137.64 54.0887 137.561C53.3562 137.483 52.8267 136.826 52.906 136.094Z" fill="#EFEFF7"/>
<path d="M67.3643 129.343C67.405 128.967 67.7338 128.694 68.0985 128.733C68.4633 128.772 68.7259 129.109 68.6852 129.485C68.6444 129.861 68.3156 130.134 67.9509 130.095C67.5861 130.056 67.3235 129.72 67.3643 129.343Z" fill="#EFEFF7"/>
<path d="M77.8359 110.451C77.8767 110.075 78.2055 109.801 78.5702 109.84C78.935 109.879 79.1976 110.216 79.1568 110.592C79.1161 110.968 78.7873 111.242 78.4226 111.203C78.0578 111.164 77.7952 110.827 77.8359 110.451Z" fill="#EFEFF7"/>
<path d="M33.6318 116.242C33.6726 115.866 34.0014 115.592 34.3661 115.631C34.7309 115.67 34.9935 116.007 34.9527 116.383C34.912 116.759 34.5832 117.033 34.2185 116.994C33.8537 116.955 33.5911 116.618 33.6318 116.242Z" fill="#EFEFF7"/>
<path d="M6.77051 116.068C6.81128 115.692 7.14003 115.418 7.50478 115.458C7.86954 115.497 8.13218 115.833 8.0914 116.209C8.05063 116.586 7.72189 116.859 7.35713 116.82C6.99237 116.781 6.72974 116.444 6.77051 116.068Z" fill="#EFEFF7"/>
<path d="M15.5889 126.566C15.6296 126.19 15.9584 125.917 16.3231 125.956C16.6879 125.995 16.9505 126.331 16.9098 126.708C16.869 127.084 16.5402 127.357 16.1755 127.318C15.8107 127.279 15.5481 126.942 15.5889 126.566Z" fill="#EFEFF7"/>
<path d="M38.7764 122.115C38.8171 121.739 39.1459 121.465 39.5106 121.504C39.8754 121.544 40.138 121.88 40.0973 122.256C40.0565 122.633 39.7277 122.906 39.363 122.867C38.9982 122.828 38.7356 122.491 38.7764 122.115Z" fill="#EFEFF7"/>
<path d="M7.20166 118.212C7.24243 117.836 7.57118 117.563 7.93593 117.602C8.30069 117.641 8.56333 117.978 8.52256 118.354C8.48178 118.73 8.15304 119.003 7.78828 118.964C7.42353 118.925 7.16089 118.589 7.20166 118.212Z" fill="#EFEFF7"/>
<path d="M44.9141 125.099C44.9548 124.723 45.2836 124.45 45.6483 124.489C46.0131 124.528 46.2757 124.865 46.235 125.241C46.1942 125.617 45.8654 125.89 45.5007 125.851C45.1359 125.812 44.8733 125.475 44.9141 125.099Z" fill="#EFEFF7"/>
<path d="M55.2715 127.806C55.3123 127.43 55.641 127.157 56.0058 127.196C56.3705 127.235 56.6332 127.572 56.5924 127.948C56.5516 128.324 56.2229 128.597 55.8581 128.558C55.4934 128.519 55.2307 128.182 55.2715 127.806Z" fill="#EFEFF7"/>
<path d="M46.8359 135.451C46.8767 135.075 47.2055 134.801 47.5702 134.84C47.935 134.879 48.1976 135.216 48.1568 135.592C48.1161 135.968 47.7873 136.242 47.4226 136.203C47.0578 136.164 46.7952 135.827 46.8359 135.451Z" fill="#EFEFF7"/>
<path d="M69.8359 136.451C69.8767 136.075 70.2055 135.801 70.5702 135.84C70.935 135.879 71.1976 136.216 71.1568 136.592C71.1161 136.968 70.7873 137.242 70.4226 137.203C70.0578 137.164 69.7952 136.827 69.8359 136.451Z" fill="#EFEFF7"/>
<path d="M81.8364 107.451C81.8772 107.075 82.2059 106.801 82.5707 106.84C82.9355 106.879 83.1981 107.216 83.1573 107.592C83.1165 107.968 82.7878 108.242 82.423 108.203C82.0583 108.164 81.7956 107.827 81.8364 107.451Z" fill="#EFEFF7"/>
<path d="M62.2539 132.08C62.2947 131.703 62.6234 131.43 62.9882 131.469C63.3529 131.508 63.6156 131.845 63.5748 132.221C63.534 132.597 63.2053 132.871 62.8405 132.832C62.4758 132.793 62.2131 132.456 62.2539 132.08Z" fill="#EFEFF7"/>
<path d="M57.8059 135.18C57.8852 134.449 58.5433 133.919 59.2758 133.998C60.0083 134.076 60.5378 134.733 60.4585 135.464C60.3792 136.196 59.7211 136.725 58.9886 136.647C58.2561 136.568 57.7266 135.912 57.8059 135.18Z" fill="#EFEFF7"/>
<path d="M9.0476 120.84C9.12689 120.109 9.78498 119.579 10.5175 119.658C11.25 119.736 11.7795 120.393 11.7002 121.125C11.6209 121.856 10.9628 122.386 10.2303 122.307C9.49783 122.229 8.96831 121.572 9.0476 120.84Z" fill="#EFEFF7"/>
<path d="M36.1428 124.256C36.2221 123.525 36.8802 122.995 37.6127 123.074C38.3452 123.152 38.8747 123.809 38.7954 124.541C38.7161 125.272 38.058 125.802 37.3255 125.723C36.593 125.645 36.0635 124.988 36.1428 124.256Z" fill="#EFEFF7"/>
<path d="M39.0066 129.151C39.0859 128.419 39.744 127.89 40.4765 127.968C41.209 128.047 41.7385 128.703 41.6592 129.435C41.5799 130.167 40.9218 130.696 40.1893 130.618C39.4568 130.539 38.9273 129.882 39.0066 129.151Z" fill="#EFEFF7"/>
<path d="M33.1506 130.383C33.2299 129.652 33.888 129.122 34.6205 129.201C35.353 129.279 35.8825 129.936 35.8032 130.668C35.7239 131.399 35.0659 131.929 34.3334 131.85C33.6009 131.772 33.0713 131.115 33.1506 130.383Z" fill="#EFEFF7"/>
<path d="M24.552 115.7C24.6313 114.968 25.2894 114.439 26.0219 114.517C26.7544 114.596 27.2839 115.252 27.2046 115.984C27.1253 116.716 26.4672 117.245 25.7347 117.166C25.0022 117.088 24.4727 116.431 24.552 115.7Z" fill="#EFEFF7"/>
<path d="M2.1394 114.284C2.21869 113.552 2.87678 113.023 3.60928 113.101C4.34178 113.18 4.87131 113.836 4.79201 114.568C4.71272 115.299 4.05463 115.829 3.32213 115.75C2.58963 115.672 2.0601 115.015 2.1394 114.284Z" fill="#EFEFF7"/>
<path d="M10.0942 127.831C10.2775 126.14 11.7982 124.917 13.4908 125.098C15.1835 125.28 16.4071 126.797 16.2239 128.488C16.0406 130.178 14.5199 131.402 12.8273 131.22C11.1346 131.039 9.911 129.522 10.0942 127.831Z" fill="#EFEFF7"/>
<path d="M31.6152 124.147C31.7985 122.457 33.3192 121.233 35.0118 121.415C36.7045 121.596 37.9281 123.114 37.7449 124.804C37.5616 126.495 36.0409 127.718 34.3483 127.537C32.6556 127.356 31.432 125.838 31.6152 124.147Z" fill="#EFEFF7"/>
<path d="M59.9268 134.738C60.0819 133.308 61.3688 132.272 62.8013 132.426C64.2338 132.579 65.2693 133.863 65.1143 135.294C64.9592 136.725 63.6722 137.76 62.2398 137.607C60.8073 137.453 59.7717 136.169 59.9268 134.738Z" fill="#EFEFF7"/>
<path d="M74.0435 118.36C74.1986 116.929 75.4855 115.893 76.918 116.047C78.3505 116.2 79.386 117.485 79.231 118.915C79.0759 120.346 77.7889 121.381 76.3565 121.228C74.924 121.074 73.8884 119.79 74.0435 118.36Z" fill="#EFEFF7"/>
<path d="M11.168 120.399C11.3231 118.968 12.61 117.932 14.0425 118.086C15.475 118.239 16.5106 119.524 16.3555 120.954C16.2004 122.385 14.9134 123.421 13.481 123.267C12.0485 123.114 11.0129 121.829 11.168 120.399Z" fill="#EFEFF7"/>
<path d="M75.5591 130.931C75.6518 130.075 76.4215 129.456 77.2783 129.548C78.135 129.639 78.7543 130.407 78.6616 131.263C78.5688 132.119 77.7991 132.738 76.9424 132.646C76.0857 132.555 75.4664 131.786 75.5591 130.931Z" fill="#EFEFF7"/>
<path d="M64.9736 134.892C65.0664 134.036 65.8361 133.417 66.6928 133.509C67.5495 133.6 68.1689 134.368 68.0761 135.224C67.9834 136.08 67.2137 136.699 66.357 136.607C65.5002 136.515 64.8809 135.747 64.9736 134.892Z" fill="#EFEFF7"/>
<path d="M16.2153 120.552C16.3081 119.696 17.0778 119.077 17.9345 119.169C18.7912 119.26 19.4106 120.029 19.3178 120.884C19.2251 121.74 18.4554 122.359 17.5987 122.267C16.7419 122.176 16.1226 121.408 16.2153 120.552Z" fill="#EFEFF7"/>
<path d="M73.9253 131.886C74.018 131.03 74.7877 130.411 75.6445 130.503C76.5012 130.594 77.1205 131.363 77.0278 132.218C76.935 133.074 76.1653 133.693 75.3086 133.601C74.4519 133.51 73.8326 132.742 73.9253 131.886Z" fill="#EFEFF7"/>
<path d="M78.9302 122.319C79.0229 121.464 79.7926 120.844 80.6494 120.936C81.5061 121.028 82.1254 121.796 82.0327 122.652C81.9399 123.508 81.1702 124.127 80.3135 124.035C79.4568 123.943 78.8374 123.175 78.9302 122.319Z" fill="#EFEFF7"/>
<path d="M49.0093 128.642C49.102 127.786 49.8717 127.167 50.7285 127.259C51.5852 127.35 52.2045 128.118 52.1118 128.974C52.019 129.83 51.2493 130.449 50.3926 130.357C49.5359 130.265 48.9165 129.497 49.0093 128.642Z" fill="#EFEFF7"/>
<path d="M4.93019 124.319C5.02293 123.464 5.79262 122.844 6.64935 122.936C7.50608 123.028 8.12541 123.796 8.03267 124.652C7.93993 125.508 7.17023 126.127 6.3135 126.035C5.45678 125.943 4.83745 125.175 4.93019 124.319Z" fill="#EFEFF7"/>
<path d="M79.9307 113.319C80.0234 112.464 80.7931 111.844 81.6498 111.936C82.5066 112.028 83.1259 112.796 83.0332 113.652C82.9404 114.508 82.1707 115.127 81.314 115.035C80.4573 114.943 79.8379 114.175 79.9307 113.319Z" fill="#EFEFF7"/>
<path d="M91.6023 52.3866C92.1294 52.5459 93.4836 45.8928 97.9643 38.1977C100.1 34.5254 101.418 33.2513 103.417 28.8827C105.117 25.1648 105.612 22.9076 105.54 20.5823C105.467 18.357 104.817 14.4161 103.613 14.3069C101.586 14.1249 101.34 25.0601 95.7055 36.8008C93.9267 40.8142 92.6332 45.026 91.8522 49.3467C91.3341 52.1044 91.5114 52.3639 91.6023 52.3866Z" fill="#525375" stroke="#525375" stroke-linecap="round" stroke-linejoin="round"/>
<path d="M36.8979 6.10178C35.3982 5.8515 31.5403 17.0233 30.3406 28.4954C29.4318 37.3464 30.2273 44.8777 30.7271 44.905C31.227 44.9323 30.4498 38.2975 33.2309 29.2691C35.0168 23.4807 36.739 21.5967 37.4752 15.9494C38.0205 11.7446 37.9112 6.27471 36.8979 6.10178Z" fill="#525375" stroke="#525375" stroke-linecap="round" stroke-linejoin="round"/>
<path d="M16.4219 101.621C16.4491 99.8007 16.9625 76.3514 24.2288 74.9771C26.0465 74.6313 27.6733 75.8053 28.1323 76.1375C32.931 79.6141 33.0401 89.7529 28.5867 101.33" fill="white"/>
<path d="M16.4219 101.621C16.4491 99.8007 16.9625 76.3514 24.2288 74.9771C26.0465 74.6313 27.6733 75.8053 28.1323 76.1375C32.931 79.6141 33.0401 89.7529 28.5867 101.33" stroke="#525375" stroke-width="2" stroke-linecap="round" stroke-linejoin="round"/>
<path d="M33.1808 92.351L16.1216 89.748" stroke="#525375" stroke-width="2" stroke-linecap="round" stroke-linejoin="round"/>
<path d="M45.9048 79.3223L41.8604 101.912" stroke="#525375" stroke-width="2" stroke-linecap="round" stroke-linejoin="round"/>
<path d="M36.6523 77.0059L54.2932 80.7692" stroke="#525375" stroke-width="2" stroke-linecap="round" stroke-linejoin="round"/>
<path d="M57.6924 91.0496C62.9002 90.0758 67.6897 91.1861 69.9118 94.235C70.3663 94.8539 71.7294 96.7151 71.3568 99.0132C71.0792 100.412 70.322 101.669 69.2164 102.567C64.813 106.526 55.5838 102.949 55.1611 102.777L58.9239 80.4785L71.3568 82.2168" fill="white"/>
<path d="M57.6924 91.0496C62.9002 90.0758 67.6897 91.1861 69.9118 94.235C70.3663 94.8539 71.7294 96.7151 71.3568 99.0132C71.0792 100.412 70.322 101.669 69.2164 102.567C64.813 106.526 55.5838 102.949 55.1611 102.777L58.9239 80.4785L71.3568 82.2168" stroke="#525375" stroke-width="2" stroke-linecap="round" stroke-linejoin="round"/>
<path d="M77.832 124.159C77.832 124.159 74.8943 135.831 56.1147 134.079C37.3351 132.327 29.2089 125.177 17.7622 123.77" stroke="#525375" stroke-linecap="round" stroke-linejoin="round"/>
<path d="M85.1344 65.793C85.1344 65.793 82.769 98.1011 78.46 105.839" stroke="#525375" stroke-linecap="round" stroke-linejoin="round"/>
<path d="M34.5529 5.31498C32.1773 4.72159 28.8641 4.32451 25.6905 5.70301C19.0647 8.58781 17.2185 17.4294 14.8661 32.0406C13.2189 42.2925 11.3908 54.9545 9.76221 69.6067" stroke="#525375" stroke-linecap="round" stroke-linejoin="round"/>
<path d="M74.7621 47.7695C74.7621 47.7695 53.8796 55.0539 44.2505 53.1833" stroke="#525375" stroke-linecap="round" stroke-linejoin="round"/>
<path d="M61.4134 55.3027C61.4134 55.3027 36.7067 63.5077 33.7622 55.8486" stroke="#525375" stroke-linecap="round" stroke-linejoin="round"/>
</svg>
